<svg width="17" height="16" viewBox="0 0 17 16" fill="none" xmlns="http://www.w3.org/2000/svg">
<path d="M11.6726 0.000100002H5.24953C2.63907 0.000100002 0.515381 2.12379 0.515381 4.73426V11.1574C0.515381 13.7678 2.63907 15.8915 5.24953 15.8915H11.6726C14.2831 15.8915 16.4068 13.7678 16.4068 11.1574V4.73416C16.4068 2.12369 14.283 0.000100002 11.6726 0.000100002ZM14.8081 11.1574C14.8081 12.889 13.4043 14.2929 11.6726 14.2929H5.24953C3.51786 14.2929 2.11405 12.889 2.11405 11.1574V4.73416C2.11405 3.00249 3.51786 1.59868 5.24953 1.59868H11.6726C13.4043 1.59868 14.8081 3.00249 14.8081 4.73416V11.1574Z" fill="#13151D"/>
<path d="M8.46119 3.83594C6.19487 3.83594 4.35107 5.67974 4.35107 7.94596C4.35107 10.2122 6.19487 12.0561 8.46119 12.0561C10.7275 12.0561 12.5713 10.2123 12.5713 7.94596C12.5713 5.67964 10.7275 3.83594 8.46119 3.83594ZM8.46119 10.4574C7.07417 10.4574 5.94974 9.33298 5.94974 7.94596C5.94974 6.55893 7.07417 5.43452 8.46119 5.43452C9.84821 5.43452 10.9726 6.55893 10.9726 7.94596C10.9726 9.33298 9.84821 10.4574 8.46119 10.4574Z" fill="#13151D"/>
<path d="M12.5791 4.85159C13.123 4.85159 13.564 4.41065 13.564 3.86672C13.564 3.32279 13.123 2.88184 12.5791 2.88184C12.0352 2.88184 11.5942 3.32279 11.5942 3.86672C11.5942 4.41065 12.0352 4.85159 12.5791 4.85159Z" fill="#13151D"/>
</svg>
