<svg width="18" height="16" viewBox="0 0 18 16" fill="none" xmlns="http://www.w3.org/2000/svg">
<path d="M17.5154 9.74265V15.8914H13.9523V10.1549C13.9523 8.71407 13.4375 7.73059 12.1479 7.73059C11.163 7.73059 10.5778 8.39277 10.32 9.03418C10.2262 9.26332 10.2018 9.58184 10.2018 9.90315V15.8914H6.63801C6.63801 15.8914 6.68578 6.17492 6.63801 5.16899H10.2018V6.68831C10.1946 6.70013 10.1847 6.71185 10.1784 6.72347H10.2018V6.68831C10.6753 5.95939 11.5202 4.91721 13.4131 4.91721C15.7579 4.91721 17.5154 6.44934 17.5154 9.74265ZM2.90988 0C1.69071 0 0.893555 0.800333 0.893555 1.85245C0.893555 2.88191 1.66806 3.70559 2.863 3.70559H2.88654C4.12925 3.70559 4.90187 2.88191 4.90187 1.85245C4.87853 0.800333 4.12925 0 2.90988 0ZM1.1055 15.8914H4.66767V5.16899H1.1055V15.8914Z" fill="#13151D"/>
</svg>
