<svg width="20" height="14" viewBox="0 0 20 14" fill="none" xmlns="http://www.w3.org/2000/svg">
<path d="M18.7528 3.16707C18.7528 3.16707 18.5922 1.88157 18.001 1.29167C17.3027 0.541511 16.4973 0.541531 16.1214 0.48811C13.49 0.274428 9.51434 0.274414 9.51434 0.274414C9.51434 0.274414 5.54099 0.274428 2.90728 0.48811C2.53136 0.541531 1.72484 0.541511 1.02768 1.29167C0.436465 1.88157 0.275834 3.16707 0.275834 3.16707C0.140439 4.18 0.0685453 5.2004 0.0605469 6.22227V7.66917C0.0714621 8.69055 0.143344 9.71036 0.275834 10.7232C0.275834 10.7232 0.436465 12.0087 1.02768 12.5986C1.72484 13.3488 2.69197 13.3488 3.12142 13.4022C4.6251 13.5636 9.56674 13.617 9.56674 13.617C9.56674 13.617 13.5401 13.617 16.1738 13.4022C16.5497 13.3488 17.3562 13.3488 18.0545 12.5986C18.6446 12.0087 18.8064 10.7232 18.8064 10.7232C18.941 9.7106 19.0125 8.69063 19.0205 7.66917V6.22227C18.9681 4.72196 18.7528 3.16707 18.7528 3.16707ZM7.58235 9.38315V4.07863L12.6846 6.75761L7.58235 9.38315Z" fill="#231F20"/>
</svg>
