<svg width="350" height="40" viewBox="0 0 350 40" fill="none" xmlns="http://www.w3.org/2000/svg">
<g clip-path="url(#clip0_4036_12489)">
<path d="M38.25 0H1.75C0.783502 0 0 0.783502 0 1.75V38.25C0 39.2165 0.783502 40 1.75 40H38.25C39.2165 40 40 39.2165 40 38.25V1.75C40 0.783502 39.2165 0 38.25 0Z" fill="#C30044"/>
<path d="M51.55 29.9C50.2 29.3 49.15 28.45 48.35 27.4C47.55 26.35 47.15 25.2 47.05 23.9H52.35C52.45 24.7 52.85 25.35 53.55 25.9C54.25 26.4 55.1 26.7 56.1 26.7C57.1 26.7 57.9001 26.5 58.4501 26.1C59.0001 25.7 59.3 25.2 59.3 24.55C59.3 23.9 58.95 23.35 58.25 23.05C57.55 22.7 56.4501 22.35 54.9501 21.95C53.4001 21.55 52.1501 21.2 51.1501 20.8C50.1501 20.4 49.3 19.8 48.6 18.95C47.9 18.15 47.55 17 47.55 15.6C47.55 14.2 47.9 13.4 48.55 12.45C49.2 11.5 50.1501 10.75 51.4001 10.2C52.6501 9.64998 54.1 9.34998 55.75 9.34998C58.2 9.34998 60.2001 9.94998 61.7001 11.2C63.1501 12.45 64.0001 14.1 64.1501 16.2H59.1C59.1 15.4 58.7 14.7 58.05 14.25C57.45 13.75 56.6 13.5 55.6 13.5C54.6 13.5 53.9001 13.7 53.4001 14C52.9001 14.35 52.6501 14.85 52.6501 15.45C52.6501 16.05 53.0001 16.7 53.7001 17.05C54.4001 17.4 55.5001 17.8 56.9501 18.15C58.4501 18.55 59.7001 18.9 60.6501 19.3C61.6501 19.7 62.4501 20.3 63.2001 21.15C63.9001 22 64.3001 23.1 64.3001 24.45C64.3001 25.8 63.95 26.75 63.3 27.7C62.65 28.65 61.7001 29.4 60.4501 29.95C59.2001 30.5 57.75 30.75 56.1 30.75C54.45 30.75 52.9 30.45 51.55 29.85V29.9Z" fill="white"/>
<path d="M115.95 14.4C116.8 12.8 117.9 11.55 119.35 10.65C120.8 9.79997 122.4 9.34998 124.15 9.34998C125.9 9.34998 127.05 9.64998 128.2 10.3C129.35 10.95 130.3 11.7 131 12.65V9.69998H136.3V30.45H131V27.4C130.3 28.4 129.4 29.2 128.2 29.8C127 30.45 125.65 30.75 124.1 30.75C122.55 30.75 120.75 30.3 119.3 29.4C117.85 28.5 116.7 27.25 115.9 25.6C115.05 23.95 114.65 22.1 114.65 19.95C114.65 17.8 115.05 16 115.9 14.35H115.95V14.4ZM130.3 16.8C129.8 15.9 129.1 15.2 128.3 14.7C127.45 14.2 126.55 13.95 125.55 13.95C124.55 13.95 123.65 14.2 122.85 14.65C122.05 15.15 121.35 15.8 120.85 16.75C120.35 17.65 120.1 18.75 120.1 20C120.1 21.25 120.35 22.35 120.85 23.3C121.35 24.25 122.05 24.95 122.9 25.45C123.75 25.95 124.65 26.2 125.6 26.2C126.55 26.2 127.5 25.95 128.35 25.45C129.2 24.95 129.85 24.25 130.35 23.35C130.85 22.45 131.1 21.35 131.1 20.05C131.1 18.75 130.85 17.7 130.35 16.75H130.3V16.8Z" fill="white"/>
<path d="M148.4 10.35C149.5 9.74999 150.75 9.39999 152.15 9.39999V14.9H150.75C149.1 14.9 147.85 15.3 147 16.05C146.15 16.85 145.75 18.2 145.75 20.1V30.45H140.5V9.69999H145.75V12.9C146.4 11.8 147.3 10.95 148.4 10.3V10.35Z" fill="white"/>
<path d="M173.9 21.65H158.7C158.8 23.15 159.35 24.35 160.25 25.15C161.15 26 162.3 26.4 163.65 26.4C165.6 26.4 167 25.55 167.8 23.9H173.45C172.85 25.9 171.7 27.55 170 28.85C168.3 30.15 166.2 30.8 163.75 30.8C161.3 30.8 159.95 30.35 158.35 29.45C156.75 28.55 155.5 27.3 154.65 25.7C153.75 24.1 153.3 22.2 153.3 20.1C153.3 18 153.75 16.05 154.6 14.45C155.45 12.85 156.7 11.6 158.25 10.7C159.85 9.84999 161.65 9.39999 163.7 9.39999C165.75 9.39999 167.45 9.84999 169 10.65C170.55 11.5 171.8 12.7 172.65 14.25C173.5 15.8 173.95 17.6 173.95 19.65C173.95 21.7 173.9 21.1 173.8 21.65H173.9ZM168.6 18.15C168.6 16.8 168.1 15.7 167.15 14.9C166.2 14.1 165.05 13.7 163.65 13.7C162.25 13.7 161.25 14.1 160.35 14.9C159.45 15.7 158.9 16.8 158.7 18.2H168.6V18.15Z" fill="white"/>
<path d="M176.85 14.4C177.7 12.8 178.85 11.55 180.3 10.65C181.75 9.79999 183.35 9.34999 185.15 9.34999C186.95 9.34999 187.8 9.64999 189 10.25C190.2 10.85 191.2 11.6 191.95 12.6V1.79999H197.25V30.5H191.95V27.45C191.3 28.5 190.4 29.3 189.2 29.95C188 30.55 186.65 30.9 185.1 30.9C183.55 30.9 181.75 30.45 180.3 29.55C178.85 28.65 177.7 27.4 176.85 25.75C176 24.1 175.6 22.25 175.6 20.1C175.6 17.95 176 16.15 176.85 14.5V14.4ZM191.2 16.8C190.7 15.9 190 15.2 189.2 14.7C188.35 14.2 187.45 13.95 186.45 13.95C185.45 13.95 184.55 14.2 183.75 14.65C182.95 15.15 182.25 15.8 181.75 16.75C181.25 17.65 181 18.75 181 20C181 21.25 181.25 22.35 181.75 23.3C182.25 24.25 182.95 24.95 183.8 25.45C184.65 25.95 185.55 26.2 186.5 26.2C187.45 26.2 188.4 25.95 189.25 25.45C190.1 24.95 190.75 24.25 191.25 23.35C191.75 22.45 192 21.35 192 20.05C192 18.75 191.75 17.7 191.25 16.75H191.2V16.8Z" fill="white"/>
<path d="M66.3501 20.15C66.3501 18 66.7501 16.15 67.6001 14.5C68.4501 12.85 69.6001 11.6 71.0501 10.7C72.5001 9.79998 74.1001 9.34998 75.8501 9.34998C77.6001 9.34998 78.7501 9.64998 79.9501 10.3C81.1001 10.9 82.0501 11.75 82.7001 12.75V9.69998H88.0001V38.4H82.7001V27.6C81.9501 28.6 81.0001 29.35 79.7501 29.95C78.5001 30.55 77.2501 30.85 75.9001 30.85C74.5501 30.85 72.5001 30.4 71.0501 29.55C69.6001 28.65 68.4501 27.4 67.6001 25.8C66.7501 24.15 66.3501 22.3 66.3501 20.2V20.15ZM82.7001 20.1C82.7001 18.85 82.4501 17.75 81.9501 16.8C81.4501 15.9 80.7501 15.2 79.9501 14.7C79.1001 14.2 78.2001 13.95 77.2001 13.95C76.2001 13.95 75.3501 14.2 74.5001 14.7C73.6501 15.2 73.0001 15.9 72.4501 16.85C71.9501 17.8 71.7001 18.9 71.7001 20.15C71.7001 21.4 71.9501 22.5 72.4501 23.4C72.9501 24.3 73.6501 25 74.4501 25.5C75.2501 25.95 76.1501 26.2 77.1501 26.2C78.1501 26.2 79.0501 25.95 79.9001 25.45C80.7501 24.95 81.4001 24.25 81.9001 23.35C82.4001 22.45 82.6501 21.35 82.6501 20.05H82.7001V20.1Z" fill="white"/>
<path d="M210.1 12.75H205.8V30.5H202.4V12.75H199.75V9.94998H202.4V8.49998C202.4 6.19998 203 4.49998 204.2 3.44998C205.4 2.39998 207.3 1.84998 209.9 1.84998V4.69998C208.4 4.69998 207.35 4.99998 206.75 5.59998C206.15 6.19998 205.85 7.14998 205.85 8.49998V9.94998H210.15V12.75H210.1Z" fill="white"/>
<path d="M237.5 11.8C239.05 13.3 239.8 15.5 239.8 18.35V30.45H236.4V18.85C236.4 16.8 235.9 15.25 234.85 14.15C233.8 13.05 232.4 12.5 230.65 12.5C228.9 12.5 227.4 13.05 226.35 14.2C225.3 15.3 224.75 16.95 224.75 19.1V30.45H221.35V9.89999H224.75V12.85C225.4 11.8 226.35 11 227.5 10.4C228.65 9.84999 229.95 9.54999 231.35 9.54999C233.85 9.54999 235.85 10.3 237.45 11.8H237.5Z" fill="white"/>
<path d="M244.45 14.6C245.3 13 246.45 11.8 247.95 10.9C249.45 10.05 251.1 9.59998 252.9 9.59998C254.7 9.59998 256.25 9.99998 257.6 10.75C258.9 11.55 259.9 12.5 260.55 13.65V9.89997H264V30.45H260.55V26.65C259.85 27.85 258.85 28.85 257.55 29.65C256.2 30.45 254.65 30.85 252.9 30.85C251.15 30.85 249.4 30.4 247.95 29.5C246.45 28.6 245.3 27.35 244.45 25.7C243.6 24.1 243.2 22.25 243.2 20.15C243.2 18.05 243.6 16.2 244.45 14.6ZM259.65 16.1C259 14.95 258.2 14.05 257.1 13.45C256.05 12.85 254.85 12.55 253.6 12.55C252.35 12.55 251.15 12.85 250.1 13.45C249.05 14.05 248.2 14.95 247.6 16.05C246.95 17.2 246.65 18.55 246.65 20.1C246.65 21.65 246.95 23.05 247.6 24.2C248.2 25.35 249.05 26.25 250.1 26.85C251.15 27.45 252.3 27.75 253.6 27.75C254.9 27.75 256.05 27.45 257.1 26.85C258.15 26.25 259 25.35 259.65 24.2C260.25 23.05 260.6 21.7 260.6 20.15C260.6 18.6 260.3 17.25 259.65 16.1Z" fill="white"/>
<path d="M284.95 11.8C286.5 13.3 287.25 15.5 287.25 18.35V30.45H283.85V18.85C283.85 16.8 283.35 15.25 282.3 14.15C281.25 13.05 279.85 12.5 278.1 12.5C276.35 12.5 274.85 13.05 273.8 14.2C272.75 15.3 272.2 16.95 272.2 19.1V30.45H268.8V9.89999H272.2V12.85C272.9 11.8 273.8 11 274.95 10.4C276.1 9.84999 277.4 9.54999 278.8 9.54999C281.3 9.54999 283.3 10.3 284.9 11.8H284.95Z" fill="white"/>
<path d="M291.95 14.6C292.8 13 294 11.8 295.5 10.9C297 10.05 298.75 9.59998 300.7 9.59998C302.65 9.59998 305.3 10.2 306.95 11.45C308.6 12.7 309.65 14.4 310.2 16.55H306.5C306.15 15.3 305.45 14.3 304.45 13.6C303.45 12.9 302.2 12.5 300.7 12.5C299.2 12.5 297.2 13.15 295.95 14.5C294.75 15.85 294.15 17.75 294.15 20.2C294.15 22.65 294.75 24.6 295.95 25.95C297.15 27.3 298.75 27.95 300.7 27.95C302.65 27.95 303.45 27.6 304.45 26.9C305.45 26.2 306.15 25.2 306.5 23.9H310.2C309.65 26 308.55 27.7 306.9 28.95C305.25 30.2 303.2 30.85 300.7 30.85C298.2 30.85 297 30.4 295.5 29.55C294 28.7 292.8 27.45 291.95 25.85C291.1 24.25 290.7 22.4 290.7 20.25C290.7 18.1 291.1 16.25 291.95 14.7V14.6Z" fill="white"/>
<path d="M322.05 14.6C322.9 13 324.05 11.8 325.55 10.9C327.05 10.05 328.7 9.59998 330.5 9.59998C332.3 9.59998 333.85 9.99998 335.2 10.75C336.5 11.55 337.5 12.5 338.15 13.65V9.89997H341.6V30.45H338.15V26.65C337.45 27.85 336.45 28.85 335.15 29.65C333.8 30.45 332.25 30.85 330.5 30.85C328.75 30.85 327 30.4 325.55 29.5C324.05 28.6 322.9 27.35 322.05 25.7C321.2 24.1 320.8 22.25 320.8 20.15C320.8 18.05 321.2 16.2 322.05 14.6ZM337.25 16.1C336.6 14.95 335.8 14.05 334.7 13.45C333.65 12.85 332.45 12.55 331.2 12.55C329.95 12.55 328.75 12.85 327.7 13.45C326.65 14.05 325.8 14.95 325.2 16.05C324.55 17.2 324.25 18.55 324.25 20.1C324.25 21.65 324.55 23.05 325.2 24.2C325.8 25.35 326.65 26.25 327.7 26.85C328.75 27.45 329.9 27.75 331.2 27.75C332.5 27.75 333.65 27.45 334.7 26.85C335.75 26.25 336.6 25.35 337.25 24.2C337.85 23.05 338.2 21.7 338.2 20.15C338.2 18.6 337.9 17.25 337.25 16.1Z" fill="white"/>
<path d="M349.901 1.79999V30.5H346.5V1.79999H349.901Z" fill="white"/>
<path d="M213.2 5.89998C212.75 5.44998 212.5 4.89998 212.5 4.24998C212.5 3.59998 212.75 3.04998 213.2 2.59998C213.65 2.14998 214.2 1.94998 214.85 1.94998C215.5 1.94998 216 2.19998 216.45 2.59998C216.9 3.04998 217.1 3.59998 217.1 4.24998C217.1 4.89998 216.9 5.44998 216.45 5.89998C216 6.34998 215.5 6.59998 214.85 6.59998C214.2 6.59998 213.65 6.34998 213.2 5.89998ZM216.5 9.89998V30.45H213.1V9.89998H216.5Z" fill="white"/>
<path d="M106.5 9.69999V22C106.4 23.25 106 24.2 105.3 24.95C104.45 25.85 103.35 26.3 101.9 26.3C100.45 26.3 99.35 25.85 98.5 24.95C97.85 24.25 97.45 23.25 97.3 22V9.69999H92V20.5C92 22.55 92.45 24.35 93.3 25.9C94.15 27.45 95.35 28.65 96.85 29.5C98.35 30.35 100.05 30.75 101.9 30.75C103.8 30.75 105.45 30.3 106.95 29.45C108.45 28.6 109.65 27.4 110.5 25.85C111.35 24.3 111.8 22.5 111.8 20.45V9.64999H106.5V9.69999Z" fill="white"/>
<path d="M313.9 5.89998C313.45 5.44998 313.2 4.89998 313.2 4.24998C313.2 3.59998 313.45 3.04998 313.9 2.59998C314.35 2.14998 314.9 1.94998 315.55 1.94998C316.2 1.94998 316.7 2.19998 317.15 2.59998C317.6 3.04998 317.8 3.59998 317.8 4.24998C317.8 4.89998 317.6 5.44998 317.15 5.89998C316.7 6.34998 316.2 6.59998 315.55 6.59998C314.9 6.59998 314.35 6.34998 313.9 5.89998ZM317.2 9.89998V30.45H313.8V9.89998H317.2Z" fill="white"/>
<path d="M4.55 25C1.05 22.25 2.15 18.55 2.3 18.1C3.15 15.85 4.9 13.7 8.4 13.3C16.2 12.4 18.7 17.05 18.7 17.05L23.65 12.55C23.65 12.55 19.55 6.45 9.05 7.4C4.05 7.8 1.4 9.25 0 10.65V22.5V29.95C6.05 34.65 16.3 34 17.5 40H24.05C23.65 27.85 10.3 29.25 4.55 25Z" fill="white"/>
</g>
<defs>
<clipPath id="clip0_4036_12489">
<rect width="349.9" height="40" fill="white"/>
</clipPath>
</defs>
</svg>