<svg width="513" height="59" viewBox="0 0 513 59" fill="none" xmlns="http://www.w3.org/2000/svg">
<g clip-path="url(#clip0_4036_12180)">
<path d="M0 44.2911V56.0677C0 57.6858 1.31064 58.9979 2.92823 59.0001H25.6527C23.8786 50.2145 8.90287 51.2131 0 44.2911Z" fill="#C30044"/>
<path d="M55.7158 0.352051H2.93233C1.31284 0.352051 0 1.66496 0 3.28446V16.0884C3.58941 13.0992 8.74649 11.0152 15.7161 11.0152C22.877 11.0152 29.7568 12.4958 34.6697 18.5331L27.4332 25.1319C25.1931 21.6994 20.8341 19.3761 15.7161 19.3761C5.87449 19.3761 2.89803 25.3214 2.89803 29.4069C2.89803 45.8462 34.5598 36.3372 35.2885 59.0002H55.7202C57.3377 58.9978 58.6482 57.6859 58.6482 56.0679V3.28446C58.6482 1.66496 57.3353 0.352051 55.7158 0.352051Z" fill="#C30044"/>
<path d="M75.6177 44.1801C73.6383 43.2823 72.0712 42.0632 70.9166 40.5239C69.762 38.9843 69.1297 37.2799 69.0198 35.4104H76.7723C76.9184 36.584 77.4958 37.5547 78.5043 38.3246C79.5119 39.0942 80.7672 39.4792 82.2706 39.4792C83.7363 39.4792 84.8823 39.1862 85.707 38.5995C86.5318 38.0135 86.9441 37.2618 86.9441 36.3451C86.9441 35.3554 86.4398 34.6132 85.4321 34.1183C84.4236 33.6235 82.8204 33.0831 80.6211 32.4963C78.3479 31.9464 76.488 31.3787 75.0404 30.7918C73.5919 30.206 72.3462 29.3073 71.3016 28.0977C70.257 26.8881 69.7345 25.2576 69.7345 23.2043C69.7345 21.5187 70.2199 19.9791 71.1915 18.5858C72.1623 17.1931 73.5558 16.0935 75.3702 15.2868C77.1847 14.4809 79.3196 14.0771 81.7757 14.0771C85.4045 14.0771 88.2997 14.9844 90.463 16.7989C92.6253 18.6132 93.817 21.06 94.0369 24.139H86.6692C86.5593 22.9295 86.0549 21.9673 85.1572 21.2525C84.2586 20.5376 83.0585 20.1804 81.5557 20.1804C80.1624 20.1804 79.0901 20.4372 78.3393 20.95C77.5875 21.4638 77.2122 22.1785 77.2122 23.0943C77.2122 24.1209 77.725 24.9002 78.7516 25.4311C79.7774 25.9628 81.3719 26.5033 83.5352 27.0531C85.7345 27.603 87.5489 28.1715 88.9783 28.7576C90.408 29.3443 91.6451 30.2515 92.6897 31.4792C93.7343 32.7077 94.2747 34.3298 94.3117 36.3451C94.3117 38.1046 93.8255 39.6811 92.8547 41.0738C91.883 42.4671 90.4904 43.5573 88.676 44.3452C86.8615 45.133 84.7447 45.5272 82.3254 45.5272C79.8324 45.5272 77.597 45.0778 75.6177 44.1801Z" fill="black"/>
<path d="M169.995 21.4998C171.222 19.1176 172.89 17.2852 174.998 16.0015C177.105 14.719 179.46 14.0771 182.063 14.0771C184.336 14.0771 186.325 14.5361 188.029 15.4517C189.734 16.3685 191.099 17.523 192.125 18.9157V14.5721H199.878V45.0325H192.125V40.5789C191.136 42.0084 189.77 43.1905 188.029 44.1252C186.288 45.0599 184.281 45.5272 182.008 45.5272C179.442 45.5272 177.105 44.8674 174.998 43.548C172.89 42.2284 171.222 40.3684 169.995 37.9673C168.766 35.5669 168.153 32.8083 168.153 29.6923C168.153 26.6133 168.766 23.883 169.995 21.4998ZM191.026 24.9914C190.292 23.6537 189.302 22.627 188.056 21.9122C186.81 21.1975 185.472 20.8401 184.043 20.8401C182.613 20.8401 181.294 21.1889 180.084 21.8848C178.874 22.5815 177.893 23.5987 177.142 24.9362C176.391 26.2748 176.015 27.8598 176.015 29.6922C176.015 31.5246 176.391 33.1286 177.142 34.5032C177.893 35.8778 178.883 36.932 180.111 37.6647C181.339 38.3983 182.649 38.7644 184.043 38.7644C185.472 38.7644 186.81 38.407 188.056 37.6923C189.302 36.9774 190.292 35.9517 191.025 34.6132C191.758 33.2756 192.125 31.6715 192.125 29.8023C192.125 27.933 191.758 26.3298 191.026 24.9914Z" fill="black"/>
<path d="M217.609 15.5069C219.204 14.591 221.027 14.1323 223.08 14.1323V22.2147H221.046C218.627 22.2147 216.803 22.7835 215.575 23.9192C214.347 25.0558 213.733 27.0352 213.733 29.8574V45.0326H206.036V14.572H213.733V19.3005C214.723 17.6881 216.015 16.4234 217.609 15.5069Z" fill="black"/>
<path d="M254.97 32.1117H232.702C232.885 34.311 233.654 36.0344 235.011 37.2801C236.367 38.5266 238.035 39.1495 240.014 39.1495C242.873 39.1495 244.908 37.9217 246.118 35.4656H254.42C253.54 38.3985 251.854 40.8083 249.362 42.6958C246.868 44.584 243.808 45.5272 240.179 45.5272C237.246 45.5272 234.617 44.8772 232.289 43.5754C229.961 42.2747 228.147 40.4329 226.846 38.0497C225.545 35.6673 224.894 32.9182 224.894 29.8023C224.894 26.6501 225.535 23.8831 226.819 21.4998C228.101 19.1176 229.898 17.2852 232.207 16.0015C234.516 14.719 237.173 14.0771 240.179 14.0771C243.075 14.0771 245.668 14.7009 247.959 15.9466C250.25 17.1931 252.028 18.962 253.293 21.2524C254.557 23.5437 255.19 26.1733 255.19 29.1424C255.19 30.2421 255.116 31.232 254.97 32.1117ZM247.217 26.9432C247.18 24.9639 246.465 23.3788 245.073 22.1872C243.679 20.9967 241.975 20.4003 239.959 20.4003C238.053 20.4003 236.449 20.9777 235.148 22.1323C233.847 23.2869 233.05 24.8908 232.757 26.9432H247.217Z" fill="black"/>
<path d="M259.285 21.4998C260.513 19.1176 262.19 17.2852 264.316 16.0015C266.441 14.719 268.806 14.0771 271.409 14.0771C273.388 14.0771 275.275 14.5085 277.072 15.3694C278.868 16.231 280.297 17.3761 281.361 18.8058V2.97607H289.168V45.0325H281.361V40.5239C280.407 42.0274 279.07 43.2369 277.347 44.1528C275.623 45.0687 273.626 45.5272 271.354 45.5272C268.788 45.5272 266.441 44.8675 264.316 43.5481C262.19 42.2285 260.513 40.3685 259.285 37.9673C258.057 35.567 257.443 32.8084 257.443 29.6924C257.443 26.6133 258.057 23.883 259.285 21.4998ZM280.316 24.9914C279.582 23.6537 278.593 22.627 277.347 21.9122C276.1 21.1975 274.763 20.8401 273.333 20.8401C271.904 20.8401 270.584 21.1889 269.375 21.8848C268.165 22.5815 267.184 23.5987 266.433 24.9362C265.681 26.2748 265.306 27.8598 265.306 29.6922C265.306 31.5246 265.681 33.1286 266.433 34.5032C267.184 35.8778 268.174 36.932 269.402 37.6647C270.63 38.3983 271.94 38.7644 273.333 38.7644C274.763 38.7644 276.1 38.407 277.347 37.6923C278.593 36.9774 279.582 35.9517 280.316 34.6132C281.049 33.2755 281.416 31.6715 281.416 29.8023C281.416 27.933 281.049 26.3298 280.316 24.9914Z" fill="black"/>
<path d="M97.2808 29.9169C97.2808 26.8008 97.8939 24.0423 99.1225 21.6419C100.35 19.2407 102.027 17.3808 104.154 16.0612C106.279 14.7417 108.625 14.082 111.191 14.082C113.463 14.082 115.461 14.5406 117.184 15.4565C118.907 16.3723 120.245 17.5819 121.198 19.0853V14.5768H129.006V56.6332H121.198V40.8035C120.134 42.2332 118.705 43.3783 116.909 44.2399C115.113 45.1008 113.226 45.5321 111.246 45.5321C108.643 45.5321 106.279 44.8903 104.154 43.6077C102.027 42.3241 100.35 40.4917 99.1225 38.1095C97.8939 35.7261 97.2808 32.9958 97.2808 29.9169ZM121.253 29.8068C121.253 27.9375 120.886 26.3335 120.153 24.9958C119.42 23.6574 118.43 22.6316 117.184 21.9168C115.938 21.2021 114.6 20.8447 113.171 20.8447C111.777 20.8447 110.467 21.2107 109.239 21.9443C108.011 22.6771 107.021 23.7313 106.27 25.1058C105.518 26.4804 105.143 28.0835 105.143 29.9168C105.143 31.7501 105.518 33.3342 106.27 34.6728C107.021 36.0104 108.002 37.0275 109.212 37.7243C110.421 38.4201 111.741 38.769 113.171 38.769C114.6 38.769 115.938 38.4116 117.184 37.6969C118.43 36.982 119.42 35.9554 120.153 34.6177C120.886 33.2793 121.253 31.6762 121.253 29.8068Z" fill="black"/>
<path d="M308.027 19.0258H301.704V45.0326H296.7V19.0258H292.797V14.9021H296.7V12.7579C296.7 9.38591 297.571 6.921 299.312 5.36264C301.053 3.80517 303.848 3.02588 307.697 3.02588V7.20456C305.498 7.20456 303.949 7.63592 303.051 8.4968C302.153 9.35842 301.704 10.7784 301.704 12.758V14.9021H308.027V19.0258Z" fill="black"/>
<path d="M348.219 17.6786C350.491 19.8969 351.627 23.0944 351.627 27.273V45.0324H346.679V27.9878C346.679 24.9828 345.927 22.682 344.425 21.0874C342.921 19.4931 340.869 18.6957 338.267 18.6957C335.627 18.6957 333.529 19.5204 331.971 21.1699C330.413 22.8194 329.634 25.2206 329.634 28.3726V45.0324H324.631V14.9019H329.634V19.1906C330.624 17.651 331.971 16.4605 333.675 15.6167C335.38 14.7739 337.258 14.3521 339.311 14.3521C342.976 14.3521 345.945 15.4612 348.219 17.6786Z" fill="black"/>
<path d="M358.445 21.7474C359.691 19.4201 361.405 17.6151 363.586 16.3316C365.767 15.0488 368.195 14.4072 370.871 14.4072C373.511 14.4072 375.801 14.9758 377.744 16.1117C379.687 17.2482 381.134 18.6777 382.088 20.4003V14.902H387.146V45.0326H382.088V39.4244C381.098 41.1838 379.622 42.6409 377.662 43.7955C375.7 44.9502 373.419 45.5273 370.816 45.5273C368.14 45.5273 365.721 44.8675 363.559 43.5481C361.395 42.2285 359.691 40.378 358.445 37.9947C357.199 35.6125 356.576 32.9002 356.576 29.8574C356.576 26.7783 357.199 24.0756 358.445 21.7474ZM380.713 23.9741C379.796 22.2887 378.559 20.9966 377.002 20.0979C375.444 19.2002 373.73 18.7508 371.861 18.7508C369.992 18.7508 368.287 19.1907 366.748 20.0704C365.208 20.9501 363.98 22.2337 363.064 23.9192C362.147 25.6057 361.689 27.585 361.689 29.8574C361.689 32.1665 362.147 34.1735 363.064 35.8779C363.98 37.5823 365.208 38.8838 366.748 39.7816C368.287 40.6803 369.992 41.1288 371.861 41.1288C373.731 41.1288 375.444 40.6803 377.002 39.7816C378.559 38.8839 379.796 37.5823 380.713 35.8779C381.629 34.1734 382.088 32.1855 382.088 29.9123C382.088 27.639 381.629 25.6606 380.713 23.9741Z" fill="black"/>
<path d="M417.826 17.6786C420.099 19.8969 421.235 23.0944 421.235 27.273V45.0324H416.287V27.9878C416.287 24.9828 415.535 22.682 414.032 21.0874C412.529 19.4931 410.477 18.6957 407.874 18.6957C405.235 18.6957 403.136 19.5204 401.579 21.1699C400.02 22.8194 399.242 25.2206 399.242 28.3726V45.0324H394.239V14.9019H399.242V19.1906C400.232 17.651 401.579 16.4605 403.283 15.6167C404.988 14.7739 406.866 14.3521 408.919 14.3521C412.584 14.3521 415.553 15.4612 417.826 17.6786Z" fill="black"/>
<path d="M428.053 21.7474C429.299 19.4201 431.031 17.6151 433.249 16.3316C435.466 15.0488 438.005 14.4072 440.864 14.4072C444.566 14.4072 447.617 15.3057 450.018 17.1012C452.419 18.8976 454.005 21.3899 454.775 24.579H449.386C448.873 22.7464 447.874 21.2988 446.39 20.2354C444.905 19.1726 443.063 18.6409 440.864 18.6409C438.005 18.6409 435.696 19.6221 433.936 21.5825C432.177 23.5439 431.297 26.3204 431.297 29.9123C431.297 33.5412 432.177 36.3452 433.936 38.3248C435.696 40.3041 438.005 41.2937 440.864 41.2937C443.063 41.2937 444.896 40.7809 446.362 39.7542C447.828 38.7285 448.836 37.2619 449.386 35.3556H454.775C453.968 38.4346 452.355 40.9002 449.936 42.7507C447.517 44.6021 444.493 45.5273 440.864 45.5273C438.005 45.5273 435.466 44.8865 433.249 43.603C431.031 42.3202 429.299 40.506 428.053 38.1597C426.806 35.8144 426.184 33.0653 426.184 29.9123C426.184 26.7972 426.806 24.0756 428.053 21.7474Z" fill="black"/>
<path d="M472.203 21.7474C473.449 19.4201 475.163 17.6151 477.344 16.3316C479.524 15.0488 481.953 14.4072 484.629 14.4072C487.268 14.4072 489.559 14.9758 491.502 16.1117C493.444 17.2482 494.892 18.6777 495.846 20.4003V14.902H500.904V45.0326H495.846V39.4244C494.856 41.1838 493.38 42.6409 491.419 43.7955C489.458 44.9502 487.176 45.5273 484.574 45.5273C481.898 45.5273 479.479 44.8675 477.316 43.5481C475.153 42.2285 473.449 40.378 472.203 37.9947C470.957 35.6125 470.334 32.9002 470.334 29.8574C470.334 26.7783 470.957 24.0756 472.203 21.7474ZM494.471 23.9741C493.554 22.2887 492.317 20.9966 490.76 20.0979C489.201 19.2002 487.488 18.7508 485.619 18.7508C483.75 18.7508 482.045 19.1907 480.506 20.0704C478.966 20.95 477.737 22.2337 476.822 23.9192C475.905 25.6057 475.447 27.585 475.447 29.8574C475.447 32.1665 475.905 34.1735 476.822 35.8779C477.737 37.5823 478.966 38.8838 480.506 39.7816C482.045 40.6803 483.749 41.1288 485.619 41.1288C487.489 41.1288 489.201 40.6803 490.76 39.7816C492.317 38.8839 493.554 37.5823 494.471 35.8779C495.387 34.1734 495.846 32.1855 495.846 29.9123C495.846 27.639 495.387 25.6606 494.471 23.9741Z" fill="black"/>
<path d="M513 2.97607V45.0325H507.997V2.97607H513Z" fill="black"/>
<path d="M312.618 9.01901C311.958 8.35929 311.628 7.55332 311.628 6.59977C311.628 5.64703 311.958 4.8404 312.618 4.18053C313.277 3.52081 314.084 3.19092 315.037 3.19092C315.953 3.19092 316.732 3.52081 317.374 4.18053C318.015 4.8404 318.336 5.6471 318.336 6.59977C318.336 7.55339 318.015 8.35929 317.374 9.01901C316.732 9.67873 315.953 10.0088 315.037 10.0088C314.084 10.0088 313.277 9.67873 312.618 9.01901ZM317.456 14.9021V45.0326H312.453V14.9021H317.456Z" fill="black"/>
<path d="M156.167 14.5719V31.3416C156.167 31.7847 156.146 32.2085 156.105 32.6142C155.924 34.4232 155.34 35.8599 154.352 36.9223C153.143 38.2239 151.474 38.8743 149.349 38.8743C147.26 38.8743 145.61 38.2239 144.4 36.9223C143.412 35.8598 142.828 34.4232 142.647 32.6142C142.607 32.2085 142.586 31.7847 142.586 31.3416V14.5719H134.802V30.4C134.802 33.3877 135.425 36.0237 136.673 38.3081C137.92 40.5932 139.66 42.3593 141.892 43.6064C144.084 44.8323 146.556 45.4537 149.307 45.4757C149.308 45.4757 149.309 45.476 149.31 45.476C149.312 45.476 149.315 45.476 149.317 45.476C149.319 45.476 149.32 45.4759 149.322 45.4759C149.324 45.4759 149.325 45.476 149.326 45.476C152.078 45.454 154.55 44.8322 156.741 43.6064C158.974 42.3592 160.713 40.5931 161.961 38.308C163.209 36.0236 163.832 33.3876 163.832 30.3999V14.5718L156.167 14.5719Z" fill="black"/>
<path d="M460.217 9.01901C459.558 8.35929 459.228 7.55332 459.228 6.59977C459.228 5.64703 459.558 4.8404 460.217 4.18053C460.877 3.52081 461.683 3.19092 462.637 3.19092C463.552 3.19092 464.332 3.52081 464.974 4.18053C465.614 4.8404 465.936 5.6471 465.936 6.59977C465.936 7.55339 465.614 8.35929 464.974 9.01901C464.332 9.67873 463.552 10.0088 462.637 10.0088C461.683 10.0088 460.877 9.67873 460.217 9.01901ZM465.056 14.9021V45.0326H460.052V14.9021H465.056Z" fill="black"/>
</g>
<defs>
<clipPath id="clip0_4036_12180">
<rect width="513" height="58.6482" fill="white" transform="translate(0 0.352051)"/>
</clipPath>
</defs>
</svg>
