<svg width="181" height="222" viewBox="0 0 181 222" fill="none" xmlns="http://www.w3.org/2000/svg">
<path d="M17.4841 174V160.909H22.2781C23.2071 160.909 23.9763 161.062 24.5857 161.369C25.195 161.672 25.651 162.083 25.9536 162.603C26.2561 163.119 26.4074 163.7 26.4074 164.348C26.4074 164.893 26.3073 165.354 26.107 165.729C25.9067 166.099 25.6382 166.398 25.3016 166.624C24.9692 166.845 24.6027 167.007 24.2021 167.109V167.237C24.6368 167.259 25.0608 167.399 25.4742 167.659C25.8918 167.915 26.2369 168.279 26.5097 168.752C26.7824 169.225 26.9188 169.8 26.9188 170.478C26.9188 171.147 26.7611 171.748 26.4458 172.281C26.1347 172.809 25.6531 173.229 25.0012 173.54C24.3492 173.847 23.5161 174 22.5019 174H17.4841ZM19.4593 172.306H22.3101C23.2561 172.306 23.9337 172.123 24.3428 171.756C24.7519 171.39 24.9564 170.932 24.9564 170.382C24.9564 169.969 24.852 169.589 24.6432 169.244C24.4344 168.899 24.1361 168.624 23.7483 168.42C23.3648 168.215 22.9088 168.113 22.3804 168.113H19.4593V172.306ZM19.4593 166.572H22.1056C22.5487 166.572 22.9472 166.487 23.3009 166.317C23.6588 166.146 23.9422 165.908 24.151 165.601C24.3641 165.29 24.4706 164.923 24.4706 164.501C24.4706 163.96 24.281 163.506 23.9017 163.14C23.5225 162.773 22.9408 162.59 22.1567 162.59H19.4593V166.572ZM33.3396 174.198C32.3722 174.198 31.5392 173.991 30.8403 173.578C30.1457 173.161 29.6088 172.575 29.2295 171.82C28.8545 171.062 28.667 170.173 28.667 169.155C28.667 168.149 28.8545 167.263 29.2295 166.496C29.6088 165.729 30.1372 165.13 30.8147 164.7C31.4965 164.269 32.2934 164.054 33.2053 164.054C33.7593 164.054 34.2963 164.146 34.8161 164.329C35.336 164.512 35.8026 164.8 36.216 165.192C36.6294 165.584 36.9553 166.093 37.194 166.719C37.4326 167.342 37.5519 168.098 37.5519 168.989V169.666H29.7472V168.234H35.6791C35.6791 167.732 35.5768 167.286 35.3722 166.898C35.1677 166.506 34.8801 166.197 34.5093 165.972C34.1428 165.746 33.7124 165.633 33.2181 165.633C32.6812 165.633 32.2124 165.765 31.8119 166.029C31.4156 166.289 31.1088 166.63 30.8914 167.052C30.6784 167.469 30.5718 167.923 30.5718 168.413V169.532C30.5718 170.188 30.6869 170.746 30.917 171.207C31.1514 171.667 31.4774 172.018 31.895 172.261C32.3126 172.5 32.8005 172.619 33.3588 172.619C33.721 172.619 34.0512 172.568 34.3495 172.466C34.6478 172.359 34.9056 172.202 35.123 171.993C35.3403 171.784 35.5065 171.526 35.6215 171.219L37.4305 171.545C37.2856 172.078 37.0257 172.545 36.6507 172.945C36.2799 173.342 35.8133 173.651 35.2508 173.872C34.6926 174.089 34.0555 174.198 33.3396 174.198ZM47.0297 166.579L45.2975 166.886C45.2251 166.664 45.11 166.453 44.9523 166.253C44.7989 166.053 44.5901 165.888 44.3259 165.761C44.0617 165.633 43.7314 165.569 43.3351 165.569C42.7939 165.569 42.3422 165.69 41.98 165.933C41.6178 166.172 41.4367 166.481 41.4367 166.86C41.4367 167.188 41.5581 167.452 41.801 167.653C42.0439 167.853 42.436 168.017 42.9772 168.145L44.5368 168.503C45.4403 168.712 46.1135 169.033 46.5567 169.468C46.9999 169.903 47.2215 170.467 47.2215 171.162C47.2215 171.75 47.051 172.274 46.7101 172.734C46.3735 173.19 45.9026 173.548 45.2975 173.808C44.6966 174.068 43.9999 174.198 43.2073 174.198C42.1079 174.198 41.2108 173.964 40.5162 173.495C39.8216 173.022 39.3955 172.351 39.2378 171.482L41.0851 171.2C41.2002 171.682 41.4367 172.046 41.7947 172.293C42.1526 172.536 42.6192 172.658 43.1945 172.658C43.8209 172.658 44.3216 172.528 44.6966 172.268C45.0716 172.004 45.2591 171.682 45.2591 171.303C45.2591 170.996 45.1441 170.738 44.914 170.529C44.6881 170.32 44.3408 170.163 43.8721 170.056L42.2101 169.692C41.2939 169.483 40.6164 169.151 40.1775 168.695C39.7428 168.239 39.5255 167.661 39.5255 166.962C39.5255 166.383 39.6874 165.876 40.0113 165.441C40.3351 165.006 40.7826 164.668 41.3536 164.425C41.9246 164.178 42.5787 164.054 43.316 164.054C44.377 164.054 45.2123 164.284 45.8216 164.744C46.431 165.2 46.8337 165.812 47.0297 166.579ZM53.906 164.182V165.716H48.5431V164.182H53.906ZM49.9813 161.83H51.8925V171.117C51.8925 171.488 51.9479 171.767 52.0587 171.955C52.1695 172.138 52.3122 172.263 52.4869 172.332C52.6659 172.396 52.8598 172.428 53.0686 172.428C53.222 172.428 53.3563 172.417 53.4713 172.396C53.5864 172.374 53.6759 172.357 53.7398 172.344L54.085 173.923C53.9742 173.966 53.8165 174.009 53.6119 174.051C53.4074 174.098 53.1517 174.124 52.8449 174.128C52.3421 174.136 51.8733 174.047 51.4387 173.859C51.004 173.672 50.6524 173.382 50.384 172.99C50.1155 172.598 49.9813 172.106 49.9813 171.513V161.83ZM71.8101 165.166H69.8158C69.7391 164.74 69.5963 164.365 69.3875 164.041C69.1787 163.717 68.923 163.442 68.6205 163.217C68.3179 162.991 67.9791 162.82 67.6041 162.705C67.2334 162.59 66.8392 162.533 66.4216 162.533C65.6673 162.533 64.9919 162.722 64.3953 163.102C63.803 163.481 63.3343 164.037 62.9891 164.77C62.6482 165.503 62.4777 166.398 62.4777 167.455C62.4777 168.52 62.6482 169.419 62.9891 170.152C63.3343 170.885 63.8051 171.439 64.4017 171.814C64.9983 172.189 65.6695 172.376 66.4152 172.376C66.8286 172.376 67.2206 172.321 67.5914 172.21C67.9664 172.095 68.3051 171.927 68.6077 171.705C68.9102 171.484 69.1659 171.213 69.3747 170.893C69.5878 170.57 69.7348 170.199 69.8158 169.781L71.8101 169.788C71.7036 170.431 71.4969 171.023 71.1901 171.565C70.8875 172.102 70.4976 172.566 70.0203 172.958C69.5473 173.346 69.0061 173.646 68.3968 173.859C67.7874 174.072 67.1226 174.179 66.4024 174.179C65.2689 174.179 64.259 173.911 63.3726 173.374C62.4862 172.832 61.7874 172.059 61.276 171.053C60.7689 170.048 60.5154 168.848 60.5154 167.455C60.5154 166.057 60.771 164.857 61.2824 163.856C61.7938 162.85 62.4926 162.079 63.379 161.542C64.2654 161.001 65.2732 160.73 66.4024 160.73C67.097 160.73 67.7448 160.83 68.3456 161.031C68.9507 161.227 69.4941 161.516 69.9756 161.9C70.4571 162.279 70.8556 162.744 71.1709 163.293C71.4862 163.839 71.6993 164.463 71.8101 165.166ZM74.1736 174V160.909H82.2915V162.609H76.1487V166.598H81.7098V168.292H76.1487V174H74.1736ZM88.9584 174H84.7204V160.909H89.0926C90.3753 160.909 91.4768 161.171 92.3973 161.695C93.3177 162.215 94.023 162.963 94.5131 163.939C95.0074 164.911 95.2545 166.076 95.2545 167.435C95.2545 168.799 95.0052 169.971 94.5067 170.951C94.0123 171.931 93.2964 172.685 92.3589 173.214C91.4214 173.738 90.2879 174 88.9584 174ZM86.6956 172.274H88.8497C89.8469 172.274 90.6757 172.087 91.3362 171.712C91.9967 171.332 92.491 170.785 92.8192 170.069C93.1473 169.349 93.3113 168.471 93.3113 167.435C93.3113 166.408 93.1473 165.537 92.8192 164.821C92.4953 164.105 92.0116 163.562 91.3682 163.191C90.7247 162.82 89.9257 162.635 88.9711 162.635H86.6956V172.274ZM104.915 166.579L103.182 166.886C103.11 166.664 102.995 166.453 102.837 166.253C102.684 166.053 102.475 165.888 102.211 165.761C101.946 165.633 101.616 165.569 101.22 165.569C100.679 165.569 100.227 165.69 99.8648 165.933C99.5026 166.172 99.3215 166.481 99.3215 166.86C99.3215 167.188 99.4429 167.452 99.6858 167.653C99.9287 167.853 100.321 168.017 100.862 168.145L102.422 168.503C103.325 168.712 103.998 169.033 104.441 169.468C104.885 169.903 105.106 170.467 105.106 171.162C105.106 171.75 104.936 172.274 104.595 172.734C104.258 173.19 103.787 173.548 103.182 173.808C102.581 174.068 101.885 174.198 101.092 174.198C99.9926 174.198 99.0956 173.964 98.401 173.495C97.7064 173.022 97.2803 172.351 97.1226 171.482L98.9699 171.2C99.085 171.682 99.3215 172.046 99.6794 172.293C100.037 172.536 100.504 172.658 101.079 172.658C101.706 172.658 102.206 172.528 102.581 172.268C102.956 172.004 103.144 171.682 103.144 171.303C103.144 170.996 103.029 170.738 102.799 170.529C102.573 170.32 102.226 170.163 101.757 170.056L100.095 169.692C99.1787 169.483 98.5012 169.151 98.0622 168.695C97.6276 168.239 97.4102 167.661 97.4102 166.962C97.4102 166.383 97.5722 165.876 97.896 165.441C98.2199 165.006 98.6673 164.668 99.2384 164.425C99.8094 164.178 100.464 164.054 101.201 164.054C102.262 164.054 103.097 164.284 103.706 164.744C104.316 165.2 104.718 165.812 104.915 166.579ZM112.125 174V160.909H116.919C117.848 160.909 118.617 161.062 119.226 161.369C119.836 161.672 120.292 162.083 120.594 162.603C120.897 163.119 121.048 163.7 121.048 164.348C121.048 164.893 120.948 165.354 120.748 165.729C120.547 166.099 120.279 166.398 119.942 166.624C119.61 166.845 119.243 167.007 118.843 167.109V167.237C119.277 167.259 119.701 167.399 120.115 167.659C120.532 167.915 120.878 168.279 121.15 168.752C121.423 169.225 121.559 169.8 121.559 170.478C121.559 171.147 121.402 171.748 121.086 172.281C120.775 172.809 120.294 173.229 119.642 173.54C118.99 173.847 118.157 174 117.142 174H112.125ZM114.1 172.306H116.951C117.897 172.306 118.574 172.123 118.983 171.756C119.392 171.39 119.597 170.932 119.597 170.382C119.597 169.969 119.493 169.589 119.284 169.244C119.075 168.899 118.777 168.624 118.389 168.42C118.005 168.215 117.549 168.113 117.021 168.113H114.1V172.306ZM114.1 166.572H116.746C117.189 166.572 117.588 166.487 117.941 166.317C118.299 166.146 118.583 165.908 118.792 165.601C119.005 165.29 119.111 164.923 119.111 164.501C119.111 163.96 118.922 163.506 118.542 163.14C118.163 162.773 117.581 162.59 116.797 162.59H114.1V166.572ZM123.749 174V164.182H125.596V165.741H125.698C125.877 165.213 126.193 164.798 126.644 164.495C127.1 164.188 127.616 164.035 128.191 164.035C128.31 164.035 128.451 164.039 128.613 164.048C128.779 164.056 128.909 164.067 129.003 164.08V165.908C128.926 165.886 128.79 165.863 128.594 165.837C128.398 165.808 128.202 165.793 128.006 165.793C127.554 165.793 127.151 165.888 126.798 166.08C126.448 166.268 126.171 166.53 125.967 166.866C125.762 167.199 125.66 167.578 125.66 168.004V174H123.749ZM134.441 174.198C133.521 174.198 132.717 173.987 132.031 173.565C131.345 173.143 130.812 172.553 130.433 171.795C130.054 171.036 129.864 170.15 129.864 169.136C129.864 168.117 130.054 167.227 130.433 166.464C130.812 165.701 131.345 165.109 132.031 164.687C132.717 164.265 133.521 164.054 134.441 164.054C135.361 164.054 136.165 164.265 136.851 164.687C137.537 165.109 138.07 165.701 138.449 166.464C138.828 167.227 139.018 168.117 139.018 169.136C139.018 170.15 138.828 171.036 138.449 171.795C138.07 172.553 137.537 173.143 136.851 173.565C136.165 173.987 135.361 174.198 134.441 174.198ZM134.447 172.594C135.044 172.594 135.538 172.436 135.93 172.121C136.322 171.805 136.612 171.386 136.8 170.862C136.991 170.337 137.087 169.76 137.087 169.129C137.087 168.503 136.991 167.928 136.8 167.403C136.612 166.875 136.322 166.451 135.93 166.131C135.538 165.812 135.044 165.652 134.447 165.652C133.847 165.652 133.348 165.812 132.952 166.131C132.56 166.451 132.268 166.875 132.076 167.403C131.888 167.928 131.795 168.503 131.795 169.129C131.795 169.76 131.888 170.337 132.076 170.862C132.268 171.386 132.56 171.805 132.952 172.121C133.348 172.436 133.847 172.594 134.447 172.594ZM142.909 170.67L142.896 168.337H143.228L147.14 164.182H149.429L144.967 168.912H144.667L142.909 170.67ZM141.151 174V160.909H143.062V174H141.151ZM147.351 174L143.836 169.334L145.152 167.998L149.697 174H147.351ZM154.998 174.198C154.03 174.198 153.197 173.991 152.498 173.578C151.804 173.161 151.267 172.575 150.888 171.82C150.513 171.062 150.325 170.173 150.325 169.155C150.325 168.149 150.513 167.263 150.888 166.496C151.267 165.729 151.795 165.13 152.473 164.7C153.155 164.269 153.952 164.054 154.864 164.054C155.418 164.054 155.954 164.146 156.474 164.329C156.994 164.512 157.461 164.8 157.874 165.192C158.288 165.584 158.614 166.093 158.852 166.719C159.091 167.342 159.21 168.098 159.21 168.989V169.666H151.405V168.234H157.337C157.337 167.732 157.235 167.286 157.03 166.898C156.826 166.506 156.538 166.197 156.168 165.972C155.801 165.746 155.371 165.633 154.876 165.633C154.339 165.633 153.871 165.765 153.47 166.029C153.074 166.289 152.767 166.63 152.55 167.052C152.337 167.469 152.23 167.923 152.23 168.413V169.532C152.23 170.188 152.345 170.746 152.575 171.207C152.81 171.667 153.136 172.018 153.553 172.261C153.971 172.5 154.459 172.619 155.017 172.619C155.379 172.619 155.709 172.568 156.008 172.466C156.306 172.359 156.564 172.202 156.781 171.993C156.998 171.784 157.165 171.526 157.28 171.219L159.089 171.545C158.944 172.078 158.684 172.545 158.309 172.945C157.938 173.342 157.472 173.651 156.909 173.872C156.351 174.089 155.714 174.198 154.998 174.198ZM161.331 174V164.182H163.178V165.741H163.28C163.459 165.213 163.775 164.798 164.226 164.495C164.682 164.188 165.198 164.035 165.773 164.035C165.892 164.035 166.033 164.039 166.195 164.048C166.361 164.056 166.491 164.067 166.585 164.08V165.908C166.508 165.886 166.372 165.863 166.176 165.837C165.98 165.808 165.784 165.793 165.588 165.793C165.136 165.793 164.733 165.888 164.38 166.08C164.03 166.268 163.753 166.53 163.549 166.866C163.344 167.199 163.242 167.578 163.242 168.004V174H161.331ZM70.9584 196V195.124L75.2346 190.317C75.7929 189.687 76.2425 189.148 76.5834 188.7C76.9243 188.253 77.1714 187.839 77.3248 187.46C77.4825 187.081 77.5613 186.687 77.5613 186.278C77.5613 185.779 77.4442 185.344 77.2098 184.974C76.9797 184.599 76.6622 184.307 76.2574 184.098C75.8525 183.889 75.3966 183.785 74.8895 183.785C74.3525 183.785 73.8817 183.9 73.4768 184.13C73.0763 184.36 72.7652 184.675 72.5436 185.076C72.322 185.477 72.2112 185.937 72.2112 186.457H71.067C71.067 185.732 71.2332 185.091 71.5656 184.533C71.9023 183.97 72.3604 183.529 72.9399 183.21C73.5237 182.89 74.1842 182.73 74.9214 182.73C75.6501 182.73 76.2979 182.888 76.8646 183.203C77.4314 183.514 77.8767 183.938 78.2006 184.475C78.5244 185.012 78.6863 185.613 78.6863 186.278C78.6863 186.759 78.6011 187.226 78.4307 187.678C78.2645 188.129 77.9768 188.632 77.5677 189.186C77.1586 189.74 76.5919 190.418 75.8675 191.219L72.6203 194.843V194.926H79.0954V196H70.9584ZM86.01 196.179C85.0896 196.179 84.3034 195.915 83.6514 195.386C83.0036 194.854 82.5051 194.085 82.1556 193.079C81.8105 192.073 81.6379 190.865 81.6379 189.455C81.6379 188.048 81.8105 186.844 82.1556 185.843C82.5051 184.837 83.0058 184.068 83.6578 183.536C84.314 182.999 85.0981 182.73 86.01 182.73C86.922 182.73 87.7039 182.999 88.3559 183.536C89.0122 184.068 89.5129 184.837 89.858 185.843C90.2075 186.844 90.3822 188.048 90.3822 189.455C90.3822 190.865 90.2075 192.073 89.858 193.079C89.5129 194.085 89.0143 194.854 88.3623 195.386C87.7146 195.915 86.9305 196.179 86.01 196.179ZM86.01 195.105C87.02 195.105 87.8083 194.613 88.3751 193.629C88.9419 192.64 89.2252 191.249 89.2252 189.455C89.2252 188.261 89.0953 187.243 88.8353 186.399C88.5796 185.551 88.211 184.903 87.7295 184.456C87.2522 184.009 86.6791 183.785 86.01 183.785C85.0086 183.785 84.2224 184.283 83.6514 185.281C83.0803 186.273 82.7948 187.665 82.7948 189.455C82.7948 190.648 82.9227 191.666 83.1784 192.51C83.4383 193.354 83.8069 193.997 84.2842 194.44C84.7657 194.884 85.341 195.105 86.01 195.105ZM92.9838 196V195.124L97.26 190.317C97.8183 189.687 98.2678 189.148 98.6088 188.7C98.9497 188.253 99.1968 187.839 99.3502 187.46C99.5079 187.081 99.5867 186.687 99.5867 186.278C99.5867 185.779 99.4695 185.344 99.2352 184.974C99.0051 184.599 98.6876 184.307 98.2828 184.098C97.8779 183.889 97.422 183.785 96.9149 183.785C96.3779 183.785 95.907 183.9 95.5022 184.13C95.1017 184.36 94.7906 184.675 94.569 185.076C94.3474 185.477 94.2366 185.937 94.2366 186.457H93.0924C93.0924 185.732 93.2586 185.091 93.591 184.533C93.9276 183.97 94.3857 183.529 94.9653 183.21C95.5491 182.89 96.2096 182.73 96.9468 182.73C97.6755 182.73 98.3232 182.888 98.89 183.203C99.4568 183.514 99.9021 183.938 100.226 184.475C100.55 185.012 100.712 185.613 100.712 186.278C100.712 186.759 100.627 187.226 100.456 187.678C100.29 188.129 100.002 188.632 99.5931 189.186C99.184 189.74 98.6173 190.418 97.8928 191.219L94.6457 194.843V194.926H101.121V196H92.9838ZM103.97 196V195.124L108.246 190.317C108.805 189.687 109.254 189.148 109.595 188.7C109.936 188.253 110.183 187.839 110.337 187.46C110.494 187.081 110.573 186.687 110.573 186.278C110.573 185.779 110.456 185.344 110.222 184.974C109.991 184.599 109.674 184.307 109.269 184.098C108.864 183.889 108.408 183.785 107.901 183.785C107.364 183.785 106.893 183.9 106.489 184.13C106.088 184.36 105.777 184.675 105.555 185.076C105.334 185.477 105.223 185.937 105.223 186.457H104.079C104.079 185.732 104.245 185.091 104.577 184.533C104.914 183.97 105.372 183.529 105.952 183.21C106.535 182.89 107.196 182.73 107.933 182.73C108.662 182.73 109.31 182.888 109.876 183.203C110.443 183.514 110.888 183.938 111.212 184.475C111.536 185.012 111.698 185.613 111.698 186.278C111.698 186.759 111.613 187.226 111.442 187.678C111.276 188.129 110.989 188.632 110.579 189.186C110.17 189.74 109.604 190.418 108.879 191.219L105.632 194.843V194.926H112.107V196H103.97ZM37.4209 218H36.1681L40.9301 204.909H42.2085L46.9706 218H45.7178L41.6141 206.462H41.5246L37.4209 218ZM38.3222 212.982H44.8165V214.056H38.3222V212.982ZM52.2297 208.182V209.173H47.5443V208.182H52.2297ZM49.0081 205.83H50.1523V215.437C50.1523 215.846 50.2226 216.168 50.3632 216.402C50.5038 216.632 50.6871 216.796 50.9129 216.894C51.1388 216.988 51.3795 217.035 51.6352 217.035C51.7844 217.035 51.9122 217.026 52.0187 217.009C52.1253 216.988 52.219 216.967 52.3 216.945L52.5429 217.974C52.4321 218.017 52.2957 218.055 52.1338 218.089C51.9719 218.128 51.7716 218.147 51.5329 218.147C51.1153 218.147 50.7126 218.055 50.3248 217.872C49.9413 217.689 49.626 217.416 49.3788 217.054C49.1317 216.692 49.0081 216.242 49.0081 215.705V205.83ZM58.5242 218.205C57.6762 218.205 56.9262 217.989 56.2742 217.559C55.6265 217.129 55.1194 216.534 54.7529 215.776C54.3865 215.013 54.2032 214.133 54.2032 213.136C54.2032 212.13 54.3865 211.246 54.7529 210.483C55.1194 209.716 55.6265 209.119 56.2742 208.693C56.9262 208.263 57.6762 208.048 58.5242 208.048C59.3722 208.048 60.1201 208.263 60.7678 208.693C61.4156 209.124 61.9227 209.72 62.2892 210.483C62.6599 211.246 62.8453 212.13 62.8453 213.136C62.8453 214.133 62.662 215.013 62.2955 215.776C61.9291 216.534 61.4198 217.129 60.7678 217.559C60.1201 217.989 59.3722 218.205 58.5242 218.205ZM58.5242 217.163C59.2061 217.163 59.7835 216.979 60.2565 216.613C60.7295 216.246 61.0874 215.759 61.3303 215.149C61.5775 214.54 61.7011 213.869 61.7011 213.136C61.7011 212.403 61.5775 211.729 61.3303 211.116C61.0874 210.502 60.7295 210.01 60.2565 209.639C59.7835 209.268 59.2061 209.083 58.5242 209.083C57.8467 209.083 57.2693 209.268 56.792 209.639C56.319 210.01 55.9589 210.502 55.7117 211.116C55.4688 211.729 55.3474 212.403 55.3474 213.136C55.3474 213.869 55.4688 214.54 55.7117 215.149C55.9589 215.759 56.319 216.246 56.792 216.613C57.265 216.979 57.8424 217.163 58.5242 217.163ZM65.0617 218V217.099L72.3295 205.983H65.0233V204.909H73.7549V205.81L66.4807 216.926H73.8188V218H65.0617ZM81.7689 204.909H83.1496L87.8989 216.312H88.0139L92.7632 204.909H94.1439V218H93.0189V207.434H92.9166L88.4997 218H87.4131L82.9962 207.434H82.8939V218H81.7689V204.909ZM100.13 218.224C99.5377 218.224 98.9965 218.109 98.5065 217.879C98.0164 217.644 97.6265 217.308 97.3367 216.869C97.047 216.425 96.9021 215.888 96.9021 215.258C96.9021 214.772 96.9937 214.363 97.1769 214.031C97.3602 213.698 97.6201 213.425 97.9568 213.212C98.2934 212.999 98.6919 212.831 99.1521 212.707C99.6123 212.584 100.119 212.488 100.673 212.42C101.223 212.352 101.688 212.292 102.067 212.241C102.45 212.19 102.742 212.109 102.943 211.998C103.143 211.887 103.243 211.708 103.243 211.461V211.231C103.243 210.562 103.043 210.036 102.642 209.652C102.246 209.264 101.675 209.07 100.929 209.07C100.222 209.07 99.6443 209.226 99.1968 209.537C98.7536 209.848 98.4426 210.214 98.2636 210.636L97.1833 210.246C97.4049 209.71 97.7117 209.281 98.1038 208.962C98.4958 208.638 98.9347 208.406 99.4205 208.265C99.9063 208.12 100.399 208.048 100.897 208.048C101.272 208.048 101.662 208.097 102.067 208.195C102.476 208.293 102.855 208.463 103.205 208.706C103.554 208.945 103.837 209.279 104.055 209.71C104.272 210.136 104.381 210.677 104.381 211.333V218H103.243V216.447H103.173C103.036 216.737 102.834 217.018 102.565 217.29C102.297 217.563 101.96 217.787 101.555 217.962C101.151 218.136 100.676 218.224 100.13 218.224ZM100.283 217.182C100.889 217.182 101.413 217.048 101.856 216.779C102.299 216.511 102.64 216.155 102.879 215.712C103.122 215.264 103.243 214.772 103.243 214.235V212.816C103.158 212.897 103.015 212.969 102.815 213.033C102.619 213.097 102.391 213.155 102.131 213.206C101.875 213.253 101.619 213.293 101.364 213.327C101.108 213.362 100.878 213.391 100.673 213.417C100.119 213.485 99.6464 213.592 99.2544 213.737C98.8623 213.881 98.5619 214.082 98.3531 214.337C98.1443 214.589 98.0399 214.913 98.0399 215.309C98.0399 215.906 98.2529 216.368 98.6791 216.696C99.1052 217.02 99.64 217.182 100.283 217.182ZM107.407 218V208.182H108.513V209.69H108.596C108.792 209.196 109.133 208.798 109.619 208.495C110.109 208.188 110.663 208.035 111.281 208.035C111.375 208.035 111.479 208.037 111.594 208.041C111.709 208.045 111.805 208.05 111.882 208.054V209.211C111.831 209.202 111.741 209.19 111.613 209.173C111.486 209.156 111.347 209.147 111.198 209.147C110.687 209.147 110.231 209.256 109.83 209.473C109.434 209.686 109.12 209.982 108.89 210.362C108.66 210.741 108.545 211.173 108.545 211.659V218H107.407ZM114.859 214.293L114.846 212.803H115.102L119.704 208.182H121.142L116.598 212.733L116.495 212.752L114.859 214.293ZM113.823 218V204.909H114.961V218H113.823ZM119.941 218L115.952 212.957L116.77 212.17L121.398 218H119.941ZM126.846 218.205C125.929 218.205 125.137 217.991 124.468 217.565C123.799 217.135 123.281 216.54 122.915 215.782C122.552 215.019 122.371 214.141 122.371 213.148C122.371 212.16 122.552 211.282 122.915 210.515C123.281 209.744 123.786 209.141 124.429 208.706C125.077 208.267 125.825 208.048 126.673 208.048C127.206 208.048 127.719 208.146 128.214 208.342C128.708 208.533 129.151 208.83 129.543 209.23C129.939 209.626 130.253 210.127 130.483 210.732C130.713 211.333 130.828 212.045 130.828 212.867V213.43H123.157V212.426H129.665C129.665 211.795 129.537 211.229 129.281 210.726C129.03 210.219 128.678 209.818 128.226 209.524C127.779 209.23 127.261 209.083 126.673 209.083C126.051 209.083 125.503 209.249 125.03 209.582C124.557 209.914 124.187 210.353 123.918 210.898C123.654 211.444 123.52 212.04 123.515 212.688V213.289C123.515 214.069 123.65 214.751 123.918 215.335C124.191 215.914 124.576 216.364 125.075 216.683C125.574 217.003 126.164 217.163 126.846 217.163C127.31 217.163 127.717 217.09 128.066 216.945C128.42 216.8 128.716 216.607 128.955 216.364C129.198 216.116 129.381 215.846 129.505 215.552L130.585 215.903C130.436 216.317 130.191 216.698 129.85 217.048C129.513 217.397 129.091 217.678 128.584 217.891C128.081 218.1 127.502 218.205 126.846 218.205ZM137.202 208.182V209.173H132.517V208.182H137.202ZM133.981 205.83H135.125V215.437C135.125 215.846 135.195 216.168 135.336 216.402C135.476 216.632 135.66 216.796 135.886 216.894C136.111 216.988 136.352 217.035 136.608 217.035C136.757 217.035 136.885 217.026 136.991 217.009C137.098 216.988 137.192 216.967 137.273 216.945L137.516 217.974C137.405 218.017 137.268 218.055 137.106 218.089C136.945 218.128 136.744 218.147 136.506 218.147C136.088 218.147 135.685 218.055 135.297 217.872C134.914 217.689 134.599 217.416 134.351 217.054C134.104 216.692 133.981 216.242 133.981 215.705V205.83ZM146.207 210.336L145.165 210.63C145.063 210.336 144.918 210.07 144.731 209.831C144.543 209.592 144.298 209.403 143.995 209.262C143.697 209.121 143.326 209.051 142.883 209.051C142.218 209.051 141.673 209.209 141.247 209.524C140.821 209.839 140.608 210.246 140.608 210.745C140.608 211.167 140.753 211.51 141.042 211.774C141.336 212.034 141.788 212.241 142.397 212.394L143.88 212.759C144.703 212.959 145.319 213.276 145.728 213.711C146.141 214.146 146.348 214.691 146.348 215.347C146.348 215.901 146.194 216.393 145.888 216.824C145.581 217.254 145.152 217.593 144.603 217.84C144.057 218.083 143.424 218.205 142.704 218.205C141.745 218.205 140.955 217.989 140.333 217.559C139.711 217.124 139.312 216.498 139.138 215.68L140.231 215.411C140.371 215.995 140.646 216.436 141.055 216.734C141.468 217.033 142.012 217.182 142.685 217.182C143.439 217.182 144.042 217.013 144.494 216.677C144.946 216.336 145.172 215.91 145.172 215.398C145.172 215.002 145.04 214.67 144.775 214.401C144.511 214.129 144.111 213.928 143.574 213.8L141.969 213.417C141.117 213.212 140.486 212.888 140.077 212.445C139.668 212.002 139.464 211.452 139.464 210.796C139.464 210.255 139.611 209.78 139.905 209.371C140.199 208.957 140.603 208.634 141.119 208.399C141.635 208.165 142.223 208.048 142.883 208.048C143.782 208.048 144.5 208.252 145.037 208.661C145.579 209.066 145.968 209.624 146.207 210.336Z" fill="#13151D"/>
<path d="M36.8792 61.0969V53.8425C36.8792 53.6395 36.9378 53.4891 37.0549 53.3912C37.1723 53.2935 37.3209 53.2446 37.5005 53.2446C37.7272 53.2446 37.9128 53.2916 38.0575 53.3856C38.202 53.4797 38.3447 53.6583 38.4853 53.9214L40.1268 56.9113L41.7916 53.9214C41.9324 53.6583 42.073 53.4797 42.2137 53.3856C42.3545 53.2916 42.538 53.2446 42.7647 53.2446C42.9446 53.2446 43.093 53.2935 43.2103 53.3912C43.3276 53.4891 43.3861 53.6395 43.3861 53.8425V61.0969C43.3861 61.2171 43.3256 61.3129 43.2044 61.3845C43.0834 61.456 42.9366 61.4916 42.7647 61.4916C42.6006 61.4916 42.4561 61.456 42.331 61.3845C42.2059 61.3129 42.1434 61.2171 42.1434 61.0969V55.6814L40.5724 58.4794C40.4551 58.6599 40.3026 58.7502 40.1151 58.7502C39.9275 58.7502 39.7869 58.6599 39.6931 58.4794L38.1219 55.6138V61.0969C38.1219 61.2171 38.0614 61.3129 37.9402 61.3845C37.819 61.456 37.6724 61.4916 37.5005 61.4916C37.3364 61.4916 37.1919 61.456 37.0668 61.3845C36.9417 61.3129 36.8792 61.2171 36.8792 61.0969ZM55.1272 60.9953C55.1272 60.9501 55.1311 60.9162 55.139 60.8937L57.472 53.5831C57.5658 53.3123 57.8277 53.1768 58.2577 53.1768C58.6953 53.1768 58.961 53.3123 59.0548 53.5831L61.3764 60.8937C61.3919 60.9389 61.3997 60.9726 61.3997 60.9953C61.3997 61.1306 61.3157 61.2471 61.1477 61.345C60.9796 61.4427 60.8018 61.4916 60.6142 61.4916C60.3875 61.4916 60.2469 61.409 60.1921 61.2434L59.7114 59.6414H56.8155L56.3348 61.2434C56.2802 61.409 56.1355 61.4916 55.901 61.4916C55.7134 61.4916 55.5376 61.4427 55.3735 61.345C55.2093 61.2471 55.1272 61.1306 55.1272 60.9953ZM57.0851 58.6824H59.4301L58.2577 54.8127L57.0851 58.6824ZM73.1291 61.0969V53.6281C73.1291 53.5228 73.1682 53.4327 73.2462 53.3574C73.3245 53.2822 73.4222 53.2446 73.5395 53.2446H75.767C77.5647 53.2446 78.4636 54.0117 78.4636 55.5461C78.4636 56.1855 78.3153 56.6875 78.0181 57.0523C77.7211 57.4169 77.3186 57.6596 76.8105 57.78L78.452 60.747C78.4833 60.7997 78.4988 60.8561 78.4988 60.9162C78.4988 61.0666 78.4187 61.2058 78.2584 61.3338C78.0982 61.4615 77.9283 61.5255 77.7485 61.5255C77.5453 61.5255 77.3812 61.409 77.2561 61.1758L75.5443 57.9492H74.3602V61.0969C74.3602 61.2171 74.2995 61.3129 74.1785 61.3845C74.0573 61.456 73.9107 61.4916 73.7388 61.4916C73.5747 61.4916 73.432 61.456 73.3108 61.3845C73.1896 61.3129 73.1291 61.2171 73.1291 61.0969ZM74.3602 56.9902H75.767C76.7363 56.9902 77.2209 56.5427 77.2209 55.6477C77.2209 54.7526 76.7363 54.305 75.767 54.305H74.3602V56.9902ZM90.4862 61.0969V53.6281C90.4862 53.5003 90.5467 53.4045 90.6679 53.3405C90.7889 53.2765 90.9355 53.2446 91.1076 53.2446C91.2795 53.2446 91.426 53.2765 91.5472 53.3405C91.6684 53.4045 91.7289 53.5003 91.7289 53.6281V57.0578L94.5896 53.4139C94.6677 53.301 94.785 53.2446 94.9414 53.2446C95.1055 53.2446 95.2658 53.3104 95.4221 53.4421C95.5783 53.5737 95.6566 53.7147 95.6566 53.865C95.6566 53.9553 95.6253 54.0342 95.5628 54.1021L93.3118 56.8097L95.9848 60.7245C96.0317 60.7921 96.0551 60.8637 96.0551 60.9389C96.0551 61.0818 95.9789 61.2152 95.8266 61.3393C95.6742 61.4634 95.508 61.5255 95.3283 61.5255C95.1329 61.5255 94.9843 61.4503 94.8827 61.2998L92.4909 57.8137L91.7289 58.7388V61.0969C91.7289 61.2171 91.6684 61.3129 91.5472 61.3845C91.426 61.456 91.2795 61.4916 91.1076 61.4916C90.9434 61.4916 90.7987 61.456 90.6736 61.3845C90.5487 61.3129 90.4862 61.2171 90.4862 61.0969ZM107.632 61.0969V53.6395C107.632 53.5191 107.687 53.4233 107.796 53.3517C107.906 53.2802 108.035 53.2446 108.183 53.2446H112.357C112.49 53.2446 112.592 53.2971 112.662 53.4024C112.732 53.5079 112.767 53.6281 112.767 53.7636C112.767 53.914 112.73 54.0418 112.656 54.147C112.582 54.2525 112.482 54.305 112.357 54.305H108.875V56.8886H110.68C110.806 56.8886 110.905 56.9356 110.979 57.0296C111.054 57.1236 111.091 57.2383 111.091 57.3738C111.091 57.494 111.056 57.6013 110.985 57.6953C110.915 57.7894 110.813 57.8364 110.68 57.8364H108.875V60.4312H112.357C112.482 60.4312 112.582 60.4837 112.656 60.5892C112.73 60.6944 112.767 60.8222 112.767 60.9726C112.767 61.1081 112.732 61.2285 112.662 61.3338C112.592 61.439 112.49 61.4916 112.357 61.4916H108.183C108.035 61.4916 107.906 61.456 107.796 61.3845C107.687 61.3129 107.632 61.2171 107.632 61.0969ZM123.957 53.7861C123.957 53.6432 123.993 53.5173 124.063 53.4081C124.133 53.299 124.235 53.2446 124.368 53.2446H129.233C129.366 53.2446 129.468 53.2971 129.538 53.4024C129.609 53.5079 129.644 53.6319 129.644 53.7748C129.644 53.9328 129.606 54.0663 129.532 54.1752C129.458 54.2844 129.358 54.339 129.233 54.339H127.428V61.0969C127.428 61.2171 127.365 61.3129 127.24 61.3845C127.115 61.456 126.971 61.4916 126.806 61.4916C126.634 61.4916 126.488 61.456 126.367 61.3845C126.246 61.3129 126.185 61.2171 126.185 61.0969V54.339H124.368C124.243 54.339 124.143 54.2844 124.069 54.1752C123.995 54.0663 123.957 53.9365 123.957 53.7861ZM140.881 60.2507C140.881 60.1078 140.935 59.9647 141.045 59.8219C141.154 59.679 141.279 59.6077 141.42 59.6077C141.506 59.6077 141.609 59.6547 141.731 59.7487C141.852 59.8427 141.971 59.9441 142.088 60.0532C142.205 60.1622 142.383 60.2638 142.622 60.3578C142.86 60.4518 143.128 60.4988 143.425 60.4988C143.87 60.4988 144.228 60.3972 144.498 60.1943C144.767 59.9911 144.902 59.6941 144.902 59.3029C144.902 58.9419 144.771 58.6411 144.509 58.4005C144.247 58.1597 143.931 57.968 143.56 57.8249C143.188 57.682 142.815 57.5279 142.44 57.3624C142.065 57.197 141.746 56.9489 141.484 56.6178C141.222 56.2868 141.092 55.8733 141.092 55.3769C141.092 54.9783 141.172 54.6323 141.332 54.339C141.492 54.0456 141.709 53.82 141.983 53.662C142.256 53.504 142.544 53.3893 142.844 53.3178C143.145 53.2465 143.464 53.2107 143.8 53.2107C144.011 53.2107 144.232 53.2238 144.462 53.2501C144.693 53.2765 144.922 53.3198 145.148 53.3799C145.375 53.44 145.563 53.5267 145.711 53.6395C145.86 53.7523 145.934 53.8801 145.934 54.023C145.934 54.1658 145.887 54.3089 145.793 54.4518C145.699 54.5947 145.574 54.666 145.418 54.666C145.34 54.666 145.234 54.6304 145.101 54.5589C144.968 54.4875 144.791 54.416 144.568 54.3445C144.345 54.2731 144.089 54.2374 143.8 54.2374C143.355 54.2374 142.999 54.322 142.733 54.4912C142.467 54.6605 142.334 54.918 142.334 55.264C142.334 55.4897 142.405 55.6833 142.546 55.8451C142.686 56.0068 142.868 56.1403 143.091 56.2455C143.313 56.3508 143.562 56.4542 143.835 56.5558C144.109 56.6574 144.38 56.7758 144.65 56.9113C144.92 57.0466 145.166 57.2025 145.389 57.3793C145.611 57.5561 145.793 57.7988 145.934 58.107C146.074 58.4154 146.145 58.7727 146.145 59.1788C146.145 59.9611 145.901 60.5571 145.412 60.9671C144.923 61.3769 144.277 61.5819 143.472 61.5819C142.753 61.5819 142.141 61.4372 141.637 61.1476C141.133 60.8579 140.881 60.5589 140.881 60.2507Z" fill="#C30044"/>
<path d="M130.11 44.8739C130.077 44.857 130.043 44.8392 130.01 44.821C128.589 44.0332 128.076 42.2427 128.863 40.8218L138.787 22.9192H132.131C130.467 22.9192 129.118 21.5706 129.118 19.9068V17.0356H143.827C145.452 17.0356 146.769 18.3528 146.769 19.9775C146.769 20.6698 146.53 21.3061 146.13 21.8087L136.196 39.7293H146.769V42.6004C146.769 44.2642 145.42 45.6128 143.757 45.6128H132.06C131.312 45.6128 130.629 45.3336 130.11 44.8739Z" fill="#C30044"/>
<path fill-rule="evenodd" clip-rule="evenodd" d="M111.684 22.4988C106.81 22.4988 102.859 26.4499 102.859 31.3242C102.859 36.1982 106.81 40.1493 111.684 40.1493C116.558 40.1493 120.509 36.1982 120.509 31.3242C120.509 26.4499 116.558 22.4988 111.684 22.4988ZM96.9753 31.3242C96.9753 23.2007 103.561 16.6152 111.684 16.6152C119.808 16.6152 126.393 23.2007 126.393 31.3242C126.393 39.4475 119.808 46.0329 111.684 46.0329C103.561 46.0329 96.9753 39.4475 96.9753 31.3242Z" fill="#C30044"/>
<path d="M83.1069 19.9775C83.1069 18.3528 81.7898 17.0356 80.1653 17.0356C78.5405 17.0356 77.2234 18.3528 77.2234 19.9775V42.6711C77.2234 44.2957 78.5405 45.6128 80.1653 45.6128C81.7898 45.6128 83.1069 44.2957 83.1069 42.6711V19.9775Z" fill="#C30044"/>
<path d="M91.0918 28.8022H70.0791C68.4543 28.8022 67.1372 30.1194 67.1372 31.7441C67.1372 33.3686 68.4543 34.6858 70.0791 34.6858H91.0918C92.7163 34.6858 94.0334 33.3686 94.0334 31.7441C94.0334 30.1194 92.7163 28.8022 91.0918 28.8022Z" fill="#C30044"/>
<path d="M51.3357 43.0912C53.1925 43.0912 54.6978 41.5858 54.6978 39.7291C54.6978 37.8724 53.1925 36.3672 51.3357 36.3672C49.479 36.3672 47.9736 37.8724 47.9736 39.7291C47.9736 41.5858 49.479 43.0912 51.3357 43.0912Z" fill="#C30044"/>
<path d="M38.4342 44.8987C37.0055 44.2262 36.501 42.4611 37.1735 41.1163L48.6043 18.5907C49.2768 17.162 51.042 16.6575 52.3867 17.33C53.8156 18.0025 54.3198 19.7674 53.6474 21.1123L42.2166 43.722C41.5441 45.0667 39.8631 45.6551 38.4342 44.8987Z" fill="#C30044"/>
<path d="M64.2378 44.8987C65.6667 44.2262 66.1709 42.4611 65.4985 41.1163L53.9836 18.5907C53.3112 17.162 51.5462 16.6575 50.2013 17.33C48.7726 18.0025 48.2681 19.7674 48.9406 21.1123L60.3714 43.6378C61.1279 45.0667 62.8931 45.6551 64.2378 44.8987Z" fill="#C30044"/>
<g clip-path="url(#clip0_4036_447)">
<path d="M27.32 73.1801C28.5785 75.243 30.3404 77.1555 32.278 78.7019C34.0774 80.1443 36.0541 81.3403 38.1578 82.2596C35.1054 81.2361 32.1777 79.86 29.4319 78.1581C26.6956 76.4396 24.1568 74.4137 21.8632 72.1182C22.0221 71.7791 22.1416 71.4223 22.2191 71.0549C22.3563 70.4158 22.4237 69.7632 22.4202 69.1089C22.4202 68.9064 22.4157 68.6983 22.4068 68.4846C22.4068 68.2613 22.3934 68.0289 22.3785 67.7858C22.3472 67.3027 22.2921 66.7802 22.2057 66.2227C22.1193 65.6652 22.0449 65.0348 21.9079 64.3861C21.8721 64.2251 21.8453 64.0565 21.8155 63.8833L21.7187 63.3607C21.6502 63.0068 21.5698 62.6452 21.4834 62.2716C21.1572 60.634 20.7075 58.9189 20.3232 57.2206L20.283 57.0687L20.2518 56.9168L20.1862 56.5963C20.14 56.3867 20.0939 56.1755 20.0492 55.9659C20.0045 55.7562 19.9509 55.5527 19.9003 55.3461C19.8496 55.1395 19.8228 54.9314 19.7841 54.7263C19.7454 54.5212 19.7022 54.3222 19.662 54.1187C19.6218 53.9151 19.5741 53.7252 19.5473 53.5262C19.4837 53.1313 19.4172 52.75 19.3477 52.3824C19.3299 52.2912 19.312 52.2001 19.2956 52.1105C19.2792 52.0208 19.2703 51.9282 19.2569 51.8385C19.2321 51.6593 19.2067 51.4831 19.1809 51.3099C19.1333 50.9666 19.0722 50.6415 19.032 50.3301C18.9665 49.7042 18.8831 49.1543 18.831 48.6956C18.755 47.7689 18.682 47.2205 18.682 47.2205C18.4795 47.3205 18.2856 47.4379 18.1027 47.5714C17.5938 47.9381 17.1333 48.37 16.7325 48.8566C16.6014 49.0085 16.4615 49.1877 16.3349 49.3731C16.2083 49.5584 16.0817 49.7604 15.9566 49.9807C15.6771 50.4667 15.436 50.9747 15.2357 51.4998C15.0136 52.141 14.8379 52.798 14.71 53.4655C14.6475 53.8316 14.6058 54.2159 14.57 54.6245C14.5521 54.8281 14.5387 55.0377 14.5268 55.2534C14.5111 55.4723 14.5067 55.6918 14.5134 55.9112C14.5268 56.4626 14.5566 57.0262 14.5998 57.5974C14.643 58.1685 14.7488 58.7245 14.847 59.2957L14.9215 59.7225L15.0198 60.1433C15.0863 60.4228 15.1558 60.7024 15.2283 60.9819C15.3042 61.2598 15.3772 61.5439 15.4591 61.8158C15.541 62.0877 15.6408 62.3581 15.7317 62.627L16.0281 63.423C16.0742 63.5567 16.1264 63.6873 16.177 63.8149L16.3393 64.1977C16.4515 64.4529 16.5622 64.7061 16.6715 64.9573C16.7832 65.2049 16.8874 65.4571 17.0155 65.6895C17.2582 66.1619 17.5025 66.6207 17.7423 67.0566C17.8584 67.28 17.994 67.485 18.1191 67.6916L18.4959 68.2993C14.7849 63.546 12.1285 58.0285 10.7097 52.1272C11.1059 51.8674 11.8059 51.2446 12.5192 50.0111C12.7084 49.7073 12.902 49.3533 13.0911 48.966C13.1865 48.7715 13.2803 48.568 13.3741 48.3583C13.4679 48.1487 13.5528 47.9208 13.6586 47.6823C13.8626 47.2099 14.0622 46.6934 14.2543 46.1329C14.3422 45.8518 14.4598 45.5571 14.5626 45.2533C14.6653 44.9495 14.7696 44.6305 14.8694 44.3024C14.9692 43.9408 15.1002 43.5687 15.2134 43.1904C15.3266 42.8122 15.4338 42.4309 15.5336 42.0435C15.6334 41.6562 15.7659 41.2688 15.8717 40.8784C15.9268 40.6839 15.97 40.488 16.031 40.2935L16.2038 39.7117C16.2589 39.5188 16.3125 39.3259 16.3661 39.133L16.4436 38.8443L16.5344 38.5603C16.6516 38.1805 16.7628 37.8058 16.868 37.4362C16.9797 37.0685 17.1048 36.71 17.2121 36.3591C17.2657 36.1829 17.3178 36.0097 17.3714 35.8381C17.425 35.6664 17.4891 35.5024 17.5457 35.3383C17.6588 35.0082 17.7646 34.6907 17.8629 34.3858C17.9771 34.082 18.0833 33.7939 18.1816 33.5215C18.3663 32.9716 18.5703 32.4961 18.7193 32.0936L18.9233 31.5558C18.9873 31.4039 19.0439 31.2657 19.0886 31.1578C19.178 30.9391 19.2256 30.819 19.2256 30.819C19.02 30.8126 18.8142 30.8243 18.6105 30.854C18.3703 30.8842 18.132 30.9294 17.8972 30.9892C17.7586 31.0241 17.6097 31.0667 17.4504 31.1168C17.291 31.1669 17.1376 31.2307 16.9693 31.3021C16.5916 31.4642 16.2262 31.6546 15.8761 31.8718C15.4463 32.1354 15.0423 32.4406 14.6698 32.7832C14.4613 32.9685 14.2498 33.1711 14.0354 33.3908C13.8224 33.6142 13.6243 33.8602 13.4143 34.1261C13.2043 34.3919 12.9988 34.6775 12.7888 34.9874C12.5788 35.2973 12.3986 35.6345 12.205 35.993C10.4044 39.3077 9.71485 43.6218 9.79528 46.9076C9.17967 41.4803 9.59175 35.983 11.0091 30.7142C11.5169 30.6398 12.3494 30.3846 13.4083 29.698C14.5075 29.0265 15.8017 27.9131 17.4637 26.2785C18.4675 25.3048 19.4624 24.1807 20.4915 23.1082L20.8639 22.7011C20.989 22.5659 21.1215 22.4368 21.2466 22.3031C21.5013 22.0403 21.747 21.7775 21.9913 21.5177C22.2355 21.258 22.4887 21.018 22.7255 20.7719C22.8431 20.6503 22.9564 20.5258 23.074 20.4088L23.4255 20.067C23.6568 19.8402 23.8758 19.6204 24.0823 19.4077C24.2888 19.1951 24.4958 18.9996 24.7033 18.8214C24.8999 18.6376 25.0756 18.4538 25.2514 18.2943L25.7369 17.8537C26.0347 17.5848 26.2552 17.36 26.425 17.2203C26.5947 17.0805 26.6781 16.9954 26.6781 16.9954C26.511 16.9062 26.3366 16.832 26.1569 16.7737C25.9461 16.7017 25.7312 16.6429 25.5135 16.5974C25.223 16.5396 24.9289 16.5026 24.6333 16.4866C24.257 16.4655 23.8797 16.4726 23.5044 16.5078C23.3987 16.5169 23.2914 16.5276 23.1827 16.5428C23.074 16.558 22.9653 16.5777 22.8521 16.599C22.6287 16.643 22.3934 16.6977 22.1477 16.7645C21.9019 16.8314 21.6472 16.9165 21.3806 17.003C21.1141 17.0896 20.8549 17.2172 20.5749 17.3479C20.2949 17.4785 20.0105 17.6259 19.7141 17.7914C19.4177 17.957 19.1318 18.1545 18.8205 18.3657C17.6691 19.18 16.6133 20.1265 15.6736 21.1866C15.4338 21.4509 15.2149 21.7289 14.99 22.0023L14.6579 22.417C14.5492 22.5553 14.439 22.692 14.3407 22.8363C14.1396 23.1188 13.943 23.4029 13.7449 23.6855L13.4605 24.1062C13.3696 24.2475 13.2862 24.3918 13.2013 24.5331C14.0233 22.6965 14.9688 20.92 16.031 19.2163L16.8502 17.957L17.7184 16.7311C17.8674 16.5245 18.0163 16.3286 18.1652 16.1235L18.6239 15.5311C18.7803 15.3351 18.9218 15.13 19.0901 14.9417L19.5726 14.369C19.7767 14.2626 20.0194 14.1305 20.3083 13.9694C20.5973 13.8084 20.9339 13.6398 21.2958 13.4362C21.4775 13.3345 21.6666 13.2266 21.8617 13.1112C22.0568 12.9957 22.2727 12.8879 22.4887 12.7648C22.7046 12.6418 22.9266 12.5172 23.1559 12.382L23.5029 12.1769L23.8693 11.9734C24.115 11.8336 24.3682 11.6878 24.6229 11.5359L25.0116 11.3035L25.4182 11.0726C25.6922 10.9166 25.9692 10.753 26.2492 10.5819C26.3862 10.4938 26.5322 10.4102 26.6781 10.3282L27.1249 10.0715C28.2955 9.35752 29.5823 8.61469 30.9316 7.7716C31.3099 7.54779 31.6807 7.31689 32.0441 7.0789C32.4105 6.84952 32.7784 6.62318 33.1328 6.3938C33.3115 6.28139 33.4828 6.1553 33.663 6.04745C33.8432 5.93959 34.016 5.82566 34.1902 5.71325L34.7055 5.3745L34.9587 5.20284L35.2134 5.04182C35.553 4.82763 35.8821 4.61192 36.2038 4.39317L36.4436 4.23215L36.6848 4.08024L37.154 3.77643L37.6112 3.47261C37.7601 3.37235 37.909 3.26906 38.058 3.17943C38.3558 2.99512 38.6383 2.81333 38.9054 2.63408C39.4445 2.26495 39.9479 1.96417 40.3947 1.66947L41.0217 1.2578L41.5593 0.920562C42.2087 0.505854 42.5765 0.246091 42.5765 0.246091C42.5765 0.246091 42.1461 0.170136 41.3687 0.0865872L40.7209 0.0243044C40.4841 0.00911366 40.2309 0.00303929 39.9568 -0.0045561C39.4088 -0.0136706 38.7788 -0.0334189 38.0997 0.0212679C37.7571 0.0435478 37.3997 0.0713957 37.0274 0.104815C36.8397 0.118487 36.6535 0.147351 36.4629 0.174694L35.8806 0.262801L35.2849 0.364579L34.9766 0.419266C34.8753 0.439014 34.7725 0.464837 34.6698 0.487624C34.2587 0.584845 33.8358 0.68966 33.4053 0.80511L33.0822 0.893217L32.759 0.998034L32.1082 1.2183C31.8892 1.29425 31.6688 1.37021 31.4484 1.45528C31.228 1.54035 31.0106 1.63605 30.7901 1.72871C30.3538 1.92315 29.9085 2.11911 29.4706 2.33634C29.0327 2.55357 28.6053 2.81181 28.1734 3.06702C27.9872 3.17335 27.807 3.29184 27.6313 3.41033L27.1085 3.76579C26.7675 4.00733 26.4249 4.23367 26.1137 4.49191C25.5018 4.96537 24.9156 5.47249 24.3578 6.01099C24.0897 6.26923 23.8316 6.52241 23.5833 6.77053C23.3351 7.01865 23.1053 7.27841 22.8938 7.54982C22.6749 7.80806 22.4589 8.05415 22.2638 8.30936C22.0687 8.56456 21.8855 8.81673 21.7083 9.0613C20.6748 10.4831 19.843 12.0464 19.2375 13.7051C18.0546 15.0789 16.9626 16.5313 15.9685 18.0527C16.2664 17.4132 16.6268 16.7706 16.9663 16.0779L18.0669 13.9907C18.4571 13.2919 18.825 12.5521 19.2256 11.8412C19.4222 11.4812 19.6099 11.1121 19.802 10.749C19.9941 10.3859 20.1937 10.0305 20.3798 9.66589C20.4737 9.48208 20.5645 9.30131 20.6509 9.12358C20.7373 8.94585 20.8311 8.77875 20.9145 8.61014C21.0843 8.27138 21.2392 7.94174 21.3821 7.62121L21.7887 6.70065C21.9138 6.40595 22.028 6.12037 22.1313 5.84389C22.2355 5.56894 22.3234 5.29551 22.4128 5.04486C22.5021 4.79421 22.578 4.55116 22.6466 4.31874C22.7711 3.89814 22.874 3.47121 22.9549 3.03967C23.0764 2.46448 23.1398 1.87808 23.144 1.2897C23.1465 1.08609 23.1305 0.882684 23.0963 0.682065L22.7165 0.975249C22.4753 1.16969 22.1208 1.43097 21.6949 1.8153C20.562 2.78573 19.4919 3.83001 18.4914 4.94156C17.202 6.36068 16.0416 7.89617 15.0243 9.52918C14.7681 9.95452 14.5199 10.3804 14.2796 10.8067C14.0413 11.2321 13.8328 11.6741 13.6243 12.1025C13.525 12.3182 13.4258 12.5324 13.3265 12.7451C13.2282 12.9562 13.1477 13.1765 13.0629 13.3907C12.8961 13.8191 12.7426 14.2398 12.6056 14.65C12.3807 15.3609 12.2214 16.0293 12.0903 16.6354C12.0218 16.9392 11.9846 17.2431 11.9414 17.5195C11.8982 17.796 11.8759 18.0725 11.8535 18.3307C11.8312 18.589 11.8163 18.8335 11.8103 19.0675C11.8044 19.3014 11.8103 19.5232 11.8237 19.7435C11.8412 20.1288 11.881 20.5128 11.9429 20.8934C11.9712 21.0635 12.001 21.2246 12.0367 21.3749C12.0724 21.5253 12.1171 21.6788 12.1603 21.8064C12.2366 22.0464 12.3286 22.2808 12.4358 22.5082C12.5793 22.8199 12.7631 23.1107 12.9824 23.3725C11.7484 25.977 10.7831 28.7052 10.1021 31.5133C9.41526 34.3189 9.00466 37.1875 8.87638 40.0763C8.81085 38.3658 8.75575 36.312 8.76468 34.1215C8.77362 31.931 8.85701 29.6053 8.89871 27.3267C8.89871 27.0973 8.89871 26.871 8.89871 26.6522C8.89871 26.4335 8.89871 26.2132 8.89871 26.0036C8.89871 25.5833 8.89426 25.1782 8.88533 24.7883C8.87639 24.3984 8.86049 24.0247 8.83766 23.6672C8.82177 23.3097 8.79844 22.9674 8.76766 22.6403C8.73937 22.3137 8.69619 21.9978 8.66342 21.7031C8.63066 21.4084 8.59193 21.1273 8.54874 20.86C8.47352 20.3776 8.3741 19.8995 8.25088 19.4275C8.10215 18.7926 7.88954 18.1751 7.61643 17.5848C7.52253 17.3795 7.40984 17.1837 7.27984 17L7.04303 17.4876L6.76604 18.0664C6.71391 18.1803 6.65581 18.3019 6.59624 18.431C6.53666 18.5601 6.48008 18.7014 6.41902 18.8487C5.75093 20.3997 5.1891 21.996 4.73758 23.6262C4.45014 24.5924 4.23421 25.6436 4.0123 26.713C3.83507 27.7976 3.65335 28.902 3.57889 30.0185C3.48741 31.1131 3.4571 32.2122 3.48806 33.3103C3.51636 33.8466 3.55359 34.3737 3.59976 34.8841C3.62657 35.1408 3.64445 35.39 3.68466 35.6436C3.72487 35.8973 3.76208 36.1358 3.80527 36.3758C3.88569 36.8224 3.97057 37.2432 4.05844 37.6427C4.14631 38.0423 4.26995 38.419 4.37867 38.7745C4.48739 39.1299 4.60058 39.4626 4.71525 39.7755C4.82993 40.0885 4.96695 40.3832 5.09205 40.6551C5.31678 41.1482 5.57298 41.6257 5.85903 42.0845C6.09861 42.4491 6.36077 42.7977 6.6439 43.1281C7.03472 43.5943 7.49211 43.9979 8.00068 44.3252C8.28897 44.5054 8.60085 44.643 8.92703 44.7338C9.12737 47.9421 9.67683 51.1178 10.5653 54.2022L10.7276 54.7825L10.9167 55.3522L11.295 56.4945L11.3904 56.7786L11.4991 57.0596L11.715 57.6201L12.1499 58.7397L12.6354 59.838L12.8797 60.3864C12.9199 60.4775 12.9586 60.5702 13.0018 60.6598L13.1373 60.9287L13.6749 62.0012C13.7658 62.1789 13.8522 62.3597 13.9475 62.5359L14.2454 63.0569C13.2028 61.471 11.928 59.4673 10.6814 57.2282C9.43489 54.9891 8.16746 52.5373 6.92835 50.1387C6.699 49.683 6.45327 49.2591 6.23434 48.8459C6.01541 48.4328 5.80392 48.0378 5.58797 47.6626C5.47925 47.4742 5.37203 47.2904 5.26331 47.1127C5.15459 46.9349 5.04738 46.7603 4.95058 46.5886C4.752 46.2483 4.55343 45.9258 4.35485 45.6209C3.70793 44.6051 2.98703 43.6403 2.19829 42.7347C1.87958 42.3792 1.5698 42.083 1.30471 41.8384C1.08586 41.633 0.856717 41.4393 0.618154 41.2582C0.423043 41.1051 0.214102 40.9713 -0.00585937 40.8586C-0.00585937 40.8586 -0.0058841 41.0759 0.0060304 41.4663C0.0179449 41.8567 0.0477559 42.4354 0.105839 43.1494C0.135625 43.5064 0.169868 43.8983 0.205611 44.3206C0.216036 44.427 0.226456 44.5333 0.236881 44.6427L0.281568 44.9753C0.314333 45.2017 0.347086 45.4311 0.38134 45.6726C0.451338 46.1496 0.530277 46.6509 0.6107 47.1719C0.691123 47.693 0.828142 48.2353 0.948777 48.7867C1.00984 49.0632 1.07388 49.3427 1.13792 49.6268C1.20196 49.9108 1.28686 50.1949 1.36728 50.482C1.52962 51.0562 1.69939 51.6395 1.87811 52.2259C2.05682 52.8123 2.29213 53.3941 2.50957 53.9789L2.6749 54.4164C2.73001 54.5683 2.78659 54.7081 2.85212 54.8509L3.23339 55.7091C3.36445 55.9917 3.49401 56.2742 3.62507 56.5583L3.82465 56.9761L4.04357 57.3862C4.34143 57.9285 4.6393 58.4602 4.93716 58.9752C5.23502 59.4901 5.58502 59.9732 5.91117 60.4426C6.075 60.6765 6.23929 60.9054 6.40411 61.1292C6.57389 61.351 6.75261 61.5621 6.92686 61.7687C7.26047 62.1652 7.58365 62.5283 7.89938 62.8731C8.04832 63.0448 8.22107 63.2028 8.38043 63.3562C8.53979 63.5096 8.69917 63.66 8.85555 63.7997C9.16681 64.0823 9.46614 64.3405 9.75655 64.579C10.047 64.8175 10.3523 65.0196 10.6263 65.211C11.1258 65.5504 11.6473 65.8549 12.1871 66.1224C12.6219 66.3272 13.0697 66.5017 13.5275 66.645C13.8852 66.756 14.2506 66.8393 14.6207 66.8941C14.909 66.9323 15.1998 66.9465 15.4904 66.9366C15.8485 66.9311 16.2038 66.8717 16.5448 66.7604C16.7936 67.1113 17.0319 67.4698 17.2895 67.8147L18.0759 68.8355L18.4705 69.3459L18.8875 69.8366L19.7201 70.8179C20.006 71.1369 20.3039 71.4453 20.5958 71.7597C20.8877 72.0742 21.1751 72.3932 21.4894 72.6848L22.4113 73.5811L22.6421 73.8044L22.8819 74.0171L23.3629 74.4424C25.9194 76.7411 28.7483 78.7038 31.7835 80.2848C29.8668 79.4857 27.5315 78.4087 25.0816 77.1038C22.6317 75.7989 20.0507 74.2829 17.5353 72.7745C16.597 72.1866 15.6781 71.6959 14.8619 71.2205C14.4479 70.9845 14.0423 70.7703 13.6452 70.5779C13.2579 70.3743 12.8931 70.1784 12.5312 70.0037C11.0761 69.3094 9.87871 68.8021 8.85555 68.4952C8.34322 68.3433 7.90983 68.2188 7.51517 68.1352C7.19012 68.0623 6.8615 68.007 6.53071 67.9696C6.25912 67.9343 5.98487 67.9251 5.71159 67.9423L6.0705 68.5271C6.30582 68.9023 6.63793 69.4538 7.11302 70.1039C7.58811 70.7541 8.12578 71.5471 8.81384 72.3749L9.33659 73.0175C9.5168 73.2347 9.69552 73.4611 9.89657 73.6768C10.2927 74.1158 10.7067 74.5685 11.1371 75.0288C13.0131 76.9825 15.0857 78.7289 17.3208 80.2392C19.5027 81.7159 21.877 82.8731 24.3742 83.6769C24.9193 83.841 25.4395 83.9847 25.935 84.1083C26.4398 84.2177 26.9209 84.3043 27.3781 84.3772C27.606 84.4136 27.8249 84.4455 28.0438 84.4744L28.3655 84.5154C28.4713 84.526 28.5785 84.5321 28.6812 84.5397C29.0997 84.5686 29.4944 84.5823 29.8727 84.5868C30.251 84.5914 30.595 84.5868 30.9257 84.5655C31.2563 84.5443 31.5765 84.4987 31.8713 84.4547C32.3949 84.3776 32.9125 84.2628 33.4202 84.1113C34.1287 83.8931 34.7995 83.5636 35.4085 83.1346C35.7336 82.9055 36.0237 82.6286 36.2693 82.3128C38.5199 83.1615 40.8365 83.8155 43.1946 84.2678L44.0793 84.4303L44.5261 84.5109C44.675 84.5352 44.8239 84.5503 44.9729 84.5716C45.5686 84.6476 46.1643 84.7235 46.76 84.7995L48.5546 84.9377C48.8525 84.9681 49.1503 84.9666 49.4482 84.9757L50.3418 85C50.7052 85.0091 51.0001 84.8618 51.0001 84.6719C51.0001 84.482 50.7022 84.321 50.3522 84.3119L49.5033 84.2906L49.0789 84.2784H48.8659L48.6544 84.2617L46.9581 84.1296L46.7466 84.1129L46.5366 84.0855L46.1151 84.0308L45.2722 83.9215C44.7078 83.8622 44.1522 83.7468 43.5938 83.648C43.5321 83.2372 43.4211 82.8356 43.2631 82.4525C43.1619 82.1897 43.0293 81.9132 42.8669 81.5882C42.6859 81.2322 42.487 80.8859 42.2712 80.5506C42.0344 80.1785 41.7559 79.7911 41.4387 79.3809C41.1215 78.9708 40.7641 78.5044 40.359 78.0441C40.2577 77.9272 40.1505 77.8163 40.0462 77.6917L39.72 77.3165C39.4981 77.0643 39.2628 76.8076 39.0156 76.557C38.892 76.4248 38.7624 76.3033 38.6358 76.162C38.5092 76.0207 38.3796 75.881 38.2456 75.7397C37.979 75.4587 37.699 75.1731 37.4042 74.886C36.1606 73.5917 34.783 72.2732 33.4738 70.9364C32.1647 69.5996 30.942 68.2522 29.8906 67.0323L29.5063 66.5766L29.3172 66.3609C29.2586 66.285 29.2005 66.2105 29.143 66.1376C28.9121 65.8444 28.6887 65.568 28.4757 65.3097L28.3179 65.1183L28.1689 64.9239L27.8934 64.5563C27.7147 64.3203 27.5484 64.1056 27.3945 63.9122C26.8226 63.0979 26.4607 62.6316 26.4607 62.6316C26.3222 62.8404 26.2016 63.0609 26.1003 63.2909C25.8175 63.9259 25.6173 64.5959 25.5045 65.2839C25.4189 65.7783 25.378 66.2797 25.3824 66.7817C25.3824 67.0597 25.3929 67.3529 25.4167 67.6612C25.4286 67.8132 25.4405 67.9772 25.4629 68.1352C25.4852 68.2932 25.5135 68.4542 25.5433 68.6198C25.6058 68.9494 25.6818 69.2958 25.7771 69.6573C25.8262 69.8381 25.8769 70.0249 25.935 70.2103C25.9931 70.3956 26.066 70.5779 26.139 70.7678C26.2879 71.146 26.4532 71.541 26.6439 71.9511C26.8345 72.3613 27.0669 72.7562 27.32 73.1801Z" fill="#C5CBD5"/>
</g>
<g clip-path="url(#clip1_4036_447)">
<path d="M153.68 73.1801C152.421 75.243 150.66 77.1555 148.722 78.7019C146.923 80.1443 144.946 81.3403 142.842 82.2596C145.895 81.2361 148.822 79.86 151.568 78.1581C154.304 76.4396 156.843 74.4137 159.137 72.1182C158.978 71.7791 158.858 71.4223 158.781 71.0549C158.644 70.4158 158.576 69.7632 158.58 69.1089C158.58 68.9064 158.584 68.6983 158.593 68.4846C158.593 68.2613 158.607 68.0289 158.622 67.7858C158.653 67.3027 158.708 66.7802 158.794 66.2227C158.881 65.6652 158.955 65.0348 159.092 64.3861C159.128 64.2251 159.155 64.0565 159.184 63.8833L159.281 63.3607C159.35 63.0068 159.43 62.6452 159.517 62.2716C159.843 60.634 160.293 58.9189 160.677 57.2206L160.717 57.0687L160.748 56.9168L160.814 56.5963C160.86 56.3867 160.906 56.1755 160.951 55.9659C160.995 55.7562 161.049 55.5527 161.1 55.3461C161.15 55.1395 161.177 54.9314 161.216 54.7263C161.255 54.5212 161.298 54.3222 161.338 54.1187C161.378 53.9151 161.426 53.7252 161.453 53.5262C161.516 53.1313 161.583 52.75 161.652 52.3824C161.67 52.2912 161.688 52.2001 161.704 52.1105C161.721 52.0208 161.73 51.9282 161.743 51.8385C161.768 51.6593 161.793 51.4831 161.819 51.3099C161.867 50.9666 161.928 50.6415 161.968 50.3301C162.034 49.7042 162.117 49.1543 162.169 48.6956C162.245 47.7689 162.318 47.2205 162.318 47.2205C162.521 47.3205 162.714 47.4379 162.897 47.5714C163.406 47.9381 163.867 48.37 164.267 48.8566C164.399 49.0085 164.539 49.1877 164.665 49.3731C164.792 49.5584 164.918 49.7604 165.043 49.9807C165.323 50.4667 165.564 50.9747 165.764 51.4998C165.986 52.141 166.162 52.798 166.29 53.4655C166.353 53.8316 166.394 54.2159 166.43 54.6245C166.448 54.8281 166.461 55.0377 166.473 55.2534C166.489 55.4723 166.493 55.6918 166.487 55.9112C166.473 56.4626 166.443 57.0262 166.4 57.5974C166.357 58.1685 166.251 58.7245 166.153 59.2957L166.078 59.7225L165.98 60.1433C165.914 60.4228 165.844 60.7024 165.772 60.9819C165.696 61.2598 165.623 61.5439 165.541 61.8158C165.459 62.0877 165.359 62.3581 165.268 62.627L164.972 63.423C164.926 63.5567 164.874 63.6873 164.823 63.8149L164.661 64.1977C164.548 64.4529 164.438 64.7061 164.329 64.9573C164.217 65.2049 164.113 65.4571 163.985 65.6895C163.742 66.1619 163.498 66.6207 163.258 67.0566C163.142 67.28 163.006 67.485 162.881 67.6916L162.504 68.2993C166.215 63.546 168.871 58.0285 170.29 52.1272C169.894 51.8674 169.194 51.2446 168.481 50.0111C168.292 49.7073 168.098 49.3533 167.909 48.966C167.814 48.7715 167.72 48.568 167.626 48.3583C167.532 48.1487 167.447 47.9208 167.341 47.6823C167.137 47.2099 166.938 46.6934 166.746 46.1329C166.658 45.8518 166.54 45.5571 166.437 45.2533C166.335 44.9495 166.23 44.6305 166.131 44.3024C166.031 43.9408 165.9 43.5687 165.787 43.1904C165.673 42.8122 165.566 42.4309 165.466 42.0435C165.367 41.6562 165.234 41.2688 165.128 40.8784C165.073 40.6839 165.03 40.488 164.969 40.2935L164.796 39.7117C164.741 39.5188 164.687 39.3259 164.634 39.133L164.556 38.8443L164.466 38.5603C164.348 38.1805 164.237 37.8058 164.132 37.4362C164.02 37.0685 163.895 36.71 163.788 36.3591C163.734 36.1829 163.682 36.0097 163.629 35.8381C163.575 35.6664 163.511 35.5024 163.454 35.3383C163.341 35.0082 163.235 34.6907 163.137 34.3858C163.023 34.082 162.917 33.7939 162.818 33.5215C162.634 32.9716 162.43 32.4961 162.281 32.0936L162.077 31.5558C162.013 31.4039 161.956 31.2657 161.911 31.1578C161.822 30.9391 161.774 30.819 161.774 30.819C161.98 30.8126 162.186 30.8243 162.389 30.854C162.63 30.8842 162.868 30.9294 163.103 30.9892C163.241 31.0241 163.39 31.0667 163.55 31.1168C163.709 31.1669 163.862 31.2307 164.031 31.3021C164.408 31.4642 164.774 31.6546 165.124 31.8718C165.554 32.1354 165.958 32.4406 166.33 32.7832C166.539 32.9685 166.75 33.1711 166.965 33.3908C167.178 33.6142 167.376 33.8602 167.586 34.1261C167.796 34.3919 168.001 34.6775 168.211 34.9874C168.421 35.2973 168.601 35.6345 168.795 35.993C170.596 39.3077 171.285 43.6218 171.205 46.9076C171.82 41.4803 171.408 35.983 169.991 30.7142C169.483 30.6398 168.651 30.3846 167.592 29.698C166.493 29.0265 165.198 27.9131 163.536 26.2785C162.532 25.3048 161.538 24.1807 160.508 23.1082L160.136 22.7011C160.011 22.5659 159.878 22.4368 159.753 22.3031C159.499 22.0403 159.253 21.7775 159.009 21.5177C158.764 21.258 158.511 21.018 158.275 20.7719C158.157 20.6503 158.044 20.5258 157.926 20.4088L157.575 20.067C157.343 19.8402 157.124 19.6204 156.918 19.4077C156.711 19.1951 156.504 18.9996 156.297 18.8214C156.1 18.6376 155.924 18.4538 155.749 18.2943L155.263 17.8537C154.965 17.5848 154.745 17.36 154.575 17.2203C154.405 17.0805 154.322 16.9954 154.322 16.9954C154.489 16.9062 154.663 16.832 154.843 16.7737C155.054 16.7017 155.269 16.6429 155.487 16.5974C155.777 16.5396 156.071 16.5026 156.367 16.4866C156.743 16.4655 157.12 16.4726 157.496 16.5078C157.601 16.5169 157.709 16.5276 157.817 16.5428C157.926 16.558 158.035 16.5777 158.148 16.599C158.371 16.643 158.607 16.6977 158.852 16.7645C159.098 16.8314 159.353 16.9165 159.619 17.003C159.886 17.0896 160.145 17.2172 160.425 17.3479C160.705 17.4785 160.99 17.6259 161.286 17.7914C161.582 17.957 161.868 18.1545 162.179 18.3657C163.331 19.18 164.387 20.1265 165.326 21.1866C165.566 21.4509 165.785 21.7289 166.01 22.0023L166.342 22.417C166.451 22.5553 166.561 22.692 166.659 22.8363C166.86 23.1188 167.057 23.4029 167.255 23.6855L167.54 24.1062C167.63 24.2475 167.714 24.3918 167.799 24.5331C166.977 22.6965 166.031 20.92 164.969 19.2163L164.15 17.957L163.282 16.7311C163.133 16.5245 162.984 16.3286 162.835 16.1235L162.376 15.5311C162.22 15.3351 162.078 15.13 161.91 14.9417L161.427 14.369C161.223 14.2626 160.981 14.1305 160.692 13.9694C160.403 13.8084 160.066 13.6398 159.704 13.4362C159.523 13.3345 159.333 13.2266 159.138 13.1112C158.943 12.9957 158.727 12.8879 158.511 12.7648C158.295 12.6418 158.073 12.5172 157.844 12.382L157.497 12.1769L157.131 11.9734C156.885 11.8336 156.632 11.6878 156.377 11.5359L155.988 11.3035L155.582 11.0726C155.308 10.9166 155.031 10.753 154.751 10.5819C154.614 10.4938 154.468 10.4102 154.322 10.3282L153.875 10.0715C152.704 9.35752 151.418 8.61469 150.068 7.7716C149.69 7.54779 149.319 7.31689 148.956 7.0789C148.59 6.84952 148.222 6.62318 147.867 6.3938C147.688 6.28139 147.517 6.1553 147.337 6.04745C147.157 5.93959 146.984 5.82566 146.81 5.71325L146.294 5.3745L146.041 5.20284L145.787 5.04182C145.447 4.82763 145.118 4.61192 144.796 4.39317L144.556 4.23215L144.315 4.08024L143.846 3.77643L143.389 3.47261C143.24 3.37235 143.091 3.26906 142.942 3.17943C142.644 2.99512 142.362 2.81333 142.095 2.63408C141.555 2.26495 141.052 1.96417 140.605 1.66947L139.978 1.2578L139.441 0.920562C138.791 0.505854 138.423 0.246091 138.423 0.246091C138.423 0.246091 138.854 0.170136 139.631 0.0865872L140.279 0.0243044C140.516 0.00911366 140.769 0.00303929 141.043 -0.0045561C141.591 -0.0136706 142.221 -0.0334189 142.9 0.0212679C143.243 0.0435478 143.6 0.0713957 143.973 0.104815C144.16 0.118487 144.346 0.147351 144.537 0.174694L145.119 0.262801L145.715 0.364579L146.023 0.419266C146.125 0.439014 146.227 0.464837 146.33 0.487624C146.741 0.584845 147.164 0.68966 147.595 0.80511L147.918 0.893217L148.241 0.998034L148.892 1.2183C149.111 1.29425 149.331 1.37021 149.552 1.45528C149.772 1.54035 149.989 1.63605 150.21 1.72871C150.646 1.92315 151.092 2.11911 151.529 2.33634C151.967 2.55357 152.395 2.81181 152.827 3.06702C153.013 3.17335 153.193 3.29184 153.369 3.41033L153.891 3.76579C154.233 4.00733 154.575 4.23367 154.886 4.49191C155.498 4.96537 156.084 5.47249 156.642 6.01099C156.91 6.26923 157.168 6.52241 157.417 6.77053C157.665 7.01865 157.895 7.27841 158.106 7.54982C158.325 7.80806 158.541 8.05415 158.736 8.30936C158.931 8.56456 159.114 8.81673 159.292 9.0613C160.325 10.4831 161.157 12.0464 161.762 13.7051C162.945 15.0789 164.037 16.5313 165.031 18.0527C164.734 17.4132 164.373 16.7706 164.034 16.0779L162.933 13.9907C162.543 13.2919 162.175 12.5521 161.774 11.8412C161.578 11.4812 161.39 11.1121 161.198 10.749C161.006 10.3859 160.806 10.0305 160.62 9.66589C160.526 9.48208 160.435 9.30131 160.349 9.12358C160.263 8.94585 160.169 8.77875 160.085 8.61014C159.916 8.27138 159.761 7.94174 159.618 7.62121L159.211 6.70065C159.086 6.40595 158.972 6.12037 158.869 5.84389C158.764 5.56894 158.677 5.29551 158.587 5.04486C158.498 4.79421 158.422 4.55116 158.353 4.31874C158.229 3.89814 158.126 3.47121 158.045 3.03967C157.924 2.46448 157.86 1.87808 157.856 1.2897C157.854 1.08609 157.87 0.882684 157.904 0.682065L158.283 0.975249C158.525 1.16969 158.879 1.43097 159.305 1.8153C160.438 2.78573 161.508 3.83001 162.509 4.94156C163.798 6.36068 164.958 7.89617 165.976 9.52918C166.232 9.95452 166.48 10.3804 166.72 10.8067C166.959 11.2321 167.167 11.6741 167.376 12.1025C167.475 12.3182 167.574 12.5324 167.674 12.7451C167.772 12.9562 167.852 13.1765 167.937 13.3907C168.104 13.8191 168.257 14.2398 168.394 14.65C168.619 15.3609 168.779 16.0293 168.91 16.6354C168.978 16.9392 169.015 17.2431 169.059 17.5195C169.102 17.796 169.124 18.0725 169.146 18.3307C169.169 18.589 169.184 18.8335 169.19 19.0675C169.196 19.3014 169.19 19.5232 169.176 19.7435C169.159 20.1288 169.119 20.5128 169.057 20.8934C169.029 21.0635 168.999 21.2246 168.963 21.3749C168.928 21.5253 168.883 21.6788 168.84 21.8064C168.763 22.0464 168.671 22.2808 168.564 22.5082C168.421 22.8199 168.237 23.1107 168.018 23.3725C169.252 25.977 170.217 28.7052 170.898 31.5133C171.585 34.3189 171.995 37.1875 172.124 40.0763C172.189 38.3658 172.244 36.312 172.235 34.1215C172.226 31.931 172.143 29.6053 172.101 27.3267C172.101 27.0973 172.101 26.871 172.101 26.6522C172.101 26.4335 172.101 26.2132 172.101 26.0036C172.101 25.5833 172.106 25.1782 172.115 24.7883C172.124 24.3984 172.14 24.0247 172.162 23.6672C172.178 23.3097 172.202 22.9674 172.232 22.6403C172.261 22.3137 172.304 21.9978 172.337 21.7031C172.369 21.4084 172.408 21.1273 172.451 20.86C172.526 20.3776 172.626 19.8995 172.749 19.4275C172.898 18.7926 173.11 18.1751 173.384 17.5848C173.477 17.3795 173.59 17.1837 173.72 17L173.957 17.4876L174.234 18.0664C174.286 18.1803 174.344 18.3019 174.404 18.431C174.463 18.5601 174.52 18.7014 174.581 18.8487C175.249 20.3997 175.811 21.996 176.262 23.6262C176.55 24.5924 176.766 25.6436 176.988 26.713C177.165 27.7976 177.347 28.902 177.421 30.0185C177.513 31.1131 177.543 32.2122 177.512 33.3103C177.484 33.8466 177.446 34.3737 177.4 34.8841C177.373 35.1408 177.356 35.39 177.315 35.6436C177.275 35.8973 177.238 36.1358 177.195 36.3758C177.114 36.8224 177.029 37.2432 176.942 37.6427C176.854 38.0423 176.73 38.419 176.621 38.7745C176.513 39.1299 176.399 39.4626 176.285 39.7755C176.17 40.0885 176.033 40.3832 175.908 40.6551C175.683 41.1482 175.427 41.6257 175.141 42.0845C174.901 42.4491 174.639 42.7977 174.356 43.1281C173.965 43.5943 173.508 43.9979 172.999 44.3252C172.711 44.5054 172.399 44.643 172.073 44.7338C171.873 47.9421 171.323 51.1178 170.435 54.2022L170.272 54.7825L170.083 55.3522L169.705 56.4945L169.61 56.7786L169.501 57.0596L169.285 57.6201L168.85 58.7397L168.365 59.838L168.12 60.3864C168.08 60.4775 168.041 60.5702 167.998 60.6598L167.863 60.9287L167.325 62.0012C167.234 62.1789 167.148 62.3597 167.053 62.5359L166.755 63.0569C167.797 61.471 169.072 59.4673 170.319 57.2282C171.565 54.9891 172.833 52.5373 174.072 50.1387C174.301 49.683 174.547 49.2591 174.766 48.8459C174.985 48.4328 175.196 48.0378 175.412 47.6626C175.521 47.4742 175.628 47.2904 175.737 47.1127C175.845 46.9349 175.953 46.7603 176.049 46.5886C176.248 46.2483 176.447 45.9258 176.645 45.6209C177.292 44.6051 178.013 43.6403 178.802 42.7347C179.12 42.3792 179.43 42.083 179.695 41.8384C179.914 41.633 180.143 41.4393 180.382 41.2582C180.577 41.1051 180.786 40.9713 181.006 40.8586C181.006 40.8586 181.006 41.0759 180.994 41.4663C180.982 41.8567 180.952 42.4354 180.894 43.1494C180.864 43.5064 180.83 43.8983 180.794 44.3206C180.784 44.427 180.774 44.5333 180.763 44.6427L180.718 44.9753C180.686 45.2017 180.653 45.4311 180.619 45.6726C180.549 46.1496 180.47 46.6509 180.389 47.1719C180.309 47.693 180.172 48.2353 180.051 48.7867C179.99 49.0632 179.926 49.3427 179.862 49.6268C179.798 49.9108 179.713 50.1949 179.633 50.482C179.47 51.0562 179.301 51.6395 179.122 52.2259C178.943 52.8123 178.708 53.3941 178.49 53.9789L178.325 54.4164C178.27 54.5683 178.213 54.7081 178.148 54.8509L177.767 55.7091C177.636 55.9917 177.506 56.2742 177.375 56.5583L177.175 56.9761L176.956 57.3862C176.659 57.9285 176.361 58.4602 176.063 58.9752C175.765 59.4901 175.415 59.9732 175.089 60.4426C174.925 60.6765 174.761 60.9054 174.596 61.1292C174.426 61.351 174.247 61.5621 174.073 61.7687C173.74 62.1652 173.416 62.5283 173.101 62.8731C172.952 63.0448 172.779 63.2028 172.62 63.3562C172.46 63.5096 172.301 63.66 172.144 63.7997C171.833 64.0823 171.534 64.3405 171.243 64.579C170.953 64.8175 170.648 65.0196 170.374 65.211C169.874 65.5504 169.353 65.8549 168.813 66.1224C168.378 66.3272 167.93 66.5017 167.472 66.645C167.115 66.756 166.749 66.8393 166.379 66.8941C166.091 66.9323 165.8 66.9465 165.51 66.9366C165.152 66.9311 164.796 66.8717 164.455 66.7604C164.206 67.1113 163.968 67.4698 163.71 67.8147L162.924 68.8355L162.529 69.3459L162.112 69.8366L161.28 70.8179C160.994 71.1369 160.696 71.4453 160.404 71.7597C160.112 72.0742 159.825 72.3932 159.511 72.6848L158.589 73.5811L158.358 73.8044L158.118 74.0171L157.637 74.4424C155.081 76.7411 152.252 78.7038 149.217 80.2848C151.133 79.4857 153.468 78.4087 155.918 77.1038C158.368 75.7989 160.949 74.2829 163.465 72.7745C164.403 72.1866 165.322 71.6959 166.138 71.2205C166.552 70.9845 166.958 70.7703 167.355 70.5779C167.742 70.3743 168.107 70.1784 168.469 70.0037C169.924 69.3094 171.121 68.8021 172.144 68.4952C172.657 68.3433 173.09 68.2188 173.485 68.1352C173.81 68.0623 174.138 68.007 174.469 67.9696C174.741 67.9343 175.015 67.9251 175.288 67.9423L174.929 68.5271C174.694 68.9023 174.362 69.4538 173.887 70.1039C173.412 70.7541 172.874 71.5471 172.186 72.3749L171.663 73.0175C171.483 73.2347 171.304 73.4611 171.103 73.6768C170.707 74.1158 170.293 74.5685 169.863 75.0288C167.987 76.9825 165.914 78.7289 163.679 80.2392C161.497 81.7159 159.123 82.8731 156.626 83.6769C156.081 83.841 155.56 83.9847 155.065 84.1083C154.56 84.2177 154.079 84.3043 153.622 84.3772C153.394 84.4136 153.175 84.4455 152.956 84.4744L152.634 84.5154C152.529 84.526 152.422 84.5321 152.319 84.5397C151.9 84.5686 151.506 84.5823 151.127 84.5868C150.749 84.5914 150.405 84.5868 150.074 84.5655C149.744 84.5443 149.424 84.4987 149.129 84.4547C148.605 84.3776 148.087 84.2628 147.58 84.1113C146.871 83.8931 146.2 83.5636 145.592 83.1346C145.266 82.9055 144.976 82.6286 144.731 82.3128C142.48 83.1615 140.164 83.8155 137.805 84.2678L136.921 84.4303L136.474 84.5109C136.325 84.5352 136.176 84.5503 136.027 84.5716C135.431 84.6476 134.836 84.7235 134.24 84.7995L132.445 84.9377C132.148 84.9681 131.85 84.9666 131.552 84.9757L130.658 85C130.295 85.0091 130 84.8618 130 84.6719C130 84.482 130.298 84.321 130.648 84.3119L131.497 84.2906L131.921 84.2784H132.134L132.346 84.2617L134.042 84.1296L134.253 84.1129L134.463 84.0855L134.885 84.0308L135.728 83.9215C136.292 83.8622 136.848 83.7468 137.406 83.648C137.468 83.2372 137.579 82.8356 137.737 82.4525C137.838 82.1897 137.971 81.9132 138.133 81.5882C138.314 81.2322 138.513 80.8859 138.729 80.5506C138.966 80.1785 139.244 79.7911 139.561 79.3809C139.879 78.9708 140.236 78.5044 140.641 78.0441C140.742 77.9272 140.85 77.8163 140.954 77.6917L141.28 77.3165C141.502 77.0643 141.737 76.8076 141.984 76.557C142.108 76.4248 142.238 76.3033 142.364 76.162C142.491 76.0207 142.62 75.881 142.754 75.7397C143.021 75.4587 143.301 75.1731 143.596 74.886C144.839 73.5917 146.217 72.2732 147.526 70.9364C148.835 69.5996 150.058 68.2522 151.109 67.0323L151.494 66.5766L151.683 66.3609C151.741 66.285 151.799 66.2105 151.857 66.1376C152.088 65.8444 152.311 65.568 152.524 65.3097L152.682 65.1183L152.831 64.9239L153.107 64.5563C153.285 64.3203 153.452 64.1056 153.605 63.9122C154.177 63.0979 154.539 62.6316 154.539 62.6316C154.678 62.8404 154.798 63.0609 154.9 63.2909C155.182 63.9259 155.383 64.5959 155.495 65.2839C155.581 65.7783 155.622 66.2797 155.618 66.7817C155.618 67.0597 155.607 67.3529 155.583 67.6612C155.571 67.8132 155.559 67.9772 155.537 68.1352C155.515 68.2932 155.487 68.4542 155.457 68.6198C155.394 68.9494 155.318 69.2958 155.223 69.6573C155.174 69.8381 155.123 70.0249 155.065 70.2103C155.007 70.3956 154.934 70.5779 154.861 70.7678C154.712 71.146 154.547 71.541 154.356 71.9511C154.165 72.3613 153.933 72.7562 153.68 73.1801Z" fill="#C5CBD5"/>
</g>
<defs>
<clipPath id="clip0_4036_447">
<rect width="51" height="85" fill="white"/>
</clipPath>
<clipPath id="clip1_4036_447">
<rect width="51" height="85" fill="white" transform="matrix(-1 0 0 1 181 0)"/>
</clipPath>
</defs>
</svg>
