<svg width="204" height="222" viewBox="0 0 204 222" fill="none" xmlns="http://www.w3.org/2000/svg">
<path d="M18.7029 174V160.909H23.4969C24.4259 160.909 25.195 161.062 25.8044 161.369C26.4138 161.672 26.8698 162.083 27.1723 162.603C27.4749 163.119 27.6262 163.7 27.6262 164.348C27.6262 164.893 27.526 165.354 27.3257 165.729C27.1254 166.099 26.857 166.398 26.5203 166.624C26.1879 166.845 25.8215 167.007 25.4209 167.109V167.237C25.8556 167.259 26.2796 167.399 26.6929 167.659C27.1105 167.915 27.4557 168.279 27.7284 168.752C28.0012 169.225 28.1375 169.8 28.1375 170.478C28.1375 171.147 27.9798 171.748 27.6645 172.281C27.3534 172.809 26.8719 173.229 26.2199 173.54C25.5679 173.847 24.7348 174 23.7206 174H18.7029ZM20.678 172.306H23.5289C24.4749 172.306 25.1524 172.123 25.5615 171.756C25.9706 171.39 26.1752 170.932 26.1752 170.382C26.1752 169.969 26.0708 169.589 25.8619 169.244C25.6531 168.899 25.3548 168.624 24.9671 168.42C24.5835 168.215 24.1276 168.113 23.5992 168.113H20.678V172.306ZM20.678 166.572H23.3243C23.7675 166.572 24.1659 166.487 24.5196 166.317C24.8776 166.146 25.161 165.908 25.3698 165.601C25.5828 165.29 25.6894 164.923 25.6894 164.501C25.6894 163.96 25.4997 163.506 25.1205 163.14C24.7412 162.773 24.1595 162.59 23.3754 162.59H20.678V166.572ZM34.5583 174.198C33.591 174.198 32.7579 173.991 32.059 173.578C31.3644 173.161 30.8275 172.575 30.4482 171.82C30.0732 171.062 29.8857 170.173 29.8857 169.155C29.8857 168.149 30.0732 167.263 30.4482 166.496C30.8275 165.729 31.3559 165.13 32.0335 164.7C32.7153 164.269 33.5122 164.054 34.4241 164.054C34.9781 164.054 35.515 164.146 36.0349 164.329C36.5548 164.512 37.0214 164.8 37.4347 165.192C37.8481 165.584 38.1741 166.093 38.4127 166.719C38.6514 167.342 38.7707 168.098 38.7707 168.989V169.666H30.966V168.234H36.8978C36.8978 167.732 36.7955 167.286 36.591 166.898C36.3865 166.506 36.0988 166.197 35.7281 165.972C35.3616 165.746 34.9312 165.633 34.4369 165.633C33.8999 165.633 33.4312 165.765 33.0306 166.029C32.6343 166.289 32.3275 166.63 32.1102 167.052C31.8971 167.469 31.7906 167.923 31.7906 168.413V169.532C31.7906 170.188 31.9056 170.746 32.1357 171.207C32.3701 171.667 32.6961 172.018 33.1137 172.261C33.5313 172.5 34.0193 172.619 34.5775 172.619C34.9397 172.619 35.27 172.568 35.5683 172.466C35.8666 172.359 36.1244 172.202 36.3417 171.993C36.559 171.784 36.7252 171.526 36.8403 171.219L38.6492 171.545C38.5044 172.078 38.2444 172.545 37.8694 172.945C37.4987 173.342 37.032 173.651 36.4695 173.872C35.9113 174.089 35.2742 174.198 34.5583 174.198ZM48.2485 166.579L46.5162 166.886C46.4438 166.664 46.3287 166.453 46.1711 166.253C46.0177 166.053 45.8089 165.888 45.5447 165.761C45.2805 165.633 44.9502 165.569 44.5539 165.569C44.0127 165.569 43.561 165.69 43.1988 165.933C42.8366 166.172 42.6555 166.481 42.6555 166.86C42.6555 167.188 42.7769 167.452 43.0198 167.653C43.2627 167.853 43.6547 168.017 44.1959 168.145L45.7556 168.503C46.659 168.712 47.3323 169.033 47.7755 169.468C48.2187 169.903 48.4403 170.467 48.4403 171.162C48.4403 171.75 48.2698 172.274 47.9289 172.734C47.5922 173.19 47.1214 173.548 46.5162 173.808C45.9154 174.068 45.2187 174.198 44.426 174.198C43.3266 174.198 42.4296 173.964 41.735 173.495C41.0404 173.022 40.6143 172.351 40.4566 171.482L42.3039 171.2C42.4189 171.682 42.6555 172.046 43.0134 172.293C43.3714 172.536 43.838 172.658 44.4133 172.658C45.0397 172.658 45.5404 172.528 45.9154 172.268C46.2904 172.004 46.4779 171.682 46.4779 171.303C46.4779 170.996 46.3628 170.738 46.1327 170.529C45.9069 170.32 45.5596 170.163 45.0908 170.056L43.4289 169.692C42.5127 169.483 41.8351 169.151 41.3962 168.695C40.9616 168.239 40.7442 167.661 40.7442 166.962C40.7442 166.383 40.9062 165.876 41.23 165.441C41.5539 165.006 42.0013 164.668 42.5724 164.425C43.1434 164.178 43.7975 164.054 44.5347 164.054C45.5958 164.054 46.431 164.284 47.0404 164.744C47.6498 165.2 48.0525 165.812 48.2485 166.579ZM55.1247 164.182V165.716H49.7618V164.182H55.1247ZM51.2 161.83H53.1112V171.117C53.1112 171.488 53.1666 171.767 53.2774 171.955C53.3882 172.138 53.531 172.263 53.7057 172.332C53.8847 172.396 54.0786 172.428 54.2874 172.428C54.4408 172.428 54.575 172.417 54.6901 172.396C54.8051 172.374 54.8946 172.357 54.9585 172.344L55.3037 173.923C55.1929 173.966 55.0352 174.009 54.8307 174.051C54.6262 174.098 54.3705 174.124 54.0637 174.128C53.5608 174.136 53.0921 174.047 52.6574 173.859C52.2227 173.672 51.8712 173.382 51.6027 172.99C51.3343 172.598 51.2 172.106 51.2 171.513V161.83ZM69.2959 164.348C69.2277 163.743 68.9465 163.274 68.4521 162.942C67.9578 162.605 67.3357 162.437 66.5857 162.437C66.0487 162.437 65.5843 162.522 65.1922 162.692C64.8002 162.859 64.4955 163.089 64.2781 163.383C64.0651 163.673 63.9585 164.003 63.9585 164.374C63.9585 164.685 64.031 164.953 64.1759 165.179C64.325 165.405 64.5189 165.594 64.7575 165.748C65.0004 165.897 65.2604 166.023 65.5374 166.125C65.8144 166.223 66.0807 166.304 66.3364 166.368L67.6148 166.7C68.0324 166.803 68.4607 166.941 68.8996 167.116C69.3385 167.29 69.7455 167.521 70.1205 167.806C70.4955 168.092 70.798 168.445 71.0281 168.867C71.2625 169.289 71.3797 169.794 71.3797 170.382C71.3797 171.124 71.1879 171.782 70.8044 172.357C70.4252 172.933 69.8733 173.386 69.1489 173.719C68.4287 174.051 67.5573 174.217 66.5345 174.217C65.5544 174.217 64.7064 174.062 63.9905 173.751C63.2746 173.44 62.7142 172.999 62.3094 172.428C61.9046 171.852 61.6808 171.17 61.6382 170.382H63.6198C63.6581 170.855 63.8115 171.249 64.08 171.565C64.3527 171.876 64.7 172.108 65.1219 172.261C65.548 172.411 66.0146 172.485 66.5218 172.485C67.08 172.485 67.5764 172.398 68.0111 172.223C68.45 172.044 68.7952 171.797 69.0466 171.482C69.298 171.162 69.4237 170.789 69.4237 170.363C69.4237 169.975 69.3129 169.658 69.0914 169.411C68.874 169.163 68.5779 168.959 68.2029 168.797C67.8321 168.635 67.4124 168.492 66.9436 168.369L65.3968 167.947C64.3485 167.661 63.5175 167.241 62.9039 166.688C62.2945 166.134 61.9898 165.401 61.9898 164.489C61.9898 163.734 62.1943 163.076 62.6034 162.513C63.0125 161.951 63.5665 161.514 64.2654 161.203C64.9642 160.888 65.7526 160.73 66.6304 160.73C67.5168 160.73 68.2987 160.886 68.9763 161.197C69.6581 161.508 70.195 161.936 70.5871 162.482C70.9791 163.023 71.1837 163.645 71.2007 164.348H69.2959ZM78.1697 164.182V165.716H72.8067V164.182H78.1697ZM74.2449 161.83H76.1562V171.117C76.1562 171.488 76.2116 171.767 76.3224 171.955C76.4331 172.138 76.5759 172.263 76.7506 172.332C76.9296 172.396 77.1235 172.428 77.3323 172.428C77.4857 172.428 77.6199 172.417 77.735 172.396C77.8501 172.374 77.9395 172.357 78.0035 172.344L78.3486 173.923C78.2378 173.966 78.0802 174.009 77.8756 174.051C77.6711 174.098 77.4154 174.124 77.1086 174.128C76.6057 174.136 76.137 174.047 75.7023 173.859C75.2677 173.672 74.9161 173.382 74.6476 172.99C74.3792 172.598 74.2449 172.106 74.2449 171.513V161.83ZM84.314 174.198C83.3936 174.198 82.5903 173.987 81.9042 173.565C81.2181 173.143 80.6855 172.553 80.3062 171.795C79.9269 171.036 79.7373 170.15 79.7373 169.136C79.7373 168.117 79.9269 167.227 80.3062 166.464C80.6855 165.701 81.2181 165.109 81.9042 164.687C82.5903 164.265 83.3936 164.054 84.314 164.054C85.2345 164.054 86.0377 164.265 86.7238 164.687C87.4099 165.109 87.9426 165.701 88.3218 166.464C88.7011 167.227 88.8907 168.117 88.8907 169.136C88.8907 170.15 88.7011 171.036 88.3218 171.795C87.9426 172.553 87.4099 173.143 86.7238 173.565C86.0377 173.987 85.2345 174.198 84.314 174.198ZM84.3204 172.594C84.917 172.594 85.4113 172.436 85.8034 172.121C86.1954 171.805 86.4852 171.386 86.6727 170.862C86.8644 170.337 86.9603 169.76 86.9603 169.129C86.9603 168.503 86.8644 167.928 86.6727 167.403C86.4852 166.875 86.1954 166.451 85.8034 166.131C85.4113 165.812 84.917 165.652 84.3204 165.652C83.7195 165.652 83.221 165.812 82.8247 166.131C82.4326 166.451 82.1407 166.875 81.949 167.403C81.7615 167.928 81.6677 168.503 81.6677 169.129C81.6677 169.76 81.7615 170.337 81.949 170.862C82.1407 171.386 82.4326 171.805 82.8247 172.121C83.221 172.436 83.7195 172.594 84.3204 172.594ZM95.1597 174.198C94.2094 174.198 93.3912 173.983 92.7052 173.553C92.0233 173.118 91.4992 172.519 91.1327 171.756C90.7662 170.994 90.583 170.12 90.583 169.136C90.583 168.138 90.7705 167.259 91.1455 166.496C91.5205 165.729 92.0489 165.13 92.7307 164.7C93.4126 164.269 94.2158 164.054 95.1405 164.054C95.8863 164.054 96.551 164.192 97.1349 164.469C97.7187 164.742 98.1895 165.126 98.5475 165.62C98.9097 166.114 99.1249 166.692 99.1931 167.352H97.333C97.2307 166.892 96.9964 166.496 96.6299 166.163C96.2677 165.831 95.7819 165.665 95.1725 165.665C94.6398 165.665 94.1732 165.805 93.7726 166.087C93.3763 166.364 93.0674 166.76 92.8458 167.276C92.6242 167.787 92.5134 168.392 92.5134 169.091C92.5134 169.807 92.6221 170.425 92.8394 170.945C93.0567 171.464 93.3635 171.867 93.7599 172.153C94.1604 172.438 94.6313 172.581 95.1725 172.581C95.5347 172.581 95.8628 172.515 96.1569 172.383C96.4552 172.246 96.7045 172.053 96.9047 171.801C97.1093 171.55 97.252 171.247 97.333 170.893H99.1931C99.1249 171.528 98.9182 172.095 98.5731 172.594C98.2279 173.092 97.7655 173.484 97.186 173.77C96.6107 174.055 95.9353 174.198 95.1597 174.198ZM102.995 170.67L102.982 168.337H103.314L107.226 164.182H109.515L105.053 168.912H104.753L102.995 170.67ZM101.237 174V160.909H103.148V174H101.237ZM107.437 174L103.922 169.334L105.238 167.998L109.783 174H107.437ZM116.174 174V160.909H120.84C121.858 160.909 122.702 161.094 123.371 161.465C124.04 161.836 124.541 162.343 124.873 162.987C125.206 163.626 125.372 164.346 125.372 165.147C125.372 165.952 125.203 166.677 124.867 167.32C124.534 167.96 124.032 168.467 123.358 168.842C122.689 169.212 121.848 169.398 120.833 169.398H117.625V167.723H120.654C121.298 167.723 121.82 167.612 122.22 167.391C122.621 167.165 122.915 166.858 123.103 166.47C123.29 166.082 123.384 165.641 123.384 165.147C123.384 164.653 123.29 164.214 123.103 163.83C122.915 163.447 122.619 163.146 122.214 162.929C121.813 162.712 121.285 162.603 120.629 162.603H118.149V174H116.174ZM127.534 174V164.182H129.381V165.741H129.483C129.662 165.213 129.978 164.798 130.429 164.495C130.885 164.188 131.401 164.035 131.976 164.035C132.096 164.035 132.236 164.039 132.398 164.048C132.564 164.056 132.694 164.067 132.788 164.08V165.908C132.711 165.886 132.575 165.863 132.379 165.837C132.183 165.808 131.987 165.793 131.791 165.793C131.339 165.793 130.937 165.888 130.583 166.08C130.233 166.268 129.956 166.53 129.752 166.866C129.547 167.199 129.445 167.578 129.445 168.004V174H127.534ZM138.226 174.198C137.306 174.198 136.502 173.987 135.816 173.565C135.13 173.143 134.598 172.553 134.218 171.795C133.839 171.036 133.649 170.15 133.649 169.136C133.649 168.117 133.839 167.227 134.218 166.464C134.598 165.701 135.13 165.109 135.816 164.687C136.502 164.265 137.306 164.054 138.226 164.054C139.147 164.054 139.95 164.265 140.636 164.687C141.322 165.109 141.855 165.701 142.234 166.464C142.613 167.227 142.803 168.117 142.803 169.136C142.803 170.15 142.613 171.036 142.234 171.795C141.855 172.553 141.322 173.143 140.636 173.565C139.95 173.987 139.147 174.198 138.226 174.198ZM138.233 172.594C138.829 172.594 139.323 172.436 139.715 172.121C140.108 171.805 140.397 171.386 140.585 170.862C140.777 170.337 140.872 169.76 140.872 169.129C140.872 168.503 140.777 167.928 140.585 167.403C140.397 166.875 140.108 166.451 139.715 166.131C139.323 165.812 138.829 165.652 138.233 165.652C137.632 165.652 137.133 165.812 136.737 166.131C136.345 166.451 136.053 166.875 135.861 167.403C135.674 167.928 135.58 168.503 135.58 169.129C135.58 169.76 135.674 170.337 135.861 170.862C136.053 171.386 136.345 171.805 136.737 172.121C137.133 172.436 137.632 172.594 138.233 172.594ZM153.001 164.182L149.441 174H147.396L143.829 164.182H145.881L148.367 171.737H148.469L150.949 164.182H153.001ZM154.797 174V164.182H156.709V174H154.797ZM155.763 162.667C155.43 162.667 155.145 162.556 154.906 162.335C154.672 162.109 154.555 161.84 154.555 161.529C154.555 161.214 154.672 160.945 154.906 160.724C155.145 160.498 155.43 160.385 155.763 160.385C156.095 160.385 156.378 160.498 156.613 160.724C156.851 160.945 156.971 161.214 156.971 161.529C156.971 161.84 156.851 162.109 156.613 162.335C156.378 162.556 156.095 162.667 155.763 162.667ZM162.955 174.192C162.163 174.192 161.455 173.989 160.833 173.585C160.215 173.175 159.729 172.594 159.376 171.839C159.026 171.081 158.852 170.171 158.852 169.11C158.852 168.049 159.028 167.141 159.382 166.387C159.74 165.633 160.23 165.055 160.852 164.655C161.475 164.254 162.18 164.054 162.968 164.054C163.578 164.054 164.068 164.156 164.438 164.361C164.813 164.561 165.103 164.795 165.308 165.064C165.516 165.332 165.678 165.569 165.793 165.773H165.908V160.909H167.82V174H165.953V172.472H165.793C165.678 172.681 165.512 172.92 165.295 173.188C165.082 173.457 164.788 173.691 164.413 173.891C164.038 174.092 163.552 174.192 162.955 174.192ZM163.377 172.562C163.927 172.562 164.391 172.417 164.771 172.127C165.154 171.833 165.444 171.426 165.64 170.906C165.84 170.386 165.94 169.781 165.94 169.091C165.94 168.409 165.842 167.812 165.646 167.301C165.45 166.79 165.163 166.391 164.783 166.106C164.404 165.82 163.935 165.678 163.377 165.678C162.802 165.678 162.323 165.827 161.939 166.125C161.555 166.423 161.266 166.83 161.07 167.346C160.878 167.862 160.782 168.443 160.782 169.091C160.782 169.747 160.88 170.337 161.076 170.862C161.272 171.386 161.562 171.801 161.945 172.108C162.333 172.411 162.81 172.562 163.377 172.562ZM174.779 174.198C173.812 174.198 172.979 173.991 172.28 173.578C171.585 173.161 171.048 172.575 170.669 171.82C170.294 171.062 170.106 170.173 170.106 169.155C170.106 168.149 170.294 167.263 170.669 166.496C171.048 165.729 171.577 165.13 172.254 164.7C172.936 164.269 173.733 164.054 174.645 164.054C175.199 164.054 175.736 164.146 176.256 164.329C176.775 164.512 177.242 164.8 177.655 165.192C178.069 165.584 178.395 166.093 178.633 166.719C178.872 167.342 178.991 168.098 178.991 168.989V169.666H171.187V168.234H177.119C177.119 167.732 177.016 167.286 176.812 166.898C176.607 166.506 176.32 166.197 175.949 165.972C175.582 165.746 175.152 165.633 174.658 165.633C174.121 165.633 173.652 165.765 173.251 166.029C172.855 166.289 172.548 166.63 172.331 167.052C172.118 167.469 172.011 167.923 172.011 168.413V169.532C172.011 170.188 172.126 170.746 172.356 171.207C172.591 171.667 172.917 172.018 173.334 172.261C173.752 172.5 174.24 172.619 174.798 172.619C175.16 172.619 175.491 172.568 175.789 172.466C176.087 172.359 176.345 172.202 176.562 171.993C176.78 171.784 176.946 171.526 177.061 171.219L178.87 171.545C178.725 172.078 178.465 172.545 178.09 172.945C177.719 173.342 177.253 173.651 176.69 173.872C176.132 174.089 175.495 174.198 174.779 174.198ZM181.112 174V164.182H182.959V165.741H183.062C183.241 165.213 183.556 164.798 184.008 164.495C184.464 164.188 184.979 164.035 185.554 164.035C185.674 164.035 185.814 164.039 185.976 164.048C186.142 164.056 186.272 164.067 186.366 164.08V165.908C186.29 165.886 186.153 165.863 185.957 165.837C185.761 165.808 185.565 165.793 185.369 165.793C184.917 165.793 184.515 165.888 184.161 166.08C183.812 166.268 183.535 166.53 183.33 166.866C183.125 167.199 183.023 167.578 183.023 168.004V174H181.112ZM81.4584 196V195.124L85.7346 190.317C86.2929 189.687 86.7425 189.148 87.0834 188.7C87.4243 188.253 87.6714 187.839 87.8248 187.46C87.9825 187.081 88.0613 186.687 88.0613 186.278C88.0613 185.779 87.9442 185.344 87.7098 184.974C87.4797 184.599 87.1622 184.307 86.7574 184.098C86.3525 183.889 85.8966 183.785 85.3895 183.785C84.8525 183.785 84.3817 183.9 83.9768 184.13C83.5763 184.36 83.2652 184.675 83.0436 185.076C82.822 185.477 82.7112 185.937 82.7112 186.457H81.567C81.567 185.732 81.7332 185.091 82.0656 184.533C82.4023 183.97 82.8604 183.529 83.4399 183.21C84.0237 182.89 84.6842 182.73 85.4214 182.73C86.1501 182.73 86.7979 182.888 87.3646 183.203C87.9314 183.514 88.3767 183.938 88.7006 184.475C89.0244 185.012 89.1863 185.613 89.1863 186.278C89.1863 186.759 89.1011 187.226 88.9307 187.678C88.7645 188.129 88.4768 188.632 88.0677 189.186C87.6586 189.74 87.0919 190.418 86.3675 191.219L83.1203 194.843V194.926H89.5954V196H81.4584ZM96.51 196.179C95.5896 196.179 94.8034 195.915 94.1514 195.386C93.5036 194.854 93.0051 194.085 92.6556 193.079C92.3105 192.073 92.1379 190.865 92.1379 189.455C92.1379 188.048 92.3105 186.844 92.6556 185.843C93.0051 184.837 93.5058 184.068 94.1578 183.536C94.814 182.999 95.5981 182.73 96.51 182.73C97.422 182.73 98.2039 182.999 98.8559 183.536C99.5122 184.068 100.013 184.837 100.358 185.843C100.707 186.844 100.882 188.048 100.882 189.455C100.882 190.865 100.707 192.073 100.358 193.079C100.013 194.085 99.5143 194.854 98.8623 195.386C98.2146 195.915 97.4305 196.179 96.51 196.179ZM96.51 195.105C97.52 195.105 98.3083 194.613 98.8751 193.629C99.4419 192.64 99.7252 191.249 99.7252 189.455C99.7252 188.261 99.5953 187.243 99.3353 186.399C99.0796 185.551 98.711 184.903 98.2295 184.456C97.7522 184.009 97.1791 183.785 96.51 183.785C95.5086 183.785 94.7224 184.283 94.1514 185.281C93.5803 186.273 93.2948 187.665 93.2948 189.455C93.2948 190.648 93.4227 191.666 93.6784 192.51C93.9383 193.354 94.3069 193.997 94.7842 194.44C95.2657 194.884 95.841 195.105 96.51 195.105ZM103.484 196V195.124L107.76 190.317C108.318 189.687 108.768 189.148 109.109 188.7C109.45 188.253 109.697 187.839 109.85 187.46C110.008 187.081 110.087 186.687 110.087 186.278C110.087 185.779 109.97 185.344 109.735 184.974C109.505 184.599 109.188 184.307 108.783 184.098C108.378 183.889 107.922 183.785 107.415 183.785C106.878 183.785 106.407 183.9 106.002 184.13C105.602 184.36 105.291 184.675 105.069 185.076C104.847 185.477 104.737 185.937 104.737 186.457H103.592C103.592 185.732 103.759 185.091 104.091 184.533C104.428 183.97 104.886 183.529 105.465 183.21C106.049 182.89 106.71 182.73 107.447 182.73C108.176 182.73 108.823 182.888 109.39 183.203C109.957 183.514 110.402 183.938 110.726 184.475C111.05 185.012 111.212 185.613 111.212 186.278C111.212 186.759 111.127 187.226 110.956 187.678C110.79 188.129 110.502 188.632 110.093 189.186C109.684 189.74 109.117 190.418 108.393 191.219L105.146 194.843V194.926H111.621V196H103.484ZM114.47 196V195.124L118.746 190.317C119.305 189.687 119.754 189.148 120.095 188.7C120.436 188.253 120.683 187.839 120.837 187.46C120.994 187.081 121.073 186.687 121.073 186.278C121.073 185.779 120.956 185.344 120.722 184.974C120.491 184.599 120.174 184.307 119.769 184.098C119.364 183.889 118.908 183.785 118.401 183.785C117.864 183.785 117.393 183.9 116.989 184.13C116.588 184.36 116.277 184.675 116.055 185.076C115.834 185.477 115.723 185.937 115.723 186.457H114.579C114.579 185.732 114.745 185.091 115.077 184.533C115.414 183.97 115.872 183.529 116.452 183.21C117.035 182.89 117.696 182.73 118.433 182.73C119.162 182.73 119.81 182.888 120.376 183.203C120.943 183.514 121.388 183.938 121.712 184.475C122.036 185.012 122.198 185.613 122.198 186.278C122.198 186.759 122.113 187.226 121.942 187.678C121.776 188.129 121.489 188.632 121.079 189.186C120.67 189.74 120.104 190.418 119.379 191.219L116.132 194.843V194.926H122.607V196H114.47ZM11.0276 209C10.9083 208.565 10.7336 208.158 10.5035 207.779C10.2733 207.396 9.98784 207.061 9.64693 206.776C9.31028 206.486 8.92037 206.26 8.47718 206.098C8.03826 205.936 7.54821 205.855 7.00701 205.855C6.15474 205.855 5.39196 206.077 4.71866 206.52C4.04537 206.963 3.5127 207.602 3.12065 208.438C2.73287 209.273 2.53897 210.278 2.53897 211.455C2.53897 212.626 2.735 213.63 3.12704 214.465C3.51909 215.3 4.05602 215.942 4.73784 216.389C5.42392 216.832 6.20801 217.054 7.09011 217.054C7.89551 217.054 8.60716 216.875 9.22505 216.517C9.84295 216.159 10.3245 215.648 10.6697 214.983C11.0191 214.318 11.1895 213.528 11.181 212.612L11.5645 212.733H7.37136V211.659H12.3444V212.733C12.3444 213.849 12.1185 214.815 11.6668 215.629C11.2151 216.442 10.5951 217.071 9.80673 217.514C9.01838 217.957 8.11284 218.179 7.09011 218.179C5.94806 218.179 4.94878 217.904 4.09224 217.354C3.23571 216.8 2.5688 216.021 2.09153 215.015C1.61852 214.005 1.38201 212.818 1.38201 211.455C1.38201 210.428 1.51838 209.501 1.7911 208.674C2.06383 207.847 2.44949 207.14 2.94806 206.552C3.45091 205.964 4.04537 205.514 4.73145 205.203C5.41753 204.888 6.17605 204.73 7.00701 204.73C7.72292 204.73 8.37704 204.843 8.96937 205.069C9.56596 205.295 10.0901 205.606 10.5418 206.002C10.9978 206.394 11.3707 206.848 11.6604 207.364C11.9545 207.875 12.1526 208.42 12.2549 209H11.0276ZM16.2132 204.909V218H15.0754V204.909H16.2132ZM23.0399 218.205C22.1919 218.205 21.4419 217.989 20.7899 217.559C20.1421 217.129 19.635 216.534 19.2686 215.776C18.9021 215.013 18.7188 214.133 18.7188 213.136C18.7188 212.13 18.9021 211.246 19.2686 210.483C19.635 209.716 20.1421 209.119 20.7899 208.693C21.4419 208.263 22.1919 208.048 23.0399 208.048C23.8879 208.048 24.6357 208.263 25.2835 208.693C25.9312 209.124 26.4383 209.72 26.8048 210.483C27.1755 211.246 27.3609 212.13 27.3609 213.136C27.3609 214.133 27.1776 215.013 26.8112 215.776C26.4447 216.534 25.9355 217.129 25.2835 217.559C24.6357 217.989 23.8879 218.205 23.0399 218.205ZM23.0399 217.163C23.7217 217.163 24.2991 216.979 24.7721 216.613C25.2451 216.246 25.6031 215.759 25.846 215.149C26.0931 214.54 26.2167 213.869 26.2167 213.136C26.2167 212.403 26.0931 211.729 25.846 211.116C25.6031 210.502 25.2451 210.01 24.7721 209.639C24.2991 209.268 23.7217 209.083 23.0399 209.083C22.3623 209.083 21.7849 209.268 21.3076 209.639C20.8346 210.01 20.4745 210.502 20.2274 211.116C19.9845 211.729 19.863 212.403 19.863 213.136C19.863 213.869 19.9845 214.54 20.2274 215.149C20.4745 215.759 20.8346 216.246 21.3076 216.613C21.7806 216.979 22.358 217.163 23.0399 217.163ZM30.0951 218V204.909H31.2393V210.055H31.3415C31.4694 209.761 31.6526 209.458 31.8912 209.147C32.1341 208.836 32.4516 208.576 32.8437 208.367C33.24 208.154 33.7385 208.048 34.3394 208.048C35.1448 208.048 35.8522 208.261 36.4616 208.687C37.0709 209.109 37.5461 209.701 37.887 210.464C38.2279 211.222 38.3983 212.107 38.3983 213.116C38.3983 214.131 38.2279 215.019 37.887 215.782C37.5503 216.545 37.0773 217.139 36.468 217.565C35.8628 217.991 35.1597 218.205 34.3586 218.205C33.762 218.205 33.2634 218.098 32.8628 217.885C32.4665 217.672 32.1469 217.41 31.904 217.099C31.6611 216.783 31.4736 216.477 31.3415 216.178H31.2009V218H30.0951ZM31.2201 213.097C31.2201 213.89 31.3373 214.593 31.5716 215.207C31.8103 215.816 32.1512 216.295 32.5944 216.645C33.0418 216.99 33.583 217.163 34.218 217.163C34.8699 217.163 35.4218 216.984 35.8735 216.626C36.3252 216.263 36.6682 215.776 36.9026 215.162C37.137 214.548 37.2542 213.86 37.2542 213.097C37.2542 212.343 37.137 211.663 36.9026 211.058C36.6725 210.453 36.3316 209.974 35.8799 209.62C35.4282 209.262 34.8742 209.083 34.218 209.083C33.5787 209.083 33.0354 209.256 32.588 209.601C32.1448 209.942 31.806 210.415 31.5716 211.02C31.3373 211.621 31.2201 212.313 31.2201 213.097ZM43.6398 218.224C43.0475 218.224 42.5063 218.109 42.0162 217.879C41.5262 217.644 41.1363 217.308 40.8465 216.869C40.5567 216.425 40.4118 215.888 40.4118 215.258C40.4118 214.772 40.5035 214.363 40.6867 214.031C40.8699 213.698 41.1299 213.425 41.4665 213.212C41.8032 212.999 42.2016 212.831 42.6618 212.707C43.1221 212.584 43.6292 212.488 44.1832 212.42C44.7329 212.352 45.1974 212.292 45.5766 212.241C45.9601 212.19 46.252 212.109 46.4523 211.998C46.6526 211.887 46.7528 211.708 46.7528 211.461V211.231C46.7528 210.562 46.5525 210.036 46.1519 209.652C45.7556 209.264 45.1846 209.07 44.4388 209.07C43.7314 209.07 43.154 209.226 42.7066 209.537C42.2634 209.848 41.9523 210.214 41.7733 210.636L40.6931 210.246C40.9147 209.71 41.2215 209.281 41.6135 208.962C42.0056 208.638 42.4445 208.406 42.9303 208.265C43.4161 208.12 43.9083 208.048 44.4069 208.048C44.7819 208.048 45.1718 208.097 45.5766 208.195C45.9857 208.293 46.365 208.463 46.7144 208.706C47.0638 208.945 47.3472 209.279 47.5645 209.71C47.7819 210.136 47.8905 210.677 47.8905 211.333V218H46.7528V216.447H46.6824C46.5461 216.737 46.3437 217.018 46.0752 217.29C45.8067 217.563 45.4701 217.787 45.0653 217.962C44.6604 218.136 44.1853 218.224 43.6398 218.224ZM43.7932 217.182C44.3983 217.182 44.9225 217.048 45.3657 216.779C45.8089 216.511 46.1498 216.155 46.3884 215.712C46.6313 215.264 46.7528 214.772 46.7528 214.235V212.816C46.6675 212.897 46.5248 212.969 46.3245 213.033C46.1285 213.097 45.9005 213.155 45.6405 213.206C45.3849 213.253 45.1292 213.293 44.8735 213.327C44.6178 213.362 44.3877 213.391 44.1832 213.417C43.6292 213.485 43.1562 213.592 42.7641 213.737C42.3721 213.881 42.0716 214.082 41.8628 214.337C41.654 214.589 41.5496 214.913 41.5496 215.309C41.5496 215.906 41.7627 216.368 42.1888 216.696C42.615 217.02 43.1498 217.182 43.7932 217.182ZM52.055 204.909V218H50.9172V204.909H52.055ZM60.3646 218V204.909H64.7815C65.6338 204.909 66.3433 205.058 66.9101 205.357C67.4811 205.655 67.9094 206.062 68.1949 206.577C68.4804 207.093 68.6231 207.679 68.6231 208.335C68.6231 208.881 68.5315 209.347 68.3483 209.735C68.165 210.123 67.9157 210.436 67.6004 210.675C67.2851 210.913 66.9335 211.086 66.5457 211.192V211.295C66.9676 211.325 67.3767 211.474 67.773 211.742C68.1693 212.006 68.4953 212.377 68.751 212.854C69.0067 213.332 69.1345 213.903 69.1345 214.567C69.1345 215.228 68.9875 215.818 68.6934 216.338C68.3994 216.854 67.9477 217.261 67.3383 217.559C66.7332 217.853 65.9619 218 65.0244 218H60.3646ZM61.5599 216.926H65.0244C66.0344 216.926 66.7801 216.702 67.2616 216.255C67.7474 215.808 67.9903 215.245 67.9903 214.567C67.9903 214.069 67.8689 213.617 67.626 213.212C67.3873 212.803 67.0486 212.479 66.6096 212.241C66.175 212.002 65.6636 211.883 65.0756 211.883H61.5599V216.926ZM61.5599 210.822H64.8902C65.4058 210.822 65.8575 210.715 66.2453 210.502C66.6331 210.289 66.9356 209.995 67.153 209.62C67.3703 209.245 67.479 208.817 67.479 208.335C67.479 207.641 67.2531 207.076 66.8014 206.641C66.3497 206.202 65.6764 205.983 64.7815 205.983H61.5599V210.822ZM71.7824 218V208.182H72.8882V209.69H72.9713C73.1673 209.196 73.5083 208.798 73.9941 208.495C74.4841 208.188 75.0381 208.035 75.656 208.035C75.7497 208.035 75.8541 208.037 75.9692 208.041C76.0843 208.045 76.1801 208.05 76.2568 208.054V209.211C76.2057 209.202 76.1162 209.19 75.9884 209.173C75.8605 209.156 75.722 209.147 75.5729 209.147C75.0615 209.147 74.6056 209.256 74.205 209.473C73.8087 209.686 73.4955 209.982 73.2654 210.362C73.0352 210.741 72.9202 211.173 72.9202 211.659V218H71.7824ZM80.9406 218.224C80.3483 218.224 79.8071 218.109 79.317 217.879C78.827 217.644 78.4371 217.308 78.1473 216.869C77.8575 216.425 77.7126 215.888 77.7126 215.258C77.7126 214.772 77.8042 214.363 77.9875 214.031C78.1707 213.698 78.4307 213.425 78.7673 213.212C79.104 212.999 79.5024 212.831 79.9626 212.707C80.4229 212.584 80.93 212.488 81.4839 212.42C82.0336 212.352 82.4981 212.292 82.8774 212.241C83.2609 212.19 83.5528 212.109 83.7531 211.998C83.9534 211.887 84.0535 211.708 84.0535 211.461V211.231C84.0535 210.562 83.8532 210.036 83.4527 209.652C83.0564 209.264 82.4854 209.07 81.7396 209.07C81.0322 209.07 80.4548 209.226 80.0074 209.537C79.5642 209.848 79.2531 210.214 79.0741 210.636L77.9939 210.246C78.2155 209.71 78.5223 209.281 78.9143 208.962C79.3064 208.638 79.7453 208.406 80.2311 208.265C80.7169 208.12 81.2091 208.048 81.7077 208.048C82.0827 208.048 82.4726 208.097 82.8774 208.195C83.2865 208.293 83.6657 208.463 84.0152 208.706C84.3646 208.945 84.648 209.279 84.8653 209.71C85.0827 210.136 85.1913 210.677 85.1913 211.333V218H84.0535V216.447H83.9832C83.8469 216.737 83.6444 217.018 83.376 217.29C83.1075 217.563 82.7709 217.787 82.366 217.962C81.9612 218.136 81.4861 218.224 80.9406 218.224ZM81.094 217.182C81.6991 217.182 82.2233 217.048 82.6665 216.779C83.1096 216.511 83.4506 216.155 83.6892 215.712C83.9321 215.264 84.0535 214.772 84.0535 214.235V212.816C83.9683 212.897 83.8256 212.969 83.6253 213.033C83.4292 213.097 83.2013 213.155 82.9413 213.206C82.6856 213.253 82.43 213.293 82.1743 213.327C81.9186 213.362 81.6885 213.391 81.4839 213.417C80.93 213.485 80.4569 213.592 80.0649 213.737C79.6729 213.881 79.3724 214.082 79.1636 214.337C78.9548 214.589 78.8504 214.913 78.8504 215.309C78.8504 215.906 79.0635 216.368 79.4896 216.696C79.9157 217.02 80.4506 217.182 81.094 217.182ZM89.3557 211.864V218H88.218V208.182H89.3238V209.722H89.426C89.6562 209.219 90.0141 208.817 90.4999 208.514C90.99 208.207 91.5951 208.054 92.3153 208.054C92.9758 208.054 93.5553 208.192 94.0539 208.469C94.5567 208.742 94.9466 209.145 95.2236 209.678C95.5049 210.21 95.6455 210.864 95.6455 211.64V218H94.5077V211.71C94.5077 210.905 94.2819 210.268 93.8302 209.799C93.3827 209.33 92.7819 209.096 92.0276 209.096C91.512 209.096 91.0539 209.207 90.6533 209.428C90.2528 209.65 89.9353 209.969 89.7009 210.387C89.4708 210.8 89.3557 211.293 89.3557 211.864ZM102.177 218.205C101.371 218.205 100.666 217.991 100.061 217.565C99.4557 217.139 98.9827 216.545 98.6418 215.782C98.3051 215.019 98.1368 214.131 98.1368 213.116C98.1368 212.107 98.3051 211.222 98.6418 210.464C98.9827 209.701 99.4578 209.109 100.067 208.687C100.677 208.261 101.386 208.048 102.196 208.048C102.792 208.048 103.289 208.154 103.685 208.367C104.081 208.576 104.399 208.836 104.638 209.147C104.876 209.458 105.062 209.761 105.194 210.055H105.296V204.909H106.44V218H105.328V216.178H105.194C105.062 216.477 104.874 216.783 104.631 217.099C104.388 217.41 104.066 217.672 103.666 217.885C103.27 218.098 102.773 218.205 102.177 218.205ZM102.311 217.163C102.946 217.163 103.487 216.99 103.934 216.645C104.382 216.295 104.723 215.816 104.957 215.207C105.196 214.593 105.315 213.89 105.315 213.097C105.315 212.313 105.198 211.621 104.964 211.02C104.729 210.415 104.388 209.942 103.941 209.601C103.493 209.256 102.95 209.083 102.311 209.083C101.655 209.083 101.101 209.262 100.649 209.62C100.201 209.974 99.8605 210.453 99.6262 211.058C99.396 211.663 99.281 212.343 99.281 213.097C99.281 213.86 99.3982 214.548 99.6325 215.162C99.8669 215.776 100.208 216.263 100.655 216.626C101.107 216.984 101.659 217.163 102.311 217.163ZM116.277 210.336L115.236 210.63C115.133 210.336 114.988 210.07 114.801 209.831C114.613 209.592 114.368 209.403 114.066 209.262C113.767 209.121 113.397 209.051 112.954 209.051C112.289 209.051 111.743 209.209 111.317 209.524C110.891 209.839 110.678 210.246 110.678 210.745C110.678 211.167 110.823 211.51 111.113 211.774C111.407 212.034 111.858 212.241 112.468 212.394L113.951 212.759C114.773 212.959 115.389 213.276 115.798 213.711C116.211 214.146 116.418 214.691 116.418 215.347C116.418 215.901 116.265 216.393 115.958 216.824C115.651 217.254 115.223 217.593 114.673 217.84C114.128 218.083 113.495 218.205 112.775 218.205C111.816 218.205 111.025 217.989 110.403 217.559C109.781 217.124 109.383 216.498 109.208 215.68L110.301 215.411C110.441 215.995 110.716 216.436 111.125 216.734C111.539 217.033 112.082 217.182 112.755 217.182C113.51 217.182 114.113 217.013 114.564 216.677C115.016 216.336 115.242 215.91 115.242 215.398C115.242 215.002 115.11 214.67 114.846 214.401C114.581 214.129 114.181 213.928 113.644 213.8L112.04 213.417C111.187 213.212 110.557 212.888 110.147 212.445C109.738 212.002 109.534 211.452 109.534 210.796C109.534 210.255 109.681 209.78 109.975 209.371C110.269 208.957 110.674 208.634 111.189 208.399C111.705 208.165 112.293 208.048 112.954 208.048C113.853 208.048 114.571 208.252 115.108 208.661C115.649 209.066 116.039 209.624 116.277 210.336ZM124.208 204.909H125.589L130.338 216.312H130.453L135.203 204.909H136.583V218H135.458V207.434H135.356L130.939 218H129.853L125.436 207.434H125.333V218H124.208V204.909ZM142.57 218.224C141.977 218.224 141.436 218.109 140.946 217.879C140.456 217.644 140.066 217.308 139.776 216.869C139.486 216.425 139.342 215.888 139.342 215.258C139.342 214.772 139.433 214.363 139.616 214.031C139.8 213.698 140.06 213.425 140.396 213.212C140.733 212.999 141.131 212.831 141.592 212.707C142.052 212.584 142.559 212.488 143.113 212.42C143.663 212.352 144.127 212.292 144.506 212.241C144.89 212.19 145.182 212.109 145.382 211.998C145.582 211.887 145.682 211.708 145.682 211.461V211.231C145.682 210.562 145.482 210.036 145.082 209.652C144.685 209.264 144.114 209.07 143.369 209.07C142.661 209.07 142.084 209.226 141.636 209.537C141.193 209.848 140.882 210.214 140.703 210.636L139.623 210.246C139.844 209.71 140.151 209.281 140.543 208.962C140.935 208.638 141.374 208.406 141.86 208.265C142.346 208.12 142.838 208.048 143.337 208.048C143.712 208.048 144.101 208.097 144.506 208.195C144.915 208.293 145.295 208.463 145.644 208.706C145.994 208.945 146.277 209.279 146.494 209.71C146.712 210.136 146.82 210.677 146.82 211.333V218H145.682V216.447H145.612C145.476 216.737 145.273 217.018 145.005 217.29C144.736 217.563 144.4 217.787 143.995 217.962C143.59 218.136 143.115 218.224 142.57 218.224ZM142.723 217.182C143.328 217.182 143.852 217.048 144.295 216.779C144.739 216.511 145.079 216.155 145.318 215.712C145.561 215.264 145.682 214.772 145.682 214.235V212.816C145.597 212.897 145.454 212.969 145.254 213.033C145.058 213.097 144.83 213.155 144.57 213.206C144.315 213.253 144.059 213.293 143.803 213.327C143.547 213.362 143.317 213.391 143.113 213.417C142.559 213.485 142.086 213.592 141.694 213.737C141.302 213.881 141.001 214.082 140.793 214.337C140.584 214.589 140.479 214.913 140.479 215.309C140.479 215.906 140.692 216.368 141.119 216.696C141.545 217.02 142.079 217.182 142.723 217.182ZM153.593 221.886C152.924 221.886 152.338 221.799 151.835 221.624C151.332 221.454 150.908 221.219 150.563 220.921C150.218 220.623 149.949 220.288 149.757 219.918L150.691 219.304C150.831 219.551 151.019 219.794 151.253 220.033C151.492 220.271 151.801 220.469 152.18 220.627C152.563 220.785 153.034 220.864 153.593 220.864C154.462 220.864 155.163 220.646 155.696 220.212C156.233 219.777 156.501 219.102 156.501 218.185V215.974H156.399C156.267 216.272 156.077 216.57 155.83 216.869C155.583 217.163 155.259 217.408 154.858 217.604C154.462 217.8 153.97 217.898 153.382 217.898C152.598 217.898 151.901 217.704 151.291 217.316C150.686 216.928 150.209 216.374 149.86 215.654C149.514 214.93 149.342 214.067 149.342 213.065C149.342 212.072 149.51 211.199 149.847 210.445C150.188 209.69 150.663 209.102 151.272 208.68C151.882 208.259 152.591 208.048 153.401 208.048C154.002 208.048 154.5 208.154 154.897 208.367C155.293 208.576 155.61 208.836 155.849 209.147C156.092 209.458 156.282 209.761 156.418 210.055H156.533V208.182H157.645V218.256C157.645 219.087 157.468 219.771 157.115 220.308C156.761 220.844 156.279 221.241 155.67 221.496C155.061 221.756 154.368 221.886 153.593 221.886ZM153.516 216.856C154.147 216.856 154.686 216.705 155.133 216.402C155.581 216.095 155.924 215.656 156.162 215.085C156.401 214.514 156.52 213.835 156.52 213.046C156.52 212.279 156.403 211.599 156.169 211.007C155.934 210.411 155.593 209.942 155.146 209.601C154.703 209.256 154.159 209.083 153.516 209.083C152.86 209.083 152.306 209.26 151.854 209.614C151.402 209.967 151.061 210.445 150.831 211.045C150.601 211.642 150.486 212.309 150.486 213.046C150.486 213.796 150.603 214.459 150.838 215.034C151.072 215.605 151.415 216.053 151.867 216.376C152.318 216.696 152.868 216.856 153.516 216.856ZM163.4 218.224C162.807 218.224 162.266 218.109 161.776 217.879C161.286 217.644 160.896 217.308 160.606 216.869C160.316 216.425 160.172 215.888 160.172 215.258C160.172 214.772 160.263 214.363 160.446 214.031C160.63 213.698 160.89 213.425 161.226 213.212C161.563 212.999 161.961 212.831 162.422 212.707C162.882 212.584 163.389 212.488 163.943 212.42C164.493 212.352 164.957 212.292 165.336 212.241C165.72 212.19 166.012 212.109 166.212 211.998C166.412 211.887 166.513 211.708 166.513 211.461V211.231C166.513 210.562 166.312 210.036 165.912 209.652C165.515 209.264 164.944 209.07 164.199 209.07C163.491 209.07 162.914 209.226 162.466 209.537C162.023 209.848 161.712 210.214 161.533 210.636L160.453 210.246C160.674 209.71 160.981 209.281 161.373 208.962C161.765 208.638 162.204 208.406 162.69 208.265C163.176 208.12 163.668 208.048 164.167 208.048C164.542 208.048 164.932 208.097 165.336 208.195C165.745 208.293 166.125 208.463 166.474 208.706C166.824 208.945 167.107 209.279 167.324 209.71C167.542 210.136 167.65 210.677 167.65 211.333V218H166.513V216.447H166.442C166.306 216.737 166.103 217.018 165.835 217.29C165.566 217.563 165.23 217.787 164.825 217.962C164.42 218.136 163.945 218.224 163.4 218.224ZM163.553 217.182C164.158 217.182 164.682 217.048 165.125 216.779C165.569 216.511 165.91 216.155 166.148 215.712C166.391 215.264 166.513 214.772 166.513 214.235V212.816C166.427 212.897 166.285 212.969 166.084 213.033C165.888 213.097 165.66 213.155 165.4 213.206C165.145 213.253 164.889 213.293 164.633 213.327C164.378 213.362 164.147 213.391 163.943 213.417C163.389 213.485 162.916 213.592 162.524 213.737C162.132 213.881 161.831 214.082 161.623 214.337C161.414 214.589 161.309 214.913 161.309 215.309C161.309 215.906 161.522 216.368 161.949 216.696C162.375 217.02 162.91 217.182 163.553 217.182ZM170.37 218V217.099L176.046 209.339V209.256H170.613V208.182H177.51V209.121L171.936 216.843V216.926H177.715V218H170.37ZM180.235 218V208.182H181.379V218H180.235ZM180.816 206.494C180.582 206.494 180.382 206.415 180.215 206.258C180.049 206.096 179.966 205.902 179.966 205.676C179.966 205.45 180.049 205.259 180.215 205.101C180.382 204.939 180.582 204.858 180.816 204.858C181.051 204.858 181.251 204.939 181.417 205.101C181.583 205.259 181.666 205.45 181.666 205.676C181.666 205.902 181.583 206.096 181.417 206.258C181.251 206.415 181.051 206.494 180.816 206.494ZM185.526 211.864V218H184.388V208.182H185.494V209.722H185.596C185.826 209.219 186.184 208.817 186.67 208.514C187.16 208.207 187.765 208.054 188.485 208.054C189.146 208.054 189.725 208.192 190.224 208.469C190.727 208.742 191.117 209.145 191.394 209.678C191.675 210.21 191.815 210.864 191.815 211.64V218H190.678V211.71C190.678 210.905 190.452 210.268 190 209.799C189.553 209.33 188.952 209.096 188.198 209.096C187.682 209.096 187.224 209.207 186.823 209.428C186.423 209.65 186.105 209.969 185.871 210.387C185.641 210.8 185.526 211.293 185.526 211.864ZM198.781 218.205C197.865 218.205 197.072 217.991 196.403 217.565C195.734 217.135 195.217 216.54 194.85 215.782C194.488 215.019 194.307 214.141 194.307 213.148C194.307 212.16 194.488 211.282 194.85 210.515C195.217 209.744 195.722 209.141 196.365 208.706C197.013 208.267 197.761 208.048 198.609 208.048C199.141 208.048 199.655 208.146 200.149 208.342C200.643 208.533 201.087 208.83 201.479 209.23C201.875 209.626 202.188 210.127 202.418 210.732C202.648 211.333 202.763 212.045 202.763 212.867V213.43H195.093V212.426H201.6C201.6 211.795 201.472 211.229 201.217 210.726C200.965 210.219 200.614 209.818 200.162 209.524C199.714 209.23 199.197 209.083 198.609 209.083C197.986 209.083 197.439 209.249 196.966 209.582C196.493 209.914 196.122 210.353 195.854 210.898C195.589 211.444 195.455 212.04 195.451 212.688V213.289C195.451 214.069 195.585 214.751 195.854 215.335C196.126 215.914 196.512 216.364 197.011 216.683C197.509 217.003 198.099 217.163 198.781 217.163C199.246 217.163 199.653 217.09 200.002 216.945C200.356 216.8 200.652 216.607 200.891 216.364C201.133 216.116 201.317 215.846 201.44 215.552L202.521 215.903C202.371 216.317 202.126 216.698 201.785 217.048C201.449 217.397 201.027 217.678 200.52 217.891C200.017 218.1 199.437 218.205 198.781 218.205Z" fill="#13151D"/>
<path d="M62.1868 69.8622H92.1326V10.4395H62.1868V69.8622ZM71.4424 60.9632H75.3601V64.0729C75.3601 65.4112 75.9311 66.0806 77.0739 66.0806C78.1024 66.0806 78.6165 65.4112 78.6165 64.0729V58.5147C77.8819 59.1512 76.9106 59.4697 75.7028 59.4697C72.8626 59.4697 71.4424 57.9271 71.4424 54.8419V37.9961C71.4424 34.9273 72.8626 33.3929 75.7028 33.3929C76.9106 33.3929 77.8819 33.7111 78.6165 34.3478V33.6377H83.783V34.5436H82.5341V61.8691C82.5341 63.3054 82.0281 64.5174 81.0161 65.5053C80.0037 66.4927 78.6901 66.9865 77.0739 66.9865C75.5559 66.9865 74.2375 66.4845 73.1197 65.4807C72.0014 64.4767 71.4424 63.2729 71.4424 61.8691V60.9632Z" fill="#C30044"/>
<path d="M78.6165 35.254C78.045 34.6827 77.4413 34.397 76.8048 34.397C75.8413 34.397 75.3601 35.0337 75.3601 36.3068V56.5561C75.3601 57.8295 75.8413 58.466 76.8048 58.466C77.4413 58.466 78.045 58.1806 78.6165 57.609V35.254Z" fill="#C30044"/>
<path d="M113.999 10.4395V69.8622H143.945V10.4395H113.999ZM139.464 59.7145H134.298V36.3065C134.298 35.0334 133.816 34.3967 132.853 34.3967C132.102 34.3967 131.351 34.7969 130.6 35.5965C130.894 36.2495 131.041 37.0495 131.041 37.9961V58.8084H132.29V59.7145H127.148V36.3065C127.148 35.0334 126.658 34.3967 125.679 34.3967C125.042 34.3967 124.438 34.6824 123.867 35.2537V58.8084H125.14V59.7145H118.701V58.8084H119.974V34.5436H118.701V33.6377H123.867V34.3478C124.601 33.7111 125.573 33.3929 126.781 33.3929C128.397 33.3929 129.556 33.891 130.258 34.8864C131.253 33.891 132.486 33.3929 133.955 33.3929C136.795 33.3929 138.215 34.9273 138.215 37.9961V58.8084H139.464V59.7145Z" fill="#C30044"/>
<path d="M104.626 27.3366C103.418 27.3366 102.447 27.6549 101.712 28.2916V18.5464H96.5459V19.4525H97.8191V52.7524H96.5459V53.6583H101.712V52.9482C102.447 53.5849 103.418 53.9031 104.626 53.9031C107.466 53.9031 108.886 52.369 108.886 49.3V31.9398C108.886 28.8712 107.466 27.3366 104.626 27.3366ZM104.969 50.9893C104.969 52.2627 104.487 52.8992 103.524 52.8992C102.887 52.8992 102.283 52.6138 101.712 52.0423V29.1974C102.283 28.6264 102.887 28.3406 103.524 28.3406C104.487 28.3406 104.969 28.9771 104.969 30.2503V50.9893Z" fill="#C30044"/>
<g clip-path="url(#clip0_4036_421)">
<path d="M38.32 73.1801C39.5785 75.243 41.3404 77.1555 43.278 78.7019C45.0774 80.1443 47.0541 81.3403 49.1578 82.2596C46.1054 81.2361 43.1777 79.86 40.4319 78.1581C37.6956 76.4396 35.1568 74.4137 32.8632 72.1182C33.0221 71.7791 33.1416 71.4223 33.2191 71.0549C33.3563 70.4158 33.4237 69.7632 33.4202 69.1089C33.4202 68.9064 33.4157 68.6983 33.4068 68.4846C33.4068 68.2613 33.3934 68.0289 33.3785 67.7858C33.3472 67.3027 33.2921 66.7802 33.2057 66.2227C33.1193 65.6652 33.0449 65.0348 32.9079 64.3861C32.8721 64.2251 32.8453 64.0565 32.8155 63.8833L32.7187 63.3607C32.6502 63.0068 32.5698 62.6452 32.4834 62.2716C32.1572 60.634 31.7075 58.9189 31.3232 57.2206L31.283 57.0687L31.2518 56.9168L31.1862 56.5963C31.14 56.3867 31.0939 56.1755 31.0492 55.9659C31.0045 55.7562 30.9509 55.5527 30.9003 55.3461C30.8496 55.1395 30.8228 54.9314 30.7841 54.7263C30.7454 54.5212 30.7022 54.3222 30.662 54.1187C30.6218 53.9151 30.5741 53.7252 30.5473 53.5262C30.4837 53.1313 30.4172 52.75 30.3477 52.3824C30.3299 52.2912 30.312 52.2001 30.2956 52.1105C30.2792 52.0208 30.2703 51.9282 30.2569 51.8385C30.2321 51.6593 30.2067 51.4831 30.1809 51.3099C30.1333 50.9666 30.0722 50.6415 30.032 50.3301C29.9665 49.7042 29.8831 49.1543 29.831 48.6956C29.755 47.7689 29.682 47.2205 29.682 47.2205C29.4795 47.3205 29.2856 47.4379 29.1027 47.5714C28.5938 47.9381 28.1333 48.37 27.7325 48.8566C27.6014 49.0085 27.4615 49.1877 27.3349 49.3731C27.2083 49.5584 27.0817 49.7604 26.9566 49.9807C26.6771 50.4667 26.436 50.9747 26.2357 51.4998C26.0136 52.141 25.8379 52.798 25.71 53.4655C25.6475 53.8316 25.6058 54.2159 25.57 54.6245C25.5521 54.8281 25.5387 55.0377 25.5268 55.2534C25.5111 55.4723 25.5067 55.6918 25.5134 55.9112C25.5268 56.4626 25.5566 57.0262 25.5998 57.5974C25.643 58.1685 25.7488 58.7245 25.847 59.2957L25.9215 59.7225L26.0198 60.1433C26.0863 60.4228 26.1558 60.7024 26.2283 60.9819C26.3042 61.2598 26.3772 61.5439 26.4591 61.8158C26.541 62.0877 26.6408 62.3581 26.7317 62.627L27.0281 63.423C27.0742 63.5567 27.1264 63.6873 27.177 63.8149L27.3393 64.1977C27.4515 64.4529 27.5622 64.7061 27.6715 64.9573C27.7832 65.2049 27.8874 65.4571 28.0155 65.6895C28.2582 66.1619 28.5025 66.6207 28.7423 67.0566C28.8584 67.28 28.994 67.485 29.1191 67.6916L29.4959 68.2993C25.7849 63.546 23.1285 58.0285 21.7097 52.1272C22.1059 51.8674 22.8059 51.2446 23.5192 50.0111C23.7084 49.7073 23.902 49.3533 24.0911 48.966C24.1865 48.7715 24.2803 48.568 24.3741 48.3583C24.4679 48.1487 24.5528 47.9208 24.6586 47.6823C24.8626 47.2099 25.0622 46.6934 25.2543 46.1329C25.3422 45.8518 25.4598 45.5571 25.5626 45.2533C25.6653 44.9495 25.7696 44.6305 25.8694 44.3024C25.9692 43.9408 26.1002 43.5687 26.2134 43.1904C26.3266 42.8122 26.4338 42.4309 26.5336 42.0435C26.6334 41.6562 26.7659 41.2688 26.8717 40.8784C26.9268 40.6839 26.97 40.488 27.031 40.2935L27.2038 39.7117C27.2589 39.5188 27.3125 39.3259 27.3661 39.133L27.4436 38.8443L27.5344 38.5603C27.6516 38.1805 27.7628 37.8058 27.868 37.4362C27.9797 37.0685 28.1048 36.71 28.2121 36.3591C28.2657 36.1829 28.3178 36.0097 28.3714 35.8381C28.425 35.6664 28.4891 35.5024 28.5457 35.3383C28.6588 35.0082 28.7646 34.6907 28.8629 34.3858C28.9771 34.082 29.0833 33.7939 29.1816 33.5215C29.3663 32.9716 29.5703 32.4961 29.7193 32.0936L29.9233 31.5558C29.9873 31.4039 30.0439 31.2657 30.0886 31.1578C30.178 30.9391 30.2256 30.819 30.2256 30.819C30.02 30.8126 29.8142 30.8243 29.6105 30.854C29.3703 30.8842 29.132 30.9294 28.8972 30.9892C28.7586 31.0241 28.6097 31.0667 28.4504 31.1168C28.291 31.1669 28.1376 31.2307 27.9693 31.3021C27.5916 31.4642 27.2262 31.6546 26.8761 31.8718C26.4463 32.1354 26.0423 32.4406 25.6698 32.7832C25.4613 32.9685 25.2498 33.1711 25.0354 33.3908C24.8224 33.6142 24.6243 33.8602 24.4143 34.1261C24.2043 34.3919 23.9988 34.6775 23.7888 34.9874C23.5788 35.2973 23.3986 35.6345 23.205 35.993C21.4044 39.3077 20.7149 43.6218 20.7953 46.9076C20.1797 41.4803 20.5917 35.983 22.0091 30.7142C22.5169 30.6398 23.3494 30.3846 24.4083 29.698C25.5075 29.0265 26.8017 27.9131 28.4637 26.2785C29.4675 25.3048 30.4624 24.1807 31.4915 23.1082L31.8639 22.7011C31.989 22.5659 32.1215 22.4368 32.2466 22.3031C32.5013 22.0403 32.747 21.7775 32.9913 21.5177C33.2355 21.258 33.4887 21.018 33.7255 20.7719C33.8431 20.6503 33.9564 20.5258 34.074 20.4088L34.4255 20.067C34.6568 19.8402 34.8758 19.6204 35.0823 19.4077C35.2888 19.1951 35.4958 18.9996 35.7033 18.8214C35.8999 18.6376 36.0756 18.4538 36.2514 18.2943L36.7369 17.8537C37.0347 17.5848 37.2552 17.36 37.425 17.2203C37.5947 17.0805 37.6781 16.9954 37.6781 16.9954C37.511 16.9062 37.3366 16.832 37.1569 16.7737C36.9461 16.7017 36.7312 16.6429 36.5135 16.5974C36.223 16.5396 35.9289 16.5026 35.6333 16.4866C35.257 16.4655 34.8797 16.4726 34.5044 16.5078C34.3987 16.5169 34.2914 16.5276 34.1827 16.5428C34.074 16.558 33.9653 16.5777 33.8521 16.599C33.6287 16.643 33.3934 16.6977 33.1477 16.7645C32.9019 16.8314 32.6472 16.9165 32.3806 17.003C32.1141 17.0896 31.8549 17.2172 31.5749 17.3479C31.2949 17.4785 31.0105 17.6259 30.7141 17.7914C30.4177 17.957 30.1318 18.1545 29.8205 18.3657C28.6691 19.18 27.6133 20.1265 26.6736 21.1866C26.4338 21.4509 26.2149 21.7289 25.99 22.0023L25.6579 22.417C25.5492 22.5553 25.439 22.692 25.3407 22.8363C25.1396 23.1188 24.943 23.4029 24.7449 23.6855L24.4605 24.1062C24.3696 24.2475 24.2862 24.3918 24.2013 24.5331C25.0233 22.6965 25.9688 20.92 27.031 19.2163L27.8502 17.957L28.7184 16.7311C28.8674 16.5245 29.0163 16.3286 29.1652 16.1235L29.6239 15.5311C29.7803 15.3351 29.9218 15.13 30.0901 14.9417L30.5726 14.369C30.7767 14.2626 31.0194 14.1305 31.3083 13.9694C31.5973 13.8084 31.9339 13.6398 32.2958 13.4362C32.4775 13.3345 32.6666 13.2266 32.8617 13.1112C33.0568 12.9957 33.2727 12.8879 33.4887 12.7648C33.7046 12.6418 33.9266 12.5172 34.1559 12.382L34.5029 12.1769L34.8693 11.9734C35.115 11.8336 35.3682 11.6878 35.6229 11.5359L36.0116 11.3035L36.4182 11.0726C36.6922 10.9166 36.9692 10.753 37.2492 10.5819C37.3862 10.4938 37.5322 10.4102 37.6781 10.3282L38.1249 10.0715C39.2955 9.35752 40.5823 8.61469 41.9316 7.7716C42.3099 7.54779 42.6807 7.31689 43.0441 7.0789C43.4105 6.84952 43.7784 6.62318 44.1328 6.3938C44.3115 6.28139 44.4828 6.1553 44.663 6.04745C44.8432 5.93959 45.016 5.82566 45.1902 5.71325L45.7055 5.3745L45.9587 5.20284L46.2134 5.04182C46.553 4.82763 46.8821 4.61192 47.2038 4.39317L47.4436 4.23215L47.6848 4.08024L48.154 3.77643L48.6112 3.47261C48.7601 3.37235 48.909 3.26906 49.058 3.17943C49.3558 2.99512 49.6383 2.81333 49.9054 2.63408C50.4445 2.26495 50.9479 1.96417 51.3947 1.66947L52.0217 1.2578L52.5593 0.920562C53.2087 0.505854 53.5765 0.246091 53.5765 0.246091C53.5765 0.246091 53.1461 0.170136 52.3687 0.0865872L51.7209 0.0243044C51.4841 0.00911366 51.2309 0.00303929 50.9568 -0.0045561C50.4088 -0.0136706 49.7788 -0.0334189 49.0997 0.0212679C48.7571 0.0435478 48.3997 0.0713957 48.0274 0.104815C47.8397 0.118487 47.6535 0.147351 47.4629 0.174694L46.8806 0.262801L46.2849 0.364579L45.9766 0.419266C45.8753 0.439014 45.7725 0.464837 45.6698 0.487624C45.2587 0.584845 44.8358 0.68966 44.4053 0.80511L44.0822 0.893217L43.759 0.998034L43.1082 1.2183C42.8892 1.29425 42.6688 1.37021 42.4484 1.45528C42.228 1.54035 42.0106 1.63605 41.7901 1.72871C41.3538 1.92315 40.9085 2.11911 40.4706 2.33634C40.0327 2.55357 39.6053 2.81181 39.1734 3.06702C38.9872 3.17335 38.807 3.29184 38.6313 3.41033L38.1085 3.76579C37.7675 4.00733 37.4249 4.23367 37.1137 4.49191C36.5018 4.96537 35.9156 5.47249 35.3578 6.01099C35.0897 6.26923 34.8316 6.52241 34.5833 6.77053C34.3351 7.01865 34.1053 7.27841 33.8938 7.54982C33.6749 7.80806 33.4589 8.05415 33.2638 8.30936C33.0687 8.56456 32.8855 8.81673 32.7083 9.0613C31.6748 10.4831 30.843 12.0464 30.2375 13.7051C29.0546 15.0789 27.9626 16.5313 26.9685 18.0527C27.2664 17.4132 27.6268 16.7706 27.9663 16.0779L29.0669 13.9907C29.4571 13.2919 29.825 12.5521 30.2256 11.8412C30.4222 11.4812 30.6099 11.1121 30.802 10.749C30.9941 10.3859 31.1937 10.0305 31.3798 9.66589C31.4737 9.48208 31.5645 9.30131 31.6509 9.12358C31.7373 8.94585 31.8311 8.77875 31.9145 8.61014C32.0843 8.27138 32.2392 7.94174 32.3821 7.62121L32.7887 6.70065C32.9138 6.40595 33.028 6.12037 33.1313 5.84389C33.2355 5.56894 33.3234 5.29551 33.4128 5.04486C33.5021 4.79421 33.578 4.55116 33.6466 4.31874C33.7711 3.89814 33.874 3.47121 33.9549 3.03967C34.0764 2.46448 34.1398 1.87808 34.144 1.2897C34.1465 1.08609 34.1305 0.882684 34.0963 0.682065L33.7165 0.975249C33.4753 1.16969 33.1208 1.43097 32.6949 1.8153C31.562 2.78573 30.4919 3.83001 29.4914 4.94156C28.202 6.36068 27.0416 7.89617 26.0243 9.52918C25.7681 9.95452 25.5199 10.3804 25.2796 10.8067C25.0413 11.2321 24.8328 11.6741 24.6243 12.1025C24.525 12.3182 24.4258 12.5324 24.3265 12.7451C24.2282 12.9562 24.1477 13.1765 24.0629 13.3907C23.8961 13.8191 23.7426 14.2398 23.6056 14.65C23.3807 15.3609 23.2214 16.0293 23.0903 16.6354C23.0218 16.9392 22.9846 17.2431 22.9414 17.5195C22.8982 17.796 22.8759 18.0725 22.8535 18.3307C22.8312 18.589 22.8163 18.8335 22.8103 19.0675C22.8044 19.3014 22.8103 19.5232 22.8237 19.7435C22.8412 20.1288 22.881 20.5128 22.9429 20.8934C22.9712 21.0635 23.001 21.2246 23.0367 21.3749C23.0724 21.5253 23.1171 21.6788 23.1603 21.8064C23.2366 22.0464 23.3286 22.2808 23.4358 22.5082C23.5793 22.8199 23.7631 23.1107 23.9824 23.3725C22.7484 25.977 21.7831 28.7052 21.1021 31.5133C20.4153 34.3189 20.0047 37.1875 19.8764 40.0763C19.8109 38.3658 19.7557 36.312 19.7647 34.1215C19.7736 31.931 19.857 29.6053 19.8987 27.3267C19.8987 27.0973 19.8987 26.871 19.8987 26.6522C19.8987 26.4335 19.8987 26.2132 19.8987 26.0036C19.8987 25.5833 19.8943 25.1782 19.8853 24.7883C19.8764 24.3984 19.8605 24.0247 19.8377 23.6672C19.8218 23.3097 19.7984 22.9674 19.7677 22.6403C19.7394 22.3137 19.6962 21.9978 19.6634 21.7031C19.6307 21.4084 19.5919 21.1273 19.5487 20.86C19.4735 20.3776 19.3741 19.8995 19.2509 19.4275C19.1021 18.7926 18.8895 18.1751 18.6164 17.5848C18.5225 17.3795 18.4098 17.1837 18.2798 17L18.043 17.4876L17.766 18.0664C17.7139 18.1803 17.6558 18.3019 17.5962 18.431C17.5367 18.5601 17.4801 18.7014 17.419 18.8487C16.7509 20.3997 16.1891 21.996 15.7376 23.6262C15.4501 24.5924 15.2342 25.6436 15.0123 26.713C14.8351 27.7976 14.6534 28.902 14.5789 30.0185C14.4874 31.1131 14.4571 32.2122 14.4881 33.3103C14.5164 33.8466 14.5536 34.3737 14.5998 34.8841C14.6266 35.1408 14.6444 35.39 14.6847 35.6436C14.7249 35.8973 14.7621 36.1358 14.8053 36.3758C14.8857 36.8224 14.9706 37.2432 15.0584 37.6427C15.1463 38.0423 15.2699 38.419 15.3787 38.7745C15.4874 39.1299 15.6006 39.4626 15.7153 39.7755C15.8299 40.0885 15.967 40.3832 16.0921 40.6551C16.3168 41.1482 16.573 41.6257 16.859 42.0845C17.0986 42.4491 17.3608 42.7977 17.6439 43.1281C18.0347 43.5943 18.4921 43.9979 19.0007 44.3252C19.289 44.5054 19.6009 44.643 19.927 44.7338C20.1274 47.9421 20.6768 51.1178 21.5653 54.2022L21.7276 54.7825L21.9167 55.3522L22.295 56.4945L22.3904 56.7786L22.4991 57.0596L22.715 57.6201L23.1499 58.7397L23.6354 59.838L23.8797 60.3864C23.9199 60.4775 23.9586 60.5702 24.0018 60.6598L24.1373 60.9287L24.6749 62.0012C24.7658 62.1789 24.8522 62.3597 24.9475 62.5359L25.2454 63.0569C24.2028 61.471 22.928 59.4673 21.6814 57.2282C20.4349 54.9891 19.1675 52.5373 17.9283 50.1387C17.699 49.683 17.4533 49.2591 17.2343 48.8459C17.0154 48.4328 16.8039 48.0378 16.588 47.6626C16.4792 47.4742 16.372 47.2904 16.2633 47.1127C16.1546 46.9349 16.0474 46.7603 15.9506 46.5886C15.752 46.2483 15.5534 45.9258 15.3549 45.6209C14.7079 44.6051 13.987 43.6403 13.1983 42.7347C12.8796 42.3792 12.5698 42.083 12.3047 41.8384C12.0859 41.633 11.8567 41.4393 11.6182 41.2582C11.423 41.1051 11.2141 40.9713 10.9941 40.8586C10.9941 40.8586 10.9941 41.0759 11.006 41.4663C11.0179 41.8567 11.0478 42.4354 11.1058 43.1494C11.1356 43.5064 11.1699 43.8983 11.2056 44.3206C11.216 44.427 11.2265 44.5333 11.2369 44.6427L11.2816 44.9753C11.3143 45.2017 11.3471 45.4311 11.3813 45.6726C11.4513 46.1496 11.5303 46.6509 11.6107 47.1719C11.6911 47.693 11.8281 48.2353 11.9488 48.7867C12.0098 49.0632 12.0739 49.3427 12.1379 49.6268C12.202 49.9108 12.2869 50.1949 12.3673 50.482C12.5296 51.0562 12.6994 51.6395 12.8781 52.2259C13.0568 52.8123 13.2921 53.3941 13.5096 53.9789L13.6749 54.4164C13.73 54.5683 13.7866 54.7081 13.8521 54.8509L14.2334 55.7091C14.3645 55.9917 14.494 56.2742 14.6251 56.5583L14.8246 56.9761L15.0436 57.3862C15.3414 57.9285 15.6393 58.4602 15.9372 58.9752C16.235 59.4901 16.585 59.9732 16.9112 60.4426C17.075 60.6765 17.2393 60.9054 17.4041 61.1292C17.5739 61.351 17.7526 61.5621 17.9269 61.7687C18.2605 62.1652 18.5837 62.5283 18.8994 62.8731C19.0483 63.0448 19.2211 63.2028 19.3804 63.3562C19.5398 63.5096 19.6992 63.66 19.8555 63.7997C20.1668 64.0823 20.4661 64.3405 20.7566 64.579C21.047 64.8175 21.3523 65.0196 21.6263 65.211C22.1258 65.5504 22.6473 65.8549 23.1871 66.1224C23.6219 66.3272 24.0697 66.5017 24.5275 66.645C24.8852 66.756 25.2506 66.8393 25.6207 66.8941C25.909 66.9323 26.1998 66.9465 26.4904 66.9366C26.8485 66.9311 27.2038 66.8717 27.5448 66.7604C27.7936 67.1113 28.0319 67.4698 28.2895 67.8147L29.0759 68.8355L29.4705 69.3459L29.8875 69.8366L30.7201 70.8179C31.006 71.1369 31.3039 71.4453 31.5958 71.7597C31.8877 72.0742 32.1751 72.3932 32.4894 72.6848L33.4113 73.5811L33.6421 73.8044L33.8819 74.0171L34.3629 74.4424C36.9194 76.7411 39.7483 78.7038 42.7835 80.2848C40.8668 79.4857 38.5315 78.4087 36.0816 77.1038C33.6317 75.7989 31.0507 74.2829 28.5353 72.7745C27.597 72.1866 26.6781 71.6959 25.8619 71.2205C25.4479 70.9845 25.0423 70.7703 24.6452 70.5779C24.2579 70.3743 23.8931 70.1784 23.5312 70.0037C22.0761 69.3094 20.8787 68.8021 19.8555 68.4952C19.3432 68.3433 18.9098 68.2188 18.5152 68.1352C18.1901 68.0623 17.8615 68.007 17.5307 67.9696C17.2591 67.9343 16.9849 67.9251 16.7116 67.9423L17.0705 68.5271C17.3058 68.9023 17.6379 69.4538 18.113 70.1039C18.5881 70.7541 19.1258 71.5471 19.8138 72.3749L20.3366 73.0175C20.5168 73.2347 20.6955 73.4611 20.8966 73.6768C21.2927 74.1158 21.7067 74.5685 22.1371 75.0288C24.0131 76.9825 26.0857 78.7289 28.3208 80.2392C30.5027 81.7159 32.877 82.8731 35.3742 83.6769C35.9193 83.841 36.4395 83.9847 36.935 84.1083C37.4398 84.2177 37.9209 84.3043 38.3781 84.3772C38.606 84.4136 38.8249 84.4455 39.0438 84.4744L39.3655 84.5154C39.4713 84.526 39.5785 84.5321 39.6812 84.5397C40.0997 84.5686 40.4944 84.5823 40.8727 84.5868C41.251 84.5914 41.595 84.5868 41.9257 84.5655C42.2563 84.5443 42.5765 84.4987 42.8713 84.4547C43.3949 84.3776 43.9125 84.2628 44.4202 84.1113C45.1287 83.8931 45.7995 83.5636 46.4085 83.1346C46.7336 82.9055 47.0237 82.6286 47.2693 82.3128C49.5199 83.1615 51.8365 83.8155 54.1946 84.2678L55.0793 84.4303L55.5261 84.5109C55.675 84.5352 55.8239 84.5503 55.9729 84.5716C56.5686 84.6476 57.1643 84.7235 57.76 84.7995L59.5546 84.9377C59.8525 84.9681 60.1503 84.9666 60.4482 84.9757L61.3418 85C61.7052 85.0091 62.0001 84.8618 62.0001 84.6719C62.0001 84.482 61.7022 84.321 61.3522 84.3119L60.5033 84.2906L60.0789 84.2784H59.8659L59.6544 84.2617L57.9581 84.1296L57.7466 84.1129L57.5366 84.0855L57.1151 84.0308L56.2722 83.9215C55.7078 83.8622 55.1522 83.7468 54.5938 83.648C54.5321 83.2372 54.4211 82.8356 54.2631 82.4525C54.1619 82.1897 54.0293 81.9132 53.8669 81.5882C53.6859 81.2322 53.487 80.8859 53.2712 80.5506C53.0344 80.1785 52.7559 79.7911 52.4387 79.3809C52.1215 78.9708 51.7641 78.5044 51.359 78.0441C51.2577 77.9272 51.1505 77.8163 51.0462 77.6917L50.72 77.3165C50.4981 77.0643 50.2628 76.8076 50.0156 76.557C49.892 76.4248 49.7624 76.3033 49.6358 76.162C49.5092 76.0207 49.3796 75.881 49.2456 75.7397C48.979 75.4587 48.699 75.1731 48.4042 74.886C47.1606 73.5917 45.783 72.2732 44.4738 70.9364C43.1647 69.5996 41.942 68.2522 40.8906 67.0323L40.5063 66.5766L40.3172 66.3609C40.2586 66.285 40.2005 66.2105 40.143 66.1376C39.9121 65.8444 39.6887 65.568 39.4757 65.3097L39.3179 65.1183L39.1689 64.9239L38.8934 64.5563C38.7147 64.3203 38.5484 64.1056 38.3945 63.9122C37.8226 63.0979 37.4607 62.6316 37.4607 62.6316C37.3222 62.8404 37.2016 63.0609 37.1003 63.2909C36.8175 63.9259 36.6173 64.5959 36.5045 65.2839C36.4189 65.7783 36.378 66.2797 36.3824 66.7817C36.3824 67.0597 36.3929 67.3529 36.4167 67.6612C36.4286 67.8132 36.4405 67.9772 36.4629 68.1352C36.4852 68.2932 36.5135 68.4542 36.5433 68.6198C36.6058 68.9494 36.6818 69.2958 36.7771 69.6573C36.8262 69.8381 36.8769 70.0249 36.935 70.2103C36.9931 70.3956 37.066 70.5779 37.139 70.7678C37.2879 71.146 37.4532 71.541 37.6439 71.9511C37.8345 72.3613 38.0669 72.7562 38.32 73.1801Z" fill="#C5CBD5"/>
</g>
<g clip-path="url(#clip1_4036_421)">
<path d="M164.68 73.1801C163.421 75.243 161.66 77.1555 159.722 78.7019C157.923 80.1443 155.946 81.3403 153.842 82.2596C156.895 81.2361 159.822 79.86 162.568 78.1581C165.304 76.4396 167.843 74.4137 170.137 72.1182C169.978 71.7791 169.858 71.4223 169.781 71.0549C169.644 70.4158 169.576 69.7632 169.58 69.1089C169.58 68.9064 169.584 68.6983 169.593 68.4846C169.593 68.2613 169.607 68.0289 169.622 67.7858C169.653 67.3027 169.708 66.7802 169.794 66.2227C169.881 65.6652 169.955 65.0348 170.092 64.3861C170.128 64.2251 170.155 64.0565 170.184 63.8833L170.281 63.3607C170.35 63.0068 170.43 62.6452 170.517 62.2716C170.843 60.634 171.293 58.9189 171.677 57.2206L171.717 57.0687L171.748 56.9168L171.814 56.5963C171.86 56.3867 171.906 56.1755 171.951 55.9659C171.995 55.7562 172.049 55.5527 172.1 55.3461C172.15 55.1395 172.177 54.9314 172.216 54.7263C172.255 54.5212 172.298 54.3222 172.338 54.1187C172.378 53.9151 172.426 53.7252 172.453 53.5262C172.516 53.1313 172.583 52.75 172.652 52.3824C172.67 52.2912 172.688 52.2001 172.704 52.1105C172.721 52.0208 172.73 51.9282 172.743 51.8385C172.768 51.6593 172.793 51.4831 172.819 51.3099C172.867 50.9666 172.928 50.6415 172.968 50.3301C173.034 49.7042 173.117 49.1543 173.169 48.6956C173.245 47.7689 173.318 47.2205 173.318 47.2205C173.521 47.3205 173.714 47.4379 173.897 47.5714C174.406 47.9381 174.867 48.37 175.267 48.8566C175.399 49.0085 175.539 49.1877 175.665 49.3731C175.792 49.5584 175.918 49.7604 176.043 49.9807C176.323 50.4667 176.564 50.9747 176.764 51.4998C176.986 52.141 177.162 52.798 177.29 53.4655C177.353 53.8316 177.394 54.2159 177.43 54.6245C177.448 54.8281 177.461 55.0377 177.473 55.2534C177.489 55.4723 177.493 55.6918 177.487 55.9112C177.473 56.4626 177.443 57.0262 177.4 57.5974C177.357 58.1685 177.251 58.7245 177.153 59.2957L177.078 59.7225L176.98 60.1433C176.914 60.4228 176.844 60.7024 176.772 60.9819C176.696 61.2598 176.623 61.5439 176.541 61.8158C176.459 62.0877 176.359 62.3581 176.268 62.627L175.972 63.423C175.926 63.5567 175.874 63.6873 175.823 63.8149L175.661 64.1977C175.548 64.4529 175.438 64.7061 175.329 64.9573C175.217 65.2049 175.113 65.4571 174.985 65.6895C174.742 66.1619 174.498 66.6207 174.258 67.0566C174.142 67.28 174.006 67.485 173.881 67.6916L173.504 68.2993C177.215 63.546 179.871 58.0285 181.29 52.1272C180.894 51.8674 180.194 51.2446 179.481 50.0111C179.292 49.7073 179.098 49.3533 178.909 48.966C178.814 48.7715 178.72 48.568 178.626 48.3583C178.532 48.1487 178.447 47.9208 178.341 47.6823C178.137 47.2099 177.938 46.6934 177.746 46.1329C177.658 45.8518 177.54 45.5571 177.437 45.2533C177.335 44.9495 177.23 44.6305 177.131 44.3024C177.031 43.9408 176.9 43.5687 176.787 43.1904C176.673 42.8122 176.566 42.4309 176.466 42.0435C176.367 41.6562 176.234 41.2688 176.128 40.8784C176.073 40.6839 176.03 40.488 175.969 40.2935L175.796 39.7117C175.741 39.5188 175.687 39.3259 175.634 39.133L175.556 38.8443L175.466 38.5603C175.348 38.1805 175.237 37.8058 175.132 37.4362C175.02 37.0685 174.895 36.71 174.788 36.3591C174.734 36.1829 174.682 36.0097 174.629 35.8381C174.575 35.6664 174.511 35.5024 174.454 35.3383C174.341 35.0082 174.235 34.6907 174.137 34.3858C174.023 34.082 173.917 33.7939 173.818 33.5215C173.634 32.9716 173.43 32.4961 173.281 32.0936L173.077 31.5558C173.013 31.4039 172.956 31.2657 172.911 31.1578C172.822 30.9391 172.774 30.819 172.774 30.819C172.98 30.8126 173.186 30.8243 173.389 30.854C173.63 30.8842 173.868 30.9294 174.103 30.9892C174.241 31.0241 174.39 31.0667 174.55 31.1168C174.709 31.1669 174.862 31.2307 175.031 31.3021C175.408 31.4642 175.774 31.6546 176.124 31.8718C176.554 32.1354 176.958 32.4406 177.33 32.7832C177.539 32.9685 177.75 33.1711 177.965 33.3908C178.178 33.6142 178.376 33.8602 178.586 34.1261C178.796 34.3919 179.001 34.6775 179.211 34.9874C179.421 35.2973 179.601 35.6345 179.795 35.993C181.596 39.3077 182.285 43.6218 182.205 46.9076C182.82 41.4803 182.408 35.983 180.991 30.7142C180.483 30.6398 179.651 30.3846 178.592 29.698C177.493 29.0265 176.198 27.9131 174.536 26.2785C173.532 25.3048 172.538 24.1807 171.508 23.1082L171.136 22.7011C171.011 22.5659 170.878 22.4368 170.753 22.3031C170.499 22.0403 170.253 21.7775 170.009 21.5177C169.764 21.258 169.511 21.018 169.275 20.7719C169.157 20.6503 169.044 20.5258 168.926 20.4088L168.575 20.067C168.343 19.8402 168.124 19.6204 167.918 19.4077C167.711 19.1951 167.504 18.9996 167.297 18.8214C167.1 18.6376 166.924 18.4538 166.749 18.2943L166.263 17.8537C165.965 17.5848 165.745 17.36 165.575 17.2203C165.405 17.0805 165.322 16.9954 165.322 16.9954C165.489 16.9062 165.663 16.832 165.843 16.7737C166.054 16.7017 166.269 16.6429 166.487 16.5974C166.777 16.5396 167.071 16.5026 167.367 16.4866C167.743 16.4655 168.12 16.4726 168.496 16.5078C168.601 16.5169 168.709 16.5276 168.817 16.5428C168.926 16.558 169.035 16.5777 169.148 16.599C169.371 16.643 169.607 16.6977 169.852 16.7645C170.098 16.8314 170.353 16.9165 170.619 17.003C170.886 17.0896 171.145 17.2172 171.425 17.3479C171.705 17.4785 171.99 17.6259 172.286 17.7914C172.582 17.957 172.868 18.1545 173.179 18.3657C174.331 19.18 175.387 20.1265 176.326 21.1866C176.566 21.4509 176.785 21.7289 177.01 22.0023L177.342 22.417C177.451 22.5553 177.561 22.692 177.659 22.8363C177.86 23.1188 178.057 23.4029 178.255 23.6855L178.54 24.1062C178.63 24.2475 178.714 24.3918 178.799 24.5331C177.977 22.6965 177.031 20.92 175.969 19.2163L175.15 17.957L174.282 16.7311C174.133 16.5245 173.984 16.3286 173.835 16.1235L173.376 15.5311C173.22 15.3351 173.078 15.13 172.91 14.9417L172.427 14.369C172.223 14.2626 171.981 14.1305 171.692 13.9694C171.403 13.8084 171.066 13.6398 170.704 13.4362C170.523 13.3345 170.333 13.2266 170.138 13.1112C169.943 12.9957 169.727 12.8879 169.511 12.7648C169.295 12.6418 169.073 12.5172 168.844 12.382L168.497 12.1769L168.131 11.9734C167.885 11.8336 167.632 11.6878 167.377 11.5359L166.988 11.3035L166.582 11.0726C166.308 10.9166 166.031 10.753 165.751 10.5819C165.614 10.4938 165.468 10.4102 165.322 10.3282L164.875 10.0715C163.704 9.35752 162.418 8.61469 161.068 7.7716C160.69 7.54779 160.319 7.31689 159.956 7.0789C159.59 6.84952 159.222 6.62318 158.867 6.3938C158.688 6.28139 158.517 6.1553 158.337 6.04745C158.157 5.93959 157.984 5.82566 157.81 5.71325L157.294 5.3745L157.041 5.20284L156.787 5.04182C156.447 4.82763 156.118 4.61192 155.796 4.39317L155.556 4.23215L155.315 4.08024L154.846 3.77643L154.389 3.47261C154.24 3.37235 154.091 3.26906 153.942 3.17943C153.644 2.99512 153.362 2.81333 153.095 2.63408C152.555 2.26495 152.052 1.96417 151.605 1.66947L150.978 1.2578L150.441 0.920562C149.791 0.505854 149.423 0.246091 149.423 0.246091C149.423 0.246091 149.854 0.170136 150.631 0.0865872L151.279 0.0243044C151.516 0.00911366 151.769 0.00303929 152.043 -0.0045561C152.591 -0.0136706 153.221 -0.0334189 153.9 0.0212679C154.243 0.0435478 154.6 0.0713957 154.973 0.104815C155.16 0.118487 155.346 0.147351 155.537 0.174694L156.119 0.262801L156.715 0.364579L157.023 0.419266C157.125 0.439014 157.227 0.464837 157.33 0.487624C157.741 0.584845 158.164 0.68966 158.595 0.80511L158.918 0.893217L159.241 0.998034L159.892 1.2183C160.111 1.29425 160.331 1.37021 160.552 1.45528C160.772 1.54035 160.989 1.63605 161.21 1.72871C161.646 1.92315 162.092 2.11911 162.529 2.33634C162.967 2.55357 163.395 2.81181 163.827 3.06702C164.013 3.17335 164.193 3.29184 164.369 3.41033L164.891 3.76579C165.233 4.00733 165.575 4.23367 165.886 4.49191C166.498 4.96537 167.084 5.47249 167.642 6.01099C167.91 6.26923 168.168 6.52241 168.417 6.77053C168.665 7.01865 168.895 7.27841 169.106 7.54982C169.325 7.80806 169.541 8.05415 169.736 8.30936C169.931 8.56456 170.114 8.81673 170.292 9.0613C171.325 10.4831 172.157 12.0464 172.762 13.7051C173.945 15.0789 175.037 16.5313 176.031 18.0527C175.734 17.4132 175.373 16.7706 175.034 16.0779L173.933 13.9907C173.543 13.2919 173.175 12.5521 172.774 11.8412C172.578 11.4812 172.39 11.1121 172.198 10.749C172.006 10.3859 171.806 10.0305 171.62 9.66589C171.526 9.48208 171.435 9.30131 171.349 9.12358C171.263 8.94585 171.169 8.77875 171.085 8.61014C170.916 8.27138 170.761 7.94174 170.618 7.62121L170.211 6.70065C170.086 6.40595 169.972 6.12037 169.869 5.84389C169.764 5.56894 169.677 5.29551 169.587 5.04486C169.498 4.79421 169.422 4.55116 169.353 4.31874C169.229 3.89814 169.126 3.47121 169.045 3.03967C168.924 2.46448 168.86 1.87808 168.856 1.2897C168.854 1.08609 168.87 0.882684 168.904 0.682065L169.283 0.975249C169.525 1.16969 169.879 1.43097 170.305 1.8153C171.438 2.78573 172.508 3.83001 173.509 4.94156C174.798 6.36068 175.958 7.89617 176.976 9.52918C177.232 9.95452 177.48 10.3804 177.72 10.8067C177.959 11.2321 178.167 11.6741 178.376 12.1025C178.475 12.3182 178.574 12.5324 178.674 12.7451C178.772 12.9562 178.852 13.1765 178.937 13.3907C179.104 13.8191 179.257 14.2398 179.394 14.65C179.619 15.3609 179.779 16.0293 179.91 16.6354C179.978 16.9392 180.015 17.2431 180.059 17.5195C180.102 17.796 180.124 18.0725 180.146 18.3307C180.169 18.589 180.184 18.8335 180.19 19.0675C180.196 19.3014 180.19 19.5232 180.176 19.7435C180.159 20.1288 180.119 20.5128 180.057 20.8934C180.029 21.0635 179.999 21.2246 179.963 21.3749C179.928 21.5253 179.883 21.6788 179.84 21.8064C179.763 22.0464 179.671 22.2808 179.564 22.5082C179.421 22.8199 179.237 23.1107 179.018 23.3725C180.252 25.977 181.217 28.7052 181.898 31.5133C182.585 34.3189 182.995 37.1875 183.124 40.0763C183.189 38.3658 183.244 36.312 183.235 34.1215C183.226 31.931 183.143 29.6053 183.101 27.3267C183.101 27.0973 183.101 26.871 183.101 26.6522C183.101 26.4335 183.101 26.2132 183.101 26.0036C183.101 25.5833 183.106 25.1782 183.115 24.7883C183.124 24.3984 183.14 24.0247 183.162 23.6672C183.178 23.3097 183.202 22.9674 183.232 22.6403C183.261 22.3137 183.304 21.9978 183.337 21.7031C183.369 21.4084 183.408 21.1273 183.451 20.86C183.526 20.3776 183.626 19.8995 183.749 19.4275C183.898 18.7926 184.11 18.1751 184.384 17.5848C184.477 17.3795 184.59 17.1837 184.72 17L184.957 17.4876L185.234 18.0664C185.286 18.1803 185.344 18.3019 185.404 18.431C185.463 18.5601 185.52 18.7014 185.581 18.8487C186.249 20.3997 186.811 21.996 187.262 23.6262C187.55 24.5924 187.766 25.6436 187.988 26.713C188.165 27.7976 188.347 28.902 188.421 30.0185C188.513 31.1131 188.543 32.2122 188.512 33.3103C188.484 33.8466 188.446 34.3737 188.4 34.8841C188.373 35.1408 188.356 35.39 188.315 35.6436C188.275 35.8973 188.238 36.1358 188.195 36.3758C188.114 36.8224 188.029 37.2432 187.942 37.6427C187.854 38.0423 187.73 38.419 187.621 38.7745C187.513 39.1299 187.399 39.4626 187.285 39.7755C187.17 40.0885 187.033 40.3832 186.908 40.6551C186.683 41.1482 186.427 41.6257 186.141 42.0845C185.901 42.4491 185.639 42.7977 185.356 43.1281C184.965 43.5943 184.508 43.9979 183.999 44.3252C183.711 44.5054 183.399 44.643 183.073 44.7338C182.873 47.9421 182.323 51.1178 181.435 54.2022L181.272 54.7825L181.083 55.3522L180.705 56.4945L180.61 56.7786L180.501 57.0596L180.285 57.6201L179.85 58.7397L179.365 59.838L179.12 60.3864C179.08 60.4775 179.041 60.5702 178.998 60.6598L178.863 60.9287L178.325 62.0012C178.234 62.1789 178.148 62.3597 178.053 62.5359L177.755 63.0569C178.797 61.471 180.072 59.4673 181.319 57.2282C182.565 54.9891 183.833 52.5373 185.072 50.1387C185.301 49.683 185.547 49.2591 185.766 48.8459C185.985 48.4328 186.196 48.0378 186.412 47.6626C186.521 47.4742 186.628 47.2904 186.737 47.1127C186.845 46.9349 186.953 46.7603 187.049 46.5886C187.248 46.2483 187.447 45.9258 187.645 45.6209C188.292 44.6051 189.013 43.6403 189.802 42.7347C190.12 42.3792 190.43 42.083 190.695 41.8384C190.914 41.633 191.143 41.4393 191.382 41.2582C191.577 41.1051 191.786 40.9713 192.006 40.8586C192.006 40.8586 192.006 41.0759 191.994 41.4663C191.982 41.8567 191.952 42.4354 191.894 43.1494C191.864 43.5064 191.83 43.8983 191.794 44.3206C191.784 44.427 191.774 44.5333 191.763 44.6427L191.718 44.9753C191.686 45.2017 191.653 45.4311 191.619 45.6726C191.549 46.1496 191.47 46.6509 191.389 47.1719C191.309 47.693 191.172 48.2353 191.051 48.7867C190.99 49.0632 190.926 49.3427 190.862 49.6268C190.798 49.9108 190.713 50.1949 190.633 50.482C190.47 51.0562 190.301 51.6395 190.122 52.2259C189.943 52.8123 189.708 53.3941 189.49 53.9789L189.325 54.4164C189.27 54.5683 189.213 54.7081 189.148 54.8509L188.767 55.7091C188.636 55.9917 188.506 56.2742 188.375 56.5583L188.175 56.9761L187.956 57.3862C187.659 57.9285 187.361 58.4602 187.063 58.9752C186.765 59.4901 186.415 59.9732 186.089 60.4426C185.925 60.6765 185.761 60.9054 185.596 61.1292C185.426 61.351 185.247 61.5621 185.073 61.7687C184.74 62.1652 184.416 62.5283 184.101 62.8731C183.952 63.0448 183.779 63.2028 183.62 63.3562C183.46 63.5096 183.301 63.66 183.144 63.7997C182.833 64.0823 182.534 64.3405 182.243 64.579C181.953 64.8175 181.648 65.0196 181.374 65.211C180.874 65.5504 180.353 65.8549 179.813 66.1224C179.378 66.3272 178.93 66.5017 178.472 66.645C178.115 66.756 177.749 66.8393 177.379 66.8941C177.091 66.9323 176.8 66.9465 176.51 66.9366C176.152 66.9311 175.796 66.8717 175.455 66.7604C175.206 67.1113 174.968 67.4698 174.71 67.8147L173.924 68.8355L173.529 69.3459L173.112 69.8366L172.28 70.8179C171.994 71.1369 171.696 71.4453 171.404 71.7597C171.112 72.0742 170.825 72.3932 170.511 72.6848L169.589 73.5811L169.358 73.8044L169.118 74.0171L168.637 74.4424C166.081 76.7411 163.252 78.7038 160.217 80.2848C162.133 79.4857 164.468 78.4087 166.918 77.1038C169.368 75.7989 171.949 74.2829 174.465 72.7745C175.403 72.1866 176.322 71.6959 177.138 71.2205C177.552 70.9845 177.958 70.7703 178.355 70.5779C178.742 70.3743 179.107 70.1784 179.469 70.0037C180.924 69.3094 182.121 68.8021 183.144 68.4952C183.657 68.3433 184.09 68.2188 184.485 68.1352C184.81 68.0623 185.138 68.007 185.469 67.9696C185.741 67.9343 186.015 67.9251 186.288 67.9423L185.929 68.5271C185.694 68.9023 185.362 69.4538 184.887 70.1039C184.412 70.7541 183.874 71.5471 183.186 72.3749L182.663 73.0175C182.483 73.2347 182.304 73.4611 182.103 73.6768C181.707 74.1158 181.293 74.5685 180.863 75.0288C178.987 76.9825 176.914 78.7289 174.679 80.2392C172.497 81.7159 170.123 82.8731 167.626 83.6769C167.081 83.841 166.56 83.9847 166.065 84.1083C165.56 84.2177 165.079 84.3043 164.622 84.3772C164.394 84.4136 164.175 84.4455 163.956 84.4744L163.634 84.5154C163.529 84.526 163.422 84.5321 163.319 84.5397C162.9 84.5686 162.506 84.5823 162.127 84.5868C161.749 84.5914 161.405 84.5868 161.074 84.5655C160.744 84.5443 160.424 84.4987 160.129 84.4547C159.605 84.3776 159.087 84.2628 158.58 84.1113C157.871 83.8931 157.2 83.5636 156.592 83.1346C156.266 82.9055 155.976 82.6286 155.731 82.3128C153.48 83.1615 151.164 83.8155 148.805 84.2678L147.921 84.4303L147.474 84.5109C147.325 84.5352 147.176 84.5503 147.027 84.5716C146.431 84.6476 145.836 84.7235 145.24 84.7995L143.445 84.9377C143.148 84.9681 142.85 84.9666 142.552 84.9757L141.658 85C141.295 85.0091 141 84.8618 141 84.6719C141 84.482 141.298 84.321 141.648 84.3119L142.497 84.2906L142.921 84.2784H143.134L143.346 84.2617L145.042 84.1296L145.253 84.1129L145.463 84.0855L145.885 84.0308L146.728 83.9215C147.292 83.8622 147.848 83.7468 148.406 83.648C148.468 83.2372 148.579 82.8356 148.737 82.4525C148.838 82.1897 148.971 81.9132 149.133 81.5882C149.314 81.2322 149.513 80.8859 149.729 80.5506C149.966 80.1785 150.244 79.7911 150.561 79.3809C150.879 78.9708 151.236 78.5044 151.641 78.0441C151.742 77.9272 151.85 77.8163 151.954 77.6917L152.28 77.3165C152.502 77.0643 152.737 76.8076 152.984 76.557C153.108 76.4248 153.238 76.3033 153.364 76.162C153.491 76.0207 153.62 75.881 153.754 75.7397C154.021 75.4587 154.301 75.1731 154.596 74.886C155.839 73.5917 157.217 72.2732 158.526 70.9364C159.835 69.5996 161.058 68.2522 162.109 67.0323L162.494 66.5766L162.683 66.3609C162.741 66.285 162.799 66.2105 162.857 66.1376C163.088 65.8444 163.311 65.568 163.524 65.3097L163.682 65.1183L163.831 64.9239L164.107 64.5563C164.285 64.3203 164.452 64.1056 164.605 63.9122C165.177 63.0979 165.539 62.6316 165.539 62.6316C165.678 62.8404 165.798 63.0609 165.9 63.2909C166.182 63.9259 166.383 64.5959 166.495 65.2839C166.581 65.7783 166.622 66.2797 166.618 66.7817C166.618 67.0597 166.607 67.3529 166.583 67.6612C166.571 67.8132 166.559 67.9772 166.537 68.1352C166.515 68.2932 166.487 68.4542 166.457 68.6198C166.394 68.9494 166.318 69.2958 166.223 69.6573C166.174 69.8381 166.123 70.0249 166.065 70.2103C166.007 70.3956 165.934 70.5779 165.861 70.7678C165.712 71.146 165.547 71.541 165.356 71.9511C165.165 72.3613 164.933 72.7562 164.68 73.1801Z" fill="#C5CBD5"/>
</g>
<defs>
<clipPath id="clip0_4036_421">
<rect width="51" height="85" fill="white" transform="translate(11)"/>
</clipPath>
<clipPath id="clip1_4036_421">
<rect width="51" height="85" fill="white" transform="matrix(-1 0 0 1 192 0)"/>
</clipPath>
</defs>
</svg>
