<svg width="211" height="244" viewBox="0 0 211 244" fill="none" xmlns="http://www.w3.org/2000/svg">
<path d="M1.44309 196V182.909H6.23713C7.1661 182.909 7.93528 183.062 8.54466 183.369C9.15403 183.672 9.61 184.083 9.91255 184.603C10.2151 185.119 10.3664 185.7 10.3664 186.348C10.3664 186.893 10.2662 187.354 10.066 187.729C9.86568 188.099 9.59721 188.398 9.26056 188.624C8.92818 188.845 8.5617 189.007 8.16113 189.109V189.237C8.59579 189.259 9.0198 189.399 9.43315 189.659C9.85076 189.915 10.1959 190.279 10.4687 190.752C10.7414 191.225 10.8778 191.8 10.8778 192.478C10.8778 193.147 10.7201 193.748 10.4047 194.281C10.0937 194.809 9.61213 195.229 8.96014 195.54C8.30815 195.847 7.47505 196 6.46085 196H1.44309ZM3.41824 194.306H6.26909C7.21511 194.306 7.89267 194.123 8.30176 193.756C8.71085 193.39 8.91539 192.932 8.91539 192.382C8.91539 191.969 8.81099 191.589 8.60218 191.244C8.39338 190.899 8.09508 190.624 7.7073 190.42C7.32378 190.215 6.86781 190.113 6.3394 190.113H3.41824V194.306ZM3.41824 188.572H6.06454C6.50772 188.572 6.90616 188.487 7.25985 188.317C7.61781 188.146 7.90119 187.908 8.11 187.601C8.32306 187.29 8.4296 186.923 8.4296 186.501C8.4296 185.96 8.23997 185.506 7.86071 185.14C7.48145 184.773 6.89977 184.59 6.11568 184.59H3.41824V188.572ZM17.2986 196.198C16.3312 196.198 15.4981 195.991 14.7993 195.578C14.1047 195.161 13.5677 194.575 13.1885 193.82C12.8135 193.062 12.626 192.173 12.626 191.155C12.626 190.149 12.8135 189.263 13.1885 188.496C13.5677 187.729 14.0961 187.13 14.7737 186.7C15.4555 186.269 16.2524 186.054 17.1643 186.054C17.7183 186.054 18.2552 186.146 18.7751 186.329C19.295 186.512 19.7616 186.8 20.175 187.192C20.5883 187.584 20.9143 188.093 21.153 188.719C21.3916 189.342 21.5109 190.098 21.5109 190.989V191.666H13.7062V190.234H19.6381C19.6381 189.732 19.5358 189.286 19.3312 188.898C19.1267 188.506 18.839 188.197 18.4683 187.972C18.1018 187.746 17.6714 187.633 17.1771 187.633C16.6402 187.633 16.1714 187.765 15.7709 188.029C15.3746 188.289 15.0677 188.63 14.8504 189.052C14.6373 189.469 14.5308 189.923 14.5308 190.413V191.532C14.5308 192.188 14.6459 192.746 14.876 193.207C15.1104 193.667 15.4363 194.018 15.854 194.261C16.2716 194.5 16.7595 194.619 17.3177 194.619C17.68 194.619 18.0102 194.568 18.3085 194.466C18.6068 194.359 18.8646 194.202 19.0819 193.993C19.2993 193.784 19.4655 193.526 19.5805 193.219L21.3895 193.545C21.2446 194.078 20.9846 194.545 20.6096 194.945C20.2389 195.342 19.7723 195.651 19.2098 195.872C18.6515 196.089 18.0145 196.198 17.2986 196.198ZM30.9887 188.579L29.2565 188.886C29.184 188.664 29.069 188.453 28.9113 188.253C28.7579 188.053 28.5491 187.888 28.2849 187.761C28.0207 187.633 27.6904 187.569 27.2941 187.569C26.7529 187.569 26.3012 187.69 25.939 187.933C25.5768 188.172 25.3957 188.481 25.3957 188.86C25.3957 189.188 25.5171 189.452 25.76 189.653C26.0029 189.853 26.395 190.017 26.9362 190.145L28.4958 190.503C29.3992 190.712 30.0725 191.033 30.5157 191.468C30.9589 191.903 31.1805 192.467 31.1805 193.162C31.1805 193.75 31.01 194.274 30.6691 194.734C30.3325 195.19 29.8616 195.548 29.2565 195.808C28.6556 196.068 27.9589 196.198 27.1663 196.198C26.0669 196.198 25.1698 195.964 24.4752 195.495C23.7806 195.022 23.3545 194.351 23.1968 193.482L25.0441 193.2C25.1592 193.682 25.3957 194.046 25.7536 194.293C26.1116 194.536 26.5782 194.658 27.1535 194.658C27.7799 194.658 28.2806 194.528 28.6556 194.268C29.0306 194.004 29.2181 193.682 29.2181 193.303C29.2181 192.996 29.1031 192.738 28.873 192.529C28.6471 192.32 28.2998 192.163 27.8311 192.056L26.1691 191.692C25.2529 191.483 24.5754 191.151 24.1365 190.695C23.7018 190.239 23.4845 189.661 23.4845 188.962C23.4845 188.383 23.6464 187.876 23.9703 187.441C24.2941 187.006 24.7416 186.668 25.3126 186.425C25.8836 186.178 26.5377 186.054 27.2749 186.054C28.336 186.054 29.1713 186.284 29.7806 186.744C30.39 187.2 30.7927 187.812 30.9887 188.579ZM37.865 186.182V187.716H32.502V186.182H37.865ZM33.9403 183.83H35.8515V193.117C35.8515 193.488 35.9069 193.767 36.0177 193.955C36.1285 194.138 36.2712 194.263 36.4459 194.332C36.6249 194.396 36.8188 194.428 37.0276 194.428C37.181 194.428 37.3153 194.417 37.4303 194.396C37.5454 194.374 37.6349 194.357 37.6988 194.344L38.0439 195.923C37.9332 195.966 37.7755 196.009 37.5709 196.051C37.3664 196.098 37.1107 196.124 36.8039 196.128C36.301 196.136 35.8323 196.047 35.3976 195.859C34.963 195.672 34.6114 195.382 34.343 194.99C34.0745 194.598 33.9403 194.106 33.9403 193.513V183.83ZM44.2506 184.609V182.909H54.382V184.609H50.2975V196H48.3287V184.609H44.2506ZM55.4479 196V186.182H57.2952V187.741H57.3975C57.5764 187.213 57.8918 186.798 58.3435 186.495C58.7994 186.188 59.3151 186.035 59.8904 186.035C60.0097 186.035 60.1503 186.039 60.3122 186.048C60.4784 186.056 60.6084 186.067 60.7021 186.08V187.908C60.6254 187.886 60.4891 187.863 60.2931 187.837C60.097 187.808 59.901 187.793 59.705 187.793C59.2533 187.793 58.8506 187.888 58.4969 188.08C58.1475 188.268 57.8705 188.53 57.6659 188.866C57.4614 189.199 57.3591 189.578 57.3591 190.004V196H55.4479ZM65.1254 196.217C64.5033 196.217 63.9408 196.102 63.4379 195.872C62.9351 195.638 62.5367 195.299 62.2426 194.856C61.9529 194.413 61.808 193.869 61.808 193.226C61.808 192.672 61.9145 192.216 62.1276 191.858C62.3406 191.5 62.6283 191.217 62.9905 191.008C63.3527 190.799 63.7575 190.641 64.205 190.535C64.6524 190.428 65.1084 190.347 65.5729 190.292C66.161 190.224 66.6382 190.168 67.0047 190.126C67.3712 190.079 67.6375 190.004 67.8037 189.902C67.9699 189.8 68.053 189.634 68.053 189.403V189.359C68.053 188.8 67.8953 188.368 67.58 188.061C67.2689 187.754 66.8044 187.601 66.1865 187.601C65.5431 187.601 65.036 187.744 64.6652 188.029C64.2987 188.31 64.0452 188.624 63.9046 188.969L62.1084 188.56C62.3215 187.963 62.6325 187.482 63.0416 187.115C63.455 186.744 63.9301 186.476 64.4671 186.31C65.004 186.139 65.5686 186.054 66.161 186.054C66.553 186.054 66.9685 186.101 67.4074 186.195C67.8506 186.284 68.2639 186.45 68.6475 186.693C69.0352 186.936 69.3527 187.283 69.5999 187.735C69.847 188.183 69.9706 188.764 69.9706 189.48V196H68.1041V194.658H68.0274C67.9039 194.905 67.7185 195.148 67.4713 195.386C67.2242 195.625 66.9067 195.823 66.5189 195.981C66.1311 196.138 65.6666 196.217 65.1254 196.217ZM65.5409 194.683C66.0693 194.683 66.521 194.579 66.896 194.37C67.2753 194.161 67.5629 193.888 67.759 193.552C67.9593 193.211 68.0594 192.847 68.0594 192.459V191.193C67.9912 191.261 67.8591 191.325 67.6631 191.385C67.4713 191.44 67.2519 191.489 67.0047 191.532C66.7575 191.57 66.5168 191.607 66.2824 191.641C66.048 191.67 65.852 191.696 65.6943 191.717C65.3236 191.764 64.9848 191.843 64.678 191.954C64.3754 192.065 64.1325 192.224 63.9493 192.433C63.7703 192.638 63.6808 192.911 63.6808 193.251C63.6808 193.724 63.8556 194.082 64.205 194.325C64.5544 194.564 64.9997 194.683 65.5409 194.683ZM76.1917 196.192C75.3991 196.192 74.6917 195.989 74.0695 195.585C73.4516 195.175 72.9658 194.594 72.6121 193.839C72.2627 193.081 72.088 192.171 72.088 191.11C72.088 190.049 72.2648 189.141 72.6185 188.387C72.9765 187.633 73.4665 187.055 74.0887 186.655C74.7108 186.254 75.4161 186.054 76.2045 186.054C76.8138 186.054 77.3039 186.156 77.6746 186.361C78.0496 186.561 78.3394 186.795 78.5439 187.064C78.7528 187.332 78.9147 187.569 79.0297 187.773H79.1448V182.909H81.056V196H79.1895V194.472H79.0297C78.9147 194.681 78.7485 194.92 78.5312 195.188C78.3181 195.457 78.0241 195.691 77.6491 195.891C77.2741 196.092 76.7883 196.192 76.1917 196.192ZM76.6135 194.562C77.1633 194.562 77.6278 194.417 78.007 194.127C78.3905 193.833 78.6803 193.426 78.8763 192.906C79.0766 192.386 79.1768 191.781 79.1768 191.091C79.1768 190.409 79.0787 189.812 78.8827 189.301C78.6867 188.79 78.3991 188.391 78.0198 188.106C77.6405 187.82 77.1718 187.678 76.6135 187.678C76.0383 187.678 75.5589 187.827 75.1753 188.125C74.7918 188.423 74.502 188.83 74.306 189.346C74.1143 189.862 74.0184 190.443 74.0184 191.091C74.0184 191.747 74.1164 192.337 74.3124 192.862C74.5084 193.386 74.7982 193.801 75.1817 194.108C75.5695 194.411 76.0468 194.562 76.6135 194.562ZM83.7838 196V186.182H85.695V196H83.7838ZM84.749 184.667C84.4166 184.667 84.1311 184.556 83.8925 184.335C83.6581 184.109 83.5409 183.84 83.5409 183.529C83.5409 183.214 83.6581 182.945 83.8925 182.724C84.1311 182.498 84.4166 182.385 84.749 182.385C85.0814 182.385 85.3648 182.498 85.5992 182.724C85.8378 182.945 85.9571 183.214 85.9571 183.529C85.9571 183.84 85.8378 184.109 85.5992 184.335C85.3648 184.556 85.0814 184.667 84.749 184.667ZM90.1775 190.17V196H88.2662V186.182H90.1008V187.78H90.2222C90.4481 187.26 90.8018 186.842 91.2833 186.527C91.7691 186.212 92.3806 186.054 93.1178 186.054C93.7868 186.054 94.3728 186.195 94.8756 186.476C95.3785 186.753 95.7684 187.166 96.0454 187.716C96.3224 188.266 96.4608 188.945 96.4608 189.755V196H94.5496V189.985C94.5496 189.273 94.3643 188.717 93.9935 188.317C93.6228 187.912 93.1135 187.71 92.4658 187.71C92.0226 187.71 91.6285 187.805 91.2833 187.997C90.9424 188.189 90.6718 188.47 90.4715 188.841C90.2755 189.207 90.1775 189.651 90.1775 190.17ZM103.141 199.886C102.361 199.886 101.69 199.784 101.127 199.58C100.569 199.375 100.113 199.104 99.7591 198.768C99.4055 198.431 99.1412 198.063 98.9665 197.662L100.609 196.984C100.724 197.172 100.878 197.37 101.07 197.579C101.266 197.792 101.53 197.973 101.862 198.122C102.199 198.271 102.631 198.346 103.16 198.346C103.884 198.346 104.483 198.169 104.956 197.815C105.429 197.466 105.665 196.908 105.665 196.141V194.21H105.544C105.429 194.419 105.263 194.651 105.045 194.907C104.832 195.163 104.538 195.384 104.163 195.572C103.788 195.759 103.3 195.853 102.699 195.853C101.924 195.853 101.225 195.672 100.603 195.31C99.985 194.943 99.4949 194.404 99.1327 193.692C98.7748 192.977 98.5958 192.097 98.5958 191.053C98.5958 190.009 98.7726 189.114 99.1263 188.368C99.4843 187.622 99.9743 187.051 100.597 186.655C101.219 186.254 101.924 186.054 102.712 186.054C103.322 186.054 103.814 186.156 104.189 186.361C104.564 186.561 104.856 186.795 105.065 187.064C105.278 187.332 105.442 187.569 105.557 187.773H105.697V186.182H107.57V196.217C107.57 197.061 107.374 197.754 106.982 198.295C106.59 198.836 106.06 199.237 105.391 199.496C104.726 199.756 103.976 199.886 103.141 199.886ZM103.121 194.268C103.671 194.268 104.136 194.14 104.515 193.884C104.898 193.624 105.188 193.254 105.384 192.772C105.584 192.286 105.685 191.705 105.685 191.027C105.685 190.366 105.587 189.785 105.391 189.282C105.195 188.779 104.907 188.387 104.528 188.106C104.148 187.82 103.68 187.678 103.121 187.678C102.546 187.678 102.067 187.827 101.683 188.125C101.3 188.419 101.01 188.82 100.814 189.327C100.622 189.834 100.526 190.401 100.526 191.027C100.526 191.67 100.624 192.235 100.82 192.721C101.016 193.207 101.306 193.586 101.69 193.859C102.077 194.131 102.555 194.268 103.121 194.268ZM115.051 182.909H117.448L121.615 193.085H121.769L125.936 182.909H128.333V196H126.454V186.527H126.332L122.472 195.981H120.912L117.051 186.521H116.93V196H115.051V182.909ZM135.187 196.198C134.267 196.198 133.463 195.987 132.777 195.565C132.091 195.143 131.559 194.553 131.179 193.795C130.8 193.036 130.61 192.15 130.61 191.136C130.61 190.117 130.8 189.227 131.179 188.464C131.559 187.701 132.091 187.109 132.777 186.687C133.463 186.265 134.267 186.054 135.187 186.054C136.108 186.054 136.911 186.265 137.597 186.687C138.283 187.109 138.816 187.701 139.195 188.464C139.574 189.227 139.764 190.117 139.764 191.136C139.764 192.15 139.574 193.036 139.195 193.795C138.816 194.553 138.283 195.143 137.597 195.565C136.911 195.987 136.108 196.198 135.187 196.198ZM135.193 194.594C135.79 194.594 136.284 194.436 136.676 194.121C137.068 193.805 137.358 193.386 137.546 192.862C137.737 192.337 137.833 191.76 137.833 191.129C137.833 190.503 137.737 189.928 137.546 189.403C137.358 188.875 137.068 188.451 136.676 188.131C136.284 187.812 135.79 187.652 135.193 187.652C134.593 187.652 134.094 187.812 133.698 188.131C133.306 188.451 133.014 188.875 132.822 189.403C132.634 189.928 132.541 190.503 132.541 191.129C132.541 191.76 132.634 192.337 132.822 192.862C133.014 193.386 133.306 193.805 133.698 194.121C134.094 194.436 134.593 194.594 135.193 194.594ZM142.051 196V182.909H143.962V187.773H144.077C144.188 187.569 144.347 187.332 144.556 187.064C144.765 186.795 145.055 186.561 145.426 186.361C145.796 186.156 146.286 186.054 146.896 186.054C147.688 186.054 148.396 186.254 149.018 186.655C149.64 187.055 150.128 187.633 150.482 188.387C150.84 189.141 151.019 190.049 151.019 191.11C151.019 192.171 150.842 193.081 150.488 193.839C150.134 194.594 149.649 195.175 149.031 195.585C148.413 195.989 147.707 196.192 146.915 196.192C146.318 196.192 145.83 196.092 145.451 195.891C145.076 195.691 144.782 195.457 144.569 195.188C144.356 194.92 144.192 194.681 144.077 194.472H143.917V196H142.051ZM143.923 191.091C143.923 191.781 144.024 192.386 144.224 192.906C144.424 193.426 144.714 193.833 145.093 194.127C145.472 194.417 145.937 194.562 146.487 194.562C147.058 194.562 147.535 194.411 147.918 194.108C148.302 193.801 148.592 193.386 148.788 192.862C148.988 192.337 149.088 191.747 149.088 191.091C149.088 190.443 148.99 189.862 148.794 189.346C148.602 188.83 148.313 188.423 147.925 188.125C147.541 187.827 147.062 187.678 146.487 187.678C145.933 187.678 145.464 187.82 145.08 188.106C144.701 188.391 144.413 188.79 144.217 189.301C144.021 189.812 143.923 190.409 143.923 191.091ZM153.165 196V186.182H155.076V196H153.165ZM154.13 184.667C153.797 184.667 153.512 184.556 153.273 184.335C153.039 184.109 152.922 183.84 152.922 183.529C152.922 183.214 153.039 182.945 153.273 182.724C153.512 182.498 153.797 182.385 154.13 182.385C154.462 182.385 154.746 182.498 154.98 182.724C155.219 182.945 155.338 183.214 155.338 183.529C155.338 183.84 155.219 184.109 154.98 184.335C154.746 184.556 154.462 184.667 154.13 184.667ZM159.558 182.909V196H157.647V182.909H159.558ZM166.361 196.198C165.394 196.198 164.561 195.991 163.862 195.578C163.167 195.161 162.63 194.575 162.251 193.82C161.876 193.062 161.688 192.173 161.688 191.155C161.688 190.149 161.876 189.263 162.251 188.496C162.63 187.729 163.159 187.13 163.836 186.7C164.518 186.269 165.315 186.054 166.227 186.054C166.781 186.054 167.318 186.146 167.838 186.329C168.358 186.512 168.824 186.8 169.237 187.192C169.651 187.584 169.977 188.093 170.215 188.719C170.454 189.342 170.573 190.098 170.573 190.989V191.666H162.769V190.234H168.701C168.701 189.732 168.598 189.286 168.394 188.898C168.189 188.506 167.902 188.197 167.531 187.972C167.164 187.746 166.734 187.633 166.24 187.633C165.703 187.633 165.234 187.765 164.833 188.029C164.437 188.289 164.13 188.63 163.913 189.052C163.7 189.469 163.593 189.923 163.593 190.413V191.532C163.593 192.188 163.708 192.746 163.938 193.207C164.173 193.667 164.499 194.018 164.916 194.261C165.334 194.5 165.822 194.619 166.38 194.619C166.742 194.619 167.073 194.568 167.371 194.466C167.669 194.359 167.927 194.202 168.144 193.993C168.362 193.784 168.528 193.526 168.643 193.219L170.452 193.545C170.307 194.078 170.047 194.545 169.672 194.945C169.301 195.342 168.835 195.651 168.272 195.872C167.714 196.089 167.077 196.198 166.361 196.198ZM178.717 196H176.62L181.331 182.909H183.613L188.324 196H186.228L182.527 185.287H182.424L178.717 196ZM179.068 190.874H185.87V192.536H179.068V190.874ZM190.061 199.682V186.182H191.928V187.773H192.087C192.198 187.569 192.358 187.332 192.567 187.064C192.776 186.795 193.065 186.561 193.436 186.361C193.807 186.156 194.297 186.054 194.906 186.054C195.699 186.054 196.406 186.254 197.028 186.655C197.651 187.055 198.139 187.633 198.492 188.387C198.85 189.141 199.029 190.049 199.029 191.11C199.029 192.171 198.852 193.081 198.499 193.839C198.145 194.594 197.659 195.175 197.041 195.585C196.423 195.989 195.718 196.192 194.926 196.192C194.329 196.192 193.841 196.092 193.462 195.891C193.087 195.691 192.793 195.457 192.58 195.188C192.367 194.92 192.203 194.681 192.087 194.472H191.972V199.682H190.061ZM191.934 191.091C191.934 191.781 192.034 192.386 192.234 192.906C192.435 193.426 192.725 193.833 193.104 194.127C193.483 194.417 193.948 194.562 194.497 194.562C195.068 194.562 195.546 194.411 195.929 194.108C196.313 193.801 196.602 193.386 196.798 192.862C196.999 192.337 197.099 191.747 197.099 191.091C197.099 190.443 197.001 189.862 196.805 189.346C196.613 188.83 196.323 188.423 195.935 188.125C195.552 187.827 195.073 187.678 194.497 187.678C193.943 187.678 193.475 187.82 193.091 188.106C192.712 188.391 192.424 188.79 192.228 189.301C192.032 189.812 191.934 190.409 191.934 191.091ZM201.171 199.682V186.182H203.037V187.773H203.197C203.308 187.569 203.467 187.332 203.676 187.064C203.885 186.795 204.175 186.561 204.546 186.361C204.916 186.156 205.406 186.054 206.016 186.054C206.808 186.054 207.516 186.254 208.138 186.655C208.76 187.055 209.248 187.633 209.602 188.387C209.96 189.141 210.139 190.049 210.139 191.11C210.139 192.171 209.962 193.081 209.608 193.839C209.254 194.594 208.769 195.175 208.151 195.585C207.533 195.989 206.828 196.192 206.035 196.192C205.438 196.192 204.95 196.092 204.571 195.891C204.196 195.691 203.902 195.457 203.689 195.188C203.476 194.92 203.312 194.681 203.197 194.472H203.082V199.682H201.171ZM203.043 191.091C203.043 191.781 203.144 192.386 203.344 192.906C203.544 193.426 203.834 193.833 204.213 194.127C204.592 194.417 205.057 194.562 205.607 194.562C206.178 194.562 206.655 194.411 207.038 194.108C207.422 193.801 207.712 193.386 207.908 192.862C208.108 192.337 208.208 191.747 208.208 191.091C208.208 190.443 208.11 189.862 207.914 189.346C207.722 188.83 207.433 188.423 207.045 188.125C206.661 187.827 206.182 187.678 205.607 187.678C205.053 187.678 204.584 187.82 204.2 188.106C203.821 188.391 203.533 188.79 203.337 189.301C203.141 189.812 203.043 190.409 203.043 191.091ZM84.7914 218V217.124L89.0676 212.317C89.6259 211.687 90.0755 211.148 90.4164 210.7C90.7573 210.253 91.0044 209.839 91.1578 209.46C91.3155 209.081 91.3944 208.687 91.3944 208.278C91.3944 207.779 91.2772 207.344 91.0428 206.974C90.8127 206.599 90.4952 206.307 90.0904 206.098C89.6855 205.889 89.2296 205.785 88.7225 205.785C88.1855 205.785 87.7147 205.9 87.3098 206.13C86.9093 206.36 86.5982 206.675 86.3766 207.076C86.155 207.477 86.0442 207.937 86.0442 208.457H84.9C84.9 207.732 85.0662 207.091 85.3986 206.533C85.7353 205.97 86.1934 205.529 86.7729 205.21C87.3567 204.89 88.0172 204.73 88.7544 204.73C89.4831 204.73 90.1309 204.888 90.6976 205.203C91.2644 205.514 91.7097 205.938 92.0336 206.475C92.3574 207.012 92.5194 207.613 92.5194 208.278C92.5194 208.759 92.4341 209.226 92.2637 209.678C92.0975 210.129 91.8098 210.632 91.4007 211.186C90.9917 211.74 90.4249 212.418 89.7005 213.219L86.4533 216.843V216.926H92.9284V218H84.7914ZM99.843 218.179C98.9226 218.179 98.1364 217.915 97.4844 217.386C96.8366 216.854 96.3381 216.085 95.9886 215.079C95.6435 214.073 95.4709 212.865 95.4709 211.455C95.4709 210.048 95.6435 208.844 95.9886 207.843C96.3381 206.837 96.8388 206.068 97.4908 205.536C98.147 204.999 98.9311 204.73 99.843 204.73C100.755 204.73 101.537 204.999 102.189 205.536C102.845 206.068 103.346 206.837 103.691 207.843C104.04 208.844 104.215 210.048 104.215 211.455C104.215 212.865 104.04 214.073 103.691 215.079C103.346 216.085 102.847 216.854 102.195 217.386C101.548 217.915 100.763 218.179 99.843 218.179ZM99.843 217.105C100.853 217.105 101.641 216.613 102.208 215.629C102.775 214.64 103.058 213.249 103.058 211.455C103.058 210.261 102.928 209.243 102.668 208.399C102.413 207.551 102.044 206.903 101.562 206.456C101.085 206.009 100.512 205.785 99.843 205.785C98.8416 205.785 98.0554 206.283 97.4844 207.281C96.9134 208.273 96.6278 209.665 96.6278 211.455C96.6278 212.648 96.7557 213.666 97.0114 214.51C97.2713 215.354 97.6399 215.997 98.1172 216.44C98.5987 216.884 99.174 217.105 99.843 217.105ZM106.817 218V217.124L111.093 212.317C111.651 211.687 112.101 211.148 112.442 210.7C112.783 210.253 113.03 209.839 113.183 209.46C113.341 209.081 113.42 208.687 113.42 208.278C113.42 207.779 113.303 207.344 113.068 206.974C112.838 206.599 112.521 206.307 112.116 206.098C111.711 205.889 111.255 205.785 110.748 205.785C110.211 205.785 109.74 205.9 109.335 206.13C108.935 206.36 108.624 206.675 108.402 207.076C108.18 207.477 108.07 207.937 108.07 208.457H106.925C106.925 207.732 107.092 207.091 107.424 206.533C107.761 205.97 108.219 205.529 108.798 205.21C109.382 204.89 110.043 204.73 110.78 204.73C111.509 204.73 112.156 204.888 112.723 205.203C113.29 205.514 113.735 205.938 114.059 206.475C114.383 207.012 114.545 207.613 114.545 208.278C114.545 208.759 114.46 209.226 114.289 209.678C114.123 210.129 113.835 210.632 113.426 211.186C113.017 211.74 112.45 212.418 111.726 213.219L108.479 216.843V216.926H114.954V218H106.817ZM122.054 218.179C121.248 218.179 120.528 218.034 119.893 217.744C119.258 217.45 118.756 217.043 118.385 216.523C118.014 216.004 117.818 215.405 117.797 214.727H119.005C119.026 215.205 119.173 215.622 119.446 215.98C119.719 216.334 120.081 216.611 120.532 216.811C120.984 217.007 121.487 217.105 122.041 217.105C122.646 217.105 123.179 216.992 123.639 216.766C124.104 216.54 124.466 216.232 124.726 215.839C124.99 215.443 125.122 214.996 125.122 214.497C125.122 213.969 124.988 213.502 124.719 213.097C124.451 212.692 124.065 212.377 123.562 212.151C123.064 211.925 122.467 211.812 121.773 211.812H121.006V210.739H121.773C122.339 210.739 122.84 210.636 123.275 210.432C123.714 210.223 124.059 209.931 124.31 209.556C124.562 209.181 124.687 208.74 124.687 208.233C124.687 207.751 124.579 207.327 124.361 206.961C124.144 206.594 123.837 206.307 123.441 206.098C123.049 205.889 122.591 205.785 122.067 205.785C121.559 205.785 121.095 205.883 120.673 206.079C120.251 206.275 119.91 206.552 119.65 206.91C119.395 207.268 119.258 207.692 119.241 208.182H118.084C118.101 207.5 118.289 206.901 118.647 206.386C119.009 205.866 119.488 205.461 120.085 205.171C120.686 204.877 121.351 204.73 122.079 204.73C122.851 204.73 123.518 204.888 124.08 205.203C124.643 205.518 125.077 205.938 125.384 206.462C125.695 206.982 125.851 207.555 125.851 208.182C125.851 208.928 125.648 209.567 125.243 210.099C124.839 210.628 124.293 210.994 123.607 211.199V211.282C124.442 211.448 125.099 211.819 125.576 212.394C126.057 212.965 126.298 213.666 126.298 214.497C126.298 215.196 126.115 215.825 125.748 216.383C125.382 216.937 124.879 217.376 124.24 217.7C123.605 218.019 122.876 218.179 122.054 218.179ZM55.8314 240V226.909H60.0566C60.9855 226.909 61.7611 227.088 62.3833 227.446C63.0097 227.8 63.4806 228.281 63.7959 228.891C64.1155 229.5 64.2753 230.186 64.2753 230.949C64.2753 231.712 64.1176 232.4 63.8023 233.013C63.487 233.623 63.0182 234.107 62.396 234.464C61.7739 234.818 61.0004 234.995 60.0757 234.995H56.7519V233.921H60.0438C60.7298 233.921 61.2987 233.793 61.7504 233.538C62.2021 233.278 62.5388 232.924 62.7604 232.477C62.9862 232.029 63.0992 231.52 63.0992 230.949C63.0992 230.378 62.9862 229.869 62.7604 229.421C62.5388 228.974 62.2 228.622 61.7441 228.366C61.2923 228.111 60.7192 227.983 60.0246 227.983H57.0267V240H55.8314ZM69.5871 240.224C68.9948 240.224 68.4536 240.109 67.9635 239.879C67.4735 239.644 67.0835 239.308 66.7938 238.869C66.504 238.425 66.3591 237.888 66.3591 237.258C66.3591 236.772 66.4507 236.363 66.634 236.031C66.8172 235.698 67.0771 235.425 67.4138 235.212C67.7504 234.999 68.1489 234.831 68.6091 234.707C69.0693 234.584 69.5764 234.488 70.1304 234.42C70.6801 234.352 71.1446 234.292 71.5239 234.241C71.9074 234.19 72.1993 234.109 72.3996 233.998C72.5999 233.887 72.7 233.708 72.7 233.461V233.231C72.7 232.562 72.4997 232.036 72.0992 231.652C71.7029 231.264 71.1318 231.07 70.3861 231.07C69.6787 231.07 69.1013 231.226 68.6539 231.537C68.2107 231.848 67.8996 232.214 67.7206 232.636L66.6404 232.246C66.8619 231.71 67.1688 231.281 67.5608 230.962C67.9529 230.638 68.3918 230.406 68.8776 230.265C69.3634 230.12 69.8556 230.048 70.3541 230.048C70.7291 230.048 71.1191 230.097 71.5239 230.195C71.933 230.293 72.3122 230.463 72.6617 230.706C73.0111 230.945 73.2945 231.279 73.5118 231.71C73.7291 232.136 73.8378 232.677 73.8378 233.333V240H72.7V238.447H72.6297C72.4933 238.737 72.2909 239.018 72.0225 239.29C71.754 239.563 71.4173 239.787 71.0125 239.962C70.6077 240.136 70.1325 240.224 69.5871 240.224ZM69.7405 239.182C70.3456 239.182 70.8698 239.048 71.3129 238.779C71.7561 238.511 72.097 238.155 72.3357 237.712C72.5786 237.264 72.7 236.772 72.7 236.235V234.816C72.6148 234.897 72.472 234.969 72.2718 235.033C72.0757 235.097 71.8477 235.155 71.5878 235.206C71.3321 235.253 71.0764 235.293 70.8208 235.327C70.5651 235.362 70.335 235.391 70.1304 235.417C69.5764 235.485 69.1034 235.592 68.7114 235.737C68.3193 235.881 68.0189 236.082 67.8101 236.337C67.6013 236.589 67.4969 236.913 67.4969 237.309C67.4969 237.906 67.71 238.368 68.1361 238.696C68.5622 239.02 69.097 239.182 69.7405 239.182ZM78.0022 233.864V240H76.8644V230.182H77.9703V231.722H78.0725C78.3026 231.219 78.6606 230.817 79.1464 230.514C79.6365 230.207 80.2416 230.054 80.9617 230.054C81.6222 230.054 82.2018 230.192 82.7004 230.469C83.2032 230.742 83.5931 231.145 83.8701 231.678C84.1514 232.21 84.292 232.864 84.292 233.64V240H83.1542V233.71C83.1542 232.905 82.9284 232.268 82.4767 231.799C82.0292 231.33 81.4284 231.096 80.6741 231.096C80.1585 231.096 79.7004 231.207 79.2998 231.428C78.8992 231.65 78.5818 231.969 78.3474 232.387C78.1173 232.8 78.0022 233.293 78.0022 233.864ZM92.5873 240V226.909H100.162V227.983H93.7826V232.911H99.5674V233.985H93.7826V240H92.5873ZM102.91 240V230.182H104.055V240H102.91ZM103.492 228.494C103.258 228.494 103.057 228.415 102.891 228.258C102.725 228.096 102.642 227.902 102.642 227.676C102.642 227.45 102.725 227.259 102.891 227.101C103.057 226.939 103.258 226.858 103.492 226.858C103.726 226.858 103.927 226.939 104.093 227.101C104.259 227.259 104.342 227.45 104.342 227.676C104.342 227.902 104.259 228.096 104.093 228.258C103.927 228.415 103.726 228.494 103.492 228.494ZM108.201 233.864V240H107.064V230.182H108.169V231.722H108.272C108.502 231.219 108.86 230.817 109.346 230.514C109.836 230.207 110.441 230.054 111.161 230.054C111.821 230.054 112.401 230.192 112.9 230.469C113.402 230.742 113.792 231.145 114.069 231.678C114.351 232.21 114.491 232.864 114.491 233.64V240H113.353V233.71C113.353 232.905 113.128 232.268 112.676 231.799C112.228 231.33 111.628 231.096 110.873 231.096C110.358 231.096 109.9 231.207 109.499 231.428C109.098 231.65 108.781 231.969 108.547 232.387C108.316 232.8 108.201 233.293 108.201 233.864ZM120.23 240.224C119.637 240.224 119.096 240.109 118.606 239.879C118.116 239.644 117.726 239.308 117.436 238.869C117.147 238.425 117.002 237.888 117.002 237.258C117.002 236.772 117.093 236.363 117.277 236.031C117.46 235.698 117.72 235.425 118.056 235.212C118.393 234.999 118.791 234.831 119.252 234.707C119.712 234.584 120.219 234.488 120.773 234.42C121.323 234.352 121.787 234.292 122.166 234.241C122.55 234.19 122.842 234.109 123.042 233.998C123.242 233.887 123.343 233.708 123.343 233.461V233.231C123.343 232.562 123.142 232.036 122.742 231.652C122.345 231.264 121.774 231.07 121.029 231.07C120.321 231.07 119.744 231.226 119.296 231.537C118.853 231.848 118.542 232.214 118.363 232.636L117.283 232.246C117.505 231.71 117.811 231.281 118.203 230.962C118.595 230.638 119.034 230.406 119.52 230.265C120.006 230.12 120.498 230.048 120.997 230.048C121.372 230.048 121.762 230.097 122.166 230.195C122.576 230.293 122.955 230.463 123.304 230.706C123.654 230.945 123.937 231.279 124.154 231.71C124.372 232.136 124.48 232.677 124.48 233.333V240H123.343V238.447H123.272C123.136 238.737 122.934 239.018 122.665 239.29C122.397 239.563 122.06 239.787 121.655 239.962C121.25 240.136 120.775 240.224 120.23 240.224ZM120.383 239.182C120.988 239.182 121.512 239.048 121.956 238.779C122.399 238.511 122.74 238.155 122.978 237.712C123.221 237.264 123.343 236.772 123.343 236.235V234.816C123.257 234.897 123.115 234.969 122.914 235.033C122.718 235.097 122.49 235.155 122.23 235.206C121.975 235.253 121.719 235.293 121.463 235.327C121.208 235.362 120.978 235.391 120.773 235.417C120.219 235.485 119.746 235.592 119.354 235.737C118.962 235.881 118.661 236.082 118.453 236.337C118.244 236.589 118.139 236.913 118.139 237.309C118.139 237.906 118.353 238.368 118.779 238.696C119.205 239.02 119.74 239.182 120.383 239.182ZM128.645 233.864V240H127.507V230.182H128.613V231.722H128.715C128.945 231.219 129.303 230.817 129.789 230.514C130.279 230.207 130.884 230.054 131.604 230.054C132.265 230.054 132.844 230.192 133.343 230.469C133.846 230.742 134.236 231.145 134.513 231.678C134.794 232.21 134.935 232.864 134.935 233.64V240H133.797V233.71C133.797 232.905 133.571 232.268 133.119 231.799C132.672 231.33 132.071 231.096 131.317 231.096C130.801 231.096 130.343 231.207 129.942 231.428C129.542 231.65 129.224 231.969 128.99 232.387C128.76 232.8 128.645 233.293 128.645 233.864ZM141.766 240.205C140.888 240.205 140.123 239.985 139.471 239.546C138.824 239.107 138.321 238.506 137.963 237.744C137.605 236.981 137.426 236.112 137.426 235.136C137.426 234.151 137.607 233.276 137.969 232.509C138.336 231.741 138.843 231.141 139.491 230.706C140.138 230.267 140.89 230.048 141.747 230.048C142.403 230.048 142.998 230.175 143.53 230.431C144.063 230.683 144.502 231.038 144.847 231.499C145.196 231.955 145.416 232.487 145.505 233.097H144.355C144.236 232.543 143.948 232.07 143.492 231.678C143.04 231.281 142.465 231.083 141.766 231.083C141.14 231.083 140.586 231.254 140.104 231.594C139.623 231.931 139.245 232.402 138.973 233.007C138.704 233.608 138.57 234.305 138.57 235.097C138.57 235.894 138.702 236.599 138.966 237.213C139.231 237.822 139.601 238.3 140.079 238.645C140.56 238.99 141.123 239.163 141.766 239.163C142.201 239.163 142.597 239.082 142.955 238.92C143.317 238.754 143.62 238.519 143.863 238.217C144.11 237.914 144.276 237.554 144.361 237.136H145.512C145.427 237.729 145.216 238.257 144.879 238.722C144.547 239.182 144.114 239.544 143.581 239.808C143.053 240.072 142.448 240.205 141.766 240.205ZM151.92 240.205C151.004 240.205 150.211 239.991 149.542 239.565C148.873 239.135 148.355 238.54 147.989 237.782C147.627 237.019 147.445 236.141 147.445 235.148C147.445 234.16 147.627 233.282 147.989 232.515C148.355 231.744 148.86 231.141 149.504 230.706C150.151 230.267 150.899 230.048 151.747 230.048C152.28 230.048 152.793 230.146 153.288 230.342C153.782 230.533 154.225 230.83 154.617 231.23C155.014 231.626 155.327 232.127 155.557 232.732C155.787 233.333 155.902 234.045 155.902 234.867V235.43H148.232V234.426H154.739C154.739 233.795 154.611 233.229 154.355 232.726C154.104 232.219 153.752 231.818 153.301 231.524C152.853 231.23 152.335 231.083 151.747 231.083C151.125 231.083 150.578 231.249 150.104 231.582C149.631 231.914 149.261 232.353 148.992 232.898C148.728 233.444 148.594 234.04 148.59 234.688V235.289C148.59 236.069 148.724 236.751 148.992 237.335C149.265 237.914 149.651 238.364 150.149 238.683C150.648 239.003 151.238 239.163 151.92 239.163C152.384 239.163 152.791 239.09 153.141 238.945C153.494 238.8 153.791 238.607 154.029 238.364C154.272 238.116 154.455 237.846 154.579 237.552L155.659 237.903C155.51 238.317 155.265 238.698 154.924 239.048C154.587 239.397 154.166 239.678 153.658 239.891C153.156 240.1 152.576 240.205 151.92 240.205Z" fill="#13151D"/>
<path d="M68.7129 50.3536V38.9917H72.9715C75.152 38.9917 76.3953 40.5249 76.3953 42.3133C76.3953 44.102 75.135 45.6352 72.9715 45.6352H69.6838V50.3536H68.7129ZM75.3733 42.3133C75.3733 40.8824 74.3853 39.8776 72.8693 39.8776H69.6838V44.7493H72.8693C74.3853 44.7493 75.3733 43.7273 75.3733 42.3133Z" fill="#C30044"/>
<path d="M85.3211 50.3536L84.1971 47.5602H78.1836L77.0596 50.3536H75.9351L80.5855 38.9917H81.7953L86.4457 50.3536H85.3211ZM81.1989 40.0306L78.5072 46.6739H83.8736L81.1989 40.0306Z" fill="#C30044"/>
<path d="M96.2401 50.3536L89.0856 40.5929V50.3536H88.1147V38.9917H89.1026L96.2231 48.6161V38.9917H97.194V50.3536H96.2401Z" fill="#C30044"/>
<path d="M68.4229 64.2282V52.8662H76.4632V54.9952H70.8419V57.3801H76.344V59.5095H70.8419V64.2282H68.4229Z" fill="#C30044"/>
<path d="M80.5684 52.8662H78.1494V64.2282H80.5684V52.8662Z" fill="#C30044"/>
<path d="M90.6526 64.2282L85.2355 56.8182V64.2282H82.8167V52.8662H85.3035L90.5675 60.0037V52.8662H92.9864V64.2282H90.6526Z" fill="#C30044"/>
<path d="M103.088 64.2282L102.372 62.3036H97.5007L96.7851 64.2282H94.0427L98.4205 52.8662H101.453L105.83 64.2282H103.088ZM99.9365 55.2852L98.165 60.174H101.708L99.9365 55.2852Z" fill="#C30044"/>
<path d="M114.722 64.2282L109.305 56.8182V64.2282H106.886V52.8662H109.373L114.637 60.0037V52.8662H117.056V64.2282H114.722Z" fill="#C30044"/>
<path d="M118.759 58.5555C118.759 55.0466 121.399 52.6787 124.823 52.6787C127.31 52.6787 128.758 54.0242 129.559 55.4552L127.48 56.4772C127.004 55.5574 125.981 54.8249 124.823 54.8249C122.745 54.8249 121.246 56.4091 121.246 58.5555C121.246 60.7021 122.745 62.2863 124.823 62.2863C125.981 62.2863 127.004 61.5538 127.48 60.634L129.559 61.6388C128.758 63.0528 127.31 64.4323 124.823 64.4323C121.399 64.4323 118.759 62.0474 118.759 58.5555Z" fill="#C30044"/>
<path d="M131.006 64.2282V52.8662H139.047V54.9952H133.425V57.3801H138.927V59.5095H133.425V62.0988H139.047V64.2282H131.006Z" fill="#C30044"/>
<path d="M76.2758 78.1027L75.5604 76.1779H70.6887L69.9731 78.1027H67.2307L71.6085 66.7407H74.6407L79.0182 78.1027H76.2758ZM73.1245 69.1595L71.353 74.0485H74.896L73.1245 69.1595Z" fill="#C30044"/>
<path d="M88.0124 78.1027L86.0191 70.3007L84.0435 78.1027H81.4713L78.2178 66.7407H80.926L82.9193 74.9511L85.0828 66.7407H86.9735L89.1196 74.9511L91.1129 66.7407H93.8215L90.5845 78.1027H88.0124Z" fill="#C30044"/>
<path d="M102.066 78.1027L101.351 76.1779H96.4788L95.7634 78.1027H93.021L97.3985 66.7407H100.431L104.808 78.1027H102.066ZM98.9147 69.1595L97.1432 74.0485H100.686L98.9147 69.1595Z" fill="#C30044"/>
<path d="M112.286 78.1031L110.055 74.0661H108.283V78.1031H105.865V66.7407H111.179C113.547 66.7407 115.012 68.2909 115.012 70.4033C115.012 72.3961 113.734 73.4866 112.508 73.776L115.08 78.1031H112.286ZM112.525 70.3863C112.525 69.4496 111.792 68.8701 110.838 68.8701H108.283V71.9365H110.838C111.792 71.9365 112.525 71.3572 112.525 70.3863Z" fill="#C30044"/>
<path d="M116.817 78.1027V66.7407H121.298C124.858 66.7407 127.328 69.0064 127.328 72.4131C127.328 75.8545 124.858 78.1027 121.315 78.1027H116.817ZM124.858 72.4131C124.858 70.4198 123.631 68.8701 121.315 68.8701H119.236V75.9737H121.298C123.546 75.9737 124.858 74.3549 124.858 72.4131Z" fill="#C30044"/>
<path d="M77.111 91.9777L75.1175 84.1757L73.1418 91.9777H70.5697L67.3162 80.6157H70.0244L72.0173 88.8263L74.1808 80.6157H76.0719L78.218 88.8263L80.2113 80.6157H82.9195L79.6831 91.9777H77.111Z" fill="#C30044"/>
<path d="M86.4789 80.6157H84.0601V91.9779H86.4789V80.6157Z" fill="#C30044"/>
<path d="M96.5637 91.9777L91.1466 84.5677V91.9777H88.7278V80.6157H91.2147L96.4785 87.7532V80.6157H98.8975V91.9777H96.5637Z" fill="#C30044"/>
<path d="M108.981 91.9777L103.564 84.5677V91.9777H101.146V80.6157H103.632L108.896 87.7532V80.6157H111.315V91.9777H108.981Z" fill="#C30044"/>
<path d="M113.563 91.9777V80.6157H121.604V82.7451H115.982V85.13H121.484V87.259H115.982V89.8483H121.604V91.9777H113.563Z" fill="#C30044"/>
<path d="M129.916 91.9781L127.685 87.9408H125.913V91.9781H123.494V80.6157H128.809C131.177 80.6157 132.642 82.1659 132.642 84.2783C132.642 86.2711 131.364 87.3616 130.138 87.651L132.71 91.9781H129.916ZM130.155 84.2613C130.155 83.3244 129.422 82.7451 128.468 82.7451H125.913V85.8115H128.468C129.422 85.8115 130.155 85.2322 130.155 84.2613Z" fill="#C30044"/>
<path d="M115.416 10.1758L110.322 15.27L115.416 20.3637L120.51 15.2695L115.416 10.1758Z" fill="#C30044"/>
<path d="M144.071 15.2821L128.789 0L118.613 10.1759L123.707 15.2698L118.613 20.3638L128.801 30.552L144.071 15.2821ZM133.883 15.2821L128.801 20.3638L123.707 15.2698L128.789 10.1882L133.883 15.2821Z" fill="#C30044"/>
<g clip-path="url(#clip0_4036_389)">
<path d="M37.32 95.1801C38.5785 97.243 40.3404 99.1555 42.278 100.702C44.0774 102.144 46.0541 103.34 48.1578 104.26C45.1054 103.236 42.1777 101.86 39.4319 100.158C36.6956 98.4396 34.1568 96.4137 31.8632 94.1182C32.0221 93.7791 32.1416 93.4223 32.2191 93.0549C32.3563 92.4158 32.4237 91.7632 32.4202 91.1089C32.4202 90.9064 32.4157 90.6983 32.4068 90.4846C32.4068 90.2613 32.3934 90.0289 32.3785 89.7858C32.3472 89.3027 32.2921 88.7802 32.2057 88.2227C32.1193 87.6652 32.0449 87.0348 31.9079 86.3861C31.8721 86.2251 31.8453 86.0565 31.8155 85.8833L31.7187 85.3607C31.6502 85.0068 31.5698 84.6452 31.4834 84.2716C31.1572 82.634 30.7075 80.9189 30.3232 79.2206L30.283 79.0687L30.2518 78.9168L30.1862 78.5963C30.14 78.3867 30.0939 78.1755 30.0492 77.9659C30.0045 77.7562 29.9509 77.5527 29.9003 77.3461C29.8496 77.1395 29.8228 76.9314 29.7841 76.7263C29.7454 76.5212 29.7022 76.3222 29.662 76.1187C29.6218 75.9151 29.5741 75.7252 29.5473 75.5262C29.4837 75.1313 29.4172 74.75 29.3477 74.3824C29.3299 74.2912 29.312 74.2001 29.2956 74.1105C29.2792 74.0208 29.2703 73.9282 29.2569 73.8385C29.2321 73.6593 29.2067 73.4831 29.1809 73.3099C29.1333 72.9666 29.0722 72.6415 29.032 72.3301C28.9665 71.7042 28.8831 71.1543 28.831 70.6956C28.755 69.7689 28.682 69.2205 28.682 69.2205C28.4795 69.3205 28.2856 69.4379 28.1027 69.5714C27.5938 69.9381 27.1333 70.37 26.7325 70.8566C26.6014 71.0085 26.4615 71.1877 26.3349 71.3731C26.2083 71.5584 26.0817 71.7604 25.9566 71.9807C25.6771 72.4667 25.436 72.9747 25.2357 73.4998C25.0136 74.141 24.8379 74.798 24.71 75.4655C24.6475 75.8316 24.6058 76.2159 24.57 76.6245C24.5521 76.8281 24.5387 77.0377 24.5268 77.2534C24.5111 77.4723 24.5067 77.6918 24.5134 77.9112C24.5268 78.4626 24.5566 79.0262 24.5998 79.5974C24.643 80.1685 24.7488 80.7245 24.847 81.2957L24.9215 81.7225L25.0198 82.1433C25.0863 82.4228 25.1558 82.7024 25.2283 82.9819C25.3042 83.2598 25.3772 83.5439 25.4591 83.8158C25.541 84.0877 25.6408 84.3581 25.7317 84.627L26.0281 85.423C26.0742 85.5567 26.1264 85.6873 26.177 85.8149L26.3393 86.1977C26.4515 86.4529 26.5622 86.7061 26.6715 86.9573C26.7832 87.2049 26.8874 87.4571 27.0155 87.6895C27.2582 88.1619 27.5025 88.6207 27.7423 89.0566C27.8584 89.28 27.994 89.485 28.1191 89.6916L28.4959 90.2993C24.7849 85.546 22.1285 80.0285 20.7097 74.1272C21.1059 73.8674 21.8059 73.2446 22.5192 72.0111C22.7084 71.7073 22.902 71.3533 23.0911 70.966C23.1865 70.7715 23.2803 70.568 23.3741 70.3583C23.4679 70.1487 23.5528 69.9208 23.6586 69.6823C23.8626 69.2099 24.0622 68.6934 24.2543 68.1329C24.3422 67.8518 24.4598 67.5571 24.5626 67.2533C24.6653 66.9495 24.7696 66.6305 24.8694 66.3024C24.9692 65.9408 25.1002 65.5687 25.2134 65.1904C25.3266 64.8122 25.4338 64.4309 25.5336 64.0435C25.6334 63.6562 25.7659 63.2688 25.8717 62.8784C25.9268 62.6839 25.97 62.488 26.031 62.2935L26.2038 61.7117C26.2589 61.5188 26.3125 61.3259 26.3661 61.133L26.4436 60.8443L26.5344 60.5603C26.6516 60.1805 26.7628 59.8058 26.868 59.4362C26.9797 59.0685 27.1048 58.71 27.2121 58.3591C27.2657 58.1829 27.3178 58.0097 27.3714 57.8381C27.425 57.6664 27.4891 57.5024 27.5457 57.3383C27.6588 57.0082 27.7646 56.6907 27.8629 56.3858C27.9771 56.082 28.0833 55.7939 28.1816 55.5215C28.3663 54.9716 28.5703 54.4961 28.7193 54.0936L28.9233 53.5558C28.9873 53.4039 29.0439 53.2657 29.0886 53.1578C29.178 52.9391 29.2256 52.819 29.2256 52.819C29.02 52.8126 28.8142 52.8243 28.6105 52.854C28.3703 52.8842 28.132 52.9294 27.8972 52.9892C27.7586 53.0241 27.6097 53.0667 27.4504 53.1168C27.291 53.1669 27.1376 53.2307 26.9693 53.3021C26.5916 53.4642 26.2262 53.6546 25.8761 53.8718C25.4463 54.1354 25.0423 54.4406 24.6698 54.7832C24.4613 54.9685 24.2498 55.1711 24.0354 55.3908C23.8224 55.6142 23.6243 55.8602 23.4143 56.1261C23.2043 56.3919 22.9988 56.6775 22.7888 56.9874C22.5788 57.2973 22.3986 57.6345 22.205 57.993C20.4044 61.3077 19.7149 65.6218 19.7953 68.9076C19.1797 63.4803 19.5917 57.983 21.0091 52.7142C21.5169 52.6398 22.3494 52.3846 23.4083 51.698C24.5075 51.0265 25.8017 49.9131 27.4637 48.2785C28.4675 47.3048 29.4624 46.1807 30.4915 45.1082L30.8639 44.7011C30.989 44.5659 31.1215 44.4368 31.2466 44.3031C31.5013 44.0403 31.747 43.7775 31.9913 43.5177C32.2355 43.258 32.4887 43.018 32.7255 42.7719C32.8431 42.6503 32.9564 42.5258 33.074 42.4088L33.4255 42.067C33.6568 41.8402 33.8758 41.6204 34.0823 41.4077C34.2888 41.1951 34.4958 40.9996 34.7033 40.8214C34.8999 40.6376 35.0756 40.4538 35.2514 40.2943L35.7369 39.8537C36.0347 39.5848 36.2552 39.36 36.425 39.2203C36.5947 39.0805 36.6781 38.9954 36.6781 38.9954C36.511 38.9062 36.3366 38.832 36.1569 38.7737C35.9461 38.7017 35.7312 38.6429 35.5135 38.5974C35.223 38.5396 34.9289 38.5026 34.6333 38.4866C34.257 38.4655 33.8797 38.4726 33.5044 38.5078C33.3987 38.5169 33.2914 38.5276 33.1827 38.5428C33.074 38.558 32.9653 38.5777 32.8521 38.599C32.6287 38.643 32.3934 38.6977 32.1477 38.7645C31.9019 38.8314 31.6472 38.9165 31.3806 39.003C31.1141 39.0896 30.8549 39.2172 30.5749 39.3479C30.2949 39.4785 30.0105 39.6259 29.7141 39.7914C29.4177 39.957 29.1318 40.1545 28.8205 40.3657C27.6691 41.18 26.6133 42.1265 25.6736 43.1866C25.4338 43.4509 25.2149 43.7289 24.99 44.0023L24.6579 44.417C24.5492 44.5553 24.439 44.692 24.3407 44.8363C24.1396 45.1188 23.943 45.4029 23.7449 45.6855L23.4605 46.1062C23.3696 46.2475 23.2862 46.3918 23.2013 46.5331C24.0233 44.6965 24.9688 42.92 26.031 41.2163L26.8502 39.957L27.7184 38.7311C27.8674 38.5245 28.0163 38.3286 28.1652 38.1235L28.6239 37.5311C28.7803 37.3351 28.9218 37.13 29.0901 36.9417L29.5726 36.369C29.7767 36.2626 30.0194 36.1305 30.3083 35.9694C30.5973 35.8084 30.9339 35.6398 31.2958 35.4362C31.4775 35.3345 31.6666 35.2266 31.8617 35.1112C32.0568 34.9957 32.2727 34.8879 32.4887 34.7648C32.7046 34.6418 32.9266 34.5172 33.1559 34.382L33.5029 34.1769L33.8693 33.9734C34.115 33.8336 34.3682 33.6878 34.6229 33.5359L35.0116 33.3035L35.4182 33.0726C35.6922 32.9166 35.9692 32.753 36.2492 32.5819C36.3862 32.4938 36.5322 32.4102 36.6781 32.3282L37.1249 32.0715C38.2955 31.3575 39.5823 30.6147 40.9316 29.7716C41.3099 29.5478 41.6807 29.3169 42.0441 29.0789C42.4105 28.8495 42.7784 28.6232 43.1328 28.3938C43.3115 28.2814 43.4828 28.1553 43.663 28.0474C43.8432 27.9396 44.016 27.8257 44.1902 27.7133L44.7055 27.3745L44.9587 27.2028L45.2134 27.0418C45.553 26.8276 45.8821 26.6119 46.2038 26.3932L46.4436 26.2322L46.6848 26.0802L47.154 25.7764L47.6112 25.4726C47.7601 25.3724 47.909 25.2691 48.058 25.1794C48.3558 24.9951 48.6383 24.8133 48.9054 24.6341C49.4445 24.2649 49.9479 23.9642 50.3947 23.6695L51.0217 23.2578L51.5593 22.9206C52.2087 22.5059 52.5765 22.2461 52.5765 22.2461C52.5765 22.2461 52.1461 22.1701 51.3687 22.0866L50.7209 22.0243C50.4841 22.0091 50.2309 22.003 49.9568 21.9954C49.4088 21.9863 48.7788 21.9666 48.0997 22.0213C47.7571 22.0435 47.3997 22.0714 47.0274 22.1048C46.8397 22.1185 46.6535 22.1474 46.4629 22.1747L45.8806 22.2628L45.2849 22.3646L44.9766 22.4193C44.8753 22.439 44.7725 22.4648 44.6698 22.4876C44.2587 22.5848 43.8358 22.6897 43.4053 22.8051L43.0822 22.8932L42.759 22.998L42.1082 23.2183C41.8892 23.2943 41.6688 23.3702 41.4484 23.4553C41.228 23.5403 41.0106 23.636 40.7901 23.7287C40.3538 23.9232 39.9085 24.1191 39.4706 24.3363C39.0327 24.5536 38.6053 24.8118 38.1734 25.067C37.9872 25.1734 37.807 25.2918 37.6313 25.4103L37.1085 25.7658C36.7675 26.0073 36.4249 26.2337 36.1137 26.4919C35.5018 26.9654 34.9156 27.4725 34.3578 28.011C34.0897 28.2692 33.8316 28.5224 33.5833 28.7705C33.3351 29.0186 33.1053 29.2784 32.8938 29.5498C32.6749 29.8081 32.4589 30.0542 32.2638 30.3094C32.0687 30.5646 31.8855 30.8167 31.7083 31.0613C30.6748 32.4831 29.843 34.0464 29.2375 35.7051C28.0546 37.0789 26.9626 38.5313 25.9685 40.0527C26.2664 39.4132 26.6268 38.7706 26.9663 38.0779L28.0669 35.9907C28.4571 35.2919 28.825 34.5521 29.2256 33.8412C29.4222 33.4812 29.6099 33.1121 29.802 32.749C29.9941 32.3859 30.1937 32.0305 30.3798 31.6659C30.4737 31.4821 30.5645 31.3013 30.6509 31.1236C30.7373 30.9458 30.8311 30.7788 30.9145 30.6101C31.0843 30.2714 31.2392 29.9417 31.3821 29.6212L31.7887 28.7007C31.9138 28.406 32.028 28.1204 32.1313 27.8439C32.2355 27.5689 32.3234 27.2955 32.4128 27.0449C32.5021 26.7942 32.578 26.5512 32.6466 26.3187C32.7711 25.8981 32.874 25.4712 32.9549 25.0397C33.0764 24.4645 33.1398 23.8781 33.144 23.2897C33.1465 23.0861 33.1305 22.8827 33.0963 22.6821L32.7165 22.9752C32.4753 23.1697 32.1208 23.431 31.6949 23.8153C30.562 24.7857 29.4919 25.83 28.4914 26.9416C27.202 28.3607 26.0416 29.8962 25.0243 31.5292C24.7681 31.9545 24.5199 32.3804 24.2796 32.8067C24.0413 33.2321 23.8328 33.6741 23.6243 34.1025C23.525 34.3182 23.4258 34.5324 23.3265 34.7451C23.2282 34.9562 23.1477 35.1765 23.0629 35.3907C22.8961 35.8191 22.7426 36.2398 22.6056 36.65C22.3807 37.3609 22.2214 38.0293 22.0903 38.6354C22.0218 38.9392 21.9846 39.2431 21.9414 39.5195C21.8982 39.796 21.8759 40.0725 21.8535 40.3307C21.8312 40.589 21.8163 40.8335 21.8103 41.0675C21.8044 41.3014 21.8103 41.5232 21.8237 41.7435C21.8412 42.1288 21.881 42.5128 21.9429 42.8934C21.9712 43.0635 22.001 43.2246 22.0367 43.3749C22.0724 43.5253 22.1171 43.6788 22.1603 43.8064C22.2366 44.0464 22.3286 44.2808 22.4358 44.5082C22.5793 44.8199 22.7631 45.1107 22.9824 45.3725C21.7484 47.977 20.7831 50.7052 20.1021 53.5133C19.4153 56.3189 19.0047 59.1875 18.8764 62.0763C18.8109 60.3658 18.7557 58.312 18.7647 56.1215C18.7736 53.931 18.857 51.6053 18.8987 49.3267C18.8987 49.0973 18.8987 48.871 18.8987 48.6522C18.8987 48.4335 18.8987 48.2132 18.8987 48.0036C18.8987 47.5833 18.8943 47.1782 18.8853 46.7883C18.8764 46.3984 18.8605 46.0247 18.8377 45.6672C18.8218 45.3097 18.7984 44.9674 18.7677 44.6403C18.7394 44.3137 18.6962 43.9978 18.6634 43.7031C18.6307 43.4084 18.5919 43.1273 18.5487 42.86C18.4735 42.3776 18.3741 41.8995 18.2509 41.4275C18.1021 40.7926 17.8895 40.1751 17.6164 39.5848C17.5225 39.3795 17.4098 39.1837 17.2798 39L17.043 39.4876L16.766 40.0664C16.7139 40.1803 16.6558 40.3019 16.5962 40.431C16.5367 40.5601 16.4801 40.7014 16.419 40.8487C15.7509 42.3997 15.1891 43.996 14.7376 45.6262C14.4501 46.5924 14.2342 47.6436 14.0123 48.713C13.8351 49.7976 13.6534 50.902 13.5789 52.0185C13.4874 53.1131 13.4571 54.2122 13.4881 55.3103C13.5164 55.8466 13.5536 56.3737 13.5998 56.8841C13.6266 57.1408 13.6444 57.39 13.6847 57.6436C13.7249 57.8973 13.7621 58.1358 13.8053 58.3758C13.8857 58.8224 13.9706 59.2432 14.0584 59.6427C14.1463 60.0423 14.2699 60.419 14.3787 60.7745C14.4874 61.1299 14.6006 61.4626 14.7153 61.7755C14.8299 62.0885 14.967 62.3832 15.0921 62.6551C15.3168 63.1482 15.573 63.6257 15.859 64.0845C16.0986 64.4491 16.3608 64.7977 16.6439 65.1281C17.0347 65.5943 17.4921 65.9979 18.0007 66.3252C18.289 66.5054 18.6009 66.643 18.927 66.7338C19.1274 69.9421 19.6768 73.1178 20.5653 76.2022L20.7276 76.7825L20.9167 77.3522L21.295 78.4945L21.3904 78.7786L21.4991 79.0596L21.715 79.6201L22.1499 80.7397L22.6354 81.838L22.8797 82.3864C22.9199 82.4775 22.9586 82.5702 23.0018 82.6598L23.1373 82.9287L23.6749 84.0012C23.7658 84.1789 23.8522 84.3597 23.9475 84.5359L24.2454 85.0569C23.2028 83.471 21.928 81.4673 20.6814 79.2282C19.4349 76.9891 18.1675 74.5373 16.9283 72.1387C16.699 71.683 16.4533 71.2591 16.2343 70.8459C16.0154 70.4328 15.8039 70.0378 15.588 69.6626C15.4792 69.4742 15.372 69.2904 15.2633 69.1127C15.1546 68.9349 15.0474 68.7603 14.9506 68.5886C14.752 68.2483 14.5534 67.9258 14.3549 67.6209C13.7079 66.6051 12.987 65.6403 12.1983 64.7347C11.8796 64.3792 11.5698 64.083 11.3047 63.8384C11.0859 63.633 10.8567 63.4393 10.6182 63.2582C10.423 63.1051 10.2141 62.9713 9.99414 62.8586C9.99414 62.8586 9.99412 63.0759 10.006 63.4663C10.0179 63.8567 10.0478 64.4354 10.1058 65.1494C10.1356 65.5064 10.1699 65.8983 10.2056 66.3206C10.216 66.427 10.2265 66.5333 10.2369 66.6427L10.2816 66.9753C10.3143 67.2017 10.3471 67.4311 10.3813 67.6726C10.4513 68.1496 10.5303 68.6509 10.6107 69.1719C10.6911 69.693 10.8281 70.2353 10.9488 70.7867C11.0098 71.0632 11.0739 71.3427 11.1379 71.6268C11.202 71.9108 11.2869 72.1949 11.3673 72.482C11.5296 73.0562 11.6994 73.6395 11.8781 74.2259C12.0568 74.8123 12.2921 75.3941 12.5096 75.9789L12.6749 76.4164C12.73 76.5683 12.7866 76.7081 12.8521 76.8509L13.2334 77.7091C13.3645 77.9917 13.494 78.2742 13.6251 78.5583L13.8246 78.9761L14.0436 79.3862C14.3414 79.9285 14.6393 80.4602 14.9372 80.9752C15.235 81.4901 15.585 81.9732 15.9112 82.4426C16.075 82.6765 16.2393 82.9054 16.4041 83.1292C16.5739 83.351 16.7526 83.5621 16.9269 83.7687C17.2605 84.1652 17.5837 84.5283 17.8994 84.8731C18.0483 85.0448 18.2211 85.2028 18.3804 85.3562C18.5398 85.5096 18.6992 85.66 18.8555 85.7997C19.1668 86.0823 19.4661 86.3405 19.7566 86.579C20.047 86.8175 20.3523 87.0196 20.6263 87.211C21.1258 87.5504 21.6473 87.8549 22.1871 88.1224C22.6219 88.3272 23.0697 88.5017 23.5275 88.645C23.8852 88.756 24.2506 88.8393 24.6207 88.8941C24.909 88.9323 25.1998 88.9465 25.4904 88.9366C25.8485 88.9311 26.2038 88.8717 26.5448 88.7604C26.7936 89.1113 27.0319 89.4698 27.2895 89.8147L28.0759 90.8355L28.4705 91.3459L28.8875 91.8366L29.7201 92.8179C30.006 93.1369 30.3039 93.4453 30.5958 93.7597C30.8877 94.0742 31.1751 94.3932 31.4894 94.6848L32.4113 95.5811L32.6421 95.8044L32.8819 96.0171L33.3629 96.4424C35.9194 98.7411 38.7483 100.704 41.7835 102.285C39.8668 101.486 37.5315 100.409 35.0816 99.1038C32.6317 97.7989 30.0507 96.2829 27.5353 94.7745C26.597 94.1866 25.6781 93.6959 24.8619 93.2205C24.4479 92.9845 24.0423 92.7703 23.6452 92.5779C23.2579 92.3743 22.8931 92.1784 22.5312 92.0037C21.0761 91.3094 19.8787 90.8021 18.8555 90.4952C18.3432 90.3433 17.9098 90.2188 17.5152 90.1352C17.1901 90.0623 16.8615 90.007 16.5307 89.9696C16.2591 89.9343 15.9849 89.9251 15.7116 89.9423L16.0705 90.5271C16.3058 90.9023 16.6379 91.4538 17.113 92.1039C17.5881 92.7541 18.1258 93.5471 18.8138 94.3749L19.3366 95.0175C19.5168 95.2347 19.6955 95.4611 19.8966 95.6768C20.2927 96.1158 20.7067 96.5685 21.1371 97.0288C23.0131 98.9825 25.0857 100.729 27.3208 102.239C29.5027 103.716 31.877 104.873 34.3742 105.677C34.9193 105.841 35.4395 105.985 35.935 106.108C36.4398 106.218 36.9209 106.304 37.3781 106.377C37.606 106.414 37.8249 106.446 38.0438 106.474L38.3655 106.515C38.4713 106.526 38.5785 106.532 38.6812 106.54C39.0997 106.569 39.4944 106.582 39.8727 106.587C40.251 106.591 40.595 106.587 40.9257 106.566C41.2563 106.544 41.5765 106.499 41.8713 106.455C42.3949 106.378 42.9125 106.263 43.4202 106.111C44.1287 105.893 44.7995 105.564 45.4085 105.135C45.7336 104.906 46.0237 104.629 46.2693 104.313C48.5199 105.161 50.8365 105.815 53.1946 106.268L54.0793 106.43L54.5261 106.511C54.675 106.535 54.8239 106.55 54.9729 106.572C55.5686 106.648 56.1643 106.724 56.76 106.799L58.5546 106.938C58.8525 106.968 59.1503 106.967 59.4482 106.976L60.3418 107C60.7052 107.009 61.0001 106.862 61.0001 106.672C61.0001 106.482 60.7022 106.321 60.3522 106.312L59.5033 106.291L59.0789 106.278H58.8659L58.6544 106.262L56.9581 106.13L56.7466 106.113L56.5366 106.086L56.1151 106.031L55.2722 105.921C54.7078 105.862 54.1522 105.747 53.5938 105.648C53.5321 105.237 53.4211 104.836 53.2631 104.453C53.1619 104.19 53.0293 103.913 52.8669 103.588C52.6859 103.232 52.487 102.886 52.2712 102.551C52.0344 102.178 51.7559 101.791 51.4387 101.381C51.1215 100.971 50.7641 100.504 50.359 100.044C50.2577 99.9272 50.1505 99.8163 50.0462 99.6917L49.72 99.3165C49.4981 99.0643 49.2628 98.8076 49.0156 98.557C48.892 98.4248 48.7624 98.3033 48.6358 98.162C48.5092 98.0207 48.3796 97.881 48.2456 97.7397C47.979 97.4587 47.699 97.1731 47.4042 96.886C46.1606 95.5917 44.783 94.2732 43.4738 92.9364C42.1647 91.5996 40.942 90.2522 39.8906 89.0323L39.5063 88.5766L39.3172 88.3609C39.2586 88.285 39.2005 88.2105 39.143 88.1376C38.9121 87.8444 38.6887 87.568 38.4757 87.3097L38.3179 87.1183L38.1689 86.9239L37.8934 86.5563C37.7147 86.3203 37.5484 86.1056 37.3945 85.9122C36.8226 85.0979 36.4607 84.6316 36.4607 84.6316C36.3222 84.8404 36.2016 85.0609 36.1003 85.2909C35.8175 85.9259 35.6173 86.5959 35.5045 87.2839C35.4189 87.7783 35.378 88.2797 35.3824 88.7817C35.3824 89.0597 35.3929 89.3529 35.4167 89.6612C35.4286 89.8132 35.4405 89.9772 35.4629 90.1352C35.4852 90.2932 35.5135 90.4542 35.5433 90.6198C35.6058 90.9494 35.6818 91.2958 35.7771 91.6573C35.8262 91.8381 35.8769 92.0249 35.935 92.2103C35.9931 92.3956 36.066 92.5779 36.139 92.7678C36.2879 93.146 36.4532 93.541 36.6439 93.9511C36.8345 94.3613 37.0669 94.7562 37.32 95.1801Z" fill="#C5CBD5"/>
</g>
<g clip-path="url(#clip1_4036_389)">
<path d="M163.68 95.1801C162.421 97.243 160.66 99.1555 158.722 100.702C156.923 102.144 154.946 103.34 152.842 104.26C155.895 103.236 158.822 101.86 161.568 100.158C164.304 98.4396 166.843 96.4137 169.137 94.1182C168.978 93.7791 168.858 93.4223 168.781 93.0549C168.644 92.4158 168.576 91.7632 168.58 91.1089C168.58 90.9064 168.584 90.6983 168.593 90.4846C168.593 90.2613 168.607 90.0289 168.622 89.7858C168.653 89.3027 168.708 88.7802 168.794 88.2227C168.881 87.6652 168.955 87.0348 169.092 86.3861C169.128 86.2251 169.155 86.0565 169.184 85.8833L169.281 85.3607C169.35 85.0068 169.43 84.6452 169.517 84.2716C169.843 82.634 170.293 80.9189 170.677 79.2206L170.717 79.0687L170.748 78.9168L170.814 78.5963C170.86 78.3867 170.906 78.1755 170.951 77.9659C170.995 77.7562 171.049 77.5527 171.1 77.3461C171.15 77.1395 171.177 76.9314 171.216 76.7263C171.255 76.5212 171.298 76.3222 171.338 76.1187C171.378 75.9151 171.426 75.7252 171.453 75.5262C171.516 75.1313 171.583 74.75 171.652 74.3824C171.67 74.2912 171.688 74.2001 171.704 74.1105C171.721 74.0208 171.73 73.9282 171.743 73.8385C171.768 73.6593 171.793 73.4831 171.819 73.3099C171.867 72.9666 171.928 72.6415 171.968 72.3301C172.034 71.7042 172.117 71.1543 172.169 70.6956C172.245 69.7689 172.318 69.2205 172.318 69.2205C172.521 69.3205 172.714 69.4379 172.897 69.5714C173.406 69.9381 173.867 70.37 174.267 70.8566C174.399 71.0085 174.539 71.1877 174.665 71.3731C174.792 71.5584 174.918 71.7604 175.043 71.9807C175.323 72.4667 175.564 72.9747 175.764 73.4998C175.986 74.141 176.162 74.798 176.29 75.4655C176.353 75.8316 176.394 76.2159 176.43 76.6245C176.448 76.8281 176.461 77.0377 176.473 77.2534C176.489 77.4723 176.493 77.6918 176.487 77.9112C176.473 78.4626 176.443 79.0262 176.4 79.5974C176.357 80.1685 176.251 80.7245 176.153 81.2957L176.078 81.7225L175.98 82.1433C175.914 82.4228 175.844 82.7024 175.772 82.9819C175.696 83.2598 175.623 83.5439 175.541 83.8158C175.459 84.0877 175.359 84.3581 175.268 84.627L174.972 85.423C174.926 85.5567 174.874 85.6873 174.823 85.8149L174.661 86.1977C174.548 86.4529 174.438 86.7061 174.329 86.9573C174.217 87.2049 174.113 87.4571 173.985 87.6895C173.742 88.1619 173.498 88.6207 173.258 89.0566C173.142 89.28 173.006 89.485 172.881 89.6916L172.504 90.2993C176.215 85.546 178.871 80.0285 180.29 74.1272C179.894 73.8674 179.194 73.2446 178.481 72.0111C178.292 71.7073 178.098 71.3533 177.909 70.966C177.814 70.7715 177.72 70.568 177.626 70.3583C177.532 70.1487 177.447 69.9208 177.341 69.6823C177.137 69.2099 176.938 68.6934 176.746 68.1329C176.658 67.8518 176.54 67.5571 176.437 67.2533C176.335 66.9495 176.23 66.6305 176.131 66.3024C176.031 65.9408 175.9 65.5687 175.787 65.1904C175.673 64.8122 175.566 64.4309 175.466 64.0435C175.367 63.6562 175.234 63.2688 175.128 62.8784C175.073 62.6839 175.03 62.488 174.969 62.2935L174.796 61.7117C174.741 61.5188 174.687 61.3259 174.634 61.133L174.556 60.8443L174.466 60.5603C174.348 60.1805 174.237 59.8058 174.132 59.4362C174.02 59.0685 173.895 58.71 173.788 58.3591C173.734 58.1829 173.682 58.0097 173.629 57.8381C173.575 57.6664 173.511 57.5024 173.454 57.3383C173.341 57.0082 173.235 56.6907 173.137 56.3858C173.023 56.082 172.917 55.7939 172.818 55.5215C172.634 54.9716 172.43 54.4961 172.281 54.0936L172.077 53.5558C172.013 53.4039 171.956 53.2657 171.911 53.1578C171.822 52.9391 171.774 52.819 171.774 52.819C171.98 52.8126 172.186 52.8243 172.389 52.854C172.63 52.8842 172.868 52.9294 173.103 52.9892C173.241 53.0241 173.39 53.0667 173.55 53.1168C173.709 53.1669 173.862 53.2307 174.031 53.3021C174.408 53.4642 174.774 53.6546 175.124 53.8718C175.554 54.1354 175.958 54.4406 176.33 54.7832C176.539 54.9685 176.75 55.1711 176.965 55.3908C177.178 55.6142 177.376 55.8602 177.586 56.1261C177.796 56.3919 178.001 56.6775 178.211 56.9874C178.421 57.2973 178.601 57.6345 178.795 57.993C180.596 61.3077 181.285 65.6218 181.205 68.9076C181.82 63.4803 181.408 57.983 179.991 52.7142C179.483 52.6398 178.651 52.3846 177.592 51.698C176.493 51.0265 175.198 49.9131 173.536 48.2785C172.532 47.3048 171.538 46.1807 170.508 45.1082L170.136 44.7011C170.011 44.5659 169.878 44.4368 169.753 44.3031C169.499 44.0403 169.253 43.7775 169.009 43.5177C168.764 43.258 168.511 43.018 168.275 42.7719C168.157 42.6503 168.044 42.5258 167.926 42.4088L167.575 42.067C167.343 41.8402 167.124 41.6204 166.918 41.4077C166.711 41.1951 166.504 40.9996 166.297 40.8214C166.1 40.6376 165.924 40.4538 165.749 40.2943L165.263 39.8537C164.965 39.5848 164.745 39.36 164.575 39.2203C164.405 39.0805 164.322 38.9954 164.322 38.9954C164.489 38.9062 164.663 38.832 164.843 38.7737C165.054 38.7017 165.269 38.6429 165.487 38.5974C165.777 38.5396 166.071 38.5026 166.367 38.4866C166.743 38.4655 167.12 38.4726 167.496 38.5078C167.601 38.5169 167.709 38.5276 167.817 38.5428C167.926 38.558 168.035 38.5777 168.148 38.599C168.371 38.643 168.607 38.6977 168.852 38.7645C169.098 38.8314 169.353 38.9165 169.619 39.003C169.886 39.0896 170.145 39.2172 170.425 39.3479C170.705 39.4785 170.99 39.6259 171.286 39.7914C171.582 39.957 171.868 40.1545 172.179 40.3657C173.331 41.18 174.387 42.1265 175.326 43.1866C175.566 43.4509 175.785 43.7289 176.01 44.0023L176.342 44.417C176.451 44.5553 176.561 44.692 176.659 44.8363C176.86 45.1188 177.057 45.4029 177.255 45.6855L177.54 46.1062C177.63 46.2475 177.714 46.3918 177.799 46.5331C176.977 44.6965 176.031 42.92 174.969 41.2163L174.15 39.957L173.282 38.7311C173.133 38.5245 172.984 38.3286 172.835 38.1235L172.376 37.5311C172.22 37.3351 172.078 37.13 171.91 36.9417L171.427 36.369C171.223 36.2626 170.981 36.1305 170.692 35.9694C170.403 35.8084 170.066 35.6398 169.704 35.4362C169.523 35.3345 169.333 35.2266 169.138 35.1112C168.943 34.9957 168.727 34.8879 168.511 34.7648C168.295 34.6418 168.073 34.5172 167.844 34.382L167.497 34.1769L167.131 33.9734C166.885 33.8336 166.632 33.6878 166.377 33.5359L165.988 33.3035L165.582 33.0726C165.308 32.9166 165.031 32.753 164.751 32.5819C164.614 32.4938 164.468 32.4102 164.322 32.3282L163.875 32.0715C162.704 31.3575 161.418 30.6147 160.068 29.7716C159.69 29.5478 159.319 29.3169 158.956 29.0789C158.59 28.8495 158.222 28.6232 157.867 28.3938C157.688 28.2814 157.517 28.1553 157.337 28.0474C157.157 27.9396 156.984 27.8257 156.81 27.7133L156.294 27.3745L156.041 27.2028L155.787 27.0418C155.447 26.8276 155.118 26.6119 154.796 26.3932L154.556 26.2322L154.315 26.0802L153.846 25.7764L153.389 25.4726C153.24 25.3724 153.091 25.2691 152.942 25.1794C152.644 24.9951 152.362 24.8133 152.095 24.6341C151.555 24.2649 151.052 23.9642 150.605 23.6695L149.978 23.2578L149.441 22.9206C148.791 22.5059 148.423 22.2461 148.423 22.2461C148.423 22.2461 148.854 22.1701 149.631 22.0866L150.279 22.0243C150.516 22.0091 150.769 22.003 151.043 21.9954C151.591 21.9863 152.221 21.9666 152.9 22.0213C153.243 22.0435 153.6 22.0714 153.973 22.1048C154.16 22.1185 154.346 22.1474 154.537 22.1747L155.119 22.2628L155.715 22.3646L156.023 22.4193C156.125 22.439 156.227 22.4648 156.33 22.4876C156.741 22.5848 157.164 22.6897 157.595 22.8051L157.918 22.8932L158.241 22.998L158.892 23.2183C159.111 23.2943 159.331 23.3702 159.552 23.4553C159.772 23.5403 159.989 23.636 160.21 23.7287C160.646 23.9232 161.092 24.1191 161.529 24.3363C161.967 24.5536 162.395 24.8118 162.827 25.067C163.013 25.1734 163.193 25.2918 163.369 25.4103L163.891 25.7658C164.233 26.0073 164.575 26.2337 164.886 26.4919C165.498 26.9654 166.084 27.4725 166.642 28.011C166.91 28.2692 167.168 28.5224 167.417 28.7705C167.665 29.0186 167.895 29.2784 168.106 29.5498C168.325 29.8081 168.541 30.0542 168.736 30.3094C168.931 30.5646 169.114 30.8167 169.292 31.0613C170.325 32.4831 171.157 34.0464 171.762 35.7051C172.945 37.0789 174.037 38.5313 175.031 40.0527C174.734 39.4132 174.373 38.7706 174.034 38.0779L172.933 35.9907C172.543 35.2919 172.175 34.5521 171.774 33.8412C171.578 33.4812 171.39 33.1121 171.198 32.749C171.006 32.3859 170.806 32.0305 170.62 31.6659C170.526 31.4821 170.435 31.3013 170.349 31.1236C170.263 30.9458 170.169 30.7788 170.085 30.6101C169.916 30.2714 169.761 29.9417 169.618 29.6212L169.211 28.7007C169.086 28.406 168.972 28.1204 168.869 27.8439C168.764 27.5689 168.677 27.2955 168.587 27.0449C168.498 26.7942 168.422 26.5512 168.353 26.3187C168.229 25.8981 168.126 25.4712 168.045 25.0397C167.924 24.4645 167.86 23.8781 167.856 23.2897C167.854 23.0861 167.87 22.8827 167.904 22.6821L168.283 22.9752C168.525 23.1697 168.879 23.431 169.305 23.8153C170.438 24.7857 171.508 25.83 172.509 26.9416C173.798 28.3607 174.958 29.8962 175.976 31.5292C176.232 31.9545 176.48 32.3804 176.72 32.8067C176.959 33.2321 177.167 33.6741 177.376 34.1025C177.475 34.3182 177.574 34.5324 177.674 34.7451C177.772 34.9562 177.852 35.1765 177.937 35.3907C178.104 35.8191 178.257 36.2398 178.394 36.65C178.619 37.3609 178.779 38.0293 178.91 38.6354C178.978 38.9392 179.015 39.2431 179.059 39.5195C179.102 39.796 179.124 40.0725 179.146 40.3307C179.169 40.589 179.184 40.8335 179.19 41.0675C179.196 41.3014 179.19 41.5232 179.176 41.7435C179.159 42.1288 179.119 42.5128 179.057 42.8934C179.029 43.0635 178.999 43.2246 178.963 43.3749C178.928 43.5253 178.883 43.6788 178.84 43.8064C178.763 44.0464 178.671 44.2808 178.564 44.5082C178.421 44.8199 178.237 45.1107 178.018 45.3725C179.252 47.977 180.217 50.7052 180.898 53.5133C181.585 56.3189 181.995 59.1875 182.124 62.0763C182.189 60.3658 182.244 58.312 182.235 56.1215C182.226 53.931 182.143 51.6053 182.101 49.3267C182.101 49.0973 182.101 48.871 182.101 48.6522C182.101 48.4335 182.101 48.2132 182.101 48.0036C182.101 47.5833 182.106 47.1782 182.115 46.7883C182.124 46.3984 182.14 46.0247 182.162 45.6672C182.178 45.3097 182.202 44.9674 182.232 44.6403C182.261 44.3137 182.304 43.9978 182.337 43.7031C182.369 43.4084 182.408 43.1273 182.451 42.86C182.526 42.3776 182.626 41.8995 182.749 41.4275C182.898 40.7926 183.11 40.1751 183.384 39.5848C183.477 39.3795 183.59 39.1837 183.72 39L183.957 39.4876L184.234 40.0664C184.286 40.1803 184.344 40.3019 184.404 40.431C184.463 40.5601 184.52 40.7014 184.581 40.8487C185.249 42.3997 185.811 43.996 186.262 45.6262C186.55 46.5924 186.766 47.6436 186.988 48.713C187.165 49.7976 187.347 50.902 187.421 52.0185C187.513 53.1131 187.543 54.2122 187.512 55.3103C187.484 55.8466 187.446 56.3737 187.4 56.8841C187.373 57.1408 187.356 57.39 187.315 57.6436C187.275 57.8973 187.238 58.1358 187.195 58.3758C187.114 58.8224 187.029 59.2432 186.942 59.6427C186.854 60.0423 186.73 60.419 186.621 60.7745C186.513 61.1299 186.399 61.4626 186.285 61.7755C186.17 62.0885 186.033 62.3832 185.908 62.6551C185.683 63.1482 185.427 63.6257 185.141 64.0845C184.901 64.4491 184.639 64.7977 184.356 65.1281C183.965 65.5943 183.508 65.9979 182.999 66.3252C182.711 66.5054 182.399 66.643 182.073 66.7338C181.873 69.9421 181.323 73.1178 180.435 76.2022L180.272 76.7825L180.083 77.3522L179.705 78.4945L179.61 78.7786L179.501 79.0596L179.285 79.6201L178.85 80.7397L178.365 81.838L178.12 82.3864C178.08 82.4775 178.041 82.5702 177.998 82.6598L177.863 82.9287L177.325 84.0012C177.234 84.1789 177.148 84.3597 177.053 84.5359L176.755 85.0569C177.797 83.471 179.072 81.4673 180.319 79.2282C181.565 76.9891 182.833 74.5373 184.072 72.1387C184.301 71.683 184.547 71.2591 184.766 70.8459C184.985 70.4328 185.196 70.0378 185.412 69.6626C185.521 69.4742 185.628 69.2904 185.737 69.1127C185.845 68.9349 185.953 68.7603 186.049 68.5886C186.248 68.2483 186.447 67.9258 186.645 67.6209C187.292 66.6051 188.013 65.6403 188.802 64.7347C189.12 64.3792 189.43 64.083 189.695 63.8384C189.914 63.633 190.143 63.4393 190.382 63.2582C190.577 63.1051 190.786 62.9713 191.006 62.8586C191.006 62.8586 191.006 63.0759 190.994 63.4663C190.982 63.8567 190.952 64.4354 190.894 65.1494C190.864 65.5064 190.83 65.8983 190.794 66.3206C190.784 66.427 190.774 66.5333 190.763 66.6427L190.718 66.9753C190.686 67.2017 190.653 67.4311 190.619 67.6726C190.549 68.1496 190.47 68.6509 190.389 69.1719C190.309 69.693 190.172 70.2353 190.051 70.7867C189.99 71.0632 189.926 71.3427 189.862 71.6268C189.798 71.9108 189.713 72.1949 189.633 72.482C189.47 73.0562 189.301 73.6395 189.122 74.2259C188.943 74.8123 188.708 75.3941 188.49 75.9789L188.325 76.4164C188.27 76.5683 188.213 76.7081 188.148 76.8509L187.767 77.7091C187.636 77.9917 187.506 78.2742 187.375 78.5583L187.175 78.9761L186.956 79.3862C186.659 79.9285 186.361 80.4602 186.063 80.9752C185.765 81.4901 185.415 81.9732 185.089 82.4426C184.925 82.6765 184.761 82.9054 184.596 83.1292C184.426 83.351 184.247 83.5621 184.073 83.7687C183.74 84.1652 183.416 84.5283 183.101 84.8731C182.952 85.0448 182.779 85.2028 182.62 85.3562C182.46 85.5096 182.301 85.66 182.144 85.7997C181.833 86.0823 181.534 86.3405 181.243 86.579C180.953 86.8175 180.648 87.0196 180.374 87.211C179.874 87.5504 179.353 87.8549 178.813 88.1224C178.378 88.3272 177.93 88.5017 177.472 88.645C177.115 88.756 176.749 88.8393 176.379 88.8941C176.091 88.9323 175.8 88.9465 175.51 88.9366C175.152 88.9311 174.796 88.8717 174.455 88.7604C174.206 89.1113 173.968 89.4698 173.71 89.8147L172.924 90.8355L172.529 91.3459L172.112 91.8366L171.28 92.8179C170.994 93.1369 170.696 93.4453 170.404 93.7597C170.112 94.0742 169.825 94.3932 169.511 94.6848L168.589 95.5811L168.358 95.8044L168.118 96.0171L167.637 96.4424C165.081 98.7411 162.252 100.704 159.217 102.285C161.133 101.486 163.468 100.409 165.918 99.1038C168.368 97.7989 170.949 96.2829 173.465 94.7745C174.403 94.1866 175.322 93.6959 176.138 93.2205C176.552 92.9845 176.958 92.7703 177.355 92.5779C177.742 92.3743 178.107 92.1784 178.469 92.0037C179.924 91.3094 181.121 90.8021 182.144 90.4952C182.657 90.3433 183.09 90.2188 183.485 90.1352C183.81 90.0623 184.138 90.007 184.469 89.9696C184.741 89.9343 185.015 89.9251 185.288 89.9423L184.929 90.5271C184.694 90.9023 184.362 91.4538 183.887 92.1039C183.412 92.7541 182.874 93.5471 182.186 94.3749L181.663 95.0175C181.483 95.2347 181.304 95.4611 181.103 95.6768C180.707 96.1158 180.293 96.5685 179.863 97.0288C177.987 98.9825 175.914 100.729 173.679 102.239C171.497 103.716 169.123 104.873 166.626 105.677C166.081 105.841 165.56 105.985 165.065 106.108C164.56 106.218 164.079 106.304 163.622 106.377C163.394 106.414 163.175 106.446 162.956 106.474L162.634 106.515C162.529 106.526 162.422 106.532 162.319 106.54C161.9 106.569 161.506 106.582 161.127 106.587C160.749 106.591 160.405 106.587 160.074 106.566C159.744 106.544 159.424 106.499 159.129 106.455C158.605 106.378 158.087 106.263 157.58 106.111C156.871 105.893 156.2 105.564 155.592 105.135C155.266 104.906 154.976 104.629 154.731 104.313C152.48 105.161 150.164 105.815 147.805 106.268L146.921 106.43L146.474 106.511C146.325 106.535 146.176 106.55 146.027 106.572C145.431 106.648 144.836 106.724 144.24 106.799L142.445 106.938C142.148 106.968 141.85 106.967 141.552 106.976L140.658 107C140.295 107.009 140 106.862 140 106.672C140 106.482 140.298 106.321 140.648 106.312L141.497 106.291L141.921 106.278H142.134L142.346 106.262L144.042 106.13L144.253 106.113L144.463 106.086L144.885 106.031L145.728 105.921C146.292 105.862 146.848 105.747 147.406 105.648C147.468 105.237 147.579 104.836 147.737 104.453C147.838 104.19 147.971 103.913 148.133 103.588C148.314 103.232 148.513 102.886 148.729 102.551C148.966 102.178 149.244 101.791 149.561 101.381C149.879 100.971 150.236 100.504 150.641 100.044C150.742 99.9272 150.85 99.8163 150.954 99.6917L151.28 99.3165C151.502 99.0643 151.737 98.8076 151.984 98.557C152.108 98.4248 152.238 98.3033 152.364 98.162C152.491 98.0207 152.62 97.881 152.754 97.7397C153.021 97.4587 153.301 97.1731 153.596 96.886C154.839 95.5917 156.217 94.2732 157.526 92.9364C158.835 91.5996 160.058 90.2522 161.109 89.0323L161.494 88.5766L161.683 88.3609C161.741 88.285 161.799 88.2105 161.857 88.1376C162.088 87.8444 162.311 87.568 162.524 87.3097L162.682 87.1183L162.831 86.9239L163.107 86.5563C163.285 86.3203 163.452 86.1056 163.605 85.9122C164.177 85.0979 164.539 84.6316 164.539 84.6316C164.678 84.8404 164.798 85.0609 164.9 85.2909C165.182 85.9259 165.383 86.5959 165.495 87.2839C165.581 87.7783 165.622 88.2797 165.618 88.7817C165.618 89.0597 165.607 89.3529 165.583 89.6612C165.571 89.8132 165.559 89.9772 165.537 90.1352C165.515 90.2932 165.487 90.4542 165.457 90.6198C165.394 90.9494 165.318 91.2958 165.223 91.6573C165.174 91.8381 165.123 92.0249 165.065 92.2103C165.007 92.3956 164.934 92.5779 164.861 92.7678C164.712 93.146 164.547 93.541 164.356 93.9511C164.165 94.3613 163.933 94.7562 163.68 95.1801Z" fill="#C5CBD5"/>
</g>
<defs>
<clipPath id="clip0_4036_389">
<rect width="51" height="85" fill="white" transform="translate(10 22)"/>
</clipPath>
<clipPath id="clip1_4036_389">
<rect width="51" height="85" fill="white" transform="matrix(-1 0 0 1 191 22)"/>
</clipPath>
</defs>
</svg>
