<svg width="201" height="216" viewBox="0 0 201 216" fill="none" xmlns="http://www.w3.org/2000/svg">
<path d="M15.3222 154.909H17.7193L21.8869 165.085H22.0403L26.2079 154.909H28.6049V168H26.7257V158.527H26.6042L22.7434 167.981H21.1837L17.323 158.521H17.2015V168H15.3222V154.909ZM35.4588 168.198C34.5383 168.198 33.7351 167.987 33.049 167.565C32.3629 167.143 31.8302 166.553 31.451 165.795C31.0717 165.036 30.8821 164.15 30.8821 163.136C30.8821 162.117 31.0717 161.227 31.451 160.464C31.8302 159.701 32.3629 159.109 33.049 158.687C33.7351 158.265 34.5383 158.054 35.4588 158.054C36.3792 158.054 37.1825 158.265 37.8686 158.687C38.5547 159.109 39.0873 159.701 39.4666 160.464C39.8459 161.227 40.0355 162.117 40.0355 163.136C40.0355 164.15 39.8459 165.036 39.4666 165.795C39.0873 166.553 38.5547 167.143 37.8686 167.565C37.1825 167.987 36.3792 168.198 35.4588 168.198ZM35.4652 166.594C36.0618 166.594 36.5561 166.436 36.9481 166.121C37.3402 165.805 37.6299 165.386 37.8174 164.862C38.0092 164.337 38.1051 163.76 38.1051 163.129C38.1051 162.503 38.0092 161.928 37.8174 161.403C37.6299 160.875 37.3402 160.451 36.9481 160.131C36.5561 159.812 36.0618 159.652 35.4652 159.652C34.8643 159.652 34.3657 159.812 33.9694 160.131C33.5774 160.451 33.2855 160.875 33.0937 161.403C32.9062 161.928 32.8125 162.503 32.8125 163.129C32.8125 163.76 32.9062 164.337 33.0937 164.862C33.2855 165.386 33.5774 165.805 33.9694 166.121C34.3657 166.436 34.8643 166.594 35.4652 166.594ZM49.5261 160.579L47.7938 160.886C47.7214 160.664 47.6063 160.453 47.4487 160.253C47.2953 160.053 47.0864 159.888 46.8222 159.761C46.558 159.633 46.2278 159.569 45.8315 159.569C45.2903 159.569 44.8386 159.69 44.4764 159.933C44.1141 160.172 43.933 160.481 43.933 160.86C43.933 161.188 44.0545 161.452 44.2974 161.653C44.5403 161.853 44.9323 162.017 45.4735 162.145L47.0332 162.503C47.9366 162.712 48.6099 163.033 49.0531 163.468C49.4962 163.903 49.7178 164.467 49.7178 165.162C49.7178 165.75 49.5474 166.274 49.2065 166.734C48.8698 167.19 48.3989 167.548 47.7938 167.808C47.193 168.068 46.4962 168.198 45.7036 168.198C44.6042 168.198 43.7072 167.964 43.0126 167.495C42.318 167.022 41.8918 166.351 41.7342 165.482L43.5815 165.2C43.6965 165.682 43.933 166.046 44.291 166.293C44.6489 166.536 45.1156 166.658 45.6909 166.658C46.3173 166.658 46.818 166.528 47.193 166.268C47.568 166.004 47.7555 165.682 47.7555 165.303C47.7555 164.996 47.6404 164.738 47.4103 164.529C47.1845 164.32 46.8372 164.163 46.3684 164.056L44.7065 163.692C43.7903 163.483 43.1127 163.151 42.6738 162.695C42.2391 162.239 42.0218 161.661 42.0218 160.962C42.0218 160.383 42.1837 159.876 42.5076 159.441C42.8315 159.006 43.2789 158.668 43.8499 158.425C44.421 158.178 45.0751 158.054 45.8123 158.054C46.8734 158.054 47.7086 158.284 48.318 158.744C48.9274 159.2 49.3301 159.812 49.5261 160.579ZM56.4023 158.182V159.716H51.0394V158.182H56.4023ZM52.4776 155.83H54.3888V165.117C54.3888 165.488 54.4442 165.767 54.555 165.955C54.6658 166.138 54.8086 166.263 54.9833 166.332C55.1623 166.396 55.3562 166.428 55.565 166.428C55.7184 166.428 55.8526 166.417 55.9677 166.396C56.0827 166.374 56.1722 166.357 56.2361 166.344L56.5813 167.923C56.4705 167.966 56.3128 168.009 56.1083 168.051C55.9037 168.098 55.6481 168.124 55.3412 168.128C54.8384 168.136 54.3697 168.047 53.935 167.859C53.5003 167.672 53.1488 167.382 52.8803 166.99C52.6118 166.598 52.4776 166.106 52.4776 165.513V155.83ZM63.4336 168V154.909H68.0998C69.114 154.909 69.9556 155.084 70.6246 155.433C71.2979 155.783 71.8008 156.266 72.1331 156.884C72.4655 157.498 72.6317 158.207 72.6317 159.013C72.6317 159.814 72.4634 160.519 72.1268 161.129C71.7944 161.734 71.2915 162.205 70.6182 162.541C69.9492 162.878 69.1076 163.046 68.0934 163.046H64.5586V161.346H67.9144C68.5536 161.346 69.0735 161.254 69.4741 161.071C69.8789 160.888 70.175 160.621 70.3625 160.272C70.55 159.923 70.6438 159.503 70.6438 159.013C70.6438 158.518 70.5479 158.09 70.3562 157.728C70.1687 157.366 69.8725 157.089 69.4677 156.897C69.0671 156.701 68.5408 156.603 67.8888 156.603H65.4087V168H63.4336ZM69.8959 162.094L73.1303 168H70.8803L67.7099 162.094H69.8959ZM78.9902 168.198C78.0229 168.198 77.1898 167.991 76.4909 167.578C75.7963 167.161 75.2594 166.575 74.8801 165.82C74.5051 165.062 74.3176 164.173 74.3176 163.155C74.3176 162.149 74.5051 161.263 74.8801 160.496C75.2594 159.729 75.7878 159.13 76.4654 158.7C77.1472 158.269 77.944 158.054 78.856 158.054C79.41 158.054 79.9469 158.146 80.4668 158.329C80.9867 158.512 81.4533 158.8 81.8666 159.192C82.28 159.584 82.606 160.093 82.8446 160.719C83.0833 161.342 83.2026 162.098 83.2026 162.989V163.666H75.3979V162.234H81.3297C81.3297 161.732 81.2274 161.286 81.0229 160.898C80.8183 160.506 80.5307 160.197 80.16 159.972C79.7935 159.746 79.3631 159.633 78.8688 159.633C78.3318 159.633 77.8631 159.765 77.4625 160.029C77.0662 160.289 76.7594 160.63 76.5421 161.052C76.329 161.469 76.2225 161.923 76.2225 162.413V163.532C76.2225 164.188 76.3375 164.746 76.5676 165.207C76.802 165.667 77.128 166.018 77.5456 166.261C77.9632 166.5 78.4511 166.619 79.0094 166.619C79.3716 166.619 79.7019 166.568 80.0002 166.466C80.2985 166.359 80.5563 166.202 80.7736 165.993C80.9909 165.784 81.1571 165.526 81.2722 165.219L83.0811 165.545C82.9362 166.078 82.6763 166.545 82.3013 166.945C81.9306 167.342 81.4639 167.651 80.9014 167.872C80.3432 168.089 79.7061 168.198 78.9902 168.198ZM87.2344 154.909V168H85.3231V154.909H87.2344ZM89.8056 168V158.182H91.7168V168H89.8056ZM90.7708 156.667C90.4384 156.667 90.1529 156.556 89.9142 156.335C89.6798 156.109 89.5627 155.84 89.5627 155.529C89.5627 155.214 89.6798 154.945 89.9142 154.724C90.1529 154.498 90.4384 154.385 90.7708 154.385C91.1031 154.385 91.3865 154.498 91.6209 154.724C91.8595 154.945 91.9788 155.214 91.9788 155.529C91.9788 155.84 91.8595 156.109 91.6209 156.335C91.3865 156.556 91.1031 156.667 90.7708 156.667ZM97.1452 168.217C96.5231 168.217 95.9606 168.102 95.4577 167.872C94.9549 167.638 94.5564 167.299 94.2624 166.856C93.9726 166.413 93.8277 165.869 93.8277 165.226C93.8277 164.672 93.9343 164.216 94.1474 163.858C94.3604 163.5 94.6481 163.217 95.0103 163.008C95.3725 162.799 95.7773 162.641 96.2248 162.535C96.6722 162.428 97.1282 162.347 97.5927 162.292C98.1807 162.224 98.658 162.168 99.0245 162.126C99.391 162.079 99.6573 162.004 99.8235 161.902C99.9897 161.8 100.073 161.634 100.073 161.403V161.359C100.073 160.8 99.9151 160.368 99.5998 160.061C99.2887 159.754 98.8242 159.601 98.2063 159.601C97.5628 159.601 97.0557 159.744 96.685 160.029C96.3185 160.31 96.065 160.624 95.9243 160.969L94.1282 160.56C94.3412 159.963 94.6523 159.482 95.0614 159.115C95.4748 158.744 95.9499 158.476 96.4868 158.31C97.0238 158.139 97.5884 158.054 98.1807 158.054C98.5728 158.054 98.9883 158.101 99.4272 158.195C99.8704 158.284 100.284 158.45 100.667 158.693C101.055 158.936 101.372 159.283 101.62 159.735C101.867 160.183 101.99 160.764 101.99 161.48V168H100.124V166.658H100.047C99.9236 166.905 99.7383 167.148 99.4911 167.386C99.2439 167.625 98.9265 167.823 98.5387 167.981C98.1509 168.138 97.6864 168.217 97.1452 168.217ZM97.5607 166.683C98.0891 166.683 98.5408 166.579 98.9158 166.37C99.2951 166.161 99.5827 165.888 99.7787 165.552C99.979 165.211 100.079 164.847 100.079 164.459V163.193C100.011 163.261 99.8789 163.325 99.6829 163.385C99.4911 163.44 99.2716 163.489 99.0245 163.532C98.7773 163.57 98.5366 163.607 98.3022 163.641C98.0678 163.67 97.8718 163.696 97.7141 163.717C97.3434 163.764 97.0046 163.843 96.6978 163.954C96.3952 164.065 96.1523 164.224 95.9691 164.433C95.7901 164.638 95.7006 164.911 95.7006 165.251C95.7006 165.724 95.8753 166.082 96.2248 166.325C96.5742 166.564 97.0195 166.683 97.5607 166.683ZM104.689 168V154.909H106.601V159.773H106.716C106.827 159.569 106.986 159.332 107.195 159.064C107.404 158.795 107.694 158.561 108.064 158.361C108.435 158.156 108.925 158.054 109.535 158.054C110.327 158.054 111.035 158.254 111.657 158.655C112.279 159.055 112.767 159.633 113.121 160.387C113.478 161.141 113.657 162.049 113.657 163.11C113.657 164.171 113.481 165.081 113.127 165.839C112.773 166.594 112.287 167.175 111.67 167.585C111.052 167.989 110.346 168.192 109.554 168.192C108.957 168.192 108.469 168.092 108.09 167.891C107.715 167.691 107.421 167.457 107.208 167.188C106.995 166.92 106.831 166.681 106.716 166.472H106.556V168H104.689ZM106.562 163.091C106.562 163.781 106.662 164.386 106.863 164.906C107.063 165.426 107.353 165.833 107.732 166.127C108.111 166.417 108.576 166.562 109.126 166.562C109.697 166.562 110.174 166.411 110.557 166.108C110.941 165.801 111.231 165.386 111.427 164.862C111.627 164.337 111.727 163.747 111.727 163.091C111.727 162.443 111.629 161.862 111.433 161.346C111.241 160.83 110.952 160.423 110.564 160.125C110.18 159.827 109.701 159.678 109.126 159.678C108.572 159.678 108.103 159.82 107.719 160.106C107.34 160.391 107.052 160.79 106.856 161.301C106.66 161.812 106.562 162.409 106.562 163.091ZM117.715 154.909V168H115.804V154.909H117.715ZM124.518 168.198C123.55 168.198 122.717 167.991 122.018 167.578C121.324 167.161 120.787 166.575 120.407 165.82C120.032 165.062 119.845 164.173 119.845 163.155C119.845 162.149 120.032 161.263 120.407 160.496C120.787 159.729 121.315 159.13 121.993 158.7C122.675 158.269 123.471 158.054 124.383 158.054C124.937 158.054 125.474 158.146 125.994 158.329C126.514 158.512 126.981 158.8 127.394 159.192C127.807 159.584 128.133 160.093 128.372 160.719C128.611 161.342 128.73 162.098 128.73 162.989V163.666H120.925V162.234H126.857C126.857 161.732 126.755 161.286 126.55 160.898C126.346 160.506 126.058 160.197 125.687 159.972C125.321 159.746 124.89 159.633 124.396 159.633C123.859 159.633 123.39 159.765 122.99 160.029C122.594 160.289 122.287 160.63 122.069 161.052C121.856 161.469 121.75 161.923 121.75 162.413V163.532C121.75 164.188 121.865 164.746 122.095 165.207C122.329 165.667 122.655 166.018 123.073 166.261C123.491 166.5 123.978 166.619 124.537 166.619C124.899 166.619 125.229 166.568 125.527 166.466C125.826 166.359 126.084 166.202 126.301 165.993C126.518 165.784 126.684 165.526 126.8 165.219L128.608 165.545C128.464 166.078 128.204 166.545 127.829 166.945C127.458 167.342 126.991 167.651 126.429 167.872C125.871 168.089 125.233 168.198 124.518 168.198ZM135.768 168V154.909H140.562C141.491 154.909 142.26 155.062 142.869 155.369C143.478 155.672 143.934 156.083 144.237 156.603C144.54 157.119 144.691 157.7 144.691 158.348C144.691 158.893 144.591 159.354 144.39 159.729C144.19 160.099 143.922 160.398 143.585 160.624C143.253 160.845 142.886 161.007 142.486 161.109V161.237C142.92 161.259 143.344 161.399 143.758 161.659C144.175 161.915 144.52 162.279 144.793 162.752C145.066 163.225 145.202 163.8 145.202 164.478C145.202 165.147 145.045 165.748 144.729 166.281C144.418 166.809 143.937 167.229 143.285 167.54C142.633 167.847 141.8 168 140.785 168H135.768ZM137.743 166.306H140.594C141.54 166.306 142.217 166.123 142.626 165.756C143.035 165.39 143.24 164.932 143.24 164.382C143.24 163.969 143.135 163.589 142.927 163.244C142.718 162.899 142.42 162.624 142.032 162.42C141.648 162.215 141.192 162.113 140.664 162.113H137.743V166.306ZM137.743 160.572H140.389C140.832 160.572 141.231 160.487 141.584 160.317C141.942 160.146 142.226 159.908 142.434 159.601C142.648 159.29 142.754 158.923 142.754 158.501C142.754 157.96 142.564 157.506 142.185 157.14C141.806 156.773 141.224 156.59 140.44 156.59H137.743V160.572ZM147.391 168V158.182H149.239V159.741H149.341C149.52 159.213 149.835 158.798 150.287 158.495C150.743 158.188 151.259 158.035 151.834 158.035C151.953 158.035 152.094 158.039 152.256 158.048C152.422 158.056 152.552 158.067 152.646 158.08V159.908C152.569 159.886 152.433 159.863 152.237 159.837C152.041 159.808 151.845 159.793 151.649 159.793C151.197 159.793 150.794 159.888 150.44 160.08C150.091 160.268 149.814 160.53 149.61 160.866C149.405 161.199 149.303 161.578 149.303 162.004V168H147.391ZM158.084 168.198C157.163 168.198 156.36 167.987 155.674 167.565C154.988 167.143 154.455 166.553 154.076 165.795C153.697 165.036 153.507 164.15 153.507 163.136C153.507 162.117 153.697 161.227 154.076 160.464C154.455 159.701 154.988 159.109 155.674 158.687C156.36 158.265 157.163 158.054 158.084 158.054C159.004 158.054 159.808 158.265 160.494 158.687C161.18 159.109 161.712 159.701 162.092 160.464C162.471 161.227 162.66 162.117 162.66 163.136C162.66 164.15 162.471 165.036 162.092 165.795C161.712 166.553 161.18 167.143 160.494 167.565C159.808 167.987 159.004 168.198 158.084 168.198ZM158.09 166.594C158.687 166.594 159.181 166.436 159.573 166.121C159.965 165.805 160.255 165.386 160.442 164.862C160.634 164.337 160.73 163.76 160.73 163.129C160.73 162.503 160.634 161.928 160.442 161.403C160.255 160.875 159.965 160.451 159.573 160.131C159.181 159.812 158.687 159.652 158.09 159.652C157.489 159.652 156.991 159.812 156.594 160.131C156.202 160.451 155.91 160.875 155.719 161.403C155.531 161.928 155.437 162.503 155.437 163.129C155.437 163.76 155.531 164.337 155.719 164.862C155.91 165.386 156.202 165.805 156.594 166.121C156.991 166.436 157.489 166.594 158.09 166.594ZM166.552 164.67L166.539 162.337H166.871L170.783 158.182H173.072L168.61 162.912H168.309L166.552 164.67ZM164.794 168V154.909H166.705V168H164.794ZM170.994 168L167.478 163.334L168.795 161.998L173.34 168H170.994ZM178.641 168.198C177.673 168.198 176.84 167.991 176.141 167.578C175.447 167.161 174.91 166.575 174.531 165.82C174.156 165.062 173.968 164.173 173.968 163.155C173.968 162.149 174.156 161.263 174.531 160.496C174.91 159.729 175.438 159.13 176.116 158.7C176.798 158.269 177.594 158.054 178.506 158.054C179.06 158.054 179.597 158.146 180.117 158.329C180.637 158.512 181.104 158.8 181.517 159.192C181.93 159.584 182.256 160.093 182.495 160.719C182.734 161.342 182.853 162.098 182.853 162.989V163.666H175.048V162.234H180.98C180.98 161.732 180.878 161.286 180.673 160.898C180.469 160.506 180.181 160.197 179.81 159.972C179.444 159.746 179.013 159.633 178.519 159.633C177.982 159.633 177.513 159.765 177.113 160.029C176.717 160.289 176.41 160.63 176.192 161.052C175.979 161.469 175.873 161.923 175.873 162.413V163.532C175.873 164.188 175.988 164.746 176.218 165.207C176.452 165.667 176.778 166.018 177.196 166.261C177.614 166.5 178.102 166.619 178.66 166.619C179.022 166.619 179.352 166.568 179.651 166.466C179.949 166.359 180.207 166.202 180.424 165.993C180.641 165.784 180.808 165.526 180.923 165.219L182.732 165.545C182.587 166.078 182.327 166.545 181.952 166.945C181.581 167.342 181.114 167.651 180.552 167.872C179.994 168.089 179.357 168.198 178.641 168.198ZM184.974 168V158.182H186.821V159.741H186.923C187.102 159.213 187.417 158.798 187.869 158.495C188.325 158.188 188.841 158.035 189.416 158.035C189.535 158.035 189.676 158.039 189.838 158.048C190.004 158.056 190.134 158.067 190.228 158.08V159.908C190.151 159.886 190.015 159.863 189.819 159.837C189.623 159.808 189.427 159.793 189.231 159.793C188.779 159.793 188.376 159.888 188.023 160.08C187.673 160.268 187.396 160.53 187.192 160.866C186.987 161.199 186.885 161.578 186.885 162.004V168H184.974ZM81.6988 190V189.124L85.9751 184.317C86.5334 183.687 86.9829 183.148 87.3238 182.7C87.6648 182.253 87.9119 181.839 88.0653 181.46C88.223 181.081 88.3018 180.687 88.3018 180.278C88.3018 179.779 88.1846 179.344 87.9503 178.974C87.7201 178.599 87.4027 178.307 86.9978 178.098C86.593 177.889 86.1371 177.785 85.6299 177.785C85.093 177.785 84.6221 177.9 84.2173 178.13C83.8167 178.36 83.5057 178.675 83.2841 179.076C83.0625 179.477 82.9517 179.937 82.9517 180.457H81.8075C81.8075 179.732 81.9737 179.091 82.3061 178.533C82.6427 177.97 83.1008 177.529 83.6804 177.21C84.2642 176.89 84.9247 176.73 85.6619 176.73C86.3906 176.73 87.0383 176.888 87.6051 177.203C88.1719 177.514 88.6172 177.938 88.941 178.475C89.2649 179.012 89.4268 179.613 89.4268 180.278C89.4268 180.759 89.3416 181.226 89.1711 181.678C89.0049 182.129 88.7173 182.632 88.3082 183.186C87.8991 183.74 87.3324 184.418 86.6079 185.219L83.3608 188.843V188.926H89.8359V190H81.6988ZM96.7505 190.179C95.8301 190.179 95.0438 189.915 94.3918 189.386C93.7441 188.854 93.2455 188.085 92.8961 187.079C92.5509 186.073 92.3784 184.865 92.3784 183.455C92.3784 182.048 92.5509 180.844 92.8961 179.843C93.2455 178.837 93.7462 178.068 94.3982 177.536C95.0545 176.999 95.8386 176.73 96.7505 176.73C97.6624 176.73 98.4444 176.999 99.0964 177.536C99.7526 178.068 100.253 178.837 100.599 179.843C100.948 180.844 101.123 182.048 101.123 183.455C101.123 184.865 100.948 186.073 100.599 187.079C100.253 188.085 99.7548 188.854 99.1028 189.386C98.4551 189.915 97.671 190.179 96.7505 190.179ZM96.7505 189.105C97.7605 189.105 98.5488 188.613 99.1156 187.629C99.6823 186.64 99.9657 185.249 99.9657 183.455C99.9657 182.261 99.8357 181.243 99.5758 180.399C99.3201 179.551 98.9515 178.903 98.47 178.456C97.9927 178.009 97.4195 177.785 96.7505 177.785C95.7491 177.785 94.9629 178.283 94.3918 179.281C93.8208 180.273 93.5353 181.665 93.5353 183.455C93.5353 184.648 93.6632 185.666 93.9188 186.51C94.1788 187.354 94.5474 187.997 95.0247 188.44C95.5062 188.884 96.0815 189.105 96.7505 189.105ZM103.724 190V189.124L108.001 184.317C108.559 183.687 109.008 183.148 109.349 182.7C109.69 182.253 109.937 181.839 110.091 181.46C110.248 181.081 110.327 180.687 110.327 180.278C110.327 179.779 110.21 179.344 109.976 178.974C109.746 178.599 109.428 178.307 109.023 178.098C108.618 177.889 108.162 177.785 107.655 177.785C107.118 177.785 106.648 177.9 106.243 178.13C105.842 178.36 105.531 178.675 105.309 179.076C105.088 179.477 104.977 179.937 104.977 180.457H103.833C103.833 179.732 103.999 179.091 104.331 178.533C104.668 177.97 105.126 177.529 105.706 177.21C106.29 176.89 106.95 176.73 107.687 176.73C108.416 176.73 109.064 176.888 109.63 177.203C110.197 177.514 110.643 177.938 110.966 178.475C111.29 179.012 111.452 179.613 111.452 180.278C111.452 180.759 111.367 181.226 111.197 181.678C111.03 182.129 110.743 182.632 110.334 183.186C109.925 183.74 109.358 184.418 108.633 185.219L105.386 188.843V188.926H111.861V190H103.724ZM114.116 187.188V186.216L119.952 176.909H120.668V178.539H120.137L115.452 186.031V186.114H123.103V187.188H114.116ZM120.227 190V186.881V186.433V176.909H121.365V190H120.227ZM46.6648 212L43.0789 198.909H44.2934L47.2593 210.165H47.3616L50.3275 198.909H51.7082L54.6741 210.165H54.7763L57.7423 198.909H58.9631L55.3772 212H54.0988L51.0626 200.897H50.9795L47.9432 212H46.6648ZM63.7891 212.205C62.9411 212.205 62.1911 211.989 61.5391 211.559C60.8914 211.129 60.3843 210.534 60.0178 209.776C59.6513 209.013 59.4681 208.133 59.4681 207.136C59.4681 206.13 59.6513 205.246 60.0178 204.483C60.3843 203.716 60.8914 203.119 61.5391 202.693C62.1911 202.263 62.9411 202.048 63.7891 202.048C64.6371 202.048 65.385 202.263 66.0327 202.693C66.6805 203.124 67.1876 203.72 67.554 204.483C67.9248 205.246 68.1102 206.13 68.1102 207.136C68.1102 208.133 67.9269 209.013 67.5604 209.776C67.194 210.534 66.6847 211.129 66.0327 211.559C65.385 211.989 64.6371 212.205 63.7891 212.205ZM63.7891 211.163C64.4709 211.163 65.0484 210.979 65.5214 210.613C65.9944 210.246 66.3523 209.759 66.5952 209.149C66.8424 208.54 66.966 207.869 66.966 207.136C66.966 206.403 66.8424 205.729 66.5952 205.116C66.3523 204.502 65.9944 204.01 65.5214 203.639C65.0484 203.268 64.4709 203.083 63.7891 203.083C63.1116 203.083 62.5342 203.268 62.0569 203.639C61.5839 204.01 61.2238 204.502 60.9766 205.116C60.7337 205.729 60.6123 206.403 60.6123 207.136C60.6123 207.869 60.7337 208.54 60.9766 209.149C61.2238 209.759 61.5839 210.246 62.0569 210.613C62.5299 210.979 63.1073 211.163 63.7891 211.163ZM70.6078 212V202.182H71.7137V203.69H71.7968C71.9928 203.196 72.3337 202.798 72.8195 202.495C73.3095 202.188 73.8635 202.035 74.4814 202.035C74.5752 202.035 74.6796 202.037 74.7946 202.041C74.9097 202.045 75.0056 202.05 75.0823 202.054V203.211C75.0311 203.202 74.9417 203.19 74.8138 203.173C74.686 203.156 74.5475 203.147 74.3983 203.147C73.887 203.147 73.431 203.256 73.0304 203.473C72.6341 203.686 72.3209 203.982 72.0908 204.362C71.8607 204.741 71.7456 205.173 71.7456 205.659V212H70.6078ZM78.1616 198.909V212H77.0239V198.909H78.1616ZM84.7071 212.205C83.9017 212.205 83.1964 211.991 82.5913 211.565C81.9862 211.139 81.5132 210.545 81.1723 209.782C80.8356 209.019 80.6673 208.131 80.6673 207.116C80.6673 206.107 80.8356 205.222 81.1723 204.464C81.5132 203.701 81.9883 203.109 82.5977 202.687C83.2071 202.261 83.9166 202.048 84.7263 202.048C85.3229 202.048 85.8193 202.154 86.2156 202.367C86.6119 202.576 86.9294 202.836 87.168 203.147C87.4067 203.458 87.592 203.761 87.7241 204.055H87.8264V198.909H88.9706V212H87.8584V210.178H87.7241C87.592 210.477 87.4045 210.783 87.1616 211.099C86.9187 211.41 86.597 211.672 86.1964 211.885C85.8001 212.098 85.3037 212.205 84.7071 212.205ZM84.8413 211.163C85.4763 211.163 86.0175 210.99 86.4649 210.645C86.9124 210.295 87.2533 209.816 87.4876 209.207C87.7263 208.593 87.8456 207.89 87.8456 207.097C87.8456 206.313 87.7284 205.621 87.494 205.02C87.2597 204.415 86.9187 203.942 86.4713 203.601C86.0239 203.256 85.4805 203.083 84.8413 203.083C84.1851 203.083 83.6311 203.262 83.1794 203.62C82.732 203.974 82.391 204.453 82.1567 205.058C81.9266 205.663 81.8115 206.343 81.8115 207.097C81.8115 207.86 81.9287 208.548 82.1631 209.162C82.3974 209.776 82.7383 210.263 83.1858 210.626C83.6375 210.984 84.1893 211.163 84.8413 211.163ZM97.5104 212V198.909H105.085V199.983H98.7057V204.911H104.49V205.985H98.7057V212H97.5104ZM107.834 212V202.182H108.978V212H107.834ZM108.415 200.494C108.181 200.494 107.981 200.415 107.814 200.258C107.648 200.096 107.565 199.902 107.565 199.676C107.565 199.45 107.648 199.259 107.814 199.101C107.981 198.939 108.181 198.858 108.415 198.858C108.65 198.858 108.85 198.939 109.016 199.101C109.182 199.259 109.265 199.45 109.265 199.676C109.265 199.902 109.182 200.096 109.016 200.258C108.85 200.415 108.65 200.494 108.415 200.494ZM113.125 205.864V212H111.987V202.182H113.093V203.722H113.195C113.425 203.219 113.783 202.817 114.269 202.514C114.759 202.207 115.364 202.054 116.084 202.054C116.745 202.054 117.324 202.192 117.823 202.469C118.326 202.742 118.715 203.145 118.992 203.678C119.274 204.21 119.414 204.864 119.414 205.64V212H118.277V205.71C118.277 204.905 118.051 204.268 117.599 203.799C117.152 203.33 116.551 203.096 115.796 203.096C115.281 203.096 114.823 203.207 114.422 203.428C114.022 203.65 113.704 203.969 113.47 204.387C113.24 204.8 113.125 205.293 113.125 205.864ZM125.153 212.224C124.56 212.224 124.019 212.109 123.529 211.879C123.039 211.644 122.649 211.308 122.359 210.869C122.07 210.425 121.925 209.888 121.925 209.258C121.925 208.772 122.016 208.363 122.2 208.031C122.383 207.698 122.643 207.425 122.979 207.212C123.316 206.999 123.715 206.831 124.175 206.707C124.635 206.584 125.142 206.488 125.696 206.42C126.246 206.352 126.71 206.292 127.09 206.241C127.473 206.19 127.765 206.109 127.965 205.998C128.166 205.887 128.266 205.708 128.266 205.461V205.231C128.266 204.562 128.065 204.036 127.665 203.652C127.269 203.264 126.698 203.07 125.952 203.07C125.244 203.07 124.667 203.226 124.22 203.537C123.776 203.848 123.465 204.214 123.286 204.636L122.206 204.246C122.428 203.71 122.734 203.281 123.126 202.962C123.519 202.638 123.957 202.406 124.443 202.265C124.929 202.12 125.421 202.048 125.92 202.048C126.295 202.048 126.685 202.097 127.09 202.195C127.499 202.293 127.878 202.463 128.227 202.706C128.577 202.945 128.86 203.279 129.077 203.71C129.295 204.136 129.403 204.677 129.403 205.333V212H128.266V210.447H128.195C128.059 210.737 127.857 211.018 127.588 211.29C127.32 211.563 126.983 211.787 126.578 211.962C126.173 212.136 125.698 212.224 125.153 212.224ZM125.306 211.182C125.911 211.182 126.435 211.048 126.879 210.779C127.322 210.511 127.663 210.155 127.901 209.712C128.144 209.264 128.266 208.772 128.266 208.235V206.816C128.18 206.897 128.038 206.969 127.837 207.033C127.641 207.097 127.413 207.155 127.153 207.206C126.898 207.253 126.642 207.293 126.386 207.327C126.131 207.362 125.901 207.391 125.696 207.417C125.142 207.485 124.669 207.592 124.277 207.737C123.885 207.881 123.585 208.082 123.376 208.337C123.167 208.589 123.063 208.913 123.063 209.309C123.063 209.906 123.276 210.368 123.702 210.696C124.128 211.02 124.663 211.182 125.306 211.182ZM133.568 205.864V212H132.43V202.182H133.536V203.722H133.638C133.868 203.219 134.226 202.817 134.712 202.514C135.202 202.207 135.807 202.054 136.527 202.054C137.188 202.054 137.767 202.192 138.266 202.469C138.769 202.742 139.159 203.145 139.436 203.678C139.717 204.21 139.858 204.864 139.858 205.64V212H138.72V205.71C138.72 204.905 138.494 204.268 138.042 203.799C137.595 203.33 136.994 203.096 136.24 203.096C135.724 203.096 135.266 203.207 134.865 203.428C134.465 203.65 134.147 203.969 133.913 204.387C133.683 204.8 133.568 205.293 133.568 205.864ZM146.689 212.205C145.811 212.205 145.046 211.985 144.394 211.546C143.747 211.107 143.244 210.506 142.886 209.744C142.528 208.981 142.349 208.112 142.349 207.136C142.349 206.151 142.53 205.276 142.892 204.509C143.259 203.741 143.766 203.141 144.414 202.706C145.061 202.267 145.813 202.048 146.67 202.048C147.326 202.048 147.921 202.175 148.453 202.431C148.986 202.683 149.425 203.038 149.77 203.499C150.12 203.955 150.339 204.487 150.429 205.097H149.278C149.159 204.543 148.871 204.07 148.415 203.678C147.963 203.281 147.388 203.083 146.689 203.083C146.063 203.083 145.509 203.254 145.027 203.594C144.546 203.931 144.169 204.402 143.896 205.007C143.627 205.608 143.493 206.305 143.493 207.097C143.493 207.894 143.625 208.599 143.889 209.213C144.154 209.822 144.524 210.3 145.002 210.645C145.483 210.99 146.046 211.163 146.689 211.163C147.124 211.163 147.52 211.082 147.878 210.92C148.24 210.754 148.543 210.519 148.786 210.217C149.033 209.914 149.199 209.554 149.284 209.136H150.435C150.35 209.729 150.139 210.257 149.802 210.722C149.47 211.182 149.037 211.544 148.505 211.808C147.976 212.072 147.371 212.205 146.689 212.205ZM156.843 212.205C155.927 212.205 155.134 211.991 154.465 211.565C153.796 211.135 153.278 210.54 152.912 209.782C152.55 209.019 152.368 208.141 152.368 207.148C152.368 206.16 152.55 205.282 152.912 204.515C153.278 203.744 153.783 203.141 154.427 202.706C155.074 202.267 155.822 202.048 156.67 202.048C157.203 202.048 157.717 202.146 158.211 202.342C158.705 202.533 159.148 202.83 159.54 203.23C159.937 203.626 160.25 204.127 160.48 204.732C160.71 205.333 160.825 206.045 160.825 206.867V207.43H153.155V206.426H159.662C159.662 205.795 159.534 205.229 159.278 204.726C159.027 204.219 158.675 203.818 158.224 203.524C157.776 203.23 157.258 203.083 156.67 203.083C156.048 203.083 155.501 203.249 155.028 203.582C154.555 203.914 154.184 204.353 153.915 204.898C153.651 205.444 153.517 206.04 153.513 206.688V207.289C153.513 208.069 153.647 208.751 153.915 209.335C154.188 209.914 154.574 210.364 155.072 210.683C155.571 211.003 156.161 211.163 156.843 211.163C157.307 211.163 157.714 211.09 158.064 210.945C158.418 210.8 158.714 210.607 158.952 210.364C159.195 210.116 159.378 209.846 159.502 209.552L160.582 209.903C160.433 210.317 160.188 210.698 159.847 211.048C159.511 211.397 159.089 211.678 158.582 211.891C158.079 212.1 157.499 212.205 156.843 212.205Z" fill="#13151D"/>
<path d="M41.5244 18.8183C43.4964 18.8504 44.1325 20.589 45.0866 23.1325L51.6704 40.6474H52.3065L57.3951 26.4488L62.6428 40.6474H63.2788L69.7993 22.4243C70.4354 20.6534 70.8486 18.9148 72.5662 18.8183V18.1743H66.7139V18.8183C68.3358 19.0758 68.8133 19.3334 68.8133 20.0739C68.8133 20.4925 68.7178 20.9111 68.5271 21.4262L64.0425 34.5302H63.9789L59.1127 21.3941C58.8584 20.75 58.7627 20.2994 58.7627 20.0416C58.7627 19.3013 59.1127 18.9471 61.2435 18.8183V18.1743H52.2744V18.8183C54.5644 19.1079 54.9144 19.7197 55.9002 22.7141L56.5362 24.6135L53.0061 34.4658H52.9426L48.108 21.2974C47.9173 20.7501 47.79 20.3314 47.79 20.0416C47.79 19.3013 48.1718 19.0115 50.0485 18.8183V18.1743H41.5244V18.8183ZM82.5527 39.7137C76.6373 39.7137 74.8241 34.337 74.8241 28.9923C74.8241 23.6799 77.1142 18.8504 82.5527 18.8504C87.9596 18.8504 90.2497 23.6799 90.2497 28.9923C90.2497 34.337 88.4369 39.7137 82.5527 39.7137ZM82.5527 17.6592C75.8422 17.6592 70.9443 22.4243 70.9443 29.4753C70.9443 36.2365 75.9692 40.9049 82.5527 40.9049C89.1046 40.9049 94.1301 36.2365 94.1301 29.4753C94.1301 22.4243 89.2322 17.6592 82.5527 17.6592ZM116.711 39.746C115.28 39.3597 114.771 39.0054 113.912 37.9751L106.915 29.6684C110.35 28.9602 112.736 27.286 112.736 23.6155C112.736 18.432 107.901 18.1743 103.925 18.1743H93.4936V18.8183C96.0377 18.8183 96.9287 19.3334 96.9287 21.9736V36.5907C96.9287 39.2307 96.0377 39.746 93.4936 39.746V40.3898H103.798V39.746C101.254 39.746 100.363 39.2307 100.363 36.5907V30.4734H103.258L111.559 40.3898H116.711V39.746ZM100.363 20.9755C100.363 19.4622 100.745 19.3657 102.845 19.3657C105.993 19.3657 108.855 20.4281 108.855 24.0662C108.855 27.9942 105.579 29.1211 102.144 29.1211H100.363V20.9755ZM118.906 40.3898H137.194L139.134 34.6911L138.37 34.5623C137.035 37.6211 135.444 39.0375 132.041 39.0375H127.493C125.616 39.0375 125.553 37.9751 125.553 36.1721V21.9736C125.553 19.3334 126.444 18.8183 128.988 18.8183V18.1743H118.906V18.8183C121.26 18.9471 122.118 19.3657 122.118 21.9092V36.6551C122.118 39.1986 121.26 39.6172 118.906 39.746V40.3898ZM139.42 40.3898H150.424C155.068 40.3898 163.273 38.2649 163.273 29.3465C163.273 20.4925 156.817 18.1743 150.583 18.1743H139.42V18.8183C141.964 18.8183 142.855 19.3334 142.855 21.9736V36.5907C142.855 39.2307 141.964 39.746 139.42 39.746V40.3898ZM146.29 23.1969C146.29 21.3295 146.29 20.3637 146.576 19.8808C146.862 19.3657 147.657 19.3657 149.279 19.3657C155.163 19.3657 159.393 23.1004 159.393 29.1855C159.393 36.011 155.068 39.1986 148.612 39.1986C146.29 39.1986 146.29 38.5868 146.29 36.8482V23.1969Z" fill="#C30044"/>
<path d="M41.4878 62.2029H49.9631V61.6731C47.8705 61.6731 47.1379 61.2493 47.1379 59.0783V53.1201H51.2973C53.1807 53.1201 53.7299 53.9144 53.8081 55.821H54.3314V49.4923H53.8081C53.7299 51.2401 53.076 52.0078 51.2973 52.0078H47.1379V46.7649C47.1379 45.4408 47.1902 45.0436 48.2627 45.0436H53.3374C55.4302 45.0436 56.0318 46.2616 56.4242 48.1682H56.9475L56.6597 43.9313H41.4878V44.4609C43.5804 44.4609 44.3129 44.8846 44.3129 47.0561V59.0783C44.3129 61.2493 43.5804 61.6731 41.4878 61.6731V62.2029ZM57.9672 62.2029H66.4427V61.6731C64.3501 61.6731 63.6173 61.2493 63.6173 59.0783V47.0561C63.6173 44.8846 64.3501 44.4609 66.4427 44.4609V43.9313H57.9672V44.4609C60.06 44.4609 60.7925 44.8846 60.7925 47.0561V59.0783C60.7925 61.2493 60.06 61.6731 57.9672 61.6731V62.2029ZM68.1688 44.4609C69.6862 44.5404 70.8106 45.9174 70.9678 46.6853V57.9659C70.9678 60.6403 70.9152 61.5406 68.3781 61.6731V62.2029H74.7346V61.6731C72.1974 61.5406 72.1449 60.6403 72.1449 57.9659V47.5591L84.5437 62.2029H84.9887V48.1682C84.9887 45.4937 85.0408 44.5934 87.5784 44.4609V43.9313H81.2219V44.4609C83.7591 44.5934 83.8116 45.4937 83.8116 48.1682V56.9597L72.7985 43.9313H68.1688V44.4609ZM95.7918 47.4796L99.2447 55.0793H92.3913L95.7918 47.4796ZM86.3487 62.2029H92.3392V61.6731H92.1299C90.482 61.6731 90.2464 61.1167 90.2464 60.5609C90.2464 59.8194 91.5803 57.0658 91.8685 56.1916H99.7416C100.187 57.1717 101.547 59.634 101.547 60.5344C101.547 61.0374 101.207 61.6731 99.7158 61.6731H99.454V62.2029H107.171V61.6731C105.627 61.6731 104.921 60.6402 104.372 59.4488L97.0736 43.6666H96.4199L88.991 59.3693C88.232 60.9847 87.866 61.5938 86.3487 61.6731V62.2029ZM108.478 44.4609C109.996 44.5404 111.121 45.9174 111.277 46.6853V57.9659C111.277 60.6403 111.225 61.5406 108.688 61.6731V62.2029H115.044V61.6731C112.507 61.5406 112.455 60.6403 112.455 57.9659V47.5591L124.854 62.2029H125.298V48.1682C125.298 45.4937 125.351 44.5934 127.888 44.4609V43.9313H121.532V44.4609C124.069 44.5934 124.121 45.4937 124.121 48.1682V56.9597L113.109 43.9313H108.478V44.4609ZM143.714 43.693H143.191C142.981 45.7055 140.758 43.5078 137.174 43.5078C131.629 43.5078 127.339 47.5591 127.339 53.2526C127.339 59.502 132.021 62.6262 137.226 62.6262C139.058 62.6262 142.092 62.0436 144.629 58.4692L144.185 58.0452C142.537 60.1105 140.523 61.6465 137.462 61.6465C133.303 61.6465 130.53 58.3099 130.53 52.8289C130.53 48.6449 132.701 44.4875 137.436 44.4875C140.575 44.4875 142.929 46.5529 143.636 49.5982H144.158L143.714 43.693ZM145.571 62.2029H161.632L163.045 57.7274L162.548 57.5422C161.867 59.634 160.402 61.0907 158.048 61.0907H152.529C151.325 61.0907 151.221 60.5344 151.221 58.8663V53.1201H156.74C158.519 53.1201 159.121 53.8878 159.278 55.6356H159.801V49.4923H159.278C159.094 51.2663 158.545 52.0078 156.74 52.0078H151.221V46.8971C151.221 45.3613 151.221 45.0436 152.398 45.0436H157.368C159.539 45.0436 160.664 45.7055 160.952 47.9299H161.475L161.24 43.9313H145.571V44.4609C147.663 44.4609 148.396 44.8846 148.396 47.0561V59.0783C148.396 61.2493 147.663 61.6731 145.571 61.6731V62.2029Z" fill="#C30044"/>
<g clip-path="url(#clip0_4036_464)">
<path d="M27.32 73.1801C28.5785 75.243 30.3404 77.1555 32.278 78.7019C34.0774 80.1443 36.0541 81.3403 38.1578 82.2596C35.1054 81.2361 32.1777 79.86 29.4319 78.1581C26.6956 76.4396 24.1568 74.4137 21.8632 72.1182C22.0221 71.7791 22.1416 71.4223 22.2191 71.0549C22.3563 70.4158 22.4237 69.7632 22.4202 69.1089C22.4202 68.9064 22.4157 68.6983 22.4068 68.4846C22.4068 68.2613 22.3934 68.0289 22.3785 67.7858C22.3472 67.3027 22.2921 66.7802 22.2057 66.2227C22.1193 65.6652 22.0449 65.0348 21.9079 64.3861C21.8721 64.2251 21.8453 64.0565 21.8155 63.8833L21.7187 63.3607C21.6502 63.0068 21.5698 62.6452 21.4834 62.2716C21.1572 60.634 20.7075 58.9189 20.3232 57.2206L20.283 57.0687L20.2518 56.9168L20.1862 56.5963C20.14 56.3867 20.0939 56.1755 20.0492 55.9659C20.0045 55.7562 19.9509 55.5527 19.9003 55.3461C19.8496 55.1395 19.8228 54.9314 19.7841 54.7263C19.7454 54.5212 19.7022 54.3222 19.662 54.1187C19.6218 53.9151 19.5741 53.7252 19.5473 53.5262C19.4837 53.1313 19.4172 52.75 19.3477 52.3824C19.3299 52.2912 19.312 52.2001 19.2956 52.1105C19.2792 52.0208 19.2703 51.9282 19.2569 51.8385C19.2321 51.6593 19.2067 51.4831 19.1809 51.3099C19.1333 50.9666 19.0722 50.6415 19.032 50.3301C18.9665 49.7042 18.8831 49.1543 18.831 48.6956C18.755 47.7689 18.682 47.2205 18.682 47.2205C18.4795 47.3205 18.2856 47.4379 18.1027 47.5714C17.5938 47.9381 17.1333 48.37 16.7325 48.8566C16.6014 49.0085 16.4615 49.1877 16.3349 49.3731C16.2083 49.5584 16.0817 49.7604 15.9566 49.9807C15.6771 50.4667 15.436 50.9747 15.2357 51.4998C15.0136 52.141 14.8379 52.798 14.71 53.4655C14.6475 53.8316 14.6058 54.2159 14.57 54.6245C14.5521 54.8281 14.5387 55.0377 14.5268 55.2534C14.5111 55.4723 14.5067 55.6918 14.5134 55.9112C14.5268 56.4626 14.5566 57.0262 14.5998 57.5974C14.643 58.1685 14.7488 58.7245 14.847 59.2957L14.9215 59.7225L15.0198 60.1433C15.0863 60.4228 15.1558 60.7024 15.2283 60.9819C15.3042 61.2598 15.3772 61.5439 15.4591 61.8158C15.541 62.0877 15.6408 62.3581 15.7317 62.627L16.0281 63.423C16.0742 63.5567 16.1264 63.6873 16.177 63.8149L16.3393 64.1977C16.4515 64.4529 16.5622 64.7061 16.6715 64.9573C16.7832 65.2049 16.8874 65.4571 17.0155 65.6895C17.2582 66.1619 17.5025 66.6207 17.7423 67.0566C17.8584 67.28 17.994 67.485 18.1191 67.6916L18.4959 68.2993C14.7849 63.546 12.1285 58.0285 10.7097 52.1272C11.1059 51.8674 11.8059 51.2446 12.5192 50.0111C12.7084 49.7073 12.902 49.3533 13.0911 48.966C13.1865 48.7715 13.2803 48.568 13.3741 48.3583C13.4679 48.1487 13.5528 47.9208 13.6586 47.6823C13.8626 47.2099 14.0622 46.6934 14.2543 46.1329C14.3422 45.8518 14.4598 45.5571 14.5626 45.2533C14.6653 44.9495 14.7696 44.6305 14.8694 44.3024C14.9692 43.9408 15.1002 43.5687 15.2134 43.1904C15.3266 42.8122 15.4338 42.4309 15.5336 42.0435C15.6334 41.6562 15.7659 41.2688 15.8717 40.8784C15.9268 40.6839 15.97 40.488 16.031 40.2935L16.2038 39.7117C16.2589 39.5188 16.3125 39.3259 16.3661 39.133L16.4436 38.8443L16.5344 38.5603C16.6516 38.1805 16.7628 37.8058 16.868 37.4362C16.9797 37.0685 17.1048 36.71 17.2121 36.3591C17.2657 36.1829 17.3178 36.0097 17.3714 35.8381C17.425 35.6664 17.4891 35.5024 17.5457 35.3383C17.6588 35.0082 17.7646 34.6907 17.8629 34.3858C17.9771 34.082 18.0833 33.7939 18.1816 33.5215C18.3663 32.9716 18.5703 32.4961 18.7193 32.0936L18.9233 31.5558C18.9873 31.4039 19.0439 31.2657 19.0886 31.1578C19.178 30.9391 19.2256 30.819 19.2256 30.819C19.02 30.8126 18.8142 30.8243 18.6105 30.854C18.3703 30.8842 18.132 30.9294 17.8972 30.9892C17.7586 31.0241 17.6097 31.0667 17.4504 31.1168C17.291 31.1669 17.1376 31.2307 16.9693 31.3021C16.5916 31.4642 16.2262 31.6546 15.8761 31.8718C15.4463 32.1354 15.0423 32.4406 14.6698 32.7832C14.4613 32.9685 14.2498 33.1711 14.0354 33.3908C13.8224 33.6142 13.6243 33.8602 13.4143 34.1261C13.2043 34.3919 12.9988 34.6775 12.7888 34.9874C12.5788 35.2973 12.3986 35.6345 12.205 35.993C10.4044 39.3077 9.71485 43.6218 9.79528 46.9076C9.17967 41.4803 9.59175 35.983 11.0091 30.7142C11.5169 30.6398 12.3494 30.3846 13.4083 29.698C14.5075 29.0265 15.8017 27.9131 17.4637 26.2785C18.4675 25.3048 19.4624 24.1807 20.4915 23.1082L20.8639 22.7011C20.989 22.5659 21.1215 22.4368 21.2466 22.3031C21.5013 22.0403 21.747 21.7775 21.9913 21.5177C22.2355 21.258 22.4887 21.018 22.7255 20.7719C22.8431 20.6503 22.9564 20.5258 23.074 20.4088L23.4255 20.067C23.6568 19.8402 23.8758 19.6204 24.0823 19.4077C24.2888 19.1951 24.4958 18.9996 24.7033 18.8214C24.8999 18.6376 25.0756 18.4538 25.2514 18.2943L25.7369 17.8537C26.0347 17.5848 26.2552 17.36 26.425 17.2203C26.5947 17.0805 26.6781 16.9954 26.6781 16.9954C26.511 16.9062 26.3366 16.832 26.1569 16.7737C25.9461 16.7017 25.7312 16.6429 25.5135 16.5974C25.223 16.5396 24.9289 16.5026 24.6333 16.4866C24.257 16.4655 23.8797 16.4726 23.5044 16.5078C23.3987 16.5169 23.2914 16.5276 23.1827 16.5428C23.074 16.558 22.9653 16.5777 22.8521 16.599C22.6287 16.643 22.3934 16.6977 22.1477 16.7645C21.9019 16.8314 21.6472 16.9165 21.3806 17.003C21.1141 17.0896 20.8549 17.2172 20.5749 17.3479C20.2949 17.4785 20.0105 17.6259 19.7141 17.7914C19.4177 17.957 19.1318 18.1545 18.8205 18.3657C17.6691 19.18 16.6133 20.1265 15.6736 21.1866C15.4338 21.4509 15.2149 21.7289 14.99 22.0023L14.6579 22.417C14.5492 22.5553 14.439 22.692 14.3407 22.8363C14.1396 23.1188 13.943 23.4029 13.7449 23.6855L13.4605 24.1062C13.3696 24.2475 13.2862 24.3918 13.2013 24.5331C14.0233 22.6965 14.9688 20.92 16.031 19.2163L16.8502 17.957L17.7184 16.7311C17.8674 16.5245 18.0163 16.3286 18.1652 16.1235L18.6239 15.5311C18.7803 15.3351 18.9218 15.13 19.0901 14.9417L19.5726 14.369C19.7767 14.2626 20.0194 14.1305 20.3083 13.9694C20.5973 13.8084 20.9339 13.6398 21.2958 13.4362C21.4775 13.3345 21.6666 13.2266 21.8617 13.1112C22.0568 12.9957 22.2727 12.8879 22.4887 12.7648C22.7046 12.6418 22.9266 12.5172 23.1559 12.382L23.5029 12.1769L23.8693 11.9734C24.115 11.8336 24.3682 11.6878 24.6229 11.5359L25.0116 11.3035L25.4182 11.0726C25.6922 10.9166 25.9692 10.753 26.2492 10.5819C26.3862 10.4938 26.5322 10.4102 26.6781 10.3282L27.1249 10.0715C28.2955 9.35752 29.5823 8.61469 30.9316 7.7716C31.3099 7.54779 31.6807 7.31689 32.0441 7.0789C32.4105 6.84952 32.7784 6.62318 33.1328 6.3938C33.3115 6.28139 33.4828 6.1553 33.663 6.04745C33.8432 5.93959 34.016 5.82566 34.1902 5.71325L34.7055 5.3745L34.9587 5.20284L35.2134 5.04182C35.553 4.82763 35.8821 4.61192 36.2038 4.39317L36.4436 4.23215L36.6848 4.08024L37.154 3.77643L37.6112 3.47261C37.7601 3.37235 37.909 3.26906 38.058 3.17943C38.3558 2.99512 38.6383 2.81333 38.9054 2.63408C39.4445 2.26495 39.9479 1.96417 40.3947 1.66947L41.0217 1.2578L41.5593 0.920562C42.2087 0.505854 42.5765 0.246091 42.5765 0.246091C42.5765 0.246091 42.1461 0.170136 41.3687 0.0865872L40.7209 0.0243044C40.4841 0.00911366 40.2309 0.00303929 39.9568 -0.0045561C39.4088 -0.0136706 38.7788 -0.0334189 38.0997 0.0212679C37.7571 0.0435478 37.3997 0.0713957 37.0274 0.104815C36.8397 0.118487 36.6535 0.147351 36.4629 0.174694L35.8806 0.262801L35.2849 0.364579L34.9766 0.419266C34.8753 0.439014 34.7725 0.464837 34.6698 0.487624C34.2587 0.584845 33.8358 0.68966 33.4053 0.80511L33.0822 0.893217L32.759 0.998034L32.1082 1.2183C31.8892 1.29425 31.6688 1.37021 31.4484 1.45528C31.228 1.54035 31.0106 1.63605 30.7901 1.72871C30.3538 1.92315 29.9085 2.11911 29.4706 2.33634C29.0327 2.55357 28.6053 2.81181 28.1734 3.06702C27.9872 3.17335 27.807 3.29184 27.6313 3.41033L27.1085 3.76579C26.7675 4.00733 26.4249 4.23367 26.1137 4.49191C25.5018 4.96537 24.9156 5.47249 24.3578 6.01099C24.0897 6.26923 23.8316 6.52241 23.5833 6.77053C23.3351 7.01865 23.1053 7.27841 22.8938 7.54982C22.6749 7.80806 22.4589 8.05415 22.2638 8.30936C22.0687 8.56456 21.8855 8.81673 21.7083 9.0613C20.6748 10.4831 19.843 12.0464 19.2375 13.7051C18.0546 15.0789 16.9626 16.5313 15.9685 18.0527C16.2664 17.4132 16.6268 16.7706 16.9663 16.0779L18.0669 13.9907C18.4571 13.2919 18.825 12.5521 19.2256 11.8412C19.4222 11.4812 19.6099 11.1121 19.802 10.749C19.9941 10.3859 20.1937 10.0305 20.3798 9.66589C20.4737 9.48208 20.5645 9.30131 20.6509 9.12358C20.7373 8.94585 20.8311 8.77875 20.9145 8.61014C21.0843 8.27138 21.2392 7.94174 21.3821 7.62121L21.7887 6.70065C21.9138 6.40595 22.028 6.12037 22.1313 5.84389C22.2355 5.56894 22.3234 5.29551 22.4128 5.04486C22.5021 4.79421 22.578 4.55116 22.6466 4.31874C22.7711 3.89814 22.874 3.47121 22.9549 3.03967C23.0764 2.46448 23.1398 1.87808 23.144 1.2897C23.1465 1.08609 23.1305 0.882684 23.0963 0.682065L22.7165 0.975249C22.4753 1.16969 22.1208 1.43097 21.6949 1.8153C20.562 2.78573 19.4919 3.83001 18.4914 4.94156C17.202 6.36068 16.0416 7.89617 15.0243 9.52918C14.7681 9.95452 14.5199 10.3804 14.2796 10.8067C14.0413 11.2321 13.8328 11.6741 13.6243 12.1025C13.525 12.3182 13.4258 12.5324 13.3265 12.7451C13.2282 12.9562 13.1477 13.1765 13.0629 13.3907C12.8961 13.8191 12.7426 14.2398 12.6056 14.65C12.3807 15.3609 12.2214 16.0293 12.0903 16.6354C12.0218 16.9392 11.9846 17.2431 11.9414 17.5195C11.8982 17.796 11.8759 18.0725 11.8535 18.3307C11.8312 18.589 11.8163 18.8335 11.8103 19.0675C11.8044 19.3014 11.8103 19.5232 11.8237 19.7435C11.8412 20.1288 11.881 20.5128 11.9429 20.8934C11.9712 21.0635 12.001 21.2246 12.0367 21.3749C12.0724 21.5253 12.1171 21.6788 12.1603 21.8064C12.2366 22.0464 12.3286 22.2808 12.4358 22.5082C12.5793 22.8199 12.7631 23.1107 12.9824 23.3725C11.7484 25.977 10.7831 28.7052 10.1021 31.5133C9.41526 34.3189 9.00466 37.1875 8.87638 40.0763C8.81085 38.3658 8.75575 36.312 8.76468 34.1215C8.77362 31.931 8.85701 29.6053 8.89871 27.3267C8.89871 27.0973 8.89871 26.871 8.89871 26.6522C8.89871 26.4335 8.89871 26.2132 8.89871 26.0036C8.89871 25.5833 8.89426 25.1782 8.88533 24.7883C8.87639 24.3984 8.86049 24.0247 8.83766 23.6672C8.82177 23.3097 8.79844 22.9674 8.76766 22.6403C8.73937 22.3137 8.69619 21.9978 8.66342 21.7031C8.63066 21.4084 8.59193 21.1273 8.54874 20.86C8.47352 20.3776 8.3741 19.8995 8.25088 19.4275C8.10215 18.7926 7.88954 18.1751 7.61643 17.5848C7.52253 17.3795 7.40984 17.1837 7.27984 17L7.04303 17.4876L6.76604 18.0664C6.71391 18.1803 6.65581 18.3019 6.59624 18.431C6.53666 18.5601 6.48008 18.7014 6.41902 18.8487C5.75093 20.3997 5.1891 21.996 4.73758 23.6262C4.45014 24.5924 4.23421 25.6436 4.0123 26.713C3.83507 27.7976 3.65335 28.902 3.57889 30.0185C3.48741 31.1131 3.4571 32.2122 3.48806 33.3103C3.51636 33.8466 3.55359 34.3737 3.59976 34.8841C3.62657 35.1408 3.64445 35.39 3.68466 35.6436C3.72487 35.8973 3.76208 36.1358 3.80527 36.3758C3.88569 36.8224 3.97057 37.2432 4.05844 37.6427C4.14631 38.0423 4.26995 38.419 4.37867 38.7745C4.48739 39.1299 4.60058 39.4626 4.71525 39.7755C4.82993 40.0885 4.96695 40.3832 5.09205 40.6551C5.31678 41.1482 5.57298 41.6257 5.85903 42.0845C6.09861 42.4491 6.36077 42.7977 6.6439 43.1281C7.03472 43.5943 7.49211 43.9979 8.00068 44.3252C8.28897 44.5054 8.60085 44.643 8.92703 44.7338C9.12737 47.9421 9.67683 51.1178 10.5653 54.2022L10.7276 54.7825L10.9167 55.3522L11.295 56.4945L11.3904 56.7786L11.4991 57.0596L11.715 57.6201L12.1499 58.7397L12.6354 59.838L12.8797 60.3864C12.9199 60.4775 12.9586 60.5702 13.0018 60.6598L13.1373 60.9287L13.6749 62.0012C13.7658 62.1789 13.8522 62.3597 13.9475 62.5359L14.2454 63.0569C13.2028 61.471 11.928 59.4673 10.6814 57.2282C9.43489 54.9891 8.16746 52.5373 6.92835 50.1387C6.699 49.683 6.45327 49.2591 6.23434 48.8459C6.01541 48.4328 5.80392 48.0378 5.58797 47.6626C5.47925 47.4742 5.37203 47.2904 5.26331 47.1127C5.15459 46.9349 5.04738 46.7603 4.95058 46.5886C4.752 46.2483 4.55343 45.9258 4.35485 45.6209C3.70793 44.6051 2.98703 43.6403 2.19829 42.7347C1.87958 42.3792 1.5698 42.083 1.30471 41.8384C1.08586 41.633 0.856717 41.4393 0.618154 41.2582C0.423043 41.1051 0.214102 40.9713 -0.00585937 40.8586C-0.00585937 40.8586 -0.0058841 41.0759 0.0060304 41.4663C0.0179449 41.8567 0.0477559 42.4354 0.105839 43.1494C0.135625 43.5064 0.169868 43.8983 0.205611 44.3206C0.216036 44.427 0.226456 44.5333 0.236881 44.6427L0.281568 44.9753C0.314333 45.2017 0.347086 45.4311 0.38134 45.6726C0.451338 46.1496 0.530277 46.6509 0.6107 47.1719C0.691123 47.693 0.828142 48.2353 0.948777 48.7867C1.00984 49.0632 1.07388 49.3427 1.13792 49.6268C1.20196 49.9108 1.28686 50.1949 1.36728 50.482C1.52962 51.0562 1.69939 51.6395 1.87811 52.2259C2.05682 52.8123 2.29213 53.3941 2.50957 53.9789L2.6749 54.4164C2.73001 54.5683 2.78659 54.7081 2.85212 54.8509L3.23339 55.7091C3.36445 55.9917 3.49401 56.2742 3.62507 56.5583L3.82465 56.9761L4.04357 57.3862C4.34143 57.9285 4.6393 58.4602 4.93716 58.9752C5.23502 59.4901 5.58502 59.9732 5.91117 60.4426C6.075 60.6765 6.23929 60.9054 6.40411 61.1292C6.57389 61.351 6.75261 61.5621 6.92686 61.7687C7.26047 62.1652 7.58365 62.5283 7.89938 62.8731C8.04832 63.0448 8.22107 63.2028 8.38043 63.3562C8.53979 63.5096 8.69917 63.66 8.85555 63.7997C9.16681 64.0823 9.46614 64.3405 9.75655 64.579C10.047 64.8175 10.3523 65.0196 10.6263 65.211C11.1258 65.5504 11.6473 65.8549 12.1871 66.1224C12.6219 66.3272 13.0697 66.5017 13.5275 66.645C13.8852 66.756 14.2506 66.8393 14.6207 66.8941C14.909 66.9323 15.1998 66.9465 15.4904 66.9366C15.8485 66.9311 16.2038 66.8717 16.5448 66.7604C16.7936 67.1113 17.0319 67.4698 17.2895 67.8147L18.0759 68.8355L18.4705 69.3459L18.8875 69.8366L19.7201 70.8179C20.006 71.1369 20.3039 71.4453 20.5958 71.7597C20.8877 72.0742 21.1751 72.3932 21.4894 72.6848L22.4113 73.5811L22.6421 73.8044L22.8819 74.0171L23.3629 74.4424C25.9194 76.7411 28.7483 78.7038 31.7835 80.2848C29.8668 79.4857 27.5315 78.4087 25.0816 77.1038C22.6317 75.7989 20.0507 74.2829 17.5353 72.7745C16.597 72.1866 15.6781 71.6959 14.8619 71.2205C14.4479 70.9845 14.0423 70.7703 13.6452 70.5779C13.2579 70.3743 12.8931 70.1784 12.5312 70.0037C11.0761 69.3094 9.87871 68.8021 8.85555 68.4952C8.34322 68.3433 7.90983 68.2188 7.51517 68.1352C7.19012 68.0623 6.8615 68.007 6.53071 67.9696C6.25912 67.9343 5.98487 67.9251 5.71159 67.9423L6.0705 68.5271C6.30582 68.9023 6.63793 69.4538 7.11302 70.1039C7.58811 70.7541 8.12578 71.5471 8.81384 72.3749L9.33659 73.0175C9.5168 73.2347 9.69552 73.4611 9.89657 73.6768C10.2927 74.1158 10.7067 74.5685 11.1371 75.0288C13.0131 76.9825 15.0857 78.7289 17.3208 80.2392C19.5027 81.7159 21.877 82.8731 24.3742 83.6769C24.9193 83.841 25.4395 83.9847 25.935 84.1083C26.4398 84.2177 26.9209 84.3043 27.3781 84.3772C27.606 84.4136 27.8249 84.4455 28.0438 84.4744L28.3655 84.5154C28.4713 84.526 28.5785 84.5321 28.6812 84.5397C29.0997 84.5686 29.4944 84.5823 29.8727 84.5868C30.251 84.5914 30.595 84.5868 30.9257 84.5655C31.2563 84.5443 31.5765 84.4987 31.8713 84.4547C32.3949 84.3776 32.9125 84.2628 33.4202 84.1113C34.1287 83.8931 34.7995 83.5636 35.4085 83.1346C35.7336 82.9055 36.0237 82.6286 36.2693 82.3128C38.5199 83.1615 40.8365 83.8155 43.1946 84.2678L44.0793 84.4303L44.5261 84.5109C44.675 84.5352 44.8239 84.5503 44.9729 84.5716C45.5686 84.6476 46.1643 84.7235 46.76 84.7995L48.5546 84.9377C48.8525 84.9681 49.1503 84.9666 49.4482 84.9757L50.3418 85C50.7052 85.0091 51.0001 84.8618 51.0001 84.6719C51.0001 84.482 50.7022 84.321 50.3522 84.3119L49.5033 84.2906L49.0789 84.2784H48.8659L48.6544 84.2617L46.9581 84.1296L46.7466 84.1129L46.5366 84.0855L46.1151 84.0308L45.2722 83.9215C44.7078 83.8622 44.1522 83.7468 43.5938 83.648C43.5321 83.2372 43.4211 82.8356 43.2631 82.4525C43.1619 82.1897 43.0293 81.9132 42.8669 81.5882C42.6859 81.2322 42.487 80.8859 42.2712 80.5506C42.0344 80.1785 41.7559 79.7911 41.4387 79.3809C41.1215 78.9708 40.7641 78.5044 40.359 78.0441C40.2577 77.9272 40.1505 77.8163 40.0462 77.6917L39.72 77.3165C39.4981 77.0643 39.2628 76.8076 39.0156 76.557C38.892 76.4248 38.7624 76.3033 38.6358 76.162C38.5092 76.0207 38.3796 75.881 38.2456 75.7397C37.979 75.4587 37.699 75.1731 37.4042 74.886C36.1606 73.5917 34.783 72.2732 33.4738 70.9364C32.1647 69.5996 30.942 68.2522 29.8906 67.0323L29.5063 66.5766L29.3172 66.3609C29.2586 66.285 29.2005 66.2105 29.143 66.1376C28.9121 65.8444 28.6887 65.568 28.4757 65.3097L28.3179 65.1183L28.1689 64.9239L27.8934 64.5563C27.7147 64.3203 27.5484 64.1056 27.3945 63.9122C26.8226 63.0979 26.4607 62.6316 26.4607 62.6316C26.3222 62.8404 26.2016 63.0609 26.1003 63.2909C25.8175 63.9259 25.6173 64.5959 25.5045 65.2839C25.4189 65.7783 25.378 66.2797 25.3824 66.7817C25.3824 67.0597 25.3929 67.3529 25.4167 67.6612C25.4286 67.8132 25.4405 67.9772 25.4629 68.1352C25.4852 68.2932 25.5135 68.4542 25.5433 68.6198C25.6058 68.9494 25.6818 69.2958 25.7771 69.6573C25.8262 69.8381 25.8769 70.0249 25.935 70.2103C25.9931 70.3956 26.066 70.5779 26.139 70.7678C26.2879 71.146 26.4532 71.541 26.6439 71.9511C26.8345 72.3613 27.0669 72.7562 27.32 73.1801Z" fill="#C5CBD5"/>
</g>
<g clip-path="url(#clip1_4036_464)">
<path d="M173.68 73.1801C172.421 75.243 170.66 77.1555 168.722 78.7019C166.923 80.1443 164.946 81.3403 162.842 82.2596C165.895 81.2361 168.822 79.86 171.568 78.1581C174.304 76.4396 176.843 74.4137 179.137 72.1182C178.978 71.7791 178.858 71.4223 178.781 71.0549C178.644 70.4158 178.576 69.7632 178.58 69.1089C178.58 68.9064 178.584 68.6983 178.593 68.4846C178.593 68.2613 178.607 68.0289 178.622 67.7858C178.653 67.3027 178.708 66.7802 178.794 66.2227C178.881 65.6652 178.955 65.0348 179.092 64.3861C179.128 64.2251 179.155 64.0565 179.184 63.8833L179.281 63.3607C179.35 63.0068 179.43 62.6452 179.517 62.2716C179.843 60.634 180.293 58.9189 180.677 57.2206L180.717 57.0687L180.748 56.9168L180.814 56.5963C180.86 56.3867 180.906 56.1755 180.951 55.9659C180.995 55.7562 181.049 55.5527 181.1 55.3461C181.15 55.1395 181.177 54.9314 181.216 54.7263C181.255 54.5212 181.298 54.3222 181.338 54.1187C181.378 53.9151 181.426 53.7252 181.453 53.5262C181.516 53.1313 181.583 52.75 181.652 52.3824C181.67 52.2912 181.688 52.2001 181.704 52.1105C181.721 52.0208 181.73 51.9282 181.743 51.8385C181.768 51.6593 181.793 51.4831 181.819 51.3099C181.867 50.9666 181.928 50.6415 181.968 50.3301C182.034 49.7042 182.117 49.1543 182.169 48.6956C182.245 47.7689 182.318 47.2205 182.318 47.2205C182.521 47.3205 182.714 47.4379 182.897 47.5714C183.406 47.9381 183.867 48.37 184.267 48.8566C184.399 49.0085 184.539 49.1877 184.665 49.3731C184.792 49.5584 184.918 49.7604 185.043 49.9807C185.323 50.4667 185.564 50.9747 185.764 51.4998C185.986 52.141 186.162 52.798 186.29 53.4655C186.353 53.8316 186.394 54.2159 186.43 54.6245C186.448 54.8281 186.461 55.0377 186.473 55.2534C186.489 55.4723 186.493 55.6918 186.487 55.9112C186.473 56.4626 186.443 57.0262 186.4 57.5974C186.357 58.1685 186.251 58.7245 186.153 59.2957L186.078 59.7225L185.98 60.1433C185.914 60.4228 185.844 60.7024 185.772 60.9819C185.696 61.2598 185.623 61.5439 185.541 61.8158C185.459 62.0877 185.359 62.3581 185.268 62.627L184.972 63.423C184.926 63.5567 184.874 63.6873 184.823 63.8149L184.661 64.1977C184.548 64.4529 184.438 64.7061 184.329 64.9573C184.217 65.2049 184.113 65.4571 183.985 65.6895C183.742 66.1619 183.498 66.6207 183.258 67.0566C183.142 67.28 183.006 67.485 182.881 67.6916L182.504 68.2993C186.215 63.546 188.871 58.0285 190.29 52.1272C189.894 51.8674 189.194 51.2446 188.481 50.0111C188.292 49.7073 188.098 49.3533 187.909 48.966C187.814 48.7715 187.72 48.568 187.626 48.3583C187.532 48.1487 187.447 47.9208 187.341 47.6823C187.137 47.2099 186.938 46.6934 186.746 46.1329C186.658 45.8518 186.54 45.5571 186.437 45.2533C186.335 44.9495 186.23 44.6305 186.131 44.3024C186.031 43.9408 185.9 43.5687 185.787 43.1904C185.673 42.8122 185.566 42.4309 185.466 42.0435C185.367 41.6562 185.234 41.2688 185.128 40.8784C185.073 40.6839 185.03 40.488 184.969 40.2935L184.796 39.7117C184.741 39.5188 184.687 39.3259 184.634 39.133L184.556 38.8443L184.466 38.5603C184.348 38.1805 184.237 37.8058 184.132 37.4362C184.02 37.0685 183.895 36.71 183.788 36.3591C183.734 36.1829 183.682 36.0097 183.629 35.8381C183.575 35.6664 183.511 35.5024 183.454 35.3383C183.341 35.0082 183.235 34.6907 183.137 34.3858C183.023 34.082 182.917 33.7939 182.818 33.5215C182.634 32.9716 182.43 32.4961 182.281 32.0936L182.077 31.5558C182.013 31.4039 181.956 31.2657 181.911 31.1578C181.822 30.9391 181.774 30.819 181.774 30.819C181.98 30.8126 182.186 30.8243 182.389 30.854C182.63 30.8842 182.868 30.9294 183.103 30.9892C183.241 31.0241 183.39 31.0667 183.55 31.1168C183.709 31.1669 183.862 31.2307 184.031 31.3021C184.408 31.4642 184.774 31.6546 185.124 31.8718C185.554 32.1354 185.958 32.4406 186.33 32.7832C186.539 32.9685 186.75 33.1711 186.965 33.3908C187.178 33.6142 187.376 33.8602 187.586 34.1261C187.796 34.3919 188.001 34.6775 188.211 34.9874C188.421 35.2973 188.601 35.6345 188.795 35.993C190.596 39.3077 191.285 43.6218 191.205 46.9076C191.82 41.4803 191.408 35.983 189.991 30.7142C189.483 30.6398 188.651 30.3846 187.592 29.698C186.493 29.0265 185.198 27.9131 183.536 26.2785C182.532 25.3048 181.538 24.1807 180.508 23.1082L180.136 22.7011C180.011 22.5659 179.878 22.4368 179.753 22.3031C179.499 22.0403 179.253 21.7775 179.009 21.5177C178.764 21.258 178.511 21.018 178.275 20.7719C178.157 20.6503 178.044 20.5258 177.926 20.4088L177.575 20.067C177.343 19.8402 177.124 19.6204 176.918 19.4077C176.711 19.1951 176.504 18.9996 176.297 18.8214C176.1 18.6376 175.924 18.4538 175.749 18.2943L175.263 17.8537C174.965 17.5848 174.745 17.36 174.575 17.2203C174.405 17.0805 174.322 16.9954 174.322 16.9954C174.489 16.9062 174.663 16.832 174.843 16.7737C175.054 16.7017 175.269 16.6429 175.487 16.5974C175.777 16.5396 176.071 16.5026 176.367 16.4866C176.743 16.4655 177.12 16.4726 177.496 16.5078C177.601 16.5169 177.709 16.5276 177.817 16.5428C177.926 16.558 178.035 16.5777 178.148 16.599C178.371 16.643 178.607 16.6977 178.852 16.7645C179.098 16.8314 179.353 16.9165 179.619 17.003C179.886 17.0896 180.145 17.2172 180.425 17.3479C180.705 17.4785 180.99 17.6259 181.286 17.7914C181.582 17.957 181.868 18.1545 182.179 18.3657C183.331 19.18 184.387 20.1265 185.326 21.1866C185.566 21.4509 185.785 21.7289 186.01 22.0023L186.342 22.417C186.451 22.5553 186.561 22.692 186.659 22.8363C186.86 23.1188 187.057 23.4029 187.255 23.6855L187.54 24.1062C187.63 24.2475 187.714 24.3918 187.799 24.5331C186.977 22.6965 186.031 20.92 184.969 19.2163L184.15 17.957L183.282 16.7311C183.133 16.5245 182.984 16.3286 182.835 16.1235L182.376 15.5311C182.22 15.3351 182.078 15.13 181.91 14.9417L181.427 14.369C181.223 14.2626 180.981 14.1305 180.692 13.9694C180.403 13.8084 180.066 13.6398 179.704 13.4362C179.523 13.3345 179.333 13.2266 179.138 13.1112C178.943 12.9957 178.727 12.8879 178.511 12.7648C178.295 12.6418 178.073 12.5172 177.844 12.382L177.497 12.1769L177.131 11.9734C176.885 11.8336 176.632 11.6878 176.377 11.5359L175.988 11.3035L175.582 11.0726C175.308 10.9166 175.031 10.753 174.751 10.5819C174.614 10.4938 174.468 10.4102 174.322 10.3282L173.875 10.0715C172.704 9.35752 171.418 8.61469 170.068 7.7716C169.69 7.54779 169.319 7.31689 168.956 7.0789C168.59 6.84952 168.222 6.62318 167.867 6.3938C167.688 6.28139 167.517 6.1553 167.337 6.04745C167.157 5.93959 166.984 5.82566 166.81 5.71325L166.294 5.3745L166.041 5.20284L165.787 5.04182C165.447 4.82763 165.118 4.61192 164.796 4.39317L164.556 4.23215L164.315 4.08024L163.846 3.77643L163.389 3.47261C163.24 3.37235 163.091 3.26906 162.942 3.17943C162.644 2.99512 162.362 2.81333 162.095 2.63408C161.555 2.26495 161.052 1.96417 160.605 1.66947L159.978 1.2578L159.441 0.920562C158.791 0.505854 158.423 0.246091 158.423 0.246091C158.423 0.246091 158.854 0.170136 159.631 0.0865872L160.279 0.0243044C160.516 0.00911366 160.769 0.00303929 161.043 -0.0045561C161.591 -0.0136706 162.221 -0.0334189 162.9 0.0212679C163.243 0.0435478 163.6 0.0713957 163.973 0.104815C164.16 0.118487 164.346 0.147351 164.537 0.174694L165.119 0.262801L165.715 0.364579L166.023 0.419266C166.125 0.439014 166.227 0.464837 166.33 0.487624C166.741 0.584845 167.164 0.68966 167.595 0.80511L167.918 0.893217L168.241 0.998034L168.892 1.2183C169.111 1.29425 169.331 1.37021 169.552 1.45528C169.772 1.54035 169.989 1.63605 170.21 1.72871C170.646 1.92315 171.092 2.11911 171.529 2.33634C171.967 2.55357 172.395 2.81181 172.827 3.06702C173.013 3.17335 173.193 3.29184 173.369 3.41033L173.891 3.76579C174.233 4.00733 174.575 4.23367 174.886 4.49191C175.498 4.96537 176.084 5.47249 176.642 6.01099C176.91 6.26923 177.168 6.52241 177.417 6.77053C177.665 7.01865 177.895 7.27841 178.106 7.54982C178.325 7.80806 178.541 8.05415 178.736 8.30936C178.931 8.56456 179.114 8.81673 179.292 9.0613C180.325 10.4831 181.157 12.0464 181.762 13.7051C182.945 15.0789 184.037 16.5313 185.031 18.0527C184.734 17.4132 184.373 16.7706 184.034 16.0779L182.933 13.9907C182.543 13.2919 182.175 12.5521 181.774 11.8412C181.578 11.4812 181.39 11.1121 181.198 10.749C181.006 10.3859 180.806 10.0305 180.62 9.66589C180.526 9.48208 180.435 9.30131 180.349 9.12358C180.263 8.94585 180.169 8.77875 180.085 8.61014C179.916 8.27138 179.761 7.94174 179.618 7.62121L179.211 6.70065C179.086 6.40595 178.972 6.12037 178.869 5.84389C178.764 5.56894 178.677 5.29551 178.587 5.04486C178.498 4.79421 178.422 4.55116 178.353 4.31874C178.229 3.89814 178.126 3.47121 178.045 3.03967C177.924 2.46448 177.86 1.87808 177.856 1.2897C177.854 1.08609 177.87 0.882684 177.904 0.682065L178.283 0.975249C178.525 1.16969 178.879 1.43097 179.305 1.8153C180.438 2.78573 181.508 3.83001 182.509 4.94156C183.798 6.36068 184.958 7.89617 185.976 9.52918C186.232 9.95452 186.48 10.3804 186.72 10.8067C186.959 11.2321 187.167 11.6741 187.376 12.1025C187.475 12.3182 187.574 12.5324 187.674 12.7451C187.772 12.9562 187.852 13.1765 187.937 13.3907C188.104 13.8191 188.257 14.2398 188.394 14.65C188.619 15.3609 188.779 16.0293 188.91 16.6354C188.978 16.9392 189.015 17.2431 189.059 17.5195C189.102 17.796 189.124 18.0725 189.146 18.3307C189.169 18.589 189.184 18.8335 189.19 19.0675C189.196 19.3014 189.19 19.5232 189.176 19.7435C189.159 20.1288 189.119 20.5128 189.057 20.8934C189.029 21.0635 188.999 21.2246 188.963 21.3749C188.928 21.5253 188.883 21.6788 188.84 21.8064C188.763 22.0464 188.671 22.2808 188.564 22.5082C188.421 22.8199 188.237 23.1107 188.018 23.3725C189.252 25.977 190.217 28.7052 190.898 31.5133C191.585 34.3189 191.995 37.1875 192.124 40.0763C192.189 38.3658 192.244 36.312 192.235 34.1215C192.226 31.931 192.143 29.6053 192.101 27.3267C192.101 27.0973 192.101 26.871 192.101 26.6522C192.101 26.4335 192.101 26.2132 192.101 26.0036C192.101 25.5833 192.106 25.1782 192.115 24.7883C192.124 24.3984 192.14 24.0247 192.162 23.6672C192.178 23.3097 192.202 22.9674 192.232 22.6403C192.261 22.3137 192.304 21.9978 192.337 21.7031C192.369 21.4084 192.408 21.1273 192.451 20.86C192.526 20.3776 192.626 19.8995 192.749 19.4275C192.898 18.7926 193.11 18.1751 193.384 17.5848C193.477 17.3795 193.59 17.1837 193.72 17L193.957 17.4876L194.234 18.0664C194.286 18.1803 194.344 18.3019 194.404 18.431C194.463 18.5601 194.52 18.7014 194.581 18.8487C195.249 20.3997 195.811 21.996 196.262 23.6262C196.55 24.5924 196.766 25.6436 196.988 26.713C197.165 27.7976 197.347 28.902 197.421 30.0185C197.513 31.1131 197.543 32.2122 197.512 33.3103C197.484 33.8466 197.446 34.3737 197.4 34.8841C197.373 35.1408 197.356 35.39 197.315 35.6436C197.275 35.8973 197.238 36.1358 197.195 36.3758C197.114 36.8224 197.029 37.2432 196.942 37.6427C196.854 38.0423 196.73 38.419 196.621 38.7745C196.513 39.1299 196.399 39.4626 196.285 39.7755C196.17 40.0885 196.033 40.3832 195.908 40.6551C195.683 41.1482 195.427 41.6257 195.141 42.0845C194.901 42.4491 194.639 42.7977 194.356 43.1281C193.965 43.5943 193.508 43.9979 192.999 44.3252C192.711 44.5054 192.399 44.643 192.073 44.7338C191.873 47.9421 191.323 51.1178 190.435 54.2022L190.272 54.7825L190.083 55.3522L189.705 56.4945L189.61 56.7786L189.501 57.0596L189.285 57.6201L188.85 58.7397L188.365 59.838L188.12 60.3864C188.08 60.4775 188.041 60.5702 187.998 60.6598L187.863 60.9287L187.325 62.0012C187.234 62.1789 187.148 62.3597 187.053 62.5359L186.755 63.0569C187.797 61.471 189.072 59.4673 190.319 57.2282C191.565 54.9891 192.833 52.5373 194.072 50.1387C194.301 49.683 194.547 49.2591 194.766 48.8459C194.985 48.4328 195.196 48.0378 195.412 47.6626C195.521 47.4742 195.628 47.2904 195.737 47.1127C195.845 46.9349 195.953 46.7603 196.049 46.5886C196.248 46.2483 196.447 45.9258 196.645 45.6209C197.292 44.6051 198.013 43.6403 198.802 42.7347C199.12 42.3792 199.43 42.083 199.695 41.8384C199.914 41.633 200.143 41.4393 200.382 41.2582C200.577 41.1051 200.786 40.9713 201.006 40.8586C201.006 40.8586 201.006 41.0759 200.994 41.4663C200.982 41.8567 200.952 42.4354 200.894 43.1494C200.864 43.5064 200.83 43.8983 200.794 44.3206C200.784 44.427 200.774 44.5333 200.763 44.6427L200.718 44.9753C200.686 45.2017 200.653 45.4311 200.619 45.6726C200.549 46.1496 200.47 46.6509 200.389 47.1719C200.309 47.693 200.172 48.2353 200.051 48.7867C199.99 49.0632 199.926 49.3427 199.862 49.6268C199.798 49.9108 199.713 50.1949 199.633 50.482C199.47 51.0562 199.301 51.6395 199.122 52.2259C198.943 52.8123 198.708 53.3941 198.49 53.9789L198.325 54.4164C198.27 54.5683 198.213 54.7081 198.148 54.8509L197.767 55.7091C197.636 55.9917 197.506 56.2742 197.375 56.5583L197.175 56.9761L196.956 57.3862C196.659 57.9285 196.361 58.4602 196.063 58.9752C195.765 59.4901 195.415 59.9732 195.089 60.4426C194.925 60.6765 194.761 60.9054 194.596 61.1292C194.426 61.351 194.247 61.5621 194.073 61.7687C193.74 62.1652 193.416 62.5283 193.101 62.8731C192.952 63.0448 192.779 63.2028 192.62 63.3562C192.46 63.5096 192.301 63.66 192.144 63.7997C191.833 64.0823 191.534 64.3405 191.243 64.579C190.953 64.8175 190.648 65.0196 190.374 65.211C189.874 65.5504 189.353 65.8549 188.813 66.1224C188.378 66.3272 187.93 66.5017 187.472 66.645C187.115 66.756 186.749 66.8393 186.379 66.8941C186.091 66.9323 185.8 66.9465 185.51 66.9366C185.152 66.9311 184.796 66.8717 184.455 66.7604C184.206 67.1113 183.968 67.4698 183.71 67.8147L182.924 68.8355L182.529 69.3459L182.112 69.8366L181.28 70.8179C180.994 71.1369 180.696 71.4453 180.404 71.7597C180.112 72.0742 179.825 72.3932 179.511 72.6848L178.589 73.5811L178.358 73.8044L178.118 74.0171L177.637 74.4424C175.081 76.7411 172.252 78.7038 169.217 80.2848C171.133 79.4857 173.468 78.4087 175.918 77.1038C178.368 75.7989 180.949 74.2829 183.465 72.7745C184.403 72.1866 185.322 71.6959 186.138 71.2205C186.552 70.9845 186.958 70.7703 187.355 70.5779C187.742 70.3743 188.107 70.1784 188.469 70.0037C189.924 69.3094 191.121 68.8021 192.144 68.4952C192.657 68.3433 193.09 68.2188 193.485 68.1352C193.81 68.0623 194.138 68.007 194.469 67.9696C194.741 67.9343 195.015 67.9251 195.288 67.9423L194.929 68.5271C194.694 68.9023 194.362 69.4538 193.887 70.1039C193.412 70.7541 192.874 71.5471 192.186 72.3749L191.663 73.0175C191.483 73.2347 191.304 73.4611 191.103 73.6768C190.707 74.1158 190.293 74.5685 189.863 75.0288C187.987 76.9825 185.914 78.7289 183.679 80.2392C181.497 81.7159 179.123 82.8731 176.626 83.6769C176.081 83.841 175.56 83.9847 175.065 84.1083C174.56 84.2177 174.079 84.3043 173.622 84.3772C173.394 84.4136 173.175 84.4455 172.956 84.4744L172.634 84.5154C172.529 84.526 172.422 84.5321 172.319 84.5397C171.9 84.5686 171.506 84.5823 171.127 84.5868C170.749 84.5914 170.405 84.5868 170.074 84.5655C169.744 84.5443 169.424 84.4987 169.129 84.4547C168.605 84.3776 168.087 84.2628 167.58 84.1113C166.871 83.8931 166.2 83.5636 165.592 83.1346C165.266 82.9055 164.976 82.6286 164.731 82.3128C162.48 83.1615 160.164 83.8155 157.805 84.2678L156.921 84.4303L156.474 84.5109C156.325 84.5352 156.176 84.5503 156.027 84.5716C155.431 84.6476 154.836 84.7235 154.24 84.7995L152.445 84.9377C152.148 84.9681 151.85 84.9666 151.552 84.9757L150.658 85C150.295 85.0091 150 84.8618 150 84.6719C150 84.482 150.298 84.321 150.648 84.3119L151.497 84.2906L151.921 84.2784H152.134L152.346 84.2617L154.042 84.1296L154.253 84.1129L154.463 84.0855L154.885 84.0308L155.728 83.9215C156.292 83.8622 156.848 83.7468 157.406 83.648C157.468 83.2372 157.579 82.8356 157.737 82.4525C157.838 82.1897 157.971 81.9132 158.133 81.5882C158.314 81.2322 158.513 80.8859 158.729 80.5506C158.966 80.1785 159.244 79.7911 159.561 79.3809C159.879 78.9708 160.236 78.5044 160.641 78.0441C160.742 77.9272 160.85 77.8163 160.954 77.6917L161.28 77.3165C161.502 77.0643 161.737 76.8076 161.984 76.557C162.108 76.4248 162.238 76.3033 162.364 76.162C162.491 76.0207 162.62 75.881 162.754 75.7397C163.021 75.4587 163.301 75.1731 163.596 74.886C164.839 73.5917 166.217 72.2732 167.526 70.9364C168.835 69.5996 170.058 68.2522 171.109 67.0323L171.494 66.5766L171.683 66.3609C171.741 66.285 171.799 66.2105 171.857 66.1376C172.088 65.8444 172.311 65.568 172.524 65.3097L172.682 65.1183L172.831 64.9239L173.107 64.5563C173.285 64.3203 173.452 64.1056 173.605 63.9122C174.177 63.0979 174.539 62.6316 174.539 62.6316C174.678 62.8404 174.798 63.0609 174.9 63.2909C175.182 63.9259 175.383 64.5959 175.495 65.2839C175.581 65.7783 175.622 66.2797 175.618 66.7817C175.618 67.0597 175.607 67.3529 175.583 67.6612C175.571 67.8132 175.559 67.9772 175.537 68.1352C175.515 68.2932 175.487 68.4542 175.457 68.6198C175.394 68.9494 175.318 69.2958 175.223 69.6573C175.174 69.8381 175.123 70.0249 175.065 70.2103C175.007 70.3956 174.934 70.5779 174.861 70.7678C174.712 71.146 174.547 71.541 174.356 71.9511C174.165 72.3613 173.933 72.7562 173.68 73.1801Z" fill="#C5CBD5"/>
</g>
<defs>
<clipPath id="clip0_4036_464">
<rect width="51" height="85" fill="white"/>
</clipPath>
<clipPath id="clip1_4036_464">
<rect width="51" height="85" fill="white" transform="matrix(-1 0 0 1 201 0)"/>
</clipPath>
</defs>
</svg>
