<svg width="66" height="70" viewBox="0 0 66 70" fill="none" xmlns="http://www.w3.org/2000/svg">
<path fill-rule="evenodd" clip-rule="evenodd" d="M12.866 46.9443C13.4411 46.9444 13.9926 47.1909 14.3993 47.6289C14.806 48.0671 15.0347 48.6616 15.0348 49.2812V67.7002C15.0257 68.3134 14.7932 68.898 14.3875 69.3281C13.9818 69.7583 13.4352 70.0001 12.866 70H2.51969C1.94461 70 1.39307 69.7535 0.986361 69.3154C0.579669 68.8773 0.350914 68.2827 0.35083 67.6631V49.2441C0.359956 48.631 0.592496 48.0464 0.998148 47.6162C1.4039 47.186 1.95044 46.9443 2.51969 46.9443H12.866ZM4.68855 65.333H10.6971V51.5732H4.68167L4.68855 65.333Z" fill="url(#paint0_linear_4036_12377)"/>
<path fill-rule="evenodd" clip-rule="evenodd" d="M29.6285 36.4932C30.2037 36.4932 30.756 36.7386 31.1628 37.1768C31.5695 37.615 31.7983 38.2103 31.7983 38.8301V67.6553C31.7992 67.9627 31.7428 68.2674 31.6343 68.5518C31.5257 68.8361 31.3662 69.0947 31.1647 69.3125C30.9632 69.5303 30.7241 69.7034 30.4605 69.8213C30.1969 69.9392 29.9139 70 29.6285 70H19.2832C18.9988 70 18.7168 69.9397 18.4541 69.8223C18.1915 69.7048 17.9526 69.5323 17.7518 69.3154C17.5509 69.0983 17.3915 68.8401 17.2833 68.5566C17.175 68.2732 17.1203 67.9696 17.1212 67.6631V38.8369C17.1194 38.5299 17.1736 38.2256 17.2813 37.9414C17.3891 37.6572 17.548 37.3985 17.7489 37.1807C17.9498 36.9628 18.189 36.7899 18.4522 36.6719C18.7154 36.5539 18.9981 36.4932 19.2832 36.4932H29.6285ZM21.452 65.334H27.4665V41.166H21.452V65.334Z" fill="url(#paint1_linear_4036_12377)"/>
<path fill-rule="evenodd" clip-rule="evenodd" d="M46.3919 41.9355C46.966 41.9356 47.5168 42.1806 47.9233 42.6172C48.3298 43.0538 48.559 43.6462 48.5608 44.2646V67.6631C48.5608 68.2828 48.332 68.8772 47.9253 69.3154C47.5185 69.7535 46.9671 70 46.3919 70H36.0457C35.4717 69.998 34.9215 69.7505 34.5163 69.3125C34.1112 68.8745 33.8837 68.2814 33.8837 67.6631V44.2646C33.8837 43.6469 34.1118 43.054 34.5172 42.6172C34.9226 42.1806 35.4724 41.9356 36.0457 41.9355H46.3919ZM38.2076 65.334H44.2231V46.6016H38.2076V65.334Z" fill="url(#paint2_linear_4036_12377)"/>
<path fill-rule="evenodd" clip-rule="evenodd" d="M63.1544 24.7041C63.4391 24.7041 63.7214 24.7645 63.9845 24.8818C64.2476 24.9993 64.4873 25.1717 64.6888 25.3887C64.89 25.6055 65.0493 25.8632 65.1583 26.1465C65.2673 26.43 65.3243 26.7341 65.3243 27.041V67.6631C65.3243 67.97 65.2673 68.2741 65.1583 68.5576C65.0493 68.8409 64.89 69.0985 64.6888 69.3154C64.4873 69.5324 64.2476 69.7048 63.9845 69.8223C63.7214 69.9396 63.4391 70 63.1544 70H52.8091C52.2339 70 51.6816 69.7537 51.2748 69.3154C50.8682 68.8772 50.6393 68.2828 50.6393 67.6631V27.041C50.6393 26.4213 50.8681 25.8269 51.2748 25.3887C51.6816 24.9504 52.2339 24.7041 52.8091 24.7041H63.1544ZM54.9711 65.334H60.9856V29.3701H54.9711V65.334Z" fill="url(#paint3_linear_4036_12377)"/>
<path d="M32.8336 0C33.4042 0 33.9536 0.234686 34.3689 0.65625L49.6904 17.2305C49.9939 17.5563 50.2008 17.9722 50.2847 18.4248C50.3685 18.8772 50.3258 19.3463 50.1619 19.7725C49.9979 20.1987 49.7197 20.5635 49.3633 20.8193C49.0068 21.0752 48.5874 21.2111 48.1591 21.21H41.9226V37.2764C41.9208 37.8923 41.6926 38.4827 41.289 38.9189C40.8856 39.355 40.339 39.6024 39.7675 39.6064C39.1941 39.6064 38.6436 39.3607 38.2381 38.9238C37.8327 38.487 37.6045 37.8941 37.6045 37.2764V18.9102C37.6046 18.2918 37.8329 17.6987 38.2381 17.2607C38.6434 16.8228 39.1935 16.5752 39.7675 16.5732H42.9412L32.8376 5.64355L22.727 16.5732H25.9076C26.1921 16.5732 26.4739 16.6344 26.7367 16.752C26.9994 16.8695 27.2381 17.0417 27.439 17.2588C27.6398 17.4758 27.7993 17.7332 27.9075 18.0166C28.0157 18.3 28.0705 18.6038 28.0696 18.9102V31.834C28.0863 32.1515 28.0432 32.4699 27.9419 32.7686C27.8406 33.0671 27.6829 33.3402 27.4802 33.5713C27.2776 33.8023 27.0332 33.9865 26.7622 34.1123C26.4913 34.238 26.1996 34.3027 25.9047 34.3027C25.6096 34.3027 25.3172 34.2381 25.0462 34.1123C24.7752 33.9865 24.5308 33.8023 24.3281 33.5713C24.1255 33.3402 23.9678 33.0671 23.8665 32.7686C23.7652 32.4699 23.7221 32.1515 23.7388 31.834V21.2402H17.5023C17.074 21.2414 16.6545 21.1054 16.298 20.8496C15.9415 20.5937 15.6635 20.2291 15.4994 19.8027C15.3354 19.3764 15.2928 18.9067 15.3767 18.4541C15.4606 18.0018 15.6668 17.5864 15.97 17.2607L31.2993 0.65625C31.7145 0.23489 32.2632 7.47666e-05 32.8336 0Z" fill="url(#paint4_linear_4036_12377)"/>
<defs>
<linearGradient id="paint0_linear_4036_12377" x1="50.1636" y1="1.75043e-06" x2="7.89636" y2="67.2554" gradientUnits="userSpaceOnUse">
<stop stop-color="#CF3269"/>
<stop offset="1" stop-color="#FF9494"/>
</linearGradient>
<linearGradient id="paint1_linear_4036_12377" x1="50.1636" y1="1.75043e-06" x2="7.89636" y2="67.2554" gradientUnits="userSpaceOnUse">
<stop stop-color="#CF3269"/>
<stop offset="1" stop-color="#FF9494"/>
</linearGradient>
<linearGradient id="paint2_linear_4036_12377" x1="50.1636" y1="1.75043e-06" x2="7.89636" y2="67.2554" gradientUnits="userSpaceOnUse">
<stop stop-color="#CF3269"/>
<stop offset="1" stop-color="#FF9494"/>
</linearGradient>
<linearGradient id="paint3_linear_4036_12377" x1="50.1636" y1="1.75043e-06" x2="7.89636" y2="67.2554" gradientUnits="userSpaceOnUse">
<stop stop-color="#CF3269"/>
<stop offset="1" stop-color="#FF9494"/>
</linearGradient>
<linearGradient id="paint4_linear_4036_12377" x1="50.1636" y1="1.75043e-06" x2="7.89636" y2="67.2554" gradientUnits="userSpaceOnUse">
<stop stop-color="#CF3269"/>
<stop offset="1" stop-color="#FF9494"/>
</linearGradient>
</defs>
</svg>
