<svg width="66" height="70" viewBox="0 0 66 70" fill="none" xmlns="http://www.w3.org/2000/svg">
<path d="M64.6584 41.6982L56.0217 32.7383C55.6278 32.3858 55.1249 32.2067 54.6136 32.2369C54.1024 32.267 53.6206 32.5042 53.2648 32.9009C52.9089 33.2975 52.7053 33.8244 52.6948 34.3759C52.6842 34.9275 52.8674 35.463 53.2078 35.8751L58.2469 41.1251H44.2503C44.5752 34.6676 45.2939 25.1039 48.2621 25.1039H48.2905C48.829 25.1155 49.3496 24.8962 49.738 24.4942C50.1264 24.0921 50.3506 23.5403 50.3614 22.9602C50.3721 22.38 50.1686 21.819 49.7954 21.4006C49.4223 20.9821 48.9102 20.7405 48.3717 20.7289C41.542 20.5671 40.6568 31.5614 40.1817 41.1251H31.8536C31.8292 40.027 31.8211 39.1126 31.8171 38.4432C31.6831 17.0365 29.9127 5.71837 26.0755 1.75026C25.5661 1.18946 24.9568 0.745361 24.2842 0.444635C23.6115 0.14391 22.8894 -0.0072387 22.1612 0.00026639H22.0881C17.248 0.157766 15.234 7.59086 13.8453 17.5614C13.6774 18.7456 13.5191 19.9619 13.3702 21.2102C13.3702 21.2102 13.3702 21.2321 13.3702 21.2408C13.2511 22.2441 13.1333 23.265 13.0169 24.3033C12.8383 25.8783 12.6718 27.3658 12.5094 28.5602C12.152 31.1851 11.478 32.7558 10.808 33.6176C10.3331 34.1159 9.72807 34.4456 9.07418 34.5626C8.5786 34.5817 8.10662 34.7955 7.74729 35.1637C7.38797 35.5319 7.16614 36.0291 7.12368 36.5614C7.08122 37.0938 7.22105 37.6244 7.51679 38.0533C7.81253 38.4822 8.24374 38.7796 8.72904 38.8895H8.77776C8.91129 38.9192 9.04751 38.9324 9.18381 38.9289H9.24878C10.495 38.9366 11.7086 38.4997 12.7002 37.6864C14.6939 36.1114 15.9892 33.2545 16.5374 29.1858C16.7079 27.9389 16.8785 26.4252 17.0571 24.8108C17.1749 23.7783 17.2967 22.6846 17.4307 21.5602C17.5891 20.2477 17.7596 18.8958 17.9504 17.5439C18.2636 15.2184 18.685 12.9114 19.2133 10.6315C20.403 5.71837 21.6496 4.37525 22.2302 4.35775C22.4283 4.35578 22.6244 4.40059 22.8047 4.48902C22.9849 4.57745 23.1451 4.70736 23.2738 4.86962C26.8429 8.57086 27.6875 25.1739 27.7728 38.452C27.7728 39.2307 27.7728 40.1276 27.8053 41.1032H2.34593C1.80747 41.1032 1.29107 41.3337 0.910321 41.7439C0.529575 42.1542 0.315674 42.7106 0.315674 43.2907C0.315674 43.8709 0.529575 44.4273 0.910321 44.8375C1.29107 45.2477 1.80747 45.4782 2.34593 45.4782H27.9271C28.2885 54.1013 29.3726 65.4413 32.5479 68.7531C32.8919 69.14 33.3038 69.4495 33.7597 69.6635C34.2155 69.8775 34.7063 69.9919 35.2035 70H35.2928C39.9178 69.8688 42.5449 63.4025 43.8199 49.022C43.9133 47.937 43.9864 46.7513 44.0513 45.4957H58.2225L53.2118 50.7457C52.8252 51.1518 52.6042 51.7068 52.5973 52.2885C52.5905 52.8702 52.7984 53.431 53.1753 53.8476C53.5522 54.2641 54.0673 54.5023 54.6072 54.5097C55.1471 54.517 55.6676 54.293 56.0542 53.8869L64.6949 44.857C64.8908 44.653 65.0466 44.4086 65.153 44.1384C65.2593 43.8682 65.3142 43.5777 65.3142 43.2842C65.3142 42.9907 65.2593 42.7001 65.153 42.4299C65.0466 42.1597 64.8908 41.9154 64.6949 41.7114L64.6584 41.6982ZM39.7635 48.6107C38.4722 63.3281 35.9385 65.3188 35.3253 65.5856C34.9599 65.1788 33.7255 63.2757 32.7875 55.4663C32.3937 52.0626 32.1378 48.5363 31.9876 45.5001H39.9584C39.9137 46.6113 39.8487 47.6876 39.7635 48.6107Z" fill="url(#paint0_linear_10002_50)"/>
<defs>
<linearGradient id="paint0_linear_10002_50" x1="50.1477" y1="1.75043e-06" x2="7.88745" y2="67.2701" gradientUnits="userSpaceOnUse">
<stop stop-color="#CF3269"/>
<stop offset="1" stop-color="#FF9494"/>
</linearGradient>
</defs>
</svg>
