<svg width="71" height="71" viewBox="0 0 71 71" fill="none" xmlns="http://www.w3.org/2000/svg">
<path fill-rule="evenodd" clip-rule="evenodd" d="M33.7384 26.2883C34.9793 26.2923 36.1687 26.7877 37.0461 27.6654C37.9233 28.5429 38.418 29.7321 38.4221 30.9731V43.9867C38.42 45.2292 37.9261 46.4208 37.0484 47.3001C36.1708 48.1794 34.9805 48.6755 33.7384 48.6795H31.4898C30.2471 48.6774 29.0555 48.1821 28.1775 47.3024C27.2994 46.4226 26.8073 45.2298 26.8073 43.9867V30.9731C26.8094 29.7314 27.3032 28.5411 28.1809 27.6631C29.0587 26.7851 30.2485 26.2904 31.4898 26.2883H33.7384ZM31.4898 43.9867H33.7384V30.9731H31.4898V43.9867Z" fill="url(#paint0_linear_10002_52)"/>
<path fill-rule="evenodd" clip-rule="evenodd" d="M17.6539 30.9136C18.8954 30.9156 20.086 31.4102 20.9639 32.2884C21.8416 33.1665 22.3355 34.3566 22.3375 35.5984V43.9867C22.3354 45.2284 21.8416 46.4186 20.9639 47.2967C20.086 48.1748 18.8954 48.6695 17.6539 48.6715H15.4064C14.1643 48.6715 12.9724 48.1776 12.0941 47.299C11.216 46.4205 10.7228 45.2289 10.7227 43.9867V35.5984C10.7227 34.3561 11.2161 33.1647 12.0941 32.2861C12.9724 31.4075 14.1643 30.9136 15.4064 30.9136H17.6539ZM15.4064 35.5984V43.9935H17.6539V35.5984H15.4064Z" fill="url(#paint1_linear_10002_52)"/>
<path fill-rule="evenodd" clip-rule="evenodd" d="M49.8218 16.4166C51.0633 16.4186 52.2539 16.9132 53.1318 17.7914C54.0095 18.6695 54.5035 19.8596 54.5055 21.1014V43.9867C54.5054 45.229 54.0123 46.4205 53.1341 47.299C52.2558 48.1776 51.0639 48.6715 49.8218 48.6715H47.5743C46.3328 48.6695 45.1422 48.1748 44.2643 47.2967C43.3867 46.4186 42.8928 45.2283 42.8907 43.9867V21.1014C42.8946 19.8601 43.3892 18.6703 44.2666 17.7925C45.1441 16.9149 46.3335 16.4205 47.5743 16.4166H49.8218ZM47.5743 43.9935L49.8218 43.9867V21.1014H47.5743V43.9935Z" fill="url(#paint2_linear_10002_52)"/>
<path fill-rule="evenodd" clip-rule="evenodd" d="M20.5956 3.13765C27.8986 -0.177266 36.1166 -0.890347 43.8812 1.11665C51.646 3.12385 58.4902 7.73092 63.2735 14.1703C68.0566 20.6095 70.4907 28.493 70.1714 36.5088C69.852 44.5249 66.7982 52.1905 61.5178 58.2286L69.5435 66.2269C69.7702 66.4427 69.9514 66.7016 70.0765 66.9886C70.2015 67.2756 70.2683 67.5848 70.2721 67.8979C70.2758 68.2111 70.2165 68.5229 70.0982 68.8129C69.9799 69.1027 69.805 69.3661 69.5835 69.5872C69.3619 69.8084 69.0981 69.9831 68.8081 70.1007C68.5179 70.2184 68.2061 70.2767 67.8931 70.2723C67.5802 70.2678 67.2715 70.2001 66.9849 70.0744C66.6982 69.9486 66.4397 69.7666 66.2243 69.5392L58.2055 61.5112C51.8182 67.1304 43.6021 70.2278 35.096 70.222C27.0762 70.221 19.2983 67.4723 13.0571 62.4342C6.81603 57.3961 2.48754 50.3719 0.792714 42.5307C-0.901972 34.6898 0.138568 26.5047 3.7413 19.3377C7.3443 12.1705 13.2925 6.45267 20.5956 3.13765ZM41.0458 5.21127C35.1397 4.03553 29.0175 4.63805 23.4538 6.94291C17.8901 9.2478 13.1341 13.1511 9.7883 18.1597C6.4425 23.1682 4.65744 29.0575 4.65744 35.0814C4.66546 43.1549 7.87462 50.8961 13.581 56.6056C19.2874 62.315 27.0251 65.5273 35.096 65.5372C41.1179 65.5386 47.0055 63.753 52.0132 60.4075C57.0209 57.0619 60.9245 52.3056 63.23 46.7408C65.5354 41.176 66.1389 35.0524 64.9651 29.1442C63.7911 23.236 60.8927 17.8081 56.6351 13.5481C52.3775 9.28803 46.952 6.38704 41.0458 5.21127Z" fill="url(#paint3_linear_10002_52)"/>
<defs>
<linearGradient id="paint0_linear_10002_52" x1="53.8752" y1="1.75725e-06" x2="12.8832" y2="70.272" gradientUnits="userSpaceOnUse">
<stop stop-color="#CF3269"/>
<stop offset="1" stop-color="#FF9494"/>
</linearGradient>
<linearGradient id="paint1_linear_10002_52" x1="53.8752" y1="1.75725e-06" x2="12.8832" y2="70.272" gradientUnits="userSpaceOnUse">
<stop stop-color="#CF3269"/>
<stop offset="1" stop-color="#FF9494"/>
</linearGradient>
<linearGradient id="paint2_linear_10002_52" x1="53.8752" y1="1.75725e-06" x2="12.8832" y2="70.272" gradientUnits="userSpaceOnUse">
<stop stop-color="#CF3269"/>
<stop offset="1" stop-color="#FF9494"/>
</linearGradient>
<linearGradient id="paint3_linear_10002_52" x1="53.8752" y1="1.75725e-06" x2="12.8832" y2="70.272" gradientUnits="userSpaceOnUse">
<stop stop-color="#CF3269"/>
<stop offset="1" stop-color="#FF9494"/>
</linearGradient>
</defs>
</svg>
