<svg width="97" height="35" viewBox="0 0 97 35" fill="none" xmlns="http://www.w3.org/2000/svg">
<g clip-path="url(#clip0_10002_2)">
<mask id="mask0_10002_2" style="mask-type:luminance" maskUnits="userSpaceOnUse" x="0" y="0" width="97" height="35">
<path d="M96.4151 0H0V35H96.4151V0Z" fill="white"/>
</mask>
<g mask="url(#mask0_10002_2)">
<mask id="mask1_10002_2" style="mask-type:luminance" maskUnits="userSpaceOnUse" x="0" y="0" width="34" height="35">
<path d="M17.3997 34.1865C26.559 34.1865 33.984 26.7173 33.984 17.5035C33.984 8.28965 26.559 0.820389 17.3997 0.820389C8.24048 0.820389 0.81543 8.28965 0.81543 17.5035C0.81543 26.7173 8.24048 34.1865 17.3997 34.1865Z" fill="white"/>
</mask>
<g mask="url(#mask1_10002_2)">
<path d="M0 0H34.7928V35H0V0Z" fill="#E5E5E4"/>
</g>
<mask id="mask2_10002_2" style="mask-type:luminance" maskUnits="userSpaceOnUse" x="1" y="1" width="33" height="33">
<path d="M17.3997 33.8556C26.3772 33.8556 33.655 26.5346 33.655 17.5035C33.655 8.47244 26.3772 1.15131 17.3997 1.15131C8.42203 1.15131 1.14429 8.47244 1.14429 17.5035C1.14429 26.5346 8.42203 33.8556 17.3997 33.8556Z" fill="white"/>
</mask>
<g mask="url(#mask2_10002_2)">
<path d="M0.328857 0.330948H34.4706V34.676H0.328857V0.330948Z" fill="white"/>
</g>
<mask id="mask3_10002_2" style="mask-type:luminance" maskUnits="userSpaceOnUse" x="2" y="2" width="31" height="31">
<path d="M17.3997 32.5458C25.6582 32.5458 32.353 25.8111 32.353 17.5035C32.353 9.19582 25.6582 2.46114 17.3997 2.46114C9.14119 2.46114 2.44641 9.19582 2.44641 17.5035C2.44641 25.8111 9.14119 32.5458 17.3997 32.5458Z" fill="white"/>
</mask>
<g mask="url(#mask3_10002_2)">
<path d="M1.63098 1.64078H33.1685V33.3662H1.63098V1.64078Z" fill="#4A8CFF"/>
</g>
<mask id="mask4_10002_2" style="mask-type:luminance" maskUnits="userSpaceOnUse" x="7" y="12" width="20" height="11">
<path d="M21.9502 15.5525L26.1785 12.4434C26.5486 12.14 26.8296 12.209 26.8296 12.7674V22.2465C26.8296 22.8737 26.48 22.8048 26.1785 22.5704L21.9502 19.4613V15.5525ZM7.64111 12.795V19.8543C7.64798 21.4537 8.94318 22.7428 10.5331 22.7359H20.7783C21.0662 22.7359 21.2992 22.5015 21.306 22.212V15.1458C21.2992 13.5464 20.004 12.2573 18.414 12.2642H8.16882C7.88096 12.2711 7.64798 12.4986 7.64111 12.795Z" fill="white"/>
</mask>
<g mask="url(#mask4_10002_2)">
<path d="M6.83252 11.4507H27.6451V23.5494H6.83252V11.4507Z" fill="white"/>
</g>
<path d="M57.4662 10.9612C53.8684 10.9612 50.9626 13.8911 50.9626 17.4966C50.9626 21.1089 53.8684 24.0388 57.4593 24.0388C61.0503 24.0388 63.9628 21.1158 63.9628 17.5034C63.9628 13.8911 61.0572 10.9612 57.4662 10.9612ZM60.2142 20.2748C58.686 21.8052 56.2189 21.7983 54.6975 20.2679C53.183 18.7374 53.183 16.2556 54.6975 14.7252C56.2189 13.1879 58.686 13.1879 60.2142 14.7183L60.2211 14.7252C61.7493 16.2556 61.7425 18.7443 60.2142 20.2748Z" fill="#4A8CFF"/>
<path d="M49.6606 21.4605L49.0095 21.4261H43.1571L50.9627 13.574L50.9284 12.919C50.901 11.8643 50.058 11.0163 49.0095 10.9887L48.3585 10.9543H38.6067L38.641 11.6092C38.6889 12.6502 39.5181 13.4912 40.5598 13.5395L41.2108 13.574H47.0633L39.2577 21.4261L39.292 22.081C39.3262 23.1288 40.1691 23.9768 41.2108 24.0112L41.8618 24.0457H51.6137L51.5794 23.3908C51.4903 22.3085 50.7296 21.5225 49.6606 21.4605Z" fill="#4A8CFF"/>
<path d="M91.2792 10.9612C89.7848 10.9612 88.3663 11.6092 87.3797 12.7329C85.6528 10.7613 82.7333 10.3821 80.5679 11.8574C80.0674 11.2852 78.9295 10.9612 78.2791 10.9612V24.0457L78.9295 24.0112C80.0125 23.9423 80.8076 23.1702 80.8486 22.081L80.8829 21.4261V16.8485L80.9173 16.1936C80.9173 15.7386 81.0335 15.2905 81.2395 14.8838C81.9521 13.636 83.5416 13.2086 84.7891 13.9324C85.18 14.1599 85.5089 14.4908 85.7347 14.8838H85.7281C85.9408 15.2905 86.0504 15.7386 86.0504 16.1936L86.0847 16.8485V21.4261L86.1184 22.081C86.16 23.1288 86.9888 23.9698 88.0308 24.0112L88.682 24.0457V16.8485L88.7157 16.1936C88.7157 15.7318 88.8253 15.2836 89.0379 14.8769C89.7577 13.6291 91.3545 13.2017 92.5947 13.9324C92.9857 14.1599 93.3145 14.4908 93.5404 14.8838C93.7458 15.2905 93.856 15.7386 93.856 16.1936L93.8897 16.8485V21.4261L93.9241 22.081C93.9584 23.1288 94.7944 23.9698 95.8365 24.0112L96.487 24.0457V16.1936C96.4804 13.3051 94.1506 10.9612 91.2792 10.9612Z" fill="#4A8CFF"/>
<path d="M75.7161 12.8777C74.4957 11.6506 72.8441 10.9612 71.1172 10.9612C69.3904 10.9612 67.7387 11.6506 66.519 12.8777C63.9834 15.4353 63.9834 19.5785 66.5256 22.1292C69.0681 24.6799 73.1869 24.6799 75.7227 22.1223C78.2652 19.5716 78.2586 15.4284 75.7161 12.8777ZM73.8723 20.2748C72.3442 21.8052 69.8771 21.7983 68.3555 20.2679C66.8413 18.7374 66.8413 16.2556 68.3555 14.7252C69.8771 13.1879 72.3442 13.1879 73.8723 14.7183L73.8789 14.7252C75.4077 16.2556 75.4004 18.7443 73.8723 20.2748Z" fill="#4A8CFF"/>
</g>
</g>
<defs>
<clipPath id="clip0_10002_2">
<rect width="96.4151" height="35" fill="white"/>
</clipPath>
</defs>
</svg>
