<svg width="118" height="78" viewBox="0 0 118 78" fill="none" xmlns="http://www.w3.org/2000/svg">
<path fill-rule="evenodd" clip-rule="evenodd" d="M19.9762 1.9641V5.58941C19.9762 6.62492 20.8569 7.41847 21.8403 7.41847H25.4639C26.5171 7.41847 27.326 6.62492 27.326 5.58941V1.9641C27.326 0.92859 26.5171 0.065323 25.4639 0.065323H21.8403C20.8548 0.065323 19.9762 0.92859 19.9762 1.9641ZM8.08504 1.9641V5.58941C8.08504 6.62492 8.96374 7.41847 9.94919 7.41847H13.5707C14.626 7.41847 15.4349 6.62492 15.4349 5.58941V1.9641C15.4349 0.92859 14.626 0.065323 13.5707 0.065323H9.94919C8.96374 0.065323 8.08504 0.92859 8.08504 1.9641ZM19.9577 20.7509V36.7941H51.1082V12.0813H51.0404C46.996 12.0813 43.744 15.3253 43.744 19.3648V29.4471H39.215V12.0813H39.1452C35.1706 12.0813 31.9186 15.3253 31.8508 19.3648V29.4471H27.3219V11.907C24.694 12.0096 23.6901 12.0813 21.5467 12.391C17.3278 13.2542 13.8356 14.7039 10.7252 17.2937C7.23304 19.9861 4.39781 23.7508 2.70407 27.9277C1.45788 30.8969 1.15198 32.4942 0.630516 36.7941H8.4628C8.63731 34.4463 8.84466 33.0725 9.39692 31.5182C9.88144 30.0685 10.4686 28.5859 11.4027 27.3761C13.6159 24.0604 16.2561 21.5793 19.9577 20.7509ZM43.7563 43.2574V46.8827C43.7563 47.9182 44.6371 48.7117 45.6205 48.7117H49.2441C50.2993 48.7117 51.1082 47.9182 51.1082 46.8827V43.2574C51.1082 42.2219 50.2993 41.3586 49.2441 41.3586H45.6205C44.635 41.3586 43.7563 42.2219 43.7563 43.2574ZM31.8652 43.2574V46.8827C31.8652 47.9182 32.7439 48.7117 33.7294 48.7117H37.3509C38.4061 48.7117 39.215 47.9182 39.215 46.8827V43.2574C39.215 42.2219 38.4061 41.3586 37.3509 41.3586H33.7294C32.7439 41.3586 31.8652 42.2219 31.8652 43.2574ZM19.9536 43.2574V46.8827C19.9536 47.9182 20.8323 48.7117 21.8177 48.7117H25.4392C26.4945 48.7117 27.3034 47.9182 27.3034 46.8827V43.2574C27.3034 42.2219 26.4945 41.3586 25.4392 41.3586H21.8177C20.8323 41.3586 19.9536 42.2219 19.9536 43.2574ZM82.2608 25.1308C82.2608 25.1657 82.0206 25.5819 81.8112 25.8895C81.3287 26.6482 81.224 26.9619 81.224 26.9619C81.0166 23.2669 80.1174 21.6429 77.2494 18.4318H79.4605C80.4993 18.4318 81.571 18.5015 81.7085 18.5712C84.439 19.4693 83.507 22.783 82.2628 25.1329M116.836 17.8802C116.111 13.5639 114.382 9.62892 111.445 6.52034C107.328 2.17325 102.627 0.342142 95.0552 -0.00439453V29.4471H86.6173C86.7076 29.2011 86.8329 28.9673 86.9909 28.7582C89.4464 25.4712 90.4215 22.6169 90.4215 19.5042C90.4215 17.0518 89.4525 15.0833 87.8963 13.8755C86.0301 12.4607 84.3713 12.0096 80.3946 12.0096H74.3094C73.1679 12.0096 72.9955 13.082 72.9955 13.082L70.4025 20.47C70.4025 20.47 70.0576 21.1959 70.887 22.0591C73.8249 24.9914 74.5168 26.8922 74.9315 28.7233L75.069 29.4471H65.8386V12.0772H65.7688C61.7572 12.0772 58.4744 15.3581 58.4744 19.3627V36.5911C58.4744 39.3532 56.9532 41.0469 54.3253 41.254V48.642H54.4977C60.7205 48.4698 65.699 44.1493 65.9064 36.7941L75.3811 36.7921C75.5536 36.7921 81.224 37.4544 81.224 32.4491C81.224 37.4544 86.2724 36.7921 86.7569 36.7921H102.417V9.59406C102.417 9.59406 106.636 9.55921 108.952 16.1209C108.952 16.1209 109.712 18.1222 109.782 21.403V36.7941H117.146V24.0604C117.146 22.7133 117.008 19.6067 116.836 17.8802ZM6.03613 68.8088C5.28677 68.8088 2.46387 68.8088 2.46387 70.8204C2.46387 71.4519 2.85805 72.5367 4.51689 72.5367C5.46333 72.5367 6.17368 72.1614 6.6274 71.4704C7.04416 70.7999 7.06264 70.2483 7.10165 68.8683C6.767 68.8293 6.48984 68.8088 6.03613 68.8088ZM7.31927 73.6788C7.18171 73.1867 7.14271 72.7151 7.14271 72.2024C6.25375 73.8367 4.91107 73.9946 4.08165 73.9946C1.811 73.9946 0.587402 72.713 0.587402 71.0767C0.587402 70.2893 0.862507 69.0262 2.32426 68.1793C3.39183 67.5867 4.97061 67.5273 5.75897 67.5273C6.23322 67.5273 6.52885 67.5478 7.10165 67.5888C7.10165 66.3646 7.10165 65.8335 6.74647 65.3988C6.37077 64.9067 5.56188 64.7488 5.03014 64.7488C3.15368 64.7488 3.05514 66.0304 3.03461 66.4241H1.17867C1.24026 65.9115 1.29775 65.2225 1.87054 64.552C2.6199 63.7236 4.02211 63.4857 5.06915 63.4857C6.51038 63.4857 8.05014 63.9409 8.58393 64.9457C8.89804 65.5362 8.91857 66.0119 8.91857 66.463L8.84056 71.1956C8.84056 71.3535 8.86109 72.674 8.99864 73.6788H7.31927ZM16.447 59.4646H18.3029V73.6788H16.447V59.4646ZM30.7935 68.8088C30.0421 68.8088 27.2192 68.8088 27.2192 70.8204C27.2192 71.4519 27.6134 72.5367 29.2722 72.5367C30.2207 72.5367 30.9311 72.1614 31.3848 71.4704C31.7995 70.7999 31.82 70.2483 31.857 68.8683C31.5224 68.8293 31.2473 68.8088 30.7935 68.8088ZM32.0767 73.6788C31.9371 73.1867 31.8981 72.7151 31.8981 72.2024C31.0091 73.8367 29.6664 73.9946 28.8391 73.9946C26.5684 73.9946 25.3428 72.713 25.3428 71.0767C25.3428 70.2893 25.6199 69.0262 27.0817 68.1793C28.1472 67.5867 29.726 67.5273 30.5164 67.5273C30.9886 67.5273 31.2863 67.5478 31.8591 67.5888C31.8591 66.3646 31.8591 65.8335 31.5039 65.3988C31.1282 64.9067 30.3193 64.7488 29.7855 64.7488C27.9111 64.7488 27.8125 66.0304 27.792 66.4241H25.9361C25.9956 65.9115 26.0552 65.2225 26.6259 64.552C27.3773 63.7236 28.7795 63.4857 29.8245 63.4857C31.2657 63.4857 32.8055 63.9409 33.3393 64.9457C33.6554 65.5362 33.676 66.0119 33.676 66.463L33.5959 71.1956C33.5959 71.3535 33.6164 72.674 33.754 73.6788H32.0767ZM41.2352 65.7925C41.2352 65.1241 41.1941 64.433 41.1367 63.783H43.0111L43.0521 65.6941C43.4073 64.3141 44.5919 63.8609 45.4213 63.7441C45.9736 63.6641 46.3862 63.6825 46.7045 63.703V65.5178C46.6059 65.4767 46.4868 65.4562 46.3493 65.4378C46.2097 65.4173 46.0331 65.4173 45.8155 65.4173C43.6249 65.4173 43.1096 66.7194 43.1096 68.4151V73.6788H41.2373L41.2352 65.7925ZM57.9345 68.8088C57.1831 68.8088 54.3622 68.8088 54.3622 70.8204C54.3622 71.4519 54.7544 72.5367 56.4153 72.5367C57.3597 72.5367 58.0721 72.1614 58.5258 71.4704C58.9405 70.7999 58.961 70.2483 59 68.8683C58.6654 68.8293 58.3882 68.8088 57.9324 68.8088H57.9345ZM59.2176 73.6788C59.078 73.1867 59.039 72.7151 59.039 72.2024C58.1501 73.8367 56.8094 73.9946 55.98 73.9946C53.7094 73.9946 52.4837 72.713 52.4837 71.0767C52.4837 70.2893 52.7609 69.0262 54.2226 68.1793C55.2902 67.5867 56.8669 67.5273 57.6573 67.5273C58.1295 67.5273 58.4272 67.5478 59 67.5888C59 66.3646 59 65.8335 58.6448 65.3988C58.2691 64.9067 57.4603 64.7488 56.9265 64.7488C55.0521 64.7488 54.9535 66.0304 54.933 66.4241H53.077C53.1366 65.9115 53.1961 65.2225 53.7689 64.552C54.5183 63.7236 55.9205 63.4857 56.9655 63.4857C58.4088 63.4857 59.9485 63.9409 60.4803 64.9457C60.7964 65.5362 60.8169 66.0119 60.8169 66.463L60.7369 71.1956C60.7369 71.3535 60.7574 72.674 60.895 73.6788H59.2176ZM72.9811 64.7878C70.1377 64.7878 70.1377 68.0993 70.1377 68.7309C70.1377 69.3809 70.1377 72.4772 72.901 72.4772C75.1922 72.4772 75.765 70.2483 75.765 68.6325C75.765 67.6482 75.5679 64.7878 72.9811 64.7878ZM70.1767 65.2225C70.4333 64.7673 71.1642 63.5267 73.4143 63.5267C74.4018 63.5267 75.6459 63.7625 76.5554 64.7878C77.0482 65.3599 77.7195 66.3462 77.7195 68.5136C77.7195 70.4267 77.2637 71.4704 76.771 72.1225C75.9806 73.2461 74.6584 73.8162 73.2952 73.8162C72.823 73.8162 71.9341 73.7588 71.0862 73.1867C70.5319 72.8114 70.3142 72.4772 70.1171 72.1819L70.0781 73.6788H68.2817L68.3228 71.9051V59.4441H70.1767V65.2225ZM84.7285 63.783H86.5844V73.6788H84.7285V63.783ZM84.5314 59.4851H86.7631V61.5151H84.5314V59.4851ZM98.9991 73.7383L97.5763 77.4251H95.6609L97.1616 73.6398L93.035 63.783H95.1291L98.2292 71.5893L101.387 63.783H103.401L98.9991 73.7383ZM114.284 68.8088C113.532 68.8088 110.712 68.8088 110.712 70.8204C110.712 71.4519 111.106 72.5367 112.765 72.5367C113.711 72.5367 114.421 72.1614 114.877 71.4704C115.29 70.7999 115.31 70.2483 115.349 68.8683C115.015 68.8293 114.74 68.8088 114.284 68.8088ZM115.567 73.6788C115.429 73.1867 115.39 72.7151 115.39 72.2024C114.501 73.8367 113.159 73.9946 112.329 73.9946C110.059 73.9946 108.835 72.713 108.835 71.0767C108.835 70.2893 109.11 69.0262 110.572 68.1793C111.64 67.5867 113.218 67.5273 114.007 67.5273C114.481 67.5273 114.777 67.5478 115.349 67.5888C115.349 66.3646 115.349 65.8335 114.994 65.3988C114.618 64.9067 113.81 64.7488 113.278 64.7488C111.401 64.7488 111.303 66.0304 111.282 66.4241H109.426C109.486 65.9115 109.545 65.2225 110.118 64.552C110.868 63.7236 112.27 63.4857 113.317 63.4857C114.758 63.4857 116.298 63.9409 116.832 64.9457C117.146 65.5362 117.166 66.0119 117.166 66.463L117.088 71.1956C117.088 71.3535 117.109 72.674 117.246 73.6788H115.567Z" fill="#C5CBD5"/>
</svg>
