<svg width="148" height="57" viewBox="0 0 148 57" fill="none" xmlns="http://www.w3.org/2000/svg">
<path d="M0.246094 0.771973H115.528C123.987 0.771973 132.099 4.13439 138.08 10.1195C144.062 16.1047 147.422 24.2223 147.422 32.6866V56.6489H32.1405C23.6828 56.6489 15.5714 53.2875 9.59029 47.3039C3.60914 41.3203 0.248001 33.2046 0.246094 24.7415L0.246094 0.771973Z" fill="#C5CBD5"/>
<path d="M116.579 12.1748H110.058V39.2746H116.579V12.1748Z" fill="#F7F7F7"/>
<path d="M93.2409 18.9932C93.9724 18.997 94.6885 18.7835 95.2986 18.3797C95.9087 17.976 96.3853 17.4002 96.6681 16.7252C96.951 16.0502 97.0272 15.3064 96.8873 14.588C96.7474 13.8696 96.3975 13.209 95.8821 12.6897C95.3667 12.1703 94.7088 11.8158 93.9918 11.6709C93.2749 11.5259 92.531 11.5972 91.8546 11.8756C91.1781 12.154 90.5994 12.627 90.1918 13.2347C89.7841 13.8424 89.5659 14.5575 89.5647 15.2894C89.5647 16.2668 89.9514 17.2044 90.6403 17.8973C91.3292 18.5903 92.2642 18.9821 93.2409 18.9872" fill="#F7F7F7"/>
<path d="M83.3514 18.9936C84.083 18.9984 84.7996 18.7857 85.4103 18.3825C86.0211 17.9794 86.4984 17.4039 86.782 16.729C87.0655 16.0541 87.1425 15.3102 87.0031 14.5915C86.8637 13.8728 86.5143 13.2116 85.999 12.6919C85.4838 12.1721 84.8259 11.817 84.1088 11.6717C83.3917 11.5264 82.6477 11.5974 81.9709 11.8756C81.2942 12.1538 80.7152 12.6268 80.3073 13.2346C79.8995 13.8425 79.6811 14.5577 79.6799 15.2898C79.6799 16.2664 80.066 17.2033 80.7538 17.8961C81.4417 18.5889 82.3755 18.9813 83.3514 18.9876" fill="#F7F7F7"/>
<path d="M73.8382 18.9981C74.8137 18.9969 75.7489 18.608 76.438 17.9171C77.1271 17.2262 77.5139 16.2897 77.5133 15.3136C77.5126 14.3374 77.1246 13.4014 76.4346 12.7114C75.7446 12.0214 74.809 11.6338 73.8334 11.6338C72.8579 11.6338 71.9222 12.0214 71.2322 12.7114C70.5422 13.4014 70.1542 14.3374 70.1536 15.3136C70.1529 16.2897 70.5397 17.2262 71.2288 17.9171C71.918 18.608 72.8531 18.9969 73.8286 18.9981" fill="#F7F7F7"/>
<path d="M53.0421 18.9936C53.7737 18.9984 54.4903 18.7857 55.101 18.3825C55.7117 17.9794 56.1891 17.4039 56.4727 16.729C56.7562 16.0541 56.8332 15.3102 56.6938 14.5915C56.5544 13.8728 56.205 13.2116 55.6897 12.6919C55.1745 12.1721 54.5166 11.817 53.7995 11.6717C53.0824 11.5264 52.3384 11.5974 51.6616 11.8756C50.9849 12.1538 50.4059 12.6268 49.998 13.2346C49.5902 13.8425 49.3718 14.5577 49.3706 15.2898C49.3706 16.2664 49.7566 17.2033 50.4445 17.8961C51.1323 18.5889 52.0661 18.9813 53.0421 18.9876" fill="#F7F7F7"/>
<path d="M100.227 12.1699V34.0542H99.1883C98 34.0542 96.9101 33.6943 96.9101 31.9702V20.6657H90.3957V31.9138C90.3957 33.6871 89.7746 34.203 88.7386 34.203C87.7027 34.203 87.0804 33.6859 87.0804 31.9234V20.6657H80.5648V31.9138C80.5648 33.6871 79.9437 34.203 78.9077 34.203C77.8718 34.203 77.2507 33.6847 77.2507 31.9138V20.6657H70.7303V31.975C70.7303 33.6967 69.6512 34.059 68.4521 34.059H67.4138V20.6657H60.8946V34.5833C60.8946 39.5877 60.0684 40.3652 58.0013 40.3652H56.9114V45.5795H57.9989C64.2123 45.5795 66.4293 43.2567 67.126 39.2493C69.0872 39.2951 70.9981 38.6256 72.5025 37.3657C73.286 38.0945 74.2109 38.6543 75.2198 39.0103C76.2286 39.3663 77.2999 39.511 78.367 39.4353C79.4391 39.5071 80.5129 39.3228 81.4998 38.8977C82.4867 38.4725 83.3585 37.8187 84.0432 36.9901C84.7365 37.8173 85.6146 38.4697 86.6065 38.8945C87.5984 39.3193 88.6763 39.5045 89.753 39.4353C90.7507 39.5181 91.7545 39.3864 92.6971 39.0491C93.6397 38.7118 94.4993 38.1767 95.2182 37.4796C96.9715 38.8091 99.1509 39.4494 101.344 39.2793H106.721V12.1699H100.227Z" fill="#F7F7F7"/>
<path d="M44.0327 18.9932C44.7641 18.997 45.4802 18.7835 46.0903 18.3797C46.7004 17.976 47.1771 17.4002 47.4599 16.7252C47.7427 16.0502 47.819 15.3064 47.6791 14.588C47.5391 13.8696 47.1893 13.209 46.6738 12.6897C46.1584 12.1703 45.5005 11.8158 44.7836 11.6709C44.0666 11.5259 43.3228 11.5972 42.6463 11.8756C41.9698 12.154 41.3911 12.627 40.9835 13.2347C40.5759 13.8424 40.3576 14.5575 40.3564 15.2894C40.3564 16.2668 40.7431 17.2044 41.432 17.8973C42.1209 18.5903 43.0559 18.9821 44.0327 18.9872" fill="#F7F7F7"/>
<path d="M48.9991 20.666C43.3037 20.666 38.9584 23.2192 38.9584 29.6321C38.9584 35.2556 42.4787 37.9455 48.5842 38.1243H49.1562C48.179 39.9396 46.2677 40.3499 43.6718 40.3499C38.6994 40.3499 35.6982 38.735 35.6982 32.4816V27.4425H29.1814V33.7006C29.1814 41.7764 34.5099 45.5786 43.6166 45.5786C50.7581 45.5786 56.4463 42.9175 56.4463 33.0167V20.666H48.9991ZM45.4787 29.4245C45.4787 27.2853 46.5171 25.8251 48.8996 25.8251H49.9307V33.0155H48.8936C46.5111 33.0155 45.4727 31.9765 45.4727 29.4161" fill="#F7F7F7"/>
<path d="M93.8716 44.0918H92.4292V50.0308H93.8716V44.0918Z" fill="#F7F7F7"/>
<path d="M93.8717 44.0918H92.1511C91.271 44.0918 89.7854 44.3654 89.7854 46.1998C89.7854 47.4836 90.548 48.1555 92.054 48.1903H92.4497V50.0236H93.9089V44.0918H93.8717ZM92.3609 47.0913H92.1103C91.4892 47.0913 91.2111 46.8033 91.2111 46.1471C91.1951 46.0231 91.2071 45.8971 91.246 45.7784C91.2849 45.6596 91.3498 45.5511 91.4359 45.4606C91.5221 45.3701 91.6273 45.3 91.744 45.2554C91.8607 45.2108 91.9858 45.1929 92.1103 45.2028H92.4329V47.0913H92.3609Z" fill="#F7F7F7"/>
<path d="M85.9664 47.5808V45.5412C85.9819 45.3112 85.9343 45.0815 85.8286 44.8767C85.7229 44.672 85.5632 44.5001 85.3669 44.3798C85.2052 44.2803 85.0262 44.2123 84.8393 44.1794C84.5846 44.1327 84.3259 44.1122 84.0671 44.1182C83.7892 44.1142 83.5123 44.1522 83.2458 44.231C83.0355 44.2946 82.8397 44.3985 82.669 44.5369C82.5215 44.6574 82.4031 44.8095 82.3225 44.982C82.2531 45.1365 82.2124 45.3024 82.2026 45.4716H83.5012C83.5271 45.3473 83.5864 45.2324 83.6726 45.1392C83.7292 45.0848 83.7964 45.0428 83.8702 45.0159C83.9439 44.9891 84.0224 44.9779 84.1007 44.9832C84.1658 44.9727 84.2324 44.9771 84.2956 44.996C84.3588 45.015 84.4168 45.0481 84.4653 45.0929C84.5138 45.1376 84.5515 45.1928 84.5756 45.2542C84.5997 45.3157 84.6095 45.3818 84.6043 45.4476C84.6056 45.5206 84.5843 45.5923 84.5431 45.6527C84.4849 45.7165 84.4108 45.7637 84.3285 45.7895C84.2128 45.8362 84.0921 45.8693 83.9688 45.8879C83.7912 45.9221 83.6119 45.9465 83.4316 45.9611C83.2432 45.9794 83.0566 46.014 82.8741 46.0643C82.7139 46.1075 82.562 46.1768 82.4244 46.2694C82.2989 46.3598 82.1966 46.4786 82.1259 46.6162C82.0443 46.7815 82.0055 46.9647 82.0132 47.1489C82.0101 47.3173 82.0436 47.4843 82.1115 47.6384C82.1717 47.7764 82.2618 47.8994 82.3753 47.9983C82.4953 48.0954 82.6329 48.1683 82.7805 48.2131C82.9493 48.2678 83.1259 48.2941 83.3033 48.2911C83.5377 48.2942 83.7704 48.251 83.988 48.1639C84.1834 48.0779 84.3522 47.9412 84.4772 47.768V47.7152H84.5755V47.7764C84.5872 47.864 84.6052 47.9506 84.6294 48.0355C84.6371 48.0816 84.6556 48.1252 84.6834 48.1627H86.0179C85.9764 48.1088 85.9481 48.046 85.9352 47.9791C85.9329 47.8434 85.9425 47.7077 85.964 47.5736L85.9664 47.5808ZM84.6474 46.7541C84.6572 46.864 84.6406 46.9746 84.5989 47.0767C84.5571 47.1788 84.4916 47.2694 84.4076 47.3408C84.2598 47.4565 84.0773 47.5186 83.8896 47.5172C83.76 47.5189 83.6325 47.4831 83.5227 47.414C83.4647 47.3745 83.418 47.3205 83.3871 47.2574C83.3562 47.1943 83.3422 47.1242 83.3465 47.0541C83.3439 46.9902 83.3551 46.9266 83.3796 46.8675C83.404 46.8085 83.441 46.7555 83.488 46.7122C83.6341 46.6115 83.8015 46.5462 83.9772 46.5214L84.3045 46.4338C84.3866 46.4066 84.4668 46.3737 84.5443 46.3354L84.6522 46.2814L84.6474 46.7541Z" fill="#F7F7F7"/>
<path d="M76.1152 45.936C75.9545 45.8418 75.7795 45.7742 75.5973 45.7356L75.0397 45.6325L74.7124 45.5833C74.6198 45.5701 74.5284 45.5497 74.439 45.5221C74.364 45.5003 74.2943 45.4636 74.2339 45.4141C74.2052 45.3905 74.1823 45.3606 74.1672 45.3266C74.152 45.2927 74.1449 45.2557 74.1464 45.2185C74.1438 45.1588 74.158 45.0996 74.1875 45.0476C74.217 44.9956 74.2605 44.9529 74.3131 44.9246C74.4224 44.8763 74.5407 44.8513 74.6602 44.8513C74.7797 44.8513 74.898 44.8763 75.0073 44.9246C75.0627 44.9534 75.1103 44.9951 75.146 45.0463C75.1817 45.0975 75.2045 45.1566 75.2124 45.2185H76.4953C76.4783 45.058 76.4255 44.9033 76.3409 44.7658C76.2562 44.6283 76.1418 44.5116 76.0061 44.4243C75.5893 44.1854 75.1113 44.0749 74.632 44.1063C74.3997 44.1058 74.1682 44.1336 73.9426 44.1891C73.7412 44.2359 73.5493 44.317 73.3754 44.4291C73.2219 44.5271 73.093 44.6593 72.9989 44.8154C72.906 44.9721 72.8587 45.1516 72.8622 45.3337C72.8521 45.5347 72.8934 45.735 72.9822 45.9156C73.0614 46.0582 73.1717 46.1812 73.3047 46.2755C73.4443 46.3643 73.598 46.4288 73.7591 46.4663C73.9203 46.509 74.0836 46.5434 74.2483 46.5695L74.6296 46.6307C74.7387 46.6478 74.8464 46.6722 74.9522 46.7039C75.0405 46.733 75.122 46.7795 75.192 46.8407C75.2277 46.8724 75.2559 46.9117 75.2745 46.9557C75.2932 46.9997 75.3018 47.0473 75.2999 47.095C75.3034 47.1614 75.288 47.2274 75.2555 47.2853C75.2231 47.3433 75.1748 47.3909 75.1164 47.4226C74.9935 47.4883 74.8553 47.5202 74.716 47.5149C74.5391 47.526 74.3646 47.4703 74.2268 47.359C74.1197 47.2607 74.0519 47.1268 74.0361 46.9822H72.7375C72.7429 47.1617 72.7897 47.3374 72.8742 47.4957C72.9718 47.6683 73.1091 47.8152 73.2747 47.9241C73.4639 48.0503 73.6743 48.1413 73.8958 48.1928C74.1614 48.2577 74.4342 48.2888 74.7076 48.2852C74.9664 48.2937 75.2254 48.2731 75.4797 48.224C75.6977 48.181 75.9063 48.0997 76.0961 47.9841C76.2598 47.8806 76.397 47.74 76.4965 47.5737C76.5985 47.3937 76.6491 47.1891 76.6428 46.9822C76.6545 46.7586 76.6021 46.5363 76.4917 46.3415C76.4015 46.1785 76.2726 46.0401 76.1164 45.9384L76.1152 45.936Z" fill="#F7F7F7"/>
<path d="M116.427 46.3223C116.334 46.1653 116.205 46.0328 116.05 45.936C115.889 45.8426 115.714 45.775 115.532 45.7356L114.96 45.6325L114.633 45.5833C114.539 45.5696 114.446 45.5491 114.355 45.5221C114.281 45.5004 114.213 45.4637 114.155 45.4141C114.126 45.3905 114.103 45.3606 114.088 45.3266C114.073 45.2927 114.065 45.2557 114.067 45.2185C114.064 45.1588 114.079 45.0996 114.108 45.0476C114.138 44.9956 114.181 44.9529 114.234 44.9246C114.343 44.8763 114.461 44.8513 114.581 44.8513C114.7 44.8513 114.819 44.8763 114.928 44.9246C114.983 44.9534 115.031 44.9951 115.067 45.0463C115.102 45.0975 115.125 45.1566 115.133 45.2185H116.416C116.399 45.058 116.346 44.9033 116.261 44.7658C116.177 44.6283 116.062 44.5116 115.927 44.4243C115.51 44.1854 115.032 44.0749 114.553 44.1063C114.32 44.1058 114.089 44.1336 113.863 44.1891C113.662 44.2359 113.47 44.3171 113.296 44.4291C113.141 44.527 113.011 44.6592 112.915 44.8154C112.823 44.9727 112.776 45.1518 112.778 45.3337C112.77 45.5354 112.814 45.7357 112.905 45.9156C112.983 46.0593 113.093 46.1826 113.228 46.2755C113.366 46.3664 113.52 46.4311 113.682 46.4663C113.843 46.509 114.007 46.5434 114.171 46.5695L114.548 46.6307C114.659 46.6473 114.768 46.6717 114.875 46.7039C114.963 46.733 115.045 46.7795 115.115 46.8407C115.15 46.873 115.178 46.9124 115.196 46.9563C115.215 47.0001 115.224 47.0474 115.223 47.095C115.226 47.1614 115.211 47.2274 115.179 47.2853C115.146 47.3433 115.098 47.3909 115.039 47.4226C114.915 47.4888 114.775 47.5207 114.634 47.5149C114.457 47.5249 114.283 47.4694 114.145 47.359C114.04 47.26 113.975 47.126 113.961 46.9822H112.682C112.687 47.1617 112.734 47.3374 112.819 47.4957C112.916 47.6683 113.054 47.8152 113.219 47.9241C113.409 48.0502 113.619 48.1412 113.84 48.1928C114.106 48.2577 114.379 48.2887 114.652 48.2852C114.908 48.2874 115.164 48.2613 115.415 48.2072C115.632 48.1628 115.841 48.0817 116.031 47.9673C116.195 47.8637 116.332 47.7232 116.432 47.5569C116.533 47.3769 116.584 47.1723 116.578 46.9654C116.587 46.742 116.535 46.5204 116.427 46.3247V46.3223Z" fill="#F7F7F7"/>
<path d="M86.74 48.2202H88.2064V46.0689C88.2064 45.8716 88.2847 45.6824 88.4242 45.5429C88.5636 45.4034 88.7526 45.325 88.9498 45.325H89.2556V44.3076H88.4618C88.0059 44.3089 87.5689 44.4907 87.2465 44.8133C86.9241 45.1359 86.7425 45.5731 86.7412 46.0293L86.74 48.2202Z" fill="#F7F7F7"/>
<path d="M79.3129 44.0916C79.1801 44.0927 79.0476 44.106 78.9172 44.1312H78.8345V42.106H77.3069V48.2249H78.8417V45.6766C78.8384 45.6103 78.8486 45.5441 78.8717 45.4819C78.8947 45.4197 78.9302 45.3629 78.9759 45.3149C79.0216 45.2668 79.0766 45.2286 79.1375 45.2024C79.1984 45.1763 79.264 45.1628 79.3303 45.1628C79.3965 45.1628 79.4621 45.1763 79.5231 45.2024C79.584 45.2286 79.6389 45.2668 79.6846 45.3149C79.7303 45.3629 79.7658 45.4197 79.7889 45.4819C79.8119 45.5441 79.8222 45.6103 79.8189 45.6766V48.2177H81.3536V46.1061C81.3537 45.8393 81.3008 45.5752 81.1981 45.329C81.0954 45.0828 80.9448 44.8594 80.7553 44.6718C80.5657 44.4842 80.3408 44.3362 80.0936 44.2362C79.8464 44.1361 79.5819 44.0862 79.3153 44.0892L79.3129 44.0916Z" fill="#F7F7F7"/>
<path d="M67.8887 44.2141V48.2838H69.3275V46.1242H70.5493V48.2838H72.0158V42.1553H70.27C69.3851 42.1553 67.9127 42.4192 67.8887 44.2141ZM70.5529 45.0996H69.3311V44.0438C69.3346 43.9329 69.3609 43.824 69.4084 43.7238C69.4558 43.6236 69.5234 43.5342 69.6069 43.4613C69.6903 43.3883 69.7879 43.3334 69.8935 43.2998C69.9992 43.2663 70.1106 43.2549 70.2208 43.2663H70.5433L70.5529 45.0996Z" fill="#F7F7F7"/>
<path d="M104.157 44.572C103.969 44.4021 103.752 44.2679 103.517 44.176C103.248 44.0781 102.963 44.0302 102.677 44.0344C102.381 44.0317 102.088 44.0868 101.813 44.1964C101.561 44.2965 101.332 44.4481 101.141 44.6415C100.952 44.8341 100.802 45.0625 100.701 45.3134C100.493 45.8617 100.493 46.4676 100.701 47.0159C100.8 47.2689 100.952 47.4979 101.146 47.6878C101.345 47.881 101.581 48.0309 101.84 48.1282C102.128 48.2354 102.433 48.2883 102.74 48.2841C102.975 48.2878 103.21 48.2616 103.439 48.2061C103.649 48.1566 103.847 48.0687 104.025 47.947C104.211 47.8284 104.377 47.6796 104.514 47.5067C104.619 47.379 104.7 47.234 104.754 47.0783H103.405C103.34 47.1802 103.248 47.2624 103.139 47.3163C103.031 47.3701 102.91 47.3936 102.789 47.3843C102.679 47.3892 102.569 47.3719 102.466 47.3333C102.363 47.2948 102.269 47.2358 102.189 47.1599C102.039 46.9915 101.941 46.7831 101.906 46.56V46.476H104.874C104.881 46.1194 104.829 45.7641 104.718 45.425C104.61 45.0994 104.42 44.8067 104.168 44.5744L104.157 44.572ZM101.879 45.8053V45.7178C101.915 45.5071 102.006 45.3098 102.143 45.1455C102.213 45.0704 102.298 45.0115 102.393 44.9728C102.488 44.934 102.59 44.9164 102.693 44.9211C102.789 44.9187 102.885 44.9371 102.973 44.975C103.062 45.0129 103.141 45.0694 103.206 45.1407C103.346 45.3053 103.432 45.508 103.456 45.7226V45.8053H101.879Z" fill="#F7F7F7"/>
<path d="M109.598 46.6868V44.1553H108.05V46.6868C108.044 46.8123 107.99 46.9306 107.899 47.0172C107.808 47.1038 107.687 47.1521 107.562 47.1521C107.436 47.1521 107.316 47.1038 107.225 47.0172C107.134 46.9306 107.079 46.8123 107.073 46.6868V44.1553H105.546V46.2633C105.544 46.6386 105.648 47.0068 105.845 47.3259C106.043 47.6449 106.326 47.902 106.662 48.0678C106.999 48.2336 107.375 48.3013 107.748 48.2634C108.121 48.2254 108.476 48.0832 108.772 47.853L108.817 47.8243L108.861 47.853C109.206 48.1211 109.631 48.2655 110.068 48.2634C110.6 48.2621 111.109 48.0504 111.485 47.6744C111.86 47.2985 112.072 46.789 112.073 46.2573V44.1553H110.546V46.6868C110.539 46.8123 110.485 46.9306 110.394 47.0172C110.303 47.1038 110.183 47.1521 110.057 47.1521C109.931 47.1521 109.811 47.1038 109.72 47.0172C109.629 46.9306 109.575 46.8123 109.568 46.6868H109.598Z" fill="#F7F7F7"/>
<path d="M99.8261 42.2334V48.1724H98.3872V42.2334H99.8261Z" fill="#F7F7F7"/>
<path d="M95.7194 48.1714H97.1583V45.4467L98.3801 48.1714H99.8189L97.1547 42.2324H95.7158L95.7194 48.1714Z" fill="#F7F7F7"/>
</svg>
