<svg width="199" height="49" viewBox="0 0 199 49" fill="none" xmlns="http://www.w3.org/2000/svg">
<path d="M195.394 0.763184H80.2877C78.5316 0.763184 77.0947 2.20002 77.0947 3.95615V45.4647C77.0947 47.2208 78.5316 48.6577 80.2877 48.6577H195.394C197.15 48.6577 198.587 47.2208 198.587 45.4647V3.95615C198.587 2.20002 197.15 0.763184 195.394 0.763184Z" fill="#C5CBD5"/>
<path fill-rule="evenodd" clip-rule="evenodd" d="M30.8366 33.9296C30.8366 36.1248 29.9586 37.402 25.648 37.402C25.0893 37.402 24.5704 37.3621 24.0914 37.2822V8.06658C24.0914 5.8315 24.8498 3.5166 29.2002 3.5166C29.759 3.5166 30.3178 3.55651 30.8366 3.67625V33.9296ZM48.4378 45.2247C48.9966 45.5041 50.1541 45.8633 51.6308 45.9032C54.1452 45.9431 55.5023 44.9853 56.5 42.7502L69.9106 12.8959C69.3517 12.6165 68.1145 12.2574 67.1167 12.2574C65.4004 12.2174 63.0856 12.5766 61.6088 16.0889L57.2584 26.3064L48.7571 12.4569C48.1984 12.2973 46.8413 12.0578 45.8834 12.0578C42.8502 12.0578 41.1738 13.1753 39.4576 15.0511L31.1559 24.0713L37.8212 34.5283C39.0585 36.444 40.6549 37.402 43.2892 37.402C45.0054 37.402 46.4422 37.0028 47.1207 36.6835L39.0984 24.67L44.7659 18.6432L54.1053 33.251L48.4378 45.2247ZM13.7942 37.2024C19.2621 36.6037 21.9362 33.6103 21.9362 29.4993C21.9362 25.9471 19.741 23.0735 14.7121 22.2353L9.76303 21.3174C8.16655 21.038 7.16874 20.6787 7.16874 19.7608C7.16874 18.8828 8.20646 18.2042 10.7209 18.2042C12.1616 18.2042 13.4844 18.2829 14.6141 18.35C15.4562 18.4 16.191 18.4437 16.7875 18.4437C18.6235 18.4437 20.4993 17.6854 20.4993 14.0933C20.4993 13.6144 20.4195 13.1354 20.3397 12.6964C17.6257 12.3372 12.6766 11.8582 8.64548 12.2973C3.29727 12.856 0.583252 16.0889 0.583252 19.9204C0.583252 23.0735 2.89815 26.067 7.20866 26.8652L12.3972 27.8629C14.313 28.2621 15.2709 28.6612 15.2709 29.699C15.2709 30.4573 14.5125 31.2954 12.0779 31.2954C10.9115 31.2954 9.53847 31.2085 8.22557 31.1252C7.0228 31.0491 5.87046 30.9761 4.97358 30.9761C3.13762 30.9761 1.22185 31.7744 1.22185 35.3665C1.22185 35.8055 1.30167 36.3642 1.38149 36.8032C4.09552 37.1226 9.84285 37.6414 13.7942 37.2024Z" fill="#C5CBD5"/>
<path d="M107.149 22.8742V35.0474C107.149 35.9254 106.63 36.524 105.073 36.524C104.435 36.524 103.676 36.4442 103.277 36.3245V23.393C103.277 18.883 101.082 16.7277 97.7293 16.7277C95.1351 16.7277 92.3412 18.5238 91.1838 20.6391V35.0873C91.1838 35.9653 90.6649 36.5641 89.1084 36.5641C88.4697 36.5641 87.7114 36.4841 87.3123 36.3644V13.6944C87.6715 13.6146 88.4298 13.4948 89.1084 13.4948C90.6649 13.4948 91.1838 14.0536 91.1838 14.9716V16.8874C92.8202 14.8519 95.3346 13.2554 98.6473 13.2554C103.277 13.2554 107.149 16.1689 107.149 22.8742Z" fill="#F7F7F7"/>
<path fill-rule="evenodd" clip-rule="evenodd" d="M115.689 26.3864H133.171C133.291 25.5881 133.331 24.7899 133.251 24.1115C133.251 18.6435 129.819 13.2554 122.874 13.2554C116.728 13.2554 111.698 18.1246 111.698 24.9097C111.698 31.9741 116.448 36.7237 123.512 36.7237C126.786 36.7237 129.858 35.7258 131.893 34.8478C132.094 32.7723 131.375 31.8943 130.297 31.8943C129.971 31.8943 129.646 32.0007 128.994 32.2136C128.848 32.2614 128.685 32.3147 128.501 32.3732C127.104 32.8521 125.588 33.2114 123.672 33.2114C119.202 33.2114 116.208 30.7767 115.689 26.3864ZM129.579 23.393H115.689C116.288 18.9229 119.441 16.5281 122.953 16.5281C126.944 16.5281 129.419 19.5215 129.579 23.393Z" fill="#F7F7F7"/>
<path d="M168.772 14.0538L162.786 34.848C162.427 36.1651 161.429 36.4843 159.992 36.4843C159.194 36.4843 158.396 36.3247 157.717 36.1651L152.009 17.8853L146.661 34.848C146.222 36.1651 145.185 36.4843 143.947 36.4843C143.149 36.4843 142.271 36.3247 141.592 36.1651L135.206 14.0538C135.765 13.7744 136.803 13.4951 137.641 13.4951C138.719 13.4951 139.278 13.8143 139.557 14.8521L144.067 32.2138H144.107L149.694 14.0538C150.333 13.6946 151.211 13.4951 152.09 13.4951C153.566 13.4951 154.364 13.8143 154.763 15.1714L159.953 32.1739H159.992L164.382 14.8122C164.661 13.7744 165.22 13.4551 166.298 13.4551C167.255 13.4951 168.213 13.7744 168.772 14.0538Z" fill="#F7F7F7"/>
<path d="M171.327 35.1671C171.048 33.2114 171.647 32.1737 172.804 32.1737C173.881 32.1737 176.516 33.3312 180.187 33.3312C184.059 33.3312 185.496 31.9741 185.496 30.1781C185.496 28.9009 184.937 27.7834 181.465 26.8254L177.473 25.7479C173.043 24.5904 171.327 22.3553 171.327 19.6413C171.327 16.2487 174.001 13.2554 180.068 13.2554C182.782 13.2554 186.174 13.854 188.25 14.6522C188.609 16.5681 188.011 17.6058 186.853 17.6058C185.816 17.6058 183.461 16.608 180.148 16.608C176.556 16.608 175.238 17.8452 175.238 19.4417C175.238 20.5593 175.758 21.5969 178.95 22.515L183.022 23.6325C187.572 24.9097 189.407 27.025 189.407 30.0184C189.407 33.5307 186.693 36.6838 180.108 36.6838C177.154 36.7237 173.522 36.0052 171.327 35.1671Z" fill="#F7F7F7"/>
</svg>
